<svg width="24" height="24" viewBox="0 0 24 24" fill="none" xmlns="http://www.w3.org/2000/svg">
<path fill-rule="evenodd" clip-rule="evenodd" d="M11.9929 3.71691C9.65298 1.67202 6.19252 1.25356 3.50521 3.54965C0.598423 6.03328 0.176093 10.2161 2.47471 13.1739C3.26977 14.197 4.74915 15.6827 6.23203 17.0968C7.73154 18.5268 9.2902 19.9356 10.2823 20.8209L10.3043 20.8405C10.4669 20.9857 10.6294 21.1308 10.7793 21.2444C10.9478 21.3722 11.1547 21.5037 11.4186 21.5828C11.7907 21.6945 12.1958 21.6945 12.5679 21.5828C12.8318 21.5037 13.0387 21.3722 13.2072 21.2444C13.3571 21.1308 13.5196 20.9857 13.6822 20.8406L13.7042 20.8209C14.6963 19.9356 16.255 18.5268 17.7545 17.0968C19.2374 15.6827 20.7168 14.197 21.5118 13.1739C23.8016 10.2275 23.4445 6.01238 20.4709 3.54088C17.7537 1.28246 14.3301 1.67124 11.9929 3.71691ZM11.2333 5.78575C9.52828 3.79238 6.818 3.34975 4.80441 5.07021C2.7011 6.86733 2.41807 9.84171 4.05392 11.9467C4.74475 12.8357 6.11892 14.2253 7.61229 15.6494C9.08904 17.0577 10.6293 18.4501 11.6139 19.3287C11.8074 19.5013 11.9095 19.5914 11.9877 19.6507C11.9896 19.6522 11.9915 19.6536 11.9933 19.6549C11.9951 19.6536 11.9969 19.6522 11.9988 19.6507C12.0771 19.5914 12.1791 19.5013 12.3726 19.3287C13.3572 18.4501 14.8975 17.0577 16.3742 15.6494C17.8676 14.2253 19.2418 12.8357 19.9326 11.9467C21.5773 9.83034 21.3152 6.84319 19.1925 5.07898C17.1256 3.36105 14.4507 3.80119 12.7532 5.78575C12.5632 6.00786 12.2856 6.13573 11.9933 6.13573C11.701 6.13573 11.4233 6.00786 11.2333 5.78575ZM11.071 7.50243C11.4745 7.53111 11.8209 7.79998 11.9488 8.18369L13.1854 11.8934L13.6057 11.0527C13.7751 10.7139 14.1213 10.4999 14.5001 10.4999H15.5001C16.0524 10.4999 16.5001 10.9476 16.5001 11.4999C16.5001 12.0522 16.0524 12.4999 15.5001 12.4999H15.1182L13.8945 14.9471C13.7137 15.3089 13.3327 15.5261 12.9292 15.4974C12.5258 15.4687 12.1793 15.1999 12.0514 14.8161L10.8149 11.1065L10.3945 11.9471C10.2252 12.2859 9.87889 12.4999 9.50012 12.4999H8.50012C7.94783 12.4999 7.50012 12.0522 7.50012 11.4999C7.50012 10.9476 7.94783 10.4999 8.50012 10.4999H8.88208L10.1057 8.05271C10.2866 7.69094 10.6676 7.47376 11.071 7.50243Z" fill="white"/>
</svg>
