<svg width="24" height="24" viewBox="0 0 24 24" fill="none" xmlns="http://www.w3.org/2000/svg">
<path fill-rule="evenodd" clip-rule="evenodd" d="M18.5285 2.00024C20.025 2.01428 21.1555 3.13021 21.8553 4.42982C22.5815 5.77841 23 7.57282 23 9.50011C23 11.4274 22.5815 13.2218 21.8553 14.5704C21.1541 15.8727 20.0203 16.9906 18.5191 17.0001C16.1191 17.0435 13.45 16.0982 11.093 15.6697L11.3671 19.2341C11.467 20.5309 11.0998 21.852 9.55901 21.9817C8.49015 22.0716 7.36018 22.069 6.29451 21.9846C5.02179 21.8838 4.48238 20.7907 4.3986 19.6157L4.02335 14.3622C3.73274 14.2891 3.47427 14.2034 3.23641 14.0866C2.21927 13.5869 1.46179 12.6793 1.15217 11.5892C0.817751 10.4118 0.815995 8.59448 1.15217 7.41089C1.46179 6.32078 2.21927 5.41316 3.23641 4.91353C3.7392 4.66655 4.33409 4.55874 5.12997 4.4145C9.53109 3.61432 16.9999 2.00015 18.5285 2.00024ZM18.5728 14.9969L18.1008 14.9111C17.7357 14.7539 17.3086 14.3706 16.9056 13.6222C16.365 12.6183 16 11.1627 16 9.50011C16 7.83755 16.365 6.38196 16.9056 5.37802C17.2392 4.75838 17.5894 4.38904 17.9073 4.19107C18.0312 4.1139 18.1739 4.07572 18.3175 4.04961C18.4866 4.01886 18.6624 4.00216 18.8243 4.05973C19.2051 4.19508 19.6635 4.57786 20.0944 5.37802C20.635 6.38196 21 7.83755 21 9.50011C21 11.1627 20.635 12.6183 20.0944 13.6222C19.5635 14.6082 18.9906 14.9605 18.5728 14.9969Z" fill="#1B2631"/>
</svg>
