<svg width="24" height="24" viewBox="0 0 24 24" fill="none" xmlns="http://www.w3.org/2000/svg">
<path fill-rule="evenodd" clip-rule="evenodd" d="M16.9057 5.37791C16.3651 6.38185 16.0001 7.83744 16.0001 9.5C16.0001 11.1626 16.3651 12.6182 16.9057 13.6221C17.3088 14.3707 17.736 14.7539 18.1012 14.9111L18.5727 14.9968C18.9905 14.9605 19.5635 14.6083 20.0945 13.6221C20.6351 12.6182 21.0001 11.1626 21.0001 9.5C21.0001 7.83744 20.6351 6.38185 20.0945 5.37791C19.5635 4.39167 18.9905 4.03951 18.5727 4.00319L18.1012 4.08892C17.736 4.24605 17.3088 4.62933 16.9057 5.37791ZM15.0324 4.64689C14.3756 5.96806 14.0001 7.67442 14.0001 9.5C14.0001 11.3256 14.3756 13.0319 15.0324 14.3531L5.62253 12.6422C4.63164 12.4621 4.33753 12.3991 4.11832 12.2914C3.60975 12.0416 3.23101 11.5878 3.0762 11.0427C3.00947 10.8078 3.0001 10.5071 3.0001 9.5C3.0001 8.49287 3.00947 8.19223 3.0762 7.95729C3.23101 7.41223 3.60975 6.95842 4.11832 6.70861C4.33753 6.60093 4.63164 6.53793 5.62253 6.35777L15.0324 4.64689ZM17.5442 2.15741L5.26476 4.39003C5.21924 4.39831 5.17436 4.40644 5.1301 4.41446C4.33422 4.5587 3.73933 4.66651 3.23653 4.91349C2.21939 5.41312 1.46191 6.32074 1.15229 7.41085C0.999244 7.94971 0.999588 8.55429 1.00005 9.36314C1.00008 9.40812 1.0001 9.45373 1.0001 9.5C1.0001 9.54627 1.00008 9.59188 1.00005 9.63686C0.999588 10.4457 0.999244 11.0503 1.15229 11.5891C1.46191 12.6793 2.21939 13.5869 3.23654 14.0865C3.47438 14.2033 3.73283 14.289 4.02342 14.3622L4.39866 19.6156C4.41546 19.8511 4.43193 20.0821 4.46156 20.2777C4.49429 20.4937 4.553 20.7454 4.69673 20.9958C4.89732 21.3452 5.19876 21.6258 5.56156 21.801C5.82153 21.9266 6.07676 21.9672 6.29457 21.9844C6.49175 22.0001 6.72337 22 6.95951 22H8.80582C9.07687 22 9.33867 22.0001 9.55907 21.9815C9.79936 21.9613 10.0853 21.9135 10.369 21.7606C10.7593 21.5503 11.0687 21.2162 11.2484 20.8109C11.3791 20.5164 11.4048 20.2276 11.4066 19.9865C11.4081 19.7653 11.388 19.5043 11.3672 19.234L11.093 15.6697L17.5442 16.8426C17.8439 16.9441 18.1628 17 18.5001 17C20.0107 17 21.1512 15.8782 21.8554 14.5703C22.5816 13.2217 23.0001 11.4273 23.0001 9.5C23.0001 7.57271 22.5816 5.7783 21.8554 4.42971C21.1512 3.12184 20.0107 2 18.5001 2C18.1628 2 17.8439 2.05594 17.5442 2.15741ZM9.05867 15.2998L6.0565 14.7539L6.39142 19.4427C6.41125 19.7204 6.42271 19.8706 6.43899 19.9781C6.43961 19.9822 6.44022 19.986 6.44081 19.9897C6.44449 19.99 6.44839 19.9904 6.4525 19.9907C6.56088 19.9993 6.71152 20 6.98989 20H8.7723C9.0895 20 9.26526 19.9992 9.39138 19.9886C9.39668 19.9881 9.40169 19.9877 9.40641 19.9872C9.4065 19.9825 9.40657 19.9774 9.40661 19.9721C9.40751 19.8456 9.39486 19.6702 9.37053 19.354L9.05867 15.2998Z" fill="#1B2631"/>
</svg>
