<svg width="24" height="24" viewBox="0 0 24 24" fill="none" xmlns="http://www.w3.org/2000/svg">
<path fill-rule="evenodd" clip-rule="evenodd" d="M4.4162 2.00004C4.44388 2.00007 4.47184 2.00009 4.50009 2.00009H19.5001C19.5283 2.00009 19.5563 2.00007 19.584 2.00004C19.9647 1.99974 20.2925 1.99948 20.5854 2.05773C21.7754 2.29445 22.7057 3.22474 22.9424 4.41482C23.0007 4.70767 23.0004 5.03551 23.0001 5.41621C23.0001 5.44389 23.0001 5.47185 23.0001 5.50009C23.0001 5.52833 23.0001 5.55628 23.0001 5.58396C23.0004 5.96466 23.0007 6.2925 22.9424 6.58536C22.734 7.63323 21.9878 8.4797 21.0001 8.82862V16.2414C21.0001 17.0464 21.0001 17.7107 20.9559 18.2519C20.91 18.814 20.8114 19.3307 20.5641 19.816C20.1806 20.5687 19.5687 21.1806 18.816 21.5641C18.3307 21.8114 17.814 21.91 17.2519 21.9559C16.7107 22.0001 16.0464 22.0001 15.2414 22.0001H8.75876C7.9538 22.0001 7.28945 22.0001 6.74826 21.9559C6.18616 21.91 5.66946 21.8114 5.18413 21.5641C4.43148 21.1806 3.81955 20.5687 3.43606 19.816C3.18877 19.3307 3.09021 18.814 3.04428 18.2519C3.00006 17.7107 3.00007 17.0464 3.00009 16.2414L3.00009 8.82862C2.01233 8.4797 1.26617 7.63323 1.05773 6.58536C0.999479 6.2925 0.99974 5.96467 1.00004 5.58397C1.00007 5.55629 1.00009 5.52833 1.00009 5.50009C1.00009 5.47184 1.00007 5.44388 1.00004 5.4162C0.99974 5.03551 0.999479 4.70767 1.05773 4.41482C1.29445 3.22474 2.22474 2.29445 3.41482 2.05773C3.70767 1.99948 4.03551 1.99974 4.4162 2.00004ZM5.00009 9.00009V16.2001C5.00009 17.0567 5.00086 17.639 5.03764 18.089C5.07346 18.5275 5.13838 18.7517 5.21807 18.9081C5.40982 19.2844 5.71578 19.5904 6.09211 19.7821C6.24851 19.8618 6.47271 19.9267 6.91113 19.9625C7.36121 19.9993 7.94351 20.0001 8.80009 20.0001H15.2001C16.0567 20.0001 16.639 19.9993 17.089 19.9625C17.5275 19.9267 17.7517 19.8618 17.9081 19.7821C18.2844 19.5904 18.5904 19.2844 18.7821 18.9081C18.8618 18.7517 18.9267 18.5275 18.9625 18.089C18.9993 17.639 19.0001 17.0567 19.0001 16.2001V9.00009H5.00009ZM19.9173 7.00009H4.08288C4.06403 6.99854 4.04503 6.99751 4.02588 6.99702C3.88234 6.99331 3.82932 6.98571 3.805 6.98087C3.40831 6.90197 3.09821 6.59187 3.0193 6.19518C3.00493 6.12293 3.00009 6.01267 3.00009 5.50009C3.00009 4.9875 3.00493 4.87725 3.0193 4.805C3.09821 4.40831 3.40831 4.09821 3.805 4.0193C3.87725 4.00493 3.9875 4.00009 4.50009 4.00009H19.5001C20.0127 4.00009 20.1229 4.00493 20.1952 4.0193C20.5919 4.09821 20.902 4.40831 20.9809 4.805C20.9952 4.87725 21.0001 4.9875 21.0001 5.50009C21.0001 6.01267 20.9952 6.12293 20.9809 6.19518C20.902 6.59187 20.5919 6.90197 20.1952 6.98087C20.1709 6.98571 20.1178 6.99331 19.9743 6.99702C19.9552 6.99751 19.9361 6.99854 19.9173 7.00009ZM9.00009 13.0001C9.00009 12.4478 9.4478 12.0001 10.0001 12.0001H14.0001C14.5524 12.0001 15.0001 12.4478 15.0001 13.0001C15.0001 13.5524 14.5524 14.0001 14.0001 14.0001H10.0001C9.4478 14.0001 9.00009 13.5524 9.00009 13.0001Z" fill="white"/>
</svg>
