<svg width="24" height="24" viewBox="0 0 24 24" fill="none" xmlns="http://www.w3.org/2000/svg">
<path fill-rule="evenodd" clip-rule="evenodd" d="M14.3315 3.30539C11.3261 2.50278 7.99071 3.28123 5.63604 5.63591C2.12132 9.15062 2.12132 14.8491 5.63604 18.3638C9.15076 21.8785 14.8492 21.8785 18.364 18.3638C20.7186 16.0092 21.4971 12.6738 20.6945 9.66832C20.552 9.13474 20.869 8.58667 21.4026 8.44417C21.9362 8.30168 22.4843 8.61872 22.6268 9.15231C23.606 12.8192 22.6581 16.8981 19.7782 19.778C15.4824 24.0738 8.51759 24.0738 4.22183 19.778C-0.0739412 15.4823 -0.0739419 8.51746 4.22182 4.22169C7.10174 1.34178 11.1807 0.393864 14.8476 1.37311C15.3811 1.5156 15.6982 2.06367 15.5557 2.59726C15.4132 3.13084 14.8651 3.44788 14.3315 3.30539ZM19.7071 4.2927C20.0977 4.68322 20.0977 5.31639 19.7072 5.70692L11.4144 13.9999H15.0002C15.5525 13.9999 16.0002 14.4476 16.0002 14.9999C16.0002 15.5522 15.5525 15.9999 15.0002 15.9999H9.00023C8.44795 15.9999 8.00023 15.5522 8.00023 14.9999V8.99987C8.00023 8.44759 8.44795 7.99987 9.00023 7.99987C9.55252 7.99987 10.0002 8.44759 10.0002 8.99987V12.5856L18.2929 4.29272C18.6835 3.90219 19.3166 3.90218 19.7071 4.2927Z" fill="white"/>
</svg>
