<svg width="24" height="24" viewBox="0 0 24 24" fill="none" xmlns="http://www.w3.org/2000/svg">
<path fill-rule="evenodd" clip-rule="evenodd" d="M18.3638 5.63591C16.0092 3.28123 12.6738 2.50278 9.66832 3.30539C9.13474 3.44788 8.58667 3.13084 8.44417 2.59726C8.30168 2.06367 8.61872 1.5156 9.15231 1.3731C12.8192 0.393864 16.8981 1.34178 19.778 4.22169C24.0738 8.51746 24.0738 15.4823 19.778 19.778C15.4823 24.0738 8.51746 24.0738 4.22169 19.778C1.34178 16.8981 0.393864 12.8192 1.37311 9.15231C1.5156 8.61872 2.06367 8.30168 2.59726 8.44417C3.13084 8.58667 3.44788 9.13474 3.30539 9.66832C2.50278 12.6738 3.28123 16.0092 5.63591 18.3638C9.15062 21.8785 14.8491 21.8785 18.3638 18.3638C21.8785 14.8491 21.8785 9.15062 18.3638 5.63591ZM4.29271 4.29272C4.68323 3.90219 5.31639 3.90218 5.70692 4.29271L14 12.5857V8.99987C14 8.44759 14.4477 7.99987 15 7.99987C15.5523 7.99987 16 8.44759 16 8.99987V14.9999C16 15.5522 15.5523 15.9999 15 15.9999H9C8.44772 15.9999 8 15.5522 8 14.9999C8 14.4476 8.44772 13.9999 9 13.9999H12.5858L4.29272 5.70693C3.90219 5.31641 3.90218 4.68324 4.29271 4.29272Z" fill="white"/>
</svg>
