<svg width="24" height="24" viewBox="0 0 24 24" fill="none" xmlns="http://www.w3.org/2000/svg">
<path fill-rule="evenodd" clip-rule="evenodd" d="M10.807 2.08277C11.568 1.75301 12.4315 1.75301 13.1926 2.08277C13.7265 2.31414 14.1132 2.73294 14.4441 3.17755C14.77 3.61531 15.1284 4.20188 15.5585 4.90559L16.5535 6.53385L17.0338 4.74124C17.1768 4.20777 17.7251 3.89119 18.2586 4.03413C18.792 4.17707 19.1086 4.72541 18.9657 5.25888L17.8676 9.35695C17.7247 9.89042 17.1763 10.207 16.6429 10.0641L12.5448 8.96598C12.0113 8.82304 11.6947 8.27471 11.8377 7.74124C11.9806 7.20777 12.529 6.89119 13.0624 7.03413L14.7998 7.49967L13.877 5.98953C13.4154 5.23421 13.1043 4.72711 12.8398 4.37175C12.5741 4.01476 12.4445 3.93833 12.3974 3.91789C12.1437 3.80797 11.8558 3.80797 11.6022 3.91789C11.555 3.93833 11.4254 4.01476 11.1597 4.37175C10.8952 4.72711 10.5841 5.23421 10.1225 5.98954L9.10272 7.65834C8.81473 8.12959 8.19924 8.27816 7.72798 7.99017C7.25673 7.70218 7.10816 7.08669 7.39615 6.61544L8.44104 4.90562C8.87107 4.20189 9.22952 3.61531 9.55537 3.17755C9.88632 2.73294 10.273 2.31414 10.807 2.08277ZM5.83902 9.53406C6.37248 9.39112 6.92082 9.70771 7.06376 10.2412L7.06975 10.2635C7.0895 10.3179 7.10451 10.374 7.11461 10.4309L8.16184 14.3392C8.30478 14.8727 7.9882 15.4211 7.45473 15.564C6.92127 15.7069 6.37293 15.3904 6.22999 14.8569L5.76473 13.1205L4.82832 14.6528C4.3317 15.4655 3.9963 16.0162 3.78538 16.4451C3.57136 16.8803 3.56547 17.039 3.56968 17.0871C3.59468 17.3729 3.74122 17.6342 3.97205 17.8046C4.01091 17.8333 4.14945 17.911 4.63236 17.9553C5.1083 17.999 5.75316 18 6.70554 18H8.49976C9.05204 18 9.49976 18.4477 9.49976 19C9.49976 19.5523 9.05204 20 8.49976 20H6.65643C5.76565 20 5.02809 20 4.44965 19.947C3.86759 19.8936 3.27507 19.7759 2.7844 19.4138C2.09192 18.9027 1.65229 18.1188 1.57729 17.2614C1.52414 16.6539 1.73272 16.087 1.99067 15.5625C2.24702 15.0412 2.63162 14.4119 3.09612 13.6518L4.0551 12.0826L2.25858 12.564C1.72511 12.7069 1.17678 12.3904 1.03383 11.8569C0.890892 11.3234 1.20747 10.7751 1.74094 10.6321L5.83902 9.53406ZM18.5061 11.6467C18.9773 11.3587 19.5928 11.5073 19.8808 11.9785L20.9034 13.6519C21.3679 14.4119 21.7525 15.0412 22.0088 15.5625C22.2668 16.087 22.4754 16.6539 22.4222 17.2614C22.3472 18.1188 21.9076 18.9027 21.2151 19.4138C20.7245 19.7759 20.1319 19.8936 19.5499 19.947C18.9714 20 18.2339 20 17.3431 20H14.914L16.2069 21.2929C16.5974 21.6834 16.5974 22.3166 16.2069 22.7071C15.8163 23.0976 15.1832 23.0976 14.7927 22.7071L11.7927 19.7071C11.4021 19.3166 11.4021 18.6834 11.7927 18.2929L14.7927 15.2929C15.1832 14.9024 15.8163 14.9024 16.2069 15.2929C16.5974 15.6834 16.5974 16.3166 16.2069 16.7071L14.914 18H17.294C18.2464 18 18.8912 17.999 19.3672 17.9553C19.8501 17.911 19.9886 17.8333 20.0275 17.8046C20.2583 17.6342 20.4048 17.3729 20.4298 17.0871C20.434 17.039 20.4282 16.8803 20.2141 16.4451C20.0032 16.0162 19.6678 15.4654 19.1712 14.6528L18.1743 13.0214C17.8863 12.5502 18.0348 11.9347 18.5061 11.6467Z" fill="white"/>
</svg>
