<svg width="24" height="24" viewBox="0 0 24 24" fill="none" xmlns="http://www.w3.org/2000/svg">
<path fill-rule="evenodd" clip-rule="evenodd" d="M12 3C7.02944 3 3 7.02944 3 12C3 16.9706 7.02944 21 12 21C15.33 21 18.2389 19.192 19.7966 16.4993C20.0731 16.0212 20.6848 15.8579 21.1629 16.1344C21.641 16.4109 21.8043 17.0227 21.5278 17.5007C19.6273 20.786 16.0728 23 12 23C5.92487 23 1 18.0751 1 12C1 5.92487 5.92487 1 12 1C16.0728 1 19.6273 3.21398 21.5278 6.49927C21.8043 6.97734 21.641 7.58906 21.1629 7.86561C20.6848 8.14215 20.0731 7.97879 19.7966 7.50073C18.2389 4.80801 15.33 3 12 3ZM12.7072 7.29289C13.0977 7.68342 13.0977 8.31658 12.7072 8.70711L10.4143 11H22.0001C22.5524 11 23.0001 11.4477 23.0001 12C23.0001 12.5523 22.5524 13 22.0001 13H10.4143L12.7072 15.2929C13.0977 15.6834 13.0977 16.3166 12.7072 16.7071C12.3167 17.0976 11.6835 17.0976 11.293 16.7071L7.29296 12.7071C6.90244 12.3166 6.90244 11.6834 7.29296 11.2929L11.293 7.29289C11.6835 6.90237 12.3167 6.90237 12.7072 7.29289Z" fill="white"/>
</svg>
