<svg width="24" height="24" viewBox="0 0 24 24" fill="none" xmlns="http://www.w3.org/2000/svg">
<path fill-rule="evenodd" clip-rule="evenodd" d="M18.3638 5.63604C14.8491 2.12132 9.15062 2.12132 5.63591 5.63604C3.28123 7.99071 2.50278 11.3261 3.30539 14.3315C3.44788 14.8651 3.13084 15.4132 2.59726 15.5557C2.06367 15.6982 1.5156 15.3811 1.3731 14.8476C0.393864 11.1807 1.34178 7.10174 4.22169 4.22183C8.51746 -0.0739417 15.4823 -0.0739419 19.778 4.22183C24.0738 8.51759 24.0738 15.4824 19.778 19.7782C16.8981 22.6581 12.8192 23.606 9.15231 22.6268C8.61872 22.4843 8.30168 21.9362 8.44417 21.4026C8.58667 20.869 9.13474 20.552 9.66832 20.6945C12.6738 21.4971 16.0092 20.7186 18.3638 18.364C21.8785 14.8492 21.8785 9.15076 18.3638 5.63604ZM8 9.0001C8 8.44782 8.44772 8.0001 9 8.0001H15C15.5523 8.0001 16 8.44782 16 9.0001V15.0001C16 15.5524 15.5523 16.0001 15 16.0001C14.4477 16.0001 14 15.5524 14 15.0001V11.4143L5.70692 19.7072C5.31639 20.0977 4.68322 20.0977 4.2927 19.7071C3.90218 19.3166 3.90219 18.6835 4.29272 18.2929L12.5857 10.0001H9C8.44772 10.0001 8 9.55239 8 9.0001Z" fill="white"/>
</svg>
