<svg width="24" height="24" viewBox="0 0 24 24" fill="none" xmlns="http://www.w3.org/2000/svg">
<path fill-rule="evenodd" clip-rule="evenodd" d="M12 3C7.02944 3 3 7.02944 3 12C3 15.33 4.80801 18.2389 7.50073 19.7966C7.97879 20.0731 8.14215 20.6848 7.8656 21.1629C7.58906 21.641 6.97733 21.8043 6.49927 21.5278C3.21398 19.6273 1 16.0728 1 12C1 5.92487 5.92487 1 12 1C18.0751 1 23 5.92487 23 12C23 16.0728 20.786 19.6273 17.5007 21.5278C17.0227 21.8043 16.4109 21.641 16.1344 21.1629C15.8579 20.6848 16.0212 20.0731 16.4993 19.7966C19.192 18.2389 21 15.33 21 12C21 7.02944 16.9706 3 12 3ZM7.29289 11.293L11.2929 7.29296C11.6834 6.90244 12.3166 6.90244 12.7071 7.29296L16.7071 11.293C17.0976 11.6835 17.0976 12.3167 16.7071 12.7072C16.3166 13.0977 15.6834 13.0977 15.2929 12.7072L13 10.4143V22.0001C13 22.5524 12.5523 23.0001 12 23.0001C11.4477 23.0001 11 22.5524 11 22.0001V10.4143L8.70711 12.7072C8.31658 13.0977 7.68342 13.0977 7.29289 12.7072C6.90237 12.3167 6.90237 11.6835 7.29289 11.293Z" fill="white"/>
</svg>
