<svg width="24" height="24" viewBox="0 0 24 24" fill="none" xmlns="http://www.w3.org/2000/svg">
<path d="M12 10.5C11.1716 10.5 10.5 11.1716 10.5 12C10.5 12.8284 11.1716 13.5 12 13.5C12.8284 13.5 13.5 12.8284 13.5 12C13.5 11.1716 12.8284 10.5 12 10.5Z" fill="#1B2631"/>
<path fill-rule="evenodd" clip-rule="evenodd" d="M15.1192 2.5753C14.1212 2.98625 13.068 3.5547 11.9999 4.26064C10.9319 3.55474 9.87872 2.98631 8.88072 2.57537C7.7206 2.09767 6.58743 1.81309 5.56519 1.80542C4.53801 1.79771 3.54206 2.07318 2.80758 2.80766C2.0731 3.54214 1.79764 4.53808 1.80534 5.56527C1.81301 6.58751 2.0976 7.72067 2.57529 8.8808C2.98623 9.8788 3.55467 10.932 4.26057 12C3.55466 13.068 2.98623 14.1212 2.57528 15.1192C2.09758 16.2793 1.813 17.4125 1.80533 18.4348C1.79763 19.4619 2.07309 20.4579 2.80757 21.1924C3.54205 21.9268 4.538 22.2023 5.56518 22.1946C6.58742 22.1869 7.72059 21.9023 8.88071 21.4247C9.87871 21.0137 10.9319 20.4453 11.9999 19.7394C13.068 20.4453 14.1212 21.0138 15.1192 21.4247C16.2793 21.9024 17.4125 22.187 18.4347 22.1947C19.4619 22.2024 20.4579 21.9269 21.1924 21.1924C21.9268 20.458 22.2023 19.462 22.1946 18.4348C22.1869 17.4126 21.9023 16.2794 21.4246 15.1193C21.0137 14.1213 20.4452 13.068 19.7393 12C20.4452 10.932 21.0137 9.87875 21.4246 8.88072C21.9023 7.7206 22.1869 6.58744 22.1946 5.5652C22.2023 4.53801 21.9268 3.54207 21.1923 2.80759C20.4579 2.07311 19.4619 1.79764 18.4347 1.80535C17.4125 1.81302 16.2793 2.0976 15.1192 2.5753ZM15.8807 4.42465C15.2037 4.70343 14.4838 5.07211 13.7405 5.52431C14.5855 6.19328 15.4261 6.94092 16.2426 7.7574C17.0591 8.57386 17.8067 9.41447 18.4756 10.2595C18.9278 9.51613 19.2965 8.79624 19.5753 8.11923C19.9933 7.10401 20.1895 6.23269 20.1946 5.5502C20.1997 4.87266 20.02 4.46363 19.7781 4.2218C19.5363 3.97997 19.1273 3.80021 18.4497 3.80529C17.7672 3.81041 16.8959 4.00662 15.8807 4.42465ZM4.42465 8.1193C4.70341 8.79629 5.07208 9.51615 5.52425 10.2594C6.19322 9.41444 6.94084 8.57381 7.75732 7.75733C8.57378 6.94088 9.41438 6.19327 10.2594 5.52432C9.51606 5.07215 8.79621 4.70348 8.11922 4.42472C7.104 4.00669 6.23268 3.81048 5.55019 3.80536C4.87265 3.80028 4.46363 3.98004 4.2218 4.22187C3.97996 4.4637 3.80021 4.87273 3.80529 5.55027C3.81041 6.23276 4.00662 7.10408 4.42465 8.1193ZM9.17153 9.17155C8.23976 10.1033 7.41444 11.0581 6.70741 12C7.41444 12.9419 8.23976 13.8967 9.17154 14.8285C10.1033 15.7602 11.058 16.5855 11.9999 17.2925C12.9418 16.5855 13.8966 15.7602 14.8284 14.8284C15.7601 13.8966 16.5854 12.9419 17.2925 12C16.5854 11.0581 15.7602 10.1034 14.8284 9.17162C13.8966 8.23983 12.9418 7.41451 11.9999 6.70748C11.058 7.4145 10.1033 8.23979 9.17153 9.17155ZM4.42464 15.8807C4.7034 15.2037 5.07207 14.4839 5.52425 13.7406C6.19322 14.5856 6.94085 15.4262 7.75733 16.2427C8.57378 17.0591 9.41438 17.8067 10.2594 18.4757C9.51606 18.9279 8.7962 19.2965 8.11921 19.5753C7.10399 19.9933 6.23267 20.1895 5.55018 20.1947C4.87264 20.1997 4.46362 20.02 4.22179 19.7781C3.97995 19.5363 3.8002 19.1273 3.80528 18.4498C3.8104 17.7673 4.00661 16.8959 4.42464 15.8807ZM15.8807 19.5754C15.2037 19.2966 14.4838 18.9279 13.7405 18.4757C14.5855 17.8067 15.4261 17.0591 16.2426 16.2426C17.0591 15.4262 17.8067 14.5855 18.4756 13.7406C18.9278 14.4839 19.2965 15.2038 19.5753 15.8808C19.9933 16.896 20.1895 17.7673 20.1947 18.4498C20.1997 19.1274 20.02 19.5364 19.7781 19.7782C19.5363 20.0201 19.1273 20.1998 18.4497 20.1947C17.7673 20.1896 16.8959 19.9934 15.8807 19.5754Z" fill="#1B2631"/>
</svg>
