<svg width="24" height="24" viewBox="0 0 24 24" fill="none" xmlns="http://www.w3.org/2000/svg">
<path d="M13.332 13C13.332 12.6312 13.1291 12.2923 12.8039 12.1183C12.4788 11.9443 12.0842 11.9634 11.7773 12.1679L10.2773 13.1679C9.81782 13.4743 9.69365 14.0952 10 14.5547C10.2944 14.9962 10.8791 15.1282 11.332 14.8661V17H11.082C10.5298 17 10.082 17.4477 10.082 18C10.082 18.5523 10.5298 19 11.082 19H13.582C14.1343 19 14.582 18.5523 14.582 18C14.582 17.4477 14.1343 17 13.582 17H13.332V13Z" fill="#1B2631"/>
<path fill-rule="evenodd" clip-rule="evenodd" d="M16.0822 1.09629C15.8176 1.18151 15.5736 1.32123 15.3661 1.50563C15.1261 1.71912 14.9632 1.99795 14.8335 2.21978L14.7981 2.28029L12.0001 7.02984L9.20208 2.28028L9.16663 2.21978C9.03703 1.99799 8.87404 1.71905 8.63391 1.5055C8.42625 1.32082 8.1823 1.18142 7.91781 1.09624C7.61194 0.997754 7.28889 0.998902 7.032 0.999815L6.9619 0.999983H4.72708L4.68511 0.999981C4.27285 0.999949 3.89728 0.99992 3.5941 1.02773C3.28492 1.05609 2.88777 1.12348 2.53569 1.37702C2.07888 1.70599 1.78188 2.21225 1.71755 2.77145C1.66798 3.20247 1.80288 3.58203 1.92895 3.86576C2.05259 4.14401 2.23583 4.47186 2.43699 4.83175L2.45743 4.86833L5.93339 11.0884C3.7949 14.0217 4.04936 18.1559 6.69677 20.8033C9.62571 23.7322 14.3745 23.7322 17.3034 20.8033C19.9508 18.1559 20.2052 14.0217 18.0668 11.0885L21.5427 4.86834L21.563 4.8321C21.7642 4.47205 21.9475 4.14409 22.0712 3.86576C22.1973 3.58202 22.3321 3.20255 22.2826 2.77164C22.2183 2.21252 21.9213 1.706 21.4644 1.37702C21.1124 1.1235 20.7152 1.05609 20.406 1.02773C20.1028 0.99992 19.7273 0.999949 19.315 0.999981L17.0383 0.999983L16.9682 0.999814C16.7114 0.9989 16.3881 0.997793 16.0822 1.09629ZM7.86924 11.8684C5.96638 14.0286 6.04696 17.3251 8.11099 19.3891C10.2589 21.537 13.7413 21.537 15.8892 19.3891C17.9535 17.3248 18.0338 14.0277 16.1301 11.8675C16.1212 11.8578 16.1125 11.8481 16.1041 11.8382C16.035 11.7609 15.9634 11.6851 15.8892 11.6109C15.698 11.4197 15.4963 11.2456 15.2859 11.0885C13.3424 9.63716 10.6577 9.63715 8.7143 11.0885C8.50388 11.2456 8.30215 11.4197 8.11099 11.6109C8.03709 11.6848 7.96574 11.7603 7.89693 11.8372C7.88794 11.8478 7.87871 11.8582 7.86924 11.8684ZM16.6148 9.58682C15.7197 8.8864 14.7021 8.41785 13.6431 8.18117L16.5196 3.29832L16.5212 3.29549C16.6116 3.14212 16.6581 3.06395 16.6949 3.00918L16.698 3.0046L16.7035 3.00426C16.7693 3.00038 16.8602 2.99998 17.0383 2.99998H19.2731C19.7411 2.99998 20.0229 3.00099 20.2234 3.01937C20.2354 3.02047 20.2465 3.0216 20.2569 3.02274C20.2528 3.03233 20.2484 3.04264 20.2435 3.05366C20.1618 3.23758 20.0252 3.48409 19.7968 3.89267L17.466 8.06364L16.6148 9.58682ZM7.38533 9.5868C8.28049 8.88639 9.2981 8.41785 10.3571 8.18117L7.91897 4.04251L7.47886 3.29544C7.38849 3.14203 7.34201 3.06392 7.30525 3.00917L7.30217 3.0046L7.29667 3.00426C7.23083 3.00038 7.13994 2.99998 6.9619 2.99998H4.72708C4.259 2.99998 3.97719 3.00099 3.77677 3.01937C3.76475 3.02047 3.75359 3.0216 3.74323 3.02274C3.74729 3.03233 3.75175 3.04263 3.75665 3.05366C3.83837 3.23758 3.97497 3.48408 4.20331 3.89268L6.70143 8.36299L7.38533 9.5868Z" fill="#1B2631"/>
</svg>
