<svg width="24" height="24" viewBox="0 0 24 24" fill="none" xmlns="http://www.w3.org/2000/svg">
<path fill-rule="evenodd" clip-rule="evenodd" d="M7.16153 1H16.8386C17.3658 0.999983 17.8205 0.999967 18.1951 1.03057C18.5904 1.06287 18.9837 1.13419 19.362 1.32698C19.9265 1.6146 20.3855 2.07354 20.6731 2.63803C20.8659 3.01641 20.9372 3.40963 20.9695 3.80497C21.0001 4.17954 21.0001 4.6343 21.0001 5.16144V5.8775C21.0001 5.90121 21.0001 5.92472 21.0001 5.94804C21.0004 6.29465 21.0006 6.6004 20.9388 6.90157C20.8845 7.16636 20.7946 7.42259 20.6716 7.6633C20.5317 7.93709 20.3405 8.17569 20.1238 8.44619C20.1092 8.46438 20.0945 8.48272 20.0797 8.50122L16.4768 13.0049C18.5831 15.3608 18.505 18.9803 16.2427 21.2426C13.8996 23.5858 10.1006 23.5858 7.75743 21.2426C5.4951 18.9803 5.41708 15.3608 7.52335 13.0049L3.92043 8.50122C3.90562 8.48271 3.89092 8.46437 3.87633 8.44617C3.65959 8.17568 3.4684 7.93708 3.32853 7.6633C3.20555 7.42258 3.11567 7.16636 3.06133 6.90157C2.99952 6.6004 2.99976 6.29465 3.00004 5.94804C3.00006 5.92471 3.00007 5.90121 3.00007 5.8775L3.00007 5.16146C3.00005 4.63431 3.00004 4.17955 3.03064 3.80497C3.06294 3.40963 3.13426 3.01641 3.32705 2.63803C3.61467 2.07354 4.07362 1.6146 4.6381 1.32698C5.01648 1.13419 5.4097 1.06287 5.80505 1.03057C6.17962 0.999967 6.63438 0.999983 7.16153 1ZM9.08422 11.7544C9.43457 11.5594 9.80032 11.4022 10.1755 11.2828L5.00155 4.63064C5.00018 4.79568 5.00007 4.98343 5.00007 5.2V5.8775C5.00007 6.3336 5.00479 6.42298 5.02049 6.49948C5.03861 6.58775 5.06857 6.67315 5.10956 6.75339C5.14509 6.82294 5.19724 6.89568 5.48216 7.25183L9.08422 11.7544ZM6.27306 3.00781L12.0001 10.3712L17.7271 3.00781C17.488 3.00036 17.191 3 16.8001 3H7.20007C6.80914 3 6.51212 3.00036 6.27306 3.00781ZM18.9986 4.63067L13.8247 11.2829C14.1999 11.4023 14.5656 11.5594 14.9159 11.7544L18.518 7.25183C18.8029 6.89568 18.8551 6.82294 18.8906 6.75339C18.9316 6.67315 18.9615 6.58775 18.9797 6.49948C18.9954 6.42298 19.0001 6.3336 19.0001 5.8775V5.2C19.0001 4.98344 19 4.7957 18.9986 4.63067ZM14.8285 19.8284C16.3906 18.2663 16.3906 15.7337 14.8285 14.1716C13.2664 12.6095 10.7337 12.6095 9.17164 14.1716C7.60955 15.7337 7.60955 18.2663 9.17164 19.8284C10.7337 21.3905 13.2664 21.3905 14.8285 19.8284Z" fill="#1B2631"/>
</svg>
