<svg width="24" height="24" viewBox="0 0 24 24" fill="none" xmlns="http://www.w3.org/2000/svg">
<path fill-rule="evenodd" clip-rule="evenodd" d="M8.27675 0.999991C8.28456 0.999994 8.29228 0.999997 8.29988 0.999997H15.6999C15.7075 0.999997 15.7152 0.999994 15.723 0.999991C15.8421 0.999945 15.9844 0.999891 16.1097 1.01013C16.2549 1.02199 16.4629 1.05244 16.6809 1.16349C16.9631 1.3073 17.1926 1.53677 17.3364 1.81901C17.4474 2.03696 17.4779 2.24495 17.4898 2.39017C17.5 2.51549 17.4999 2.65775 17.4999 2.77687C17.4999 2.78468 17.4999 2.79239 17.4999 2.8V5.2C17.4999 5.2076 17.4999 5.21531 17.4999 5.22313C17.4999 5.34224 17.5 5.4845 17.4898 5.60983C17.4779 5.75504 17.4474 5.96304 17.3364 6.18098C17.1926 6.46322 16.9631 6.6927 16.6809 6.83651C16.4629 6.94756 16.2549 6.978 16.1097 6.98986C16.0742 6.99277 16.0372 6.99484 15.9999 6.99633V10.5012C15.9999 11.1062 16.0079 11.2253 16.0342 11.3231C16.0646 11.4361 16.1147 11.543 16.1821 11.6388C16.2404 11.7216 16.3267 11.8039 16.7915 12.1913L20.4887 15.2723C20.513 15.2925 20.5371 15.3126 20.5611 15.3325C20.9129 15.6251 21.2229 15.8829 21.4532 16.2102C21.6554 16.4975 21.8056 16.8181 21.8969 17.1573C22.0008 17.5438 22.0004 17.947 21.9999 18.4046C21.9999 18.4357 21.9999 18.4671 21.9999 18.4988V18.8386C21.9999 18.9562 21.9999 19.0702 21.9996 19.1805C22.0001 19.2568 22 19.3353 21.9999 19.4161C21.9999 19.4438 21.9999 19.4718 21.9999 19.5C21.9999 19.5282 21.9999 19.5562 21.9999 19.5839C22.0002 19.9646 22.0005 20.2924 21.9422 20.5853C21.8387 21.1059 21.6024 21.5769 21.2696 21.9617C21.1712 22.0756 21.0643 22.1819 20.95 22.2797C20.5673 22.6072 20.1006 22.8398 19.5852 22.9424C19.2923 23.0006 18.9645 23.0003 18.5838 23C18.5561 23 18.5281 23 18.4999 23H17.9061C17.8837 23 17.8611 23 17.8385 23H6.16132C6.13863 23 6.11607 23 6.09365 23H5.49988C5.47164 23 5.44369 23 5.41601 23C5.03531 23.0003 4.70747 23.0006 4.41461 22.9424C3.83817 22.8277 3.32268 22.5503 2.91744 22.1595C2.87822 22.1217 2.84003 22.0828 2.80293 22.0429C2.43185 21.6439 2.16849 21.1431 2.05753 20.5853C1.99928 20.2924 1.99954 19.9646 1.99984 19.5839C1.99986 19.5562 1.99988 19.5282 1.99988 19.5C1.99988 19.4718 1.99986 19.4438 1.99984 19.4161C1.99978 19.3353 1.99971 19.2568 2.00021 19.1806C1.99988 19.0703 1.99988 18.9562 1.99988 18.8385L1.99988 18.4988C1.99988 18.4671 1.99985 18.4357 1.99982 18.4046C1.99934 17.947 1.99892 17.5438 2.1029 17.1573C2.19417 16.8181 2.34433 16.4975 2.54652 16.2102C2.77685 15.8829 3.08687 15.6251 3.43869 15.3325C3.46264 15.3126 3.48678 15.2925 3.51111 15.2723L7.20829 12.1913C7.6731 11.8039 7.75941 11.7216 7.81767 11.6388C7.88507 11.543 7.93512 11.4361 7.96555 11.3231C7.99185 11.2253 7.99988 11.1062 7.99988 10.5012V6.99633C7.96252 6.99484 7.92561 6.99277 7.89005 6.98986C7.74484 6.978 7.53684 6.94756 7.3189 6.83651C7.03665 6.6927 6.80718 6.46322 6.66337 6.18098C6.55233 5.96304 6.52188 5.75504 6.51002 5.60983C6.49978 5.48451 6.49983 5.34225 6.49988 5.22314C6.49988 5.21532 6.49988 5.2076 6.49988 5.2V2.8C6.49988 2.79239 6.49988 2.78467 6.49988 2.77686C6.49983 2.65774 6.49978 2.51549 6.51002 2.39017C6.52188 2.24495 6.55233 2.03696 6.66337 1.81901C6.80718 1.53677 7.03665 1.3073 7.3189 1.16349C7.53684 1.05244 7.74484 1.02199 7.89005 1.01013C8.01537 0.999891 8.15763 0.999945 8.27675 0.999991ZM9.99988 7V10.5012C9.99988 10.5329 9.99992 10.5643 9.99995 10.5954C10.0004 11.053 10.0008 11.4562 9.89687 11.8427C9.8056 12.1819 9.65544 12.5025 9.45325 12.7898C9.22292 13.1171 8.9129 13.3749 8.56108 13.6675C8.53713 13.6874 8.51299 13.7075 8.48866 13.7277L5.76193 16H18.2378L15.5111 13.7277C15.4868 13.7075 15.4626 13.6874 15.4387 13.6675C15.0869 13.3749 14.7769 13.1171 14.5465 12.7898C14.3443 12.5025 14.1942 12.1819 14.1029 11.8427C13.9989 11.4562 13.9993 11.053 13.9998 10.5954C13.9999 10.5643 13.9999 10.5329 13.9999 10.5012V7H9.99988ZM8.49988 5V3H15.4999V5H8.49988ZM19.9992 19.2345C19.9975 18.9442 19.9921 18.8625 19.9807 18.8049C19.9018 18.4082 19.5917 18.0981 19.195 18.0192C19.1227 18.0048 19.0125 18 18.4999 18H5.49988C4.9873 18 4.87704 18.0048 4.80479 18.0192C4.4081 18.0981 4.09801 18.4082 4.0191 18.8049C4.00765 18.8625 4.00224 18.9442 4.00052 19.2345C4.00203 19.576 4.00707 19.8273 4.02381 20.0322C4.04601 20.3038 4.08369 20.4045 4.10888 20.454C4.14569 20.5262 4.19091 20.5933 4.24331 20.6539C4.28762 20.7052 4.33707 20.7518 4.39087 20.7932C4.43919 20.8303 4.49105 20.8631 4.54589 20.891C4.59534 20.9162 4.69606 20.9539 4.96772 20.9761C5.25106 20.9992 5.62333 21 6.19988 21H17.7999C18.3764 21 18.7487 20.9992 19.032 20.9761C19.3037 20.9539 19.4044 20.9162 19.4539 20.891C19.5261 20.8542 19.5932 20.809 19.6538 20.7566C19.7056 20.7118 19.7528 20.6617 19.7944 20.6072C19.831 20.5594 19.8633 20.5081 19.8909 20.454C19.9161 20.4045 19.9538 20.3038 19.976 20.0322C19.9927 19.8273 19.9977 19.576 19.9992 19.2345Z" fill="#1B2631"/>
</svg>
