<svg width="24" height="24" viewBox="0 0 24 24" fill="none" xmlns="http://www.w3.org/2000/svg">
<path fill-rule="evenodd" clip-rule="evenodd" d="M7.1083 6.5557C6.87294 6.22494 6.69144 5.84737 6.58031 5.43261C6.08001 3.56548 7.18805 1.6463 9.05518 1.14601C10.9223 0.645711 12.8415 1.75375 13.3418 3.62088C13.4529 4.03565 13.4845 4.45341 13.4461 4.85756C14.0831 4.97134 14.7007 5.16854 15.2785 5.44931C16.8551 6.21537 18.018 7.55021 18.4566 9.18677C19.0021 11.2226 19.8908 12.5294 20.7505 13.3713L20.7649 13.3854C21.3176 13.9268 21.7493 14.3496 22.0452 14.6568C22.1931 14.8104 22.3255 14.9541 22.4275 15.0801C22.4782 15.1426 22.5358 15.2184 22.5872 15.3016C22.6256 15.3636 22.7222 15.5252 22.7583 15.7427C22.7781 15.8621 22.814 16.1003 22.7426 16.3723C22.6712 16.6443 22.5231 16.8342 22.4472 16.9285C22.3235 17.0822 22.1825 17.1717 22.1116 17.2134C22.0278 17.2627 21.9438 17.3011 21.8736 17.3304C21.7331 17.3889 21.566 17.4443 21.3908 17.4979C21.0415 17.6046 20.5484 17.7367 19.9271 17.9032L16.7489 18.7548C16.7665 20.5361 15.5837 22.1727 13.7834 22.6551C11.9831 23.1374 10.1405 22.3115 9.26504 20.7601L8.01822 21.0941C7.39712 21.2606 6.90383 21.3927 6.54801 21.475C6.36949 21.5162 6.19712 21.5518 6.04616 21.5713C5.97065 21.5811 5.87878 21.5898 5.78159 21.589C5.69925 21.5883 5.5324 21.5813 5.34844 21.5101C5.23556 21.4663 5.01233 21.376 4.81452 21.1761C4.61672 20.9762 4.52868 20.7521 4.48611 20.6387C4.40859 20.4323 4.41156 20.2441 4.41373 20.1712C4.41665 20.0734 4.42867 19.9789 4.44126 19.8995C4.46664 19.7393 4.50951 19.5487 4.5608 19.3418C4.66343 18.9277 4.82589 18.3456 5.03392 17.6004L5.03928 17.5811C5.36278 16.4221 5.47909 14.8461 4.93359 12.8102C4.49508 11.1737 4.83476 9.43622 5.81713 7.98448C6.17721 7.45236 6.61345 6.97278 7.1083 6.5557ZM8.51216 4.91498C8.29775 4.11478 8.77262 3.29227 9.57282 3.07786C10.373 2.86345 11.1955 3.33832 11.4099 4.13852C11.4672 4.35209 11.4755 4.56664 11.4417 4.77102C10.9884 4.81083 10.5358 4.89043 10.0904 5.00976C9.64507 5.12909 9.21331 5.28646 8.80092 5.47858C8.6694 5.31852 8.56938 5.12854 8.51216 4.91498ZM11.3337 20.2058C11.8224 20.6936 12.5508 20.9148 13.2658 20.7232C13.9808 20.5316 14.501 19.9759 14.6803 19.309L11.3337 20.2058Z" fill="#1B2631"/>
<path d="M3.8229 6.98746C4.20955 7.38182 4.20329 8.01496 3.80892 8.4016C3.03268 9.16265 2.72849 10.2979 3.02021 11.3451C3.16842 11.8771 2.85727 12.4286 2.32524 12.5768C1.79322 12.725 1.24178 12.4139 1.09357 11.8818C0.606302 10.1327 1.11219 8.24466 2.40876 6.97348C2.80312 6.58683 3.43626 6.59309 3.8229 6.98746Z" fill="#1B2631"/>
<path d="M16.4766 3.59701C16.6143 3.06215 17.1595 2.74016 17.6943 2.87783C19.4528 3.33042 20.8349 4.71254 21.2875 6.47099C21.4251 7.00584 21.1031 7.55102 20.5683 7.68868C20.0334 7.82634 19.4883 7.50436 19.3506 6.9695C19.0796 5.91674 18.2486 5.08566 17.1958 4.8147C16.6609 4.67704 16.339 4.13186 16.4766 3.59701Z" fill="#1B2631"/>
</svg>
