<svg width="24" height="24" viewBox="0 0 24 24" fill="none" xmlns="http://www.w3.org/2000/svg">
<path fill-rule="evenodd" clip-rule="evenodd" d="M7.05048 3.05025C8.36323 1.7375 10.1437 1 12.0002 1C12.3937 1 12.7839 1.03314 13.1669 1.09788C13.7115 1.18993 14.0783 1.706 13.9862 2.25056C13.8942 2.79512 13.3781 3.16195 12.8336 3.06991C12.56 3.02367 12.2814 3 12.0002 3C10.6741 3 9.40237 3.52678 8.46469 4.46447C7.52701 5.40215 7.00023 6.67392 7.00023 8C7.00023 11.2677 6.17317 13.5681 5.19894 15.1337C4.98609 15.4758 4.80845 15.7614 4.66331 15.9988C4.86988 16 5.11021 16 5.38908 16H18.6114C18.8902 16 19.1305 16 19.3371 15.9988C19.1919 15.7613 19.0143 15.4756 18.8013 15.1335C18.2532 14.2525 17.7482 13.1332 17.4133 11.7325C17.2849 11.1954 17.6162 10.6558 18.1534 10.5274C18.6905 10.399 19.2301 10.7303 19.3585 11.2675C19.6428 12.4564 20.0635 13.3762 20.4995 14.0769L20.5112 14.0957C20.8686 14.6701 21.1511 15.1242 21.3416 15.4546C21.437 15.6202 21.5239 15.7797 21.5883 15.9215C21.6204 15.9922 21.6563 16.079 21.6844 16.1733C21.7077 16.2515 21.7522 16.4187 21.7355 16.6223C21.7243 16.7591 21.6964 16.9928 21.5623 17.2343C21.4281 17.4758 21.2444 17.623 21.1341 17.7047C20.8839 17.8904 20.5964 17.9329 20.5005 17.947L20.4961 17.9477C20.3487 17.9695 20.1814 17.9804 20.0126 17.9869C19.6774 18 19.2133 18 18.6361 18H5.36437C4.78715 18 4.32301 18 3.98775 17.9869C3.819 17.9804 3.65172 17.9695 3.50431 17.9477L3.49988 17.947C3.40395 17.9329 3.11653 17.8904 2.86623 17.7047C2.75599 17.623 2.57226 17.4758 2.43811 17.2343C2.30396 16.9928 2.27607 16.7591 2.26488 16.6223C2.24823 16.4187 2.29263 16.2515 2.31594 16.1733C2.34403 16.079 2.37997 15.9922 2.4121 15.9215C2.47647 15.7797 2.5634 15.6202 2.65882 15.4547C2.84924 15.1243 3.1317 14.6703 3.489 14.0961L3.50084 14.0771C4.26822 12.8439 5.00023 10.9127 5.00023 8C5.00023 6.14348 5.73772 4.36301 7.05048 3.05025ZM18.0002 1C18.5525 1 19.0002 1.44772 19.0002 2V4H21.0002C21.5525 4 22.0002 4.44772 22.0002 5C22.0002 5.55228 21.5525 6 21.0002 6H19.0002V8C19.0002 8.55228 18.5525 9 18.0002 9C17.4479 9 17.0002 8.55228 17.0002 8V6H15.0002C14.4479 6 14.0002 5.55228 14.0002 5C14.0002 4.44772 14.4479 4 15.0002 4H17.0002V2C17.0002 1.44772 17.4479 1 18.0002 1ZM8.60466 20.3383C8.97013 19.9242 9.60207 19.8848 10.0161 20.2503C10.5456 20.7176 11.2387 21 12.0002 21C12.7617 21 13.4549 20.7176 13.9843 20.2503C14.3984 19.8848 15.0303 19.9242 15.3958 20.3383C15.7613 20.7523 15.7219 21.3843 15.3078 21.7497C14.427 22.5272 13.2676 23 12.0002 23C10.7329 23 9.57348 22.5272 8.69267 21.7497C8.2786 21.3843 8.2392 20.7523 8.60466 20.3383Z" fill="#1B2631"/>
</svg>
