<svg width="24" height="24" viewBox="0 0 24 24" fill="none" xmlns="http://www.w3.org/2000/svg">
<path fill-rule="evenodd" clip-rule="evenodd" d="M7.05048 3.05025C8.36323 1.7375 10.1437 1 12.0002 1C12.3937 1 12.7839 1.03314 13.1669 1.09788C13.7115 1.18993 14.0783 1.706 13.9862 2.25056C13.8942 2.79512 13.3781 3.16195 12.8336 3.06991C12.56 3.02367 12.2814 3 12.0002 3C10.6741 3 9.40237 3.52678 8.46469 4.46447C7.52701 5.40215 7.00023 6.67392 7.00023 8C7.00023 11.2677 6.17317 13.5681 5.19894 15.1337C4.98609 15.4758 4.80845 15.7614 4.66331 15.9988C4.86988 16 5.11021 16 5.38908 16H18.6114C18.8903 16 19.1306 16 19.3372 15.9988C19.1921 15.7614 19.0145 15.476 18.8017 15.134C17.9374 13.7451 17.1866 11.7742 17.0301 9.05751C16.9984 8.50614 17.4196 8.03342 17.971 8.00166C18.5223 7.96989 18.9951 8.39112 19.0268 8.94249C19.1646 11.3345 19.817 12.9802 20.4998 14.0773L20.5115 14.0962C20.8688 14.6704 21.1513 15.1243 21.3417 15.4547C21.4371 15.6202 21.5241 15.7797 21.5884 15.9214C21.6206 15.9922 21.6565 16.0789 21.6846 16.1732C21.7079 16.2515 21.7523 16.4187 21.7357 16.6222C21.7245 16.7591 21.6966 16.9928 21.5624 17.2343C21.4283 17.4758 21.2446 17.6229 21.1343 17.7047C20.884 17.8904 20.5966 17.9329 20.5007 17.947L20.4962 17.9477C20.3488 17.9695 20.1815 17.9804 20.0128 17.9869C19.6775 18 19.2133 18 18.6361 18H5.36437C4.78715 18 4.32301 18 3.98775 17.9869C3.819 17.9804 3.65172 17.9695 3.50431 17.9477L3.49988 17.947C3.40395 17.9329 3.11653 17.8904 2.86623 17.7047C2.75599 17.623 2.57226 17.4758 2.43811 17.2343C2.30396 16.9928 2.27607 16.7591 2.26488 16.6223C2.24823 16.4187 2.29263 16.2515 2.31594 16.1733C2.34403 16.079 2.37997 15.9922 2.4121 15.9215C2.47647 15.7797 2.5634 15.6202 2.65882 15.4547C2.84924 15.1243 3.1317 14.6703 3.489 14.0961L3.50084 14.0771C4.26822 12.8439 5.00023 10.9127 5.00023 8C5.00023 6.14348 5.73772 4.36301 7.05048 3.05025ZM14.0002 5C14.0002 4.44772 14.4479 4 15.0002 4H21.0002C21.5525 4 22.0002 4.44772 22.0002 5C22.0002 5.55228 21.5525 6 21.0002 6H15.0002C14.4479 6 14.0002 5.55228 14.0002 5ZM8.60466 20.3383C8.97013 19.9242 9.60207 19.8848 10.0161 20.2503C10.5456 20.7176 11.2387 21 12.0002 21C12.7617 21 13.4549 20.7176 13.9843 20.2503C14.3984 19.8848 15.0303 19.9242 15.3958 20.3383C15.7613 20.7523 15.7219 21.3843 15.3078 21.7497C14.427 22.5272 13.2676 23 12.0002 23C10.7329 23 9.57348 22.5272 8.69267 21.7497C8.2786 21.3843 8.2392 20.7523 8.60466 20.3383Z" fill="#1B2631"/>
</svg>
