<svg width="24" height="24" viewBox="0 0 24 24" fill="none" xmlns="http://www.w3.org/2000/svg">
<path fill-rule="evenodd" clip-rule="evenodd" d="M11.9996 3C11.1712 3 10.4996 3.67157 10.4996 4.5C10.4996 4.72108 10.5471 4.93048 10.6327 5.11911C11.0808 5.04027 11.5386 5 11.9996 5C12.4607 5 12.9185 5.04027 13.3666 5.11911C13.4522 4.93048 13.4996 4.72109 13.4996 4.5C13.4996 3.67157 12.8281 3 11.9996 3ZM15.2803 5.72147C15.4221 5.34107 15.4996 4.92938 15.4996 4.5C15.4996 2.567 13.9326 1 11.9996 1C10.0666 1 8.49964 2.567 8.49964 4.5C8.49964 4.92938 8.57724 5.34107 8.71897 5.72147C8.13306 5.99625 7.58758 6.34658 7.10207 6.76736C5.77744 7.91537 4.99964 9.50571 4.99964 11.2C4.99964 13.3077 4.47938 14.7999 3.86693 15.8357L3.85672 15.853C3.46292 16.5189 3.15536 17.0391 2.94908 17.4125C2.84596 17.5991 2.75523 17.7721 2.68926 17.9203C2.65655 17.9937 2.62046 18.0819 2.59235 18.1756C2.57138 18.2454 2.5198 18.4265 2.54125 18.6459C2.55303 18.7664 2.58006 19.0057 2.71939 19.25C2.85873 19.4942 3.05096 19.6393 3.14868 19.7108C3.30792 19.8272 3.46727 19.8772 3.54664 19.8991C3.6403 19.9251 3.73131 19.9404 3.80677 19.9505C3.95765 19.9707 4.13334 19.981 4.31645 19.9873C4.68148 20 5.19188 20 5.835 20H8.12566C8.5697 21.7252 10.1358 23 11.9996 23C13.8635 23 15.4296 21.7252 15.8736 20H18.1643C18.8074 20 19.3178 20 19.6828 19.9873C19.866 19.981 20.0416 19.9707 20.1925 19.9505C20.268 19.9404 20.359 19.9251 20.4527 19.8991C20.532 19.8772 20.6914 19.8272 20.8506 19.7108C20.9483 19.6393 21.1406 19.4942 21.2799 19.25C21.4192 19.0057 21.4463 18.7664 21.458 18.6459C21.4795 18.4265 21.4279 18.2454 21.4069 18.1756C21.3788 18.0819 21.3427 17.9937 21.31 17.9203C21.2441 17.7721 21.1533 17.5991 21.0502 17.4125C20.8439 17.0391 20.5363 16.5189 20.1425 15.8528L20.1324 15.8357C19.5199 14.7999 18.9996 13.3077 18.9996 11.2C18.9996 9.50571 18.2219 7.91537 16.8972 6.76736C16.4117 6.34658 15.8662 5.99625 15.2803 5.72147ZM13.5138 7.19808C13.5265 7.2018 13.5392 7.20526 13.552 7.20846C14.3214 7.42057 15.0209 7.78776 15.5874 8.27873C16.5132 9.08109 16.9996 10.136 16.9996 11.2C16.9996 13.6559 17.6111 15.5012 18.4108 16.8537C18.6859 17.3189 18.9088 17.696 19.0832 17.998C18.8239 18 18.5126 18 18.1415 18H5.85783C5.48669 18 5.17537 18 4.91609 17.998C5.09047 17.696 5.31341 17.3189 5.58849 16.8537C6.38817 15.5012 6.99964 13.6559 6.99964 11.2C6.99964 10.136 7.48613 9.08109 8.41193 8.27873C8.97844 7.78776 9.67788 7.42057 10.4473 7.20846C10.4601 7.20526 10.4728 7.2018 10.4855 7.19809C10.9683 7.06859 11.4782 7 11.9996 7C12.5211 7 13.031 7.06858 13.5138 7.19808ZM10.2672 20C10.613 20.5978 11.2594 21 11.9996 21C12.7399 21 13.3863 20.5978 13.7321 20H10.2672Z" fill="#1B2631"/>
</svg>
