<svg width="24" height="24" viewBox="0 0 24 24" fill="none" xmlns="http://www.w3.org/2000/svg">
<path fill-rule="evenodd" clip-rule="evenodd" d="M17.264 2.20753C18.5274 1.03768 20.4895 1.0754 21.7071 2.29294C22.9246 3.51049 22.9623 5.47256 21.7925 6.736L13.5176 15.6729C13.5139 15.6769 13.5101 15.681 13.5063 15.685L12.6554 16.6041C12.6266 16.6352 12.5981 16.666 12.5699 16.6965C12.1842 17.114 11.8518 17.4739 11.4701 17.6993C11.0118 17.97 10.4987 18.1092 9.98365 18.1159C10.0923 19.392 9.65842 20.7056 8.68195 21.682C7.7418 22.6222 6.44876 22.9058 5.30424 22.9969C4.52805 23.0587 3.66673 23.0363 2.91529 23.0168C2.58311 23.0081 2.2724 23.0001 2 23.0001C1.65165 23.0001 1.32839 22.8188 1.14673 22.5215C0.965076 22.2243 0.951191 21.8539 1.11009 21.5439C1.46675 20.8481 1.43381 20.0271 1.38921 18.9155C1.38788 18.8822 1.38654 18.8487 1.38519 18.815L1.38417 18.7894C1.34471 17.8002 1.28682 16.3492 2.31799 15.3181C3.29445 14.3416 4.60802 13.9077 5.88407 14.0164C5.89079 13.5013 6.03 12.9882 6.30069 12.5299C6.52612 12.1482 6.88599 11.8158 7.30354 11.43C7.33404 11.4019 7.36484 11.3734 7.39593 11.3446L17.264 2.20753ZM12.75 13.5581L20.3249 5.37718C20.7647 4.90229 20.7505 4.1648 20.2928 3.70716C19.8352 3.24951 19.0977 3.23534 18.6228 3.67505L10.4419 11.25L12.75 13.5581ZM8.97329 12.6098L11.3902 15.0267L11.1878 15.2453C10.6663 15.8085 10.547 15.9217 10.453 15.9772C10.1512 16.1555 9.77796 16.1627 9.46944 15.9961C9.37339 15.9443 9.24982 15.8357 8.70705 15.2929C8.16428 14.7502 8.05572 14.6266 8.00386 14.5306C7.8373 14.222 7.84448 13.8488 8.02277 13.547C8.07828 13.453 8.19152 13.3337 8.75474 12.8122L8.97329 12.6098ZM7.26774 16.7323C6.29143 15.756 4.70852 15.756 3.73221 16.7323C3.40547 17.059 3.33758 17.5793 3.38361 18.7354C3.38662 18.8111 3.39014 18.8895 3.39378 18.9705C3.42026 19.5605 3.4527 20.2835 3.3377 21.0259C3.95026 21.0418 4.54466 21.051 5.14549 21.0032C6.14668 20.9235 6.84106 20.6945 7.26774 20.2678C8.24405 19.2915 8.24405 17.7086 7.26774 16.7323Z" fill="#1B2631"/>
</svg>
