<svg width="24" height="24" viewBox="0 0 24 24" fill="none" xmlns="http://www.w3.org/2000/svg">
<path fill-rule="evenodd" clip-rule="evenodd" d="M2 21.0002C2 20.4479 2.44772 20.0002 3 20.0002H21C21.5523 20.0002 22 20.4479 22 21.0002C22 21.5525 21.5523 22.0002 21 22.0002H3C2.44772 22.0002 2 21.5525 2 21.0002Z" fill="white"/>
<path fill-rule="evenodd" clip-rule="evenodd" d="M6 9.00022C6.55228 9.00022 7 9.44794 7 10.0002V18.0002C7 18.5525 6.55228 19.0002 6 19.0002C5.44772 19.0002 5 18.5525 5 18.0002V10.0002C5 9.44794 5.44772 9.00022 6 9.00022Z" fill="white"/>
<path fill-rule="evenodd" clip-rule="evenodd" d="M10 9.00022C10.5523 9.00022 11 9.44794 11 10.0002V18.0002C11 18.5525 10.5523 19.0002 10 19.0002C9.44772 19.0002 9 18.5525 9 18.0002V10.0002C9 9.44794 9.44772 9.00022 10 9.00022Z" fill="white"/>
<path fill-rule="evenodd" clip-rule="evenodd" d="M14 9.00022C14.5523 9.00022 15 9.44794 15 10.0002V18.0002C15 18.5525 14.5523 19.0002 14 19.0002C13.4477 19.0002 13 18.5525 13 18.0002V10.0002C13 9.44794 13.4477 9.00022 14 9.00022Z" fill="white"/>
<path fill-rule="evenodd" clip-rule="evenodd" d="M18 9.00022C18.5523 9.00022 19 9.44794 19 10.0002V18.0002C19 18.5525 18.5523 19.0002 18 19.0002C17.4477 19.0002 17 18.5525 17 18.0002V10.0002C17 9.44794 17.4477 9.00022 18 9.00022Z" fill="white"/>
<path fill-rule="evenodd" clip-rule="evenodd" d="M11.6676 1.12713C11.8864 1.07741 12.1136 1.07741 12.3324 1.12713C12.5922 1.18617 12.8162 1.32928 12.9242 1.39827C12.9354 1.40545 12.9454 1.41183 12.954 1.41722L20.53 6.15222C20.9083 6.38866 21.0842 6.84708 20.9612 7.2759C20.8383 7.70472 20.4461 8.00022 20 8.00022H4C3.55389 8.00022 3.16174 7.70472 3.03875 7.2759C2.91577 6.84708 3.0917 6.38866 3.47 6.15222L11.046 1.41722C11.0546 1.41183 11.0646 1.40545 11.0758 1.39827C11.1838 1.32928 11.4078 1.18617 11.6676 1.12713Z" fill="white"/>
</svg>
