<svg width="24" height="24" viewBox="0 0 24 24" fill="none" xmlns="http://www.w3.org/2000/svg">
<path fill-rule="evenodd" clip-rule="evenodd" d="M8.16158 2.99985C8.20953 2.99992 8.25788 2.99999 8.30665 2.99999H15.6938C15.7426 2.99999 15.7909 2.99992 15.8389 2.99985C16.5223 2.99883 17.1222 2.99793 17.6567 3.20816C18.1241 3.39198 18.5379 3.69019 18.86 4.07547C19.2285 4.51608 19.4174 5.08546 19.6325 5.73418C19.6476 5.77968 19.6628 5.82557 19.6783 5.87184L20.5843 8.58993L21.553 8.10557C22.047 7.85858 22.6477 8.0588 22.8946 8.55278C23.1416 9.04676 22.9414 9.64743 22.4474 9.89442L21.85 10.1931C22.1357 10.4831 22.3772 10.8168 22.5642 11.184C22.8115 11.6694 22.9101 12.1861 22.956 12.7482C23.0002 13.2894 23.0002 13.9537 23.0002 14.7587V17.5C23.0002 17.5282 23.0002 17.5562 23.0003 17.5839C23.0006 17.9646 23.0008 18.2924 22.9426 18.5853C22.7059 19.7753 21.7756 20.7056 20.5855 20.9424C20.2926 21.0006 19.9648 21.0003 19.5841 21C19.5564 21 19.5285 21 19.5002 21H19.0002C17.5137 21 16.2797 19.9188 16.0417 18.5H7.95874C7.7207 19.9188 6.48672 21 5.00022 21H4.50022C4.47198 21 4.44402 21 4.41635 21C4.03564 21.0003 3.70781 21.0006 3.41495 20.9424C2.22488 20.7056 1.29458 19.7753 1.05786 18.5853C0.999611 18.2924 0.999872 17.9646 1.00017 17.5839C1.0002 17.5562 1.00022 17.5282 1.00022 17.5L1.00022 14.7587C1.00021 13.9537 1.0002 13.2894 1.04441 12.7482C1.09034 12.1861 1.1889 11.6694 1.43619 11.184C1.62329 10.8168 1.86475 10.4831 2.1504 10.1931L1.55301 9.89442C1.05903 9.64743 0.858803 9.04676 1.10579 8.55278C1.35278 8.0588 1.95345 7.85858 2.44743 8.10557L3.41615 8.58993L4.32218 5.87184C4.3376 5.82557 4.35282 5.77968 4.36792 5.73417C4.58308 5.08545 4.77193 4.51607 5.14039 4.07547C5.46258 3.6902 5.87633 3.39198 6.34372 3.20816C6.87823 2.99793 7.47811 2.99883 8.16158 2.99985ZM5.38381 9.0115C5.78783 8.99998 6.24468 8.99999 6.75892 8.99999H17.2415C17.7558 8.99999 18.2126 8.99998 18.6166 9.0115L17.7809 6.50429C17.4916 5.63653 17.418 5.46869 17.3258 5.35849C17.2184 5.23006 17.0805 5.13066 16.9247 5.06938C16.791 5.0168 16.6085 4.99999 15.6938 4.99999H8.30665C7.39195 4.99999 7.20943 5.0168 7.07573 5.06938C6.91994 5.13066 6.78202 5.23006 6.67462 5.35848C6.58246 5.46869 6.5088 5.63653 6.21955 6.50429L5.38381 9.0115ZM4.91126 11.0375C4.47284 11.0734 4.24864 11.1383 4.09224 11.218C3.71591 11.4097 3.40995 11.7157 3.21821 12.092C3.13852 12.2484 3.07359 12.4726 3.03777 12.911C3.001 13.3611 3.00022 13.9434 3.00022 14.8V17.5C3.00022 18.0126 3.00506 18.1228 3.01943 18.1951C3.09834 18.5918 3.40844 18.9019 3.80513 18.9808C3.87738 18.9952 3.98763 19 4.50022 19H5.00022C5.5525 19 6.00022 18.5523 6.00022 18C6.00022 17.1716 6.67179 16.5 7.50022 16.5H16.5002C17.3286 16.5 18.0002 17.1716 18.0002 18C18.0002 18.5523 18.4479 19 19.0002 19H19.5002C20.0128 19 20.1231 18.9952 20.1953 18.9808C20.592 18.9019 20.9021 18.5918 20.981 18.1951C20.9954 18.1228 21.0002 18.0126 21.0002 17.5V14.8C21.0002 13.9434 20.9994 13.3611 20.9627 12.911C20.9268 12.4726 20.8619 12.2484 20.7822 12.092C20.5905 11.7157 20.2845 11.4097 19.9082 11.218C19.7518 11.1383 19.5276 11.0734 19.0892 11.0375C18.6391 11.0008 18.0568 11 17.2002 11H6.80022C5.94364 11 5.36135 11.0008 4.91126 11.0375ZM4.00022 13C4.00022 12.4477 4.44793 12 5.00022 12H8.00022C8.5525 12 9.00022 12.4477 9.00022 13C9.00022 13.5523 8.5525 14 8.00022 14H5.00022C4.44793 14 4.00022 13.5523 4.00022 13ZM15.0002 13C15.0002 12.4477 15.4479 12 16.0002 12H19.0002C19.5525 12 20.0002 12.4477 20.0002 13C20.0002 13.5523 19.5525 14 19.0002 14H16.0002C15.4479 14 15.0002 13.5523 15.0002 13Z" fill="#1B2631"/>
</svg>
