<svg width="24" height="24" viewBox="0 0 24 24" fill="none" xmlns="http://www.w3.org/2000/svg">
<path d="M12 23.0251C11.5023 23.0251 11.1041 22.9251 10.7059 22.6251L9.51131 21.7251C9.41177 21.7251 9.41177 21.6251 9.31222 21.7251L7.81901 21.9251C6.92308 22.0251 5.9276 21.5251 5.62896 20.6251L5.03167 19.1251L3.53846 18.4251C2.64253 18.0251 2.1448 17.1251 2.24434 16.2251L2.44344 14.6251L1.44796 13.3251C0.850679 12.5251 0.850679 11.5251 1.44796 10.7251L2.44344 9.5251L2.24434 7.8251C2.1448 6.9251 2.64253 6.0251 3.53846 5.6251L4.93213 5.0251L5.62896 3.5251C6.02715 2.6251 6.92308 2.1251 7.81901 2.2251L9.41176 2.4251L10.7059 1.4251C11.5023 0.825098 12.4977 0.825098 13.2941 1.4251L14.4887 2.4251L16.0814 2.2251C16.9774 2.1251 17.9728 2.6251 18.2715 3.5251L18.9683 4.9251L20.4615 5.6251C21.3575 6.0251 21.8552 6.9251 21.7557 7.8251L21.5566 9.4251L22.552 10.7251C23.1493 11.5251 23.1493 12.5251 22.552 13.3251L21.6561 14.5251C21.6561 14.6251 21.5566 14.6251 21.6561 14.7251L21.8552 16.2251C21.9548 17.1251 21.457 18.1251 20.5611 18.4251L19.0679 19.0251L18.371 20.5251C17.9728 21.4251 17.0769 21.9251 16.181 21.8251L14.5882 21.6251L13.2941 22.6251C12.8959 22.9251 12.4977 23.0251 12 23.0251ZM9.41176 19.6251C9.9095 19.6251 10.4072 19.8251 10.8054 20.1251L12 21.0251H12.0995L13.2941 20.0251C13.6923 19.7251 14.2896 19.5251 14.8869 19.6251L16.4796 19.8251C16.5792 19.8251 16.5792 19.8251 16.5792 19.7251L17.1765 18.2251C17.3756 17.7251 17.7738 17.3251 18.2715 17.1251L19.7647 16.5251L19.8643 16.4251L19.6652 14.9251C19.5656 14.3251 19.7647 13.7251 20.0633 13.2251L20.9593 12.0251V11.9251L19.9638 10.6251C19.6652 10.2251 19.4661 9.6251 19.5656 9.0251L19.7647 7.4251C19.7647 7.4251 19.7647 7.3251 19.6652 7.3251L18.1719 6.7251C17.6742 6.5251 17.276 6.1251 17.0769 5.6251L16.4796 4.1251L16.3801 4.0251L14.7873 4.2251C14.2896 4.3251 13.6923 4.1251 13.1946 3.8251L11.9005 2.8251H11.8009L10.6063 3.8251C10.2081 4.1251 9.61086 4.3251 9.01357 4.2251H7.61991C7.52036 4.2251 7.52036 4.2251 7.52036 4.3251L6.92308 5.7251C6.62443 6.2251 6.22624 6.6251 5.72851 6.9251L4.33484 7.5251L4.23529 7.6251L4.43439 9.2251C4.53394 9.8251 4.33484 10.3251 4.0362 10.8251L3.04072 12.0251V12.1251L4.0362 13.3251C4.33484 13.7251 4.53394 14.3251 4.43439 14.9251L4.23529 16.5251C4.23529 16.5251 4.23529 16.6251 4.33484 16.6251L5.82805 17.2251C6.32579 17.4251 6.72398 17.8251 6.92308 18.3251L7.52036 19.8251L7.61991 19.9251L9.11312 19.7251C9.21267 19.6251 9.31222 19.6251 9.41176 19.6251ZM11.0045 15.0251C10.7059 15.0251 10.5068 14.9251 10.3077 14.7251L8.31674 12.7251C7.91855 12.3251 7.91855 11.7251 8.31674 11.3251C8.71493 10.9251 9.31222 10.9251 9.71041 11.3251L11.0045 12.6251L14.7873 8.8251C15.1855 8.4251 15.7828 8.4251 16.181 8.8251C16.5792 9.2251 16.5792 9.8251 16.181 10.2251L11.7014 14.7251C11.5023 14.9251 11.3032 15.0251 11.0045 15.0251Z" fill="white"/>
</svg>
