<svg width="24" height="24" viewBox="0 0 24 24" fill="none" xmlns="http://www.w3.org/2000/svg">
<path fill-rule="evenodd" clip-rule="evenodd" d="M11.9929 3.71691C9.65298 1.67202 6.19252 1.25356 3.50521 3.54965C0.598423 6.03328 0.176093 10.2161 2.47471 13.1739C3.26977 14.197 4.74915 15.6827 6.23203 17.0968C7.73154 18.5268 9.2902 19.9356 10.2823 20.8209L10.3043 20.8405C10.4669 20.9857 10.6294 21.1308 10.7793 21.2444C10.9478 21.3722 11.1547 21.5037 11.4186 21.5828C11.7907 21.6945 12.1958 21.6945 12.5679 21.5828C12.8318 21.5037 13.0387 21.3722 13.2072 21.2444C13.3571 21.1308 13.5196 20.9857 13.6822 20.8406L13.7042 20.8209C14.6963 19.9356 16.255 18.5268 17.7545 17.0968C19.2374 15.6827 20.7168 14.197 21.5118 13.1739C23.8016 10.2275 23.4445 6.01238 20.4709 3.54088C17.7537 1.28246 14.3301 1.67124 11.9929 3.71691ZM11.2333 5.78575C9.52828 3.79238 6.818 3.34975 4.80441 5.07021C2.7011 6.86733 2.41807 9.84171 4.05392 11.9467C4.74475 12.8357 6.11892 14.2253 7.61229 15.6494C9.08904 17.0577 10.6293 18.4501 11.6139 19.3287C11.8074 19.5013 11.9095 19.5914 11.9877 19.6507C11.9896 19.6522 11.9915 19.6536 11.9933 19.6549C11.9951 19.6536 11.9969 19.6522 11.9988 19.6507C12.0771 19.5914 12.1791 19.5013 12.3726 19.3287C13.3572 18.4501 14.8975 17.0577 16.3742 15.6494C17.8676 14.2253 19.2418 12.8357 19.9326 11.9467C21.5773 9.83034 21.3152 6.84319 19.1925 5.07898C17.1256 3.36105 14.4507 3.80119 12.7532 5.78575C12.5632 6.00786 12.2856 6.13573 11.9933 6.13573C11.701 6.13573 11.4233 6.00786 11.2333 5.78575ZM16.2072 7.79281C16.5977 8.18334 16.5977 8.8165 16.2072 9.20703L11.7072 13.707C11.3167 14.0976 10.6835 14.0976 10.293 13.707L8.29301 11.707C7.90249 11.3165 7.90249 10.6833 8.29301 10.2928C8.68353 9.90229 9.3167 9.90229 9.70722 10.2928L11.0001 11.5857L14.793 7.79281C15.1835 7.40229 15.8167 7.40229 16.2072 7.79281Z" fill="white"/>
</svg>
