<svg width="24" height="24" viewBox="0 0 24 24" fill="none" xmlns="http://www.w3.org/2000/svg">
<path fill-rule="evenodd" clip-rule="evenodd" d="M3.50509 3.54965C6.19239 1.25356 9.65285 1.67202 11.9928 3.71691C14.33 1.67124 17.7536 1.28246 20.4708 3.54088C23.4444 6.01238 23.8015 10.2275 21.5117 13.1739C20.7166 14.197 19.2373 15.6827 17.7544 17.0968C16.2549 18.5268 14.6962 19.9356 13.7041 20.8209L13.6821 20.8405C13.5196 20.9856 13.357 21.1308 13.2071 21.2444C13.0386 21.3722 12.8317 21.5037 12.5678 21.5828C12.1957 21.6945 11.7906 21.6945 11.4185 21.5828C11.1546 21.5037 10.9477 21.3722 10.7792 21.2444C10.6293 21.1308 10.4668 20.9857 10.3042 20.8406L10.2822 20.8209C9.29007 19.9356 7.73142 18.5268 6.23191 17.0968C4.74903 15.6827 3.26965 14.197 2.47459 13.1739C0.175971 10.2161 0.598301 6.03328 3.50509 3.54965ZM16.2071 9.20698C16.5976 8.81646 16.5976 8.1833 16.2071 7.79277C15.8166 7.40225 15.1834 7.40225 14.7929 7.79277L11 11.5857L9.70711 10.2928C9.31658 9.90225 8.68342 9.90225 8.29289 10.2928C7.90237 10.6833 7.90237 11.3165 8.29289 11.707L10.2929 13.707C10.6834 14.0975 11.3166 14.0975 11.7071 13.707L16.2071 9.20698Z" fill="white"/>
</svg>
