<svg width="24" height="24" viewBox="0 0 24 24" fill="none" xmlns="http://www.w3.org/2000/svg">
<path fill-rule="evenodd" clip-rule="evenodd" d="M18.1018 2.87338C17.7941 2.13029 17.2037 1.53991 16.4606 1.23213C15.7175 0.924339 14.8826 0.924359 14.1395 1.23216L12.9775 1.71348L12.3959 1.95336L12.394 1.95418C12.3163 1.9864 12.2357 2.00874 12.1539 2.02119C11.9699 2.04849 11.7802 2.02583 11.6057 1.95342L9.86171 1.23108C9.49375 1.07858 9.09936 1.00006 8.70105 1C8.30263 0.999943 7.90811 1.07839 7.54002 1.23087C7.17193 1.38334 6.8375 1.60684 6.55582 1.88861C6.2743 2.17022 6.05074 2.50513 5.89839 2.87302L5.17337 4.61832C5.09879 4.79868 4.97517 4.95274 4.81873 5.06438C4.75624 5.10857 4.68857 5.14603 4.61678 5.17571L2.87285 5.8981C2.50483 6.05045 2.17043 6.27381 1.88874 6.55542C1.60698 6.8371 1.38348 7.17154 1.23102 7.53963C1.07855 7.90772 1.00011 8.30225 1.00018 8.70066C1.00024 9.09886 1.07897 9.49375 1.23139 9.86162L1.95283 11.6084C2.0334 11.8026 2.05216 12.0154 2.00919 12.2184C1.99612 12.2789 1.97756 12.3385 1.95352 12.3964L1.23014 14.1428C0.923051 14.8854 0.923292 15.7196 1.23083 16.4621C1.53836 17.2046 2.12815 17.7947 2.87044 18.1027L4.61491 18.8263L4.61596 18.8267C4.86895 18.9313 5.07004 19.1321 5.17503 19.3849L5.89703 21.1281C6.04036 21.4741 6.24497 21.787 6.49774 22.0537C6.78807 22.3605 7.14209 22.6062 7.53985 22.771C8.28233 23.0786 9.11663 23.0788 9.8593 22.7717L11.6045 22.0498L11.6055 22.0494C11.8584 21.9445 12.1426 21.9443 12.3956 22.0488L14.1387 22.7708C14.8818 23.0787 15.7167 23.0787 16.4598 22.7708C17.1699 22.4767 17.7406 21.9245 18.0584 21.2275C18.0734 21.1946 18.0879 21.1614 18.1017 21.1279L18.8244 19.3859L18.8252 19.3838C18.8631 19.2919 18.9139 19.2067 18.9754 19.1305C19.083 18.998 19.2228 18.8929 19.3832 18.8266L21.1272 18.1042C21.4952 17.9519 21.8296 17.7285 22.1113 17.4469C22.393 17.1652 22.6165 16.8308 22.769 16.4627C22.9215 16.0946 22.9999 15.7001 22.9998 15.3017C22.9998 15.1154 22.9826 14.9299 22.9487 14.7476C22.9103 14.5412 22.8504 14.3378 22.7688 14.1408L22.0478 12.398L22.0469 12.3959C21.9422 12.1442 21.9419 11.86 22.047 11.6063L22.7693 9.86235C23.0771 9.11927 23.0771 8.28434 22.7693 7.54126C22.4616 6.79817 21.8712 6.20778 21.1281 5.89997L20.7069 5.72551L19.3849 5.17557L19.3829 5.17475C19.1946 5.09688 19.035 4.96555 18.9223 4.79921C18.8844 4.74268 18.8519 4.68213 18.8255 4.61828C18.8202 4.6054 18.8146 4.59268 18.8088 4.58013L18.1018 2.87338ZM19.9409 7.57301L18.6167 7.02448C17.8921 6.72357 17.313 6.15387 17 5.43604C16.9921 5.41968 16.9847 5.40302 16.9777 5.38607L16.2547 3.64045C16.1498 3.38754 15.9488 3.18648 15.6959 3.08171C15.4429 2.97693 15.1587 2.97691 14.9057 3.08165L13.7415 3.56181L13.1582 3.80343C12.9213 3.90116 12.675 3.96762 12.4254 4.00281C12.3688 4.01085 12.3121 4.01729 12.2553 4.02212C11.7771 4.0621 11.2911 3.98825 10.8397 3.80095L9.11288 3.08568L9.0954 3.08048C8.84239 2.97567 8.55811 2.97567 8.3051 3.08048C8.05208 3.18528 7.85105 3.38631 7.74624 3.63935L7.02277 5.38603C6.79772 5.927 6.42283 6.38673 5.94835 6.71505C5.77248 6.83714 5.58286 6.94116 5.38207 7.02454L3.6379 7.74703C3.38519 7.852 3.18415 8.05312 3.0795 8.30598C2.97482 8.55895 2.97486 8.84311 3.07962 9.09602L3.80248 10.8412C4.03696 11.4087 4.09218 12.0301 3.96792 12.6229C3.92973 12.8062 3.87437 12.9868 3.80186 13.1623L3.07942 14.9065C2.97496 15.1594 2.97501 15.4438 3.07982 15.6966C3.18467 15.9495 3.38563 16.1504 3.63854 16.2551L5.38372 16.978C6.12609 17.2863 6.7165 17.877 7.02378 18.6198L7.74664 20.365C7.85158 20.6175 8.05263 20.8186 8.30524 20.9233C8.55801 21.028 8.842 21.0281 9.09484 20.9236L10.839 20.2021L15.8043 20.8691C15.8868 20.8229 15.9627 20.7655 16.0299 20.6983C16.1258 20.6024 16.2022 20.4877 16.2541 20.3623L16.9761 18.6217L16.9767 18.6203C17.2841 17.8755 17.8757 17.2854 18.6181 16.9778L20.3621 16.2554C20.6152 16.1506 20.8162 15.9496 20.921 15.6965C20.9935 15.5215 21.0159 15.3315 20.9881 15.1472C20.9755 15.0645 20.9529 14.9833 20.9208 14.9059L20.1978 13.1601C19.8982 12.435 19.8916 11.6227 20.1778 10.8938C20.1839 10.8766 20.1904 10.8596 20.1974 10.8426L20.9205 9.09704C21.0252 8.84407 21.0252 8.55975 20.9204 8.30683C20.8157 8.05387 20.6147 7.85288 20.3618 7.74806L19.9409 7.57301Z" fill="white"/>
<path fill-rule="evenodd" clip-rule="evenodd" d="M16.2071 8.79289C16.5976 9.18342 16.5976 9.81658 16.2071 10.2071L11.7071 14.7071C11.3166 15.0976 10.6834 15.0976 10.2929 14.7071L8.29289 12.7071C7.90237 12.3166 7.90237 11.6834 8.29289 11.2929C8.68342 10.9024 9.31658 10.9024 9.70711 11.2929L11 12.5858L14.7929 8.79289C15.1834 8.40237 15.8166 8.40237 16.2071 8.79289Z" fill="white"/>
</svg>
