<svg width="24" height="24" viewBox="0 0 24 24" fill="none" xmlns="http://www.w3.org/2000/svg">
<path d="M19.5406 5.67507L19.4319 6.0806C16.553 2.45685 11.3787 1.38924 7.25005 3.77294C4.51454 5.35228 2.86226 8.08745 2.55208 11.0015C2.49363 11.5507 2.89144 12.0433 3.44062 12.1017C3.9898 12.1602 4.48239 11.7624 4.54085 11.2132C4.78628 8.90747 6.09157 6.75119 8.25005 5.50499C11.4059 3.68295 15.3355 4.41513 17.6451 7.06011L17.3012 6.96796C16.7678 6.82502 16.2194 7.1416 16.0765 7.67507C15.9336 8.20854 16.2501 8.75687 16.7836 8.89981L19.5157 9.63187C20.0491 9.77481 20.5975 9.45822 20.7404 8.92476L21.4725 6.19271C21.6154 5.65924 21.2988 5.1109 20.7653 4.96796C20.2319 4.82502 19.6835 5.1416 19.5406 5.67507Z" fill="#1B2631"/>
<path d="M20.5593 11.8985C21.1085 11.9569 21.5063 12.4495 21.4479 12.9987C21.1377 15.9128 19.4854 18.6479 16.7499 20.2273C12.6211 22.611 7.44681 21.5433 4.56786 17.9194L4.45928 18.3247C4.31634 18.8581 3.768 19.1747 3.23453 19.0318C2.70107 18.8888 2.38448 18.3405 2.52743 17.807L3.25948 15.075C3.40242 14.5415 3.95076 14.2249 4.48422 14.3679L7.21627 15.0999C7.74974 15.2429 8.06632 15.7912 7.92338 16.3247C7.78044 16.8581 7.2321 17.1747 6.69863 17.0318L6.35428 16.9395C8.66381 19.585 12.5938 20.3174 15.7499 18.4952C17.9084 17.249 19.2137 15.0927 19.4591 12.787C19.5176 12.2378 20.0101 11.84 20.5593 11.8985Z" fill="#1B2631"/>
<path d="M13 7.49999C13 6.94771 12.5523 6.49999 12 6.49999C11.4477 6.49999 11 6.94771 11 7.49999V12C11 12.3513 11.1843 12.6768 11.4855 12.8575L13.9855 14.3575C14.4591 14.6416 15.0733 14.4881 15.3575 14.0145C15.6416 13.5409 15.4881 12.9266 15.0145 12.6425L13 11.4338V7.49999Z" fill="#1B2631"/>
</svg>
