<svg width="24" height="24" viewBox="0 0 24 24" fill="none" xmlns="http://www.w3.org/2000/svg">
<path fill-rule="evenodd" clip-rule="evenodd" d="M17.6449 7.06028C15.3354 4.41499 11.4055 3.68265 8.2495 5.50478C6.09103 6.75097 4.78573 8.90726 4.54031 11.213C4.48185 11.7622 3.98926 12.16 3.44008 12.1015C2.8909 12.0431 2.49309 11.5505 2.55154 11.0013C2.86172 8.08724 4.514 5.35207 7.2495 3.77273C11.3783 1.38899 16.5526 2.45667 19.4315 6.08056L19.5402 5.67517C19.6831 5.14171 20.2314 4.82513 20.7649 4.96807C21.2984 5.11101 21.615 5.65935 21.472 6.19281L20.74 8.92486C20.597 9.45833 20.0487 9.77491 19.5152 9.63197L16.7832 8.89992C16.2497 8.75698 15.9331 8.20864 16.0761 7.67517C16.219 7.14171 16.7673 6.82512 17.3008 6.96807L17.6449 7.06028ZM11.9995 6.49997C12.5518 6.49997 12.9995 6.94768 12.9995 7.49997V11.4338L15.014 12.6425C15.4876 12.9266 15.6411 13.5409 15.357 14.0145C15.0728 14.488 14.4586 14.6416 13.985 14.3575L11.485 12.8575C11.1838 12.6767 10.9995 12.3512 10.9995 12V7.49997C10.9995 6.94768 11.4472 6.49997 11.9995 6.49997ZM20.5589 11.8985C21.108 11.9569 21.5058 12.4495 21.4474 12.9987C21.1372 15.9127 19.4849 18.6479 16.7494 20.2273C12.6207 22.611 7.44641 21.5433 4.56744 17.9195L4.45885 18.3248C4.31591 18.8582 3.76757 19.1748 3.2341 19.0319C2.70064 18.8889 2.38406 18.3406 2.527 17.8071L3.25905 15.0751C3.40199 14.5416 3.95033 14.225 4.48379 14.368L7.21584 15.1C7.74931 15.243 8.06589 15.7913 7.92295 16.3248C7.78001 16.8582 7.23167 17.1748 6.69821 17.0319L6.35393 16.9396C8.66347 19.585 12.5934 20.3173 15.7494 18.4952C17.9079 17.249 19.2132 15.0927 19.4586 12.787C19.5171 12.2378 20.0097 11.84 20.5589 11.8985Z" fill="#1B2631"/>
</svg>
