<svg width="24" height="24" viewBox="0 0 24 24" fill="none" xmlns="http://www.w3.org/2000/svg">
<path fill-rule="evenodd" clip-rule="evenodd" d="M15.8705 1.45643C16.1188 1.7047 16.2187 2.06501 16.1336 2.40569C16.0465 2.75484 16 3.12108 16 3.49958C16 5.98486 18.0147 7.99958 20.5 7.99958C20.8787 7.99958 21.2451 7.95302 21.5944 7.86582C21.9351 7.78076 22.2954 7.88062 22.5437 8.12889C22.792 8.37716 22.8919 8.73747 22.8069 9.07815C22.4307 10.5854 21.5288 11.8846 20.3069 12.7692C21.9194 13.728 23 15.4878 23 17.5C23 20.5376 20.5376 23 17.5 23H6C3.23858 23 1 20.7614 1 18C1 15.731 2.51052 13.8165 4.58077 13.2046C5.55606 10.9681 7.66611 9.33879 10.1854 9.04688C10.0642 8.55065 10 8.03248 10 7.50003C10 4.45363 12.0948 1.89899 14.9212 1.19335C15.2618 1.1083 15.6222 1.20815 15.8705 1.45643ZM11.5064 11.0253C11.5121 11.0259 11.5178 11.0265 11.5235 11.0271C13.2061 11.2021 14.6419 12.2114 15.4082 13.638C15.6296 14.0501 16.1071 14.2536 16.5577 14.1281C16.8563 14.0448 17.1721 14 17.5 14C19.433 14 21 15.567 21 17.5C21 19.433 19.433 21 17.5 21H6C4.34315 21 3 19.6569 3 18C3 16.5176 4.07616 15.2846 5.48991 15.043C5.85082 14.9814 6.14918 14.7274 6.26767 14.3809C6.94082 12.4128 8.80671 11 11 11C11.1709 11 11.3399 11.0086 11.5064 11.0253ZM12.3003 9.12058C12.1065 8.61862 12 8.07262 12 7.50003C12 5.9384 12.796 4.56131 14.0049 3.75423C14.1354 7.14181 16.8584 9.86458 20.2461 9.99471C19.4808 11.1413 18.2027 11.9166 16.7407 11.9937C15.7127 10.5233 14.1328 9.4649 12.3003 9.12058ZM5 2C5.55228 2 6 2.44771 6 3V4H7C7.55228 4 8 4.44771 8 5C8 5.55228 7.55228 6 7 6H6V7C6 7.55228 5.55228 8 5 8C4.44772 8 4 7.55228 4 7V6H3C2.44772 6 2 5.55228 2 5C2 4.44771 2.44772 4 3 4H4V3C4 2.44771 4.44772 2 5 2Z" fill="#1B2631"/>
</svg>
