<svg width="24" height="24" viewBox="0 0 24 24" fill="none" xmlns="http://www.w3.org/2000/svg">
<path fill-rule="evenodd" clip-rule="evenodd" d="M11.5428 1.24555C11.8434 1.17499 12.1563 1.17499 12.4569 1.24555C12.8049 1.32725 13.1086 1.52631 13.3502 1.68477C13.373 1.69968 13.3952 1.71423 13.4168 1.72829L21.8168 7.18828C21.8349 7.20007 21.8536 7.21212 21.8727 7.22447C22.0785 7.35723 22.3374 7.52424 22.5345 7.76018C22.7051 7.96434 22.8333 8.20048 22.9115 8.45478C23.0019 8.74868 23.0008 9.05674 23 9.30162C22.9999 9.32439 22.9998 9.34662 22.9998 9.36824V14.6316C22.9998 14.6533 22.9999 14.6755 23 14.6983C23.0008 14.9431 23.0019 15.2512 22.9115 15.5451C22.8333 15.7994 22.7051 16.0355 22.5345 16.2397C22.3374 16.4756 22.0785 16.6427 21.8728 16.7754C21.8536 16.7878 21.8349 16.7998 21.8168 16.8116L13.4168 22.2716C13.3952 22.2857 13.373 22.3002 13.3502 22.3151C13.1086 22.4736 12.8049 22.6726 12.4569 22.7543C12.1563 22.8249 11.8434 22.8249 11.5428 22.7543C11.1947 22.6726 10.8911 22.4736 10.6494 22.3151C10.6267 22.3002 10.6045 22.2857 10.5829 22.2716L2.18286 16.8116C2.16473 16.7998 2.14605 16.7878 2.12692 16.7754C1.92115 16.6427 1.66229 16.4756 1.46513 16.2397C1.29452 16.0355 1.16637 15.7994 1.08817 15.5451C0.997797 15.2512 0.998844 14.9431 0.999676 14.6983C0.999754 14.6755 0.999829 14.6533 0.999829 14.6316V9.36824C0.999829 9.34662 0.999754 9.32439 0.999676 9.30162C0.998844 9.05674 0.997797 8.74868 1.08817 8.45478C1.16637 8.20048 1.29452 7.96433 1.46513 7.76018C1.66229 7.52423 1.92115 7.35722 2.12692 7.22446C2.14606 7.21212 2.16473 7.20007 2.18286 7.18828L10.5829 1.72829C10.6045 1.71423 10.6267 1.69968 10.6494 1.68477C10.8911 1.52631 11.1947 1.32725 11.5428 1.24555ZM12.9998 3.84263L20.1441 8.48642C20.1332 8.49559 20.1205 8.50595 20.1058 8.51753C19.9632 8.62986 19.7511 8.76893 19.391 9.00301L16.6152 10.8073L12.9998 8.45725V3.84263ZM10.9998 8.45725V3.84263L3.85553 8.48642C3.86645 8.49559 3.87914 8.50595 3.89383 8.51753C4.03642 8.62986 4.24856 8.76893 4.60868 9.00301L7.38444 10.8073L10.9998 8.45725ZM5.54954 11.9999L3.48489 10.6579C3.31379 10.5467 3.14976 10.4401 2.99983 10.3377V13.6621C3.14976 13.5598 3.3138 13.4531 3.4849 13.342L5.54954 11.9999ZM3.85553 15.5135C3.86645 15.5043 3.87915 15.4939 3.89383 15.4824C4.03642 15.37 4.24856 15.231 4.60868 14.9969L7.38444 13.1926L10.9998 15.5426V20.1573L3.85553 15.5135ZM12.9998 20.1573L20.1441 15.5135C20.1332 15.5043 20.1205 15.4939 20.1058 15.4824C19.9632 15.37 19.7511 15.231 19.391 14.9969L16.6152 13.1926L12.9998 15.5426V20.1573ZM11.9998 13.8073L9.21935 11.9999L11.9998 10.1926L14.7803 11.9999L11.9998 13.8073ZM18.4501 11.9999L20.5148 13.342C20.6859 13.4532 20.8499 13.5598 20.9998 13.6621V10.3377C20.8499 10.4401 20.6859 10.5467 20.5147 10.6579L18.4501 11.9999Z" fill="#1B2631"/>
</svg>
