<svg width="24" height="24" viewBox="0 0 24 24" fill="none" xmlns="http://www.w3.org/2000/svg">
<path fill-rule="evenodd" clip-rule="evenodd" d="M11.9999 1C12.5522 1 12.9999 1.44772 12.9999 2V3.14494C14.4457 3.57521 15.4999 4.91449 15.4999 6.5C15.4999 7.42821 15.1386 8.27202 14.5489 8.89846L18.5699 15.8234C19.1821 15.3668 19.7453 14.8478 20.2502 14.2757C20.6156 13.8617 21.2476 13.8223 21.6617 14.1877C22.0757 14.5532 22.1151 15.1851 21.7497 15.5992C21.1032 16.3317 20.3751 16.9909 19.5797 17.5626L21.8647 21.4979C22.142 21.9755 21.9797 22.5875 21.5021 22.8648C21.0244 23.1421 20.4125 22.9797 20.1351 22.5021L17.8705 18.6019C16.1071 19.4959 14.1122 20 11.9999 20C9.88765 20 7.89276 19.4959 6.12938 18.6019L3.86471 22.5021C3.58739 22.9797 2.97539 23.1421 2.49779 22.8648C2.02018 22.5875 1.85781 21.9755 2.13513 21.4979L4.42012 17.5626C3.62473 16.9909 2.89669 16.3317 2.25018 15.5992C1.88472 15.1851 1.92412 14.5532 2.33819 14.1877C2.75226 13.8223 3.38419 13.8617 3.74966 14.2757C4.25454 14.8478 4.81774 15.3668 5.42996 15.8234L9.45091 8.89846C8.86124 8.27202 8.49992 7.42821 8.49992 6.5C8.49992 4.91449 9.55418 3.57521 10.9999 3.14494V2C10.9999 1.44772 11.4476 1 11.9999 1ZM11.27 7.81073C11.2624 7.80603 11.2547 7.80142 11.2469 7.7969C11.2394 7.79254 11.2318 7.78828 11.2243 7.78414C10.7901 7.52133 10.4999 7.04455 10.4999 6.5C10.4999 5.67157 11.1715 5 11.9999 5C12.8283 5 13.4999 5.67157 13.4999 6.5C13.4999 7.04455 13.2097 7.52133 12.7756 7.78414C12.768 7.78828 12.7605 7.79254 12.753 7.7969C12.7452 7.80142 12.7375 7.80603 12.7299 7.81073C12.5138 7.9313 12.2649 8 11.9999 8C11.735 8 11.486 7.9313 11.27 7.81073ZM11.1801 9.90345L7.13556 16.869C8.60222 17.5933 10.2534 18 11.9999 18C13.7464 18 15.3976 17.5933 16.8643 16.869L12.8198 9.90345C12.5568 9.96657 12.2823 10 11.9999 10C11.7176 10 11.4431 9.96657 11.1801 9.90345Z" fill="#1B2631"/>
</svg>
