<svg width="24" height="24" viewBox="0 0 24 24" fill="none" xmlns="http://www.w3.org/2000/svg">
<path fill-rule="evenodd" clip-rule="evenodd" d="M8.5151 2.57357C8.7572 3.06996 8.55106 3.66863 8.05467 3.91074C6.34641 4.74391 4.94577 6.0965 4.05348 7.77464C3.1612 9.45278 2.82309 11.3703 3.0876 13.2524C3.16446 13.7994 2.78341 14.305 2.2365 14.3819C1.68959 14.4587 1.18393 14.0777 1.10706 13.5308C0.783768 11.2304 1.19702 8.88676 2.28759 6.8357C3.37816 4.78464 5.09006 3.13147 7.17793 2.11315C7.67432 1.87105 8.27299 2.07718 8.5151 2.57357ZM15.4848 2.57367C15.7269 2.07728 16.3256 1.87114 16.822 2.11325C18.9099 3.13157 20.6218 4.78473 21.7123 6.83579C22.8029 8.88686 23.2162 11.2305 22.8929 13.5309C22.816 14.0778 22.3103 14.4588 21.7634 14.382C21.2165 14.3051 20.8355 13.7994 20.9123 13.2525C21.1768 11.3704 20.8387 9.45288 19.9464 7.77474C19.0542 6.0966 17.6535 4.74401 15.9453 3.91084C15.4489 3.66873 15.2427 3.07006 15.4848 2.57367ZM11.9999 7.4142L7.41413 12L11.9999 16.5858L16.5857 12L11.9999 7.4142ZM11.5364 5.28051C11.8377 5.18262 12.1622 5.18262 12.4634 5.28051C12.6961 5.35609 12.8647 5.48164 12.9757 5.57593C13.0716 5.65731 13.1722 5.75795 13.2564 5.84221C13.2619 5.84773 13.2673 5.85319 13.2727 5.85856L18.1577 10.7435C18.2419 10.8277 18.3426 10.9283 18.424 11.0242C18.5183 11.1352 18.6438 11.3038 18.7194 11.5365C18.8173 11.8377 18.8173 12.1622 18.7194 12.4635C18.6438 12.6961 18.5183 12.8647 18.424 12.9758C18.3426 13.0717 18.242 13.1722 18.1577 13.2564L13.2727 18.1414C13.2673 18.1468 13.2619 18.1522 13.2564 18.1578C13.1722 18.242 13.0716 18.3427 12.9757 18.424C12.8647 18.5183 12.6961 18.6439 12.4634 18.7195C12.1622 18.8173 11.8377 18.8173 11.5364 18.7195C11.3038 18.6439 11.1352 18.5183 11.0241 18.424C10.9282 18.3427 10.8277 18.242 10.7435 18.1578C10.738 18.1522 10.7325 18.1468 10.7271 18.1414L5.85849 13.2728C5.85312 13.2674 5.84767 13.262 5.84214 13.2564C5.75788 13.1722 5.65724 13.0717 5.57587 12.9758C5.48157 12.8647 5.35602 12.6961 5.28044 12.4635C5.18255 12.1622 5.18255 11.8377 5.28044 11.5365C5.35602 11.3038 5.48157 11.1352 5.57586 11.0242C5.65724 10.9283 5.75787 10.8277 5.84214 10.7435C5.84766 10.738 5.85312 10.7326 5.85849 10.7272L10.7271 5.85856C10.7325 5.85318 10.738 5.84772 10.7435 5.84219C10.8277 5.75793 10.9282 5.65731 11.0241 5.57593C11.1352 5.48164 11.3038 5.35609 11.5364 5.28051ZM5.31305 19.5024C5.63767 19.0556 6.26304 18.9565 6.70985 19.2811C8.24748 20.3983 10.0993 21 11.9999 21C13.9005 21 15.7524 20.3983 17.29 19.2811C17.7368 18.9565 18.3622 19.0556 18.6868 19.5024C19.0114 19.9492 18.9124 20.5745 18.4656 20.8992C16.5862 22.2646 14.3229 23 11.9999 23C9.67694 23 7.4136 22.2646 5.53428 20.8992C5.08747 20.5745 4.98842 19.9492 5.31305 19.5024Z" fill="#1B2631"/>
</svg>
