<svg width="24" height="24" viewBox="0 0 24 24" fill="none" xmlns="http://www.w3.org/2000/svg">
<path fill-rule="evenodd" clip-rule="evenodd" d="M8.5151 2.57357C8.7572 3.06996 8.55106 3.66863 8.05467 3.91074C6.34641 4.74391 4.94577 6.0965 4.05348 7.77464C3.1612 9.45278 2.82309 11.3703 3.0876 13.2524C3.16446 13.7994 2.78341 14.305 2.2365 14.3819C1.68959 14.4587 1.18393 14.0777 1.10706 13.5308C0.783768 11.2304 1.19702 8.88676 2.28759 6.8357C3.37816 4.78464 5.09006 3.13147 7.17793 2.11315C7.67432 1.87105 8.27299 2.07718 8.5151 2.57357ZM15.4848 2.57367C15.7269 2.07728 16.3256 1.87114 16.822 2.11325C18.9099 3.13157 20.6218 4.78473 21.7123 6.83579C22.8029 8.88686 23.2162 11.2305 22.8929 13.5309C22.816 14.0778 22.3103 14.4588 21.7634 14.382C21.2165 14.3051 20.8355 13.7994 20.9123 13.2525C21.1768 11.3704 20.8387 9.45288 19.9464 7.77474C19.0542 6.0966 17.6535 4.74401 15.9453 3.91084C15.4489 3.66873 15.2427 3.07006 15.4848 2.57367ZM11.9999 7.49998C9.51463 7.49998 7.49991 9.5147 7.49991 12C7.49991 14.4853 9.51463 16.5 11.9999 16.5C14.4852 16.5 16.4999 14.4853 16.4999 12C16.4999 9.5147 14.4852 7.49998 11.9999 7.49998ZM5.49991 12C5.49991 8.41013 8.41006 5.49998 11.9999 5.49998C15.5898 5.49998 18.4999 8.41013 18.4999 12C18.4999 15.5898 15.5898 18.5 11.9999 18.5C8.41006 18.5 5.49991 15.5898 5.49991 12ZM5.31305 19.5024C5.63767 19.0556 6.26304 18.9565 6.70985 19.2811C8.24748 20.3983 10.0993 21 11.9999 21C13.9005 21 15.7524 20.3983 17.29 19.2811C17.7368 18.9565 18.3622 19.0556 18.6868 19.5024C19.0114 19.9492 18.9124 20.5745 18.4656 20.8992C16.5862 22.2646 14.3229 23 11.9999 23C9.67694 23 7.4136 22.2646 5.53428 20.8992C5.08747 20.5745 4.98842 19.9492 5.31305 19.5024Z" fill="#1B2631"/>
</svg>
