<svg width="24" height="24" viewBox="0 0 24 24" fill="none" xmlns="http://www.w3.org/2000/svg">
<path fill-rule="evenodd" clip-rule="evenodd" d="M11.597 1.18505C11.8628 1.13038 12.137 1.13038 12.4028 1.18505C12.7101 1.24824 12.9847 1.40207 13.203 1.52436C13.2234 1.53575 13.2432 1.54687 13.2626 1.55761L12.7769 2.43177L13.2626 1.55761L14.7355 2.37593C15.2183 2.64414 15.3923 3.25294 15.124 3.73573C14.8558 4.21851 14.247 4.39245 13.7642 4.12424L12.2913 3.30592C12.1397 3.22173 12.0624 3.1792 12.0047 3.15136C12.003 3.15056 12.0014 3.1498 11.9999 3.14907C11.9984 3.1498 11.9968 3.15056 11.9951 3.15136C11.9374 3.1792 11.86 3.22173 11.7085 3.30592L10.2355 4.12424C9.75274 4.39246 9.14394 4.21851 8.87572 3.73573C8.60751 3.25294 8.78146 2.64414 9.26424 2.37593L10.7372 1.55761C10.7565 1.54687 10.7764 1.53575 10.7967 1.52436C11.0151 1.40207 11.2897 1.24824 11.597 1.18505ZM17.8757 5.26444C18.1439 4.78166 18.7527 4.60771 19.2355 4.87593L20.6626 5.66872C20.683 5.68008 20.7041 5.6917 20.7257 5.70359C20.8858 5.79178 21.0745 5.89569 21.2495 6.03173C21.5057 6.09782 21.7354 6.26486 21.874 6.51444C22.004 6.74846 22.0302 7.01209 21.9676 7.25218C22.0015 7.47124 22.0007 7.68661 22.0001 7.8694C22 7.89406 21.9999 7.91813 21.9999 7.94153V9.50008C21.9999 10.0524 21.5522 10.5001 20.9999 10.5001C20.4476 10.5001 19.9999 10.0524 19.9999 9.50008V8.6996L19.2355 9.12424C18.7527 9.39245 18.1439 9.21851 17.8757 8.73573C17.6075 8.25294 17.7815 7.64414 18.2642 7.37593L18.9408 7.00008L18.2642 6.62424C17.7815 6.35603 17.6075 5.74723 17.8757 5.26444ZM6.12404 5.26444C6.39225 5.74723 6.21831 6.35603 5.73552 6.62424L5.05901 7.00009L5.73552 7.37593C6.21831 7.64414 6.39225 8.25294 6.12404 8.73573C5.85582 9.21851 5.24702 9.39245 4.76424 9.12424L3.99988 8.6996V9.50009C3.99988 10.0524 3.55217 10.5001 2.99988 10.5001C2.4476 10.5001 1.99988 10.0524 1.99988 9.50009V7.94153C1.99988 7.91813 1.99979 7.89406 1.9997 7.8694C1.99904 7.68661 1.99825 7.47123 2.03218 7.25218C1.96959 7.01209 1.99571 6.74846 2.12572 6.51444C2.26438 6.26486 2.49406 6.09781 2.7503 6.03173C2.92531 5.8957 3.11396 5.79179 3.27406 5.7036C3.29567 5.6917 3.31675 5.68009 3.33721 5.66872L3.33721 5.66872L4.76424 4.87593C5.24702 4.60772 5.85582 4.78166 6.12404 5.26444ZM8.87572 10.2644C9.14394 9.78166 9.75274 9.60771 10.2355 9.87593L11.9999 10.8561L13.7642 9.87593C14.247 9.60771 14.8558 9.78166 15.124 10.2644C15.3923 10.7472 15.2183 11.356 14.7355 11.6242L12.9999 12.5885V14.5001C12.9999 15.0524 12.5522 15.5001 11.9999 15.5001C11.4476 15.5001 10.9999 15.0524 10.9999 14.5001V12.5885L9.26424 11.6242C8.78145 11.356 8.60751 10.7472 8.87572 10.2644ZM2.99988 13.5001C3.55217 13.5001 3.99988 13.9478 3.99988 14.5001V16.0586C3.99988 16.2416 4.0003 16.3353 4.00438 16.4031C4.0045 16.4051 4.00462 16.407 4.00474 16.4088C4.00628 16.4098 4.0079 16.4108 4.00959 16.4119C4.06688 16.4484 4.14855 16.4943 4.30849 16.5831L3.87778 17.3584L4.30849 16.5831L5.73552 17.3759C6.21831 17.6441 6.39225 18.2529 6.12404 18.7357C5.85583 19.2185 5.24702 19.3925 4.76424 19.1242L3.33721 18.3314L3.82285 17.4573L3.33721 18.3314C3.31676 18.3201 3.29568 18.3085 3.27409 18.2966C3.04296 18.1693 2.75232 18.0092 2.52915 17.767C2.3362 17.5576 2.19018 17.3095 2.10085 17.0391C1.99753 16.7264 1.99874 16.3946 1.9997 16.1308C1.99979 16.1061 1.99988 16.082 1.99988 16.0586V14.5001C1.99988 13.9478 2.4476 13.5001 2.99988 13.5001ZM20.9999 13.5001C21.5522 13.5001 21.9999 13.9478 21.9999 14.5001V16.0586C21.9999 16.082 22 16.1061 22.0001 16.1308C22.001 16.3946 22.0022 16.7264 21.8989 17.0391C21.8096 17.3095 21.6636 17.5576 21.4706 17.767C21.2474 18.0092 20.9568 18.1693 20.7257 18.2966C20.7041 18.3085 20.683 18.3201 20.6626 18.3314L19.2355 19.1242C18.7527 19.3925 18.1439 19.2185 17.8757 18.7357C17.6075 18.2529 17.7815 17.6441 18.2642 17.3759L19.6913 16.5831C19.8512 16.4943 19.9329 16.4484 19.9902 16.4119C19.9919 16.4108 19.9935 16.4098 19.995 16.4088C19.9951 16.407 19.9953 16.4051 19.9954 16.4031C19.9995 16.3353 19.9999 16.2416 19.9999 16.0586V14.5001C19.9999 13.9478 20.4476 13.5001 20.9999 13.5001ZM11.9999 18.5001C12.5522 18.5001 12.9999 18.9478 12.9999 19.5001V20.3006L13.7642 19.8759C14.247 19.6077 14.8558 19.7817 15.124 20.2644C15.3923 20.7472 15.2183 21.356 14.7355 21.6242L13.2626 22.4426C13.2432 22.4533 13.2234 22.4644 13.203 22.4758C13.0527 22.56 12.8758 22.6591 12.6799 22.7333C12.5014 22.8989 12.2625 23.0001 11.9999 23.0001C11.7373 23.0001 11.4983 22.8989 11.3199 22.7333C11.124 22.6591 10.947 22.56 10.7967 22.4758C10.7764 22.4644 10.7565 22.4533 10.7372 22.4426L9.26424 21.6242C8.78146 21.356 8.60751 20.7472 8.87572 20.2644C9.14394 19.7817 9.75274 19.6077 10.2355 19.8759L10.9999 20.3006V19.5001C10.9999 18.9478 11.4476 18.5001 11.9999 18.5001Z" fill="#1B2631"/>
</svg>
