<svg width="24" height="24" viewBox="0 0 24 24" fill="none" xmlns="http://www.w3.org/2000/svg">
<path fill-rule="evenodd" clip-rule="evenodd" d="M11.597 1.18505C11.8628 1.13038 12.137 1.13038 12.4028 1.18505C12.7101 1.24824 12.9847 1.40207 13.203 1.52436C13.2234 1.53575 13.2432 1.54687 13.2626 1.55761L20.6626 5.66872C20.683 5.68009 20.7041 5.6917 20.7257 5.70359C20.9568 5.8309 21.2474 5.99097 21.4706 6.23315C21.6636 6.44253 21.8096 6.6907 21.8989 6.96105C22.0022 7.27375 22.001 7.60553 22.0001 7.8694C22 7.89406 21.9999 7.91813 21.9999 7.94153V16.0586C21.9999 16.082 22 16.1061 22.0001 16.1308C22.001 16.3946 22.0022 16.7264 21.8989 17.0391C21.8096 17.3095 21.6636 17.5576 21.4706 17.767C21.2474 18.0092 20.9568 18.1693 20.7257 18.2966C20.7041 18.3085 20.683 18.3201 20.6626 18.3314L13.2626 22.4426C13.2432 22.4533 13.2234 22.4644 13.203 22.4758C12.9847 22.5981 12.7101 22.7519 12.4028 22.8151C12.137 22.8698 11.8628 22.8698 11.597 22.8151C11.2897 22.7519 11.0151 22.5981 10.7967 22.4758C10.7764 22.4644 10.7565 22.4533 10.7372 22.4426L3.33721 18.3314C3.31675 18.3201 3.29568 18.3085 3.27408 18.2966C3.04295 18.1693 2.75233 18.0092 2.52915 17.767C2.3362 17.5576 2.19018 17.3095 2.10085 17.0391C1.99753 16.7264 1.99874 16.3946 1.9997 16.1308C1.99979 16.1061 1.99988 16.082 1.99988 16.0586V7.94153C1.99988 7.91813 1.99979 7.89406 1.9997 7.8694C1.99874 7.60553 1.99753 7.27375 2.10085 6.96105C2.19017 6.6907 2.3362 6.44253 2.52915 6.23315C2.75232 5.99097 3.04294 5.8309 3.27407 5.7036C3.29567 5.6917 3.31675 5.68009 3.33721 5.66872L10.7372 1.55761C10.7565 1.54687 10.7764 1.53575 10.7967 1.52436C11.0151 1.40207 11.2897 1.24824 11.597 1.18505ZM10.9999 3.6996V10.3006L5.05906 7.00006L10.9999 3.6996ZM3.99988 8.69954V15.3006L9.94077 12.0001L3.99988 8.69954ZM10.9999 13.6996L5.05901 17.0001L10.9999 20.3006V13.6996ZM12.9999 20.3006L18.9408 17.0001L12.9999 13.6996V20.3006ZM14.059 12.0001L19.9999 15.3006V8.69954L14.059 12.0001ZM18.9407 7.00005L12.9999 3.6996V10.3006L18.9407 7.00005Z" fill="#1B2631"/>
</svg>
