<svg width="24" height="24" viewBox="0 0 24 24" fill="none" xmlns="http://www.w3.org/2000/svg">
<path fill-rule="evenodd" clip-rule="evenodd" d="M8.61189 1.99985C8.62934 1.9999 8.64636 1.99995 8.66293 1.99995L20.2233 1.99994C20.3424 1.9999 20.4847 1.99984 20.61 2.01008C20.7552 2.02194 20.9632 2.05239 21.1812 2.16344C21.4634 2.30725 21.6929 2.53672 21.8367 2.81896C21.9478 3.03691 21.9782 3.2449 21.9901 3.39012C22.0003 3.51543 22.0002 3.65768 22.0002 3.7768C22.0002 3.78462 22.0002 3.79234 22.0002 3.79995V15.3372C22.0002 15.3538 22.0002 15.3708 22.0003 15.3882C22.0008 15.5782 22.0014 15.8173 21.9449 16.0526C21.8959 16.2567 21.8151 16.4518 21.7055 16.6307C21.579 16.8371 21.4095 17.0057 21.2748 17.1397C21.2625 17.152 21.2504 17.164 21.2387 17.1757L17.1759 21.2384C17.1642 21.2501 17.1522 21.2622 17.1399 21.2746C17.006 21.4092 16.8373 21.5788 16.631 21.7052C16.452 21.8149 16.2569 21.8957 16.0529 21.9447C15.8175 22.0012 15.5784 22.0005 15.3885 22C15.371 22 15.354 21.9999 15.3374 21.9999H3.80019C3.79258 21.9999 3.78486 22 3.77704 22C3.65793 22 3.51568 22.0001 3.39036 21.9898C3.24514 21.9779 3.03715 21.9475 2.81921 21.8365C2.53696 21.6926 2.30749 21.4632 2.16368 21.1809C2.05263 20.963 2.02219 20.755 2.01032 20.6098C2.00009 20.4845 2.00014 20.3422 2.00019 20.2231L2.00019 8.66269C2.00019 8.64612 2.00015 8.62909 2.0001 8.61165C1.99959 8.42174 1.99895 8.1826 2.05545 7.94727C2.10444 7.7432 2.18525 7.54811 2.29491 7.36916C2.42137 7.16281 2.59091 6.99416 2.72556 6.86023C2.73793 6.84793 2.75 6.83593 2.76171 6.82421L6.82446 2.76147C6.83617 2.74975 6.84818 2.73768 6.86048 2.72531C6.99441 2.59067 7.16305 2.42112 7.36941 2.29467C7.54835 2.18501 7.74344 2.1042 7.94751 2.05521C8.18285 1.99871 8.42198 1.99935 8.61189 1.99985ZM9.00019 3.99995V6.99995H15.586L18.586 3.99995H9.00019ZM20.0002 5.41416V14.9999H17.0002V8.41416L20.0002 5.41416ZM15.0002 8.99995H9.00019V14.9999H15.0002V8.99995ZM15.0002 16.9999H8.4144L5.41441 19.9999H15.0002V16.9999ZM17.0002 18.5857L18.586 16.9999H17.0002V18.5857ZM4.00019 18.5857V8.99995H7.00019V15.5857L4.00019 18.5857ZM7.00019 6.99995V5.41416L5.4144 6.99995H7.00019Z" fill="#1B2631"/>
</svg>
