<svg width="24" height="24" viewBox="0 0 24 24" fill="none" xmlns="http://www.w3.org/2000/svg">
<path d="M11 2.26195C11 1.88058 10.5902 1.63961 10.2569 1.82502L3.68596 5.48078C3.34329 5.67142 3.34344 6.16435 3.68622 6.35478L10.2572 10.0054C10.5904 10.1905 11 9.94952 11 9.56828V2.26195Z" fill="#1B2631"/>
<path d="M2.74313 8.11876C2.40979 7.93357 2.00016 8.1747 2.00031 8.55603L2.003 15.6779C2.00314 16.0591 2.41263 16.2999 2.74582 16.1148L9.15413 12.5546C9.49704 12.3641 9.49704 11.871 9.15414 11.6805L2.74313 8.11876Z" fill="#1B2631"/>
<path d="M3.89253 17.7657C3.54963 17.9562 3.54963 18.4493 3.89253 18.6398L10.2572 22.1757C10.5904 22.3609 11 22.1199 11 21.7387V14.6668C11 14.2856 10.5904 14.0446 10.2572 14.2298L3.89253 17.7657Z" fill="#1B2631"/>
<path d="M13 21.7387C13 22.1199 13.4095 22.3609 13.7428 22.1757L20.1074 18.6398C20.4503 18.4493 20.4503 17.9562 20.1074 17.7657L13.7428 14.2298C13.4095 14.0446 13 14.2856 13 14.6668V21.7387Z" fill="#1B2631"/>
<path d="M21.2541 16.1148C21.5873 16.2999 21.9968 16.0591 21.997 15.6779L21.9997 8.55603C21.9998 8.1747 21.5902 7.93357 21.2568 8.11876L14.8458 11.6805C14.5029 11.871 14.5029 12.3641 14.8458 12.5546L21.2541 16.1148Z" fill="#1B2631"/>
<path d="M20.3137 6.35478C20.6565 6.16435 20.6567 5.67142 20.314 5.48077L13.7431 1.82502C13.4098 1.6396 13 1.88057 13 2.26195V9.56828C13 9.94952 13.4095 10.1905 13.7428 10.0054L20.3137 6.35478Z" fill="#1B2631"/>
</svg>
