<svg width="24" height="24" viewBox="0 0 24 24" fill="none" xmlns="http://www.w3.org/2000/svg">
<path fill-rule="evenodd" clip-rule="evenodd" d="M7.34809 0.999849C7.35822 0.999927 7.36724 0.999997 7.37503 0.999997H9.97699C9.99242 0.999636 10.0079 0.999634 10.0234 0.999997H13.9773C13.9928 0.999634 14.0083 0.999636 14.0237 0.999997H16.6256C16.6334 0.999997 16.6424 0.999927 16.6526 0.999849C16.7512 0.999086 16.9552 0.997508 17.1559 1.0515C17.3255 1.09714 17.4858 1.17222 17.6294 1.27332C17.7994 1.39293 17.9288 1.55062 17.9913 1.62687C17.9977 1.63471 18.0034 1.64168 18.0084 1.64767L22.336 6.84076C22.403 6.92109 22.4848 7.01913 22.5508 7.11194C22.6285 7.22118 22.7278 7.38106 22.7852 7.5929C22.8608 7.87131 22.8544 8.16561 22.767 8.44052C22.7004 8.64969 22.5944 8.80515 22.512 8.91093C22.4421 9.0008 22.3562 9.09522 22.2858 9.17259L13.3155 19.0399C13.228 19.1363 13.1252 19.2494 13.0269 19.3407C12.9145 19.4451 12.7392 19.5883 12.4909 19.6742C12.1731 19.7842 11.8276 19.7842 11.5097 19.6742C11.2615 19.5883 11.0862 19.4451 10.9738 19.3407C10.8755 19.2494 10.7726 19.1362 10.6851 19.0398C10.6795 19.0337 10.6739 19.0275 10.6684 19.0215L1.72885 9.18796C1.72426 9.18292 1.71959 9.17779 1.71486 9.17258C1.64447 9.09522 1.55857 9.0008 1.48863 8.91093C1.40631 8.80514 1.30025 8.64968 1.2337 8.44052C1.14623 8.16561 1.13989 7.87131 1.21544 7.59289C1.27292 7.38106 1.37219 7.22118 1.44988 7.11194C1.51588 7.01914 1.59764 6.9211 1.66464 6.84078C1.66914 6.83537 1.67358 6.83005 1.67794 6.82482L5.99224 1.64767C5.99722 1.64168 6.00295 1.6347 6.00937 1.62687C6.07192 1.55062 6.20127 1.39293 6.37124 1.27332C6.5149 1.17222 6.67519 1.09714 6.84482 1.0515C7.04552 0.997508 7.24947 0.999086 7.34809 0.999849ZM13.2796 3H10.7211L9.38776 7H14.6129L13.2796 3ZM16.7211 7L15.3878 3H16.532L19.8653 7H16.7211ZM14.5493 9L12.0003 15.691L9.45139 9H14.5493ZM7.27957 7L8.61291 3H7.46871L4.13537 7H7.27957ZM4.26089 9H7.31118L9.5114 14.7756L4.26089 9ZM14.4893 14.7756L16.6895 9H19.7398L14.4893 14.7756ZM7.60129 2.84225C7.60141 2.84213 7.60141 2.84212 7.60129 2.84225V2.84225ZM7.26267 3.00086C7.26249 3.00087 7.2625 3.00087 7.26267 3.00086V3.00086ZM16.738 3.00087C16.7382 3.00087 16.7382 3.00087 16.738 3.00087V3.00087ZM16.3994 2.84227C16.3993 2.84214 16.3993 2.84214 16.3994 2.84227V2.84227ZM4.00033 22C4.00033 21.4477 4.44805 21 5.00033 21H19.0003C19.5526 21 20.0003 21.4477 20.0003 22C20.0003 22.5523 19.5526 23 19.0003 23H5.00033C4.44805 23 4.00033 22.5523 4.00033 22Z" fill="#1B2631"/>
</svg>
