<svg width="24" height="24" viewBox="0 0 24 24" fill="none" xmlns="http://www.w3.org/2000/svg">
<path fill-rule="evenodd" clip-rule="evenodd" d="M14.25 12C14.25 13.2426 13.2426 14.25 12 14.25C10.7574 14.25 9.75 13.2426 9.75 12C9.75 10.7574 10.7574 9.75 12 9.75C13.2426 9.75 14.25 10.7574 14.25 12ZM21.25 12C21.25 13.2426 20.2426 14.25 19 14.25C17.7574 14.25 16.75 13.2426 16.75 12C16.75 10.7574 17.7574 9.75 19 9.75C20.2426 9.75 21.25 10.7574 21.25 12ZM7.25 12C7.25 13.2426 6.24264 14.25 5 14.25C3.75736 14.25 2.75 13.2426 2.75 12C2.75 10.7574 3.75736 9.75 5 9.75C6.24264 9.75 7.25 10.7574 7.25 12ZM6 12C6 12.5523 5.55228 13 5 13C4.44772 13 4 12.5523 4 12C4 11.4477 4.44772 11 5 11C5.55228 11 6 11.4477 6 12ZM12 13C12.5523 13 13 12.5523 13 12C13 11.4477 12.5523 11 12 11C11.4477 11 11 11.4477 11 12C11 12.5523 11.4477 13 12 13ZM19 13C19.5523 13 20 12.5523 20 12C20 11.4477 19.5523 11 19 11C18.4477 11 18 11.4477 18 12C18 12.5523 18.4477 13 19 13Z" fill="white"/>
</svg>
