<svg width="24" height="24" viewBox="0 0 24 24" fill="none" xmlns="http://www.w3.org/2000/svg">
<path fill-rule="evenodd" clip-rule="evenodd" d="M14.25 12C14.25 13.2426 13.2426 14.25 12 14.25C10.7574 14.25 9.75 13.2426 9.75 12C9.75 10.7574 10.7574 9.75 12 9.75C13.2426 9.75 14.25 10.7574 14.25 12ZM14.25 5C14.25 6.24264 13.2426 7.25 12 7.25C10.7574 7.25 9.75 6.24264 9.75 5C9.75 3.75736 10.7574 2.75 12 2.75C13.2426 2.75 14.25 3.75736 14.25 5ZM14.25 19C14.25 20.2426 13.2426 21.25 12 21.25C10.7574 21.25 9.75 20.2426 9.75 19C9.75 17.7574 10.7574 16.75 12 16.75C13.2426 16.75 14.25 17.7574 14.25 19ZM12 6C12.5523 6 13 5.55228 13 5C13 4.44772 12.5523 4 12 4C11.4477 4 11 4.44772 11 5C11 5.55228 11.4477 6 12 6ZM12 13C12.5523 13 13 12.5523 13 12C13 11.4477 12.5523 11 12 11C11.4477 11 11 11.4477 11 12C11 12.5523 11.4477 13 12 13ZM13 19C13 19.5523 12.5523 20 12 20C11.4477 20 11 19.5523 11 19C11 18.4477 11.4477 18 12 18C12.5523 18 13 18.4477 13 19Z" fill="white"/>
</svg>
