<svg width="24" height="24" viewBox="0 0 24 24" fill="none" xmlns="http://www.w3.org/2000/svg">
<path fill-rule="evenodd" clip-rule="evenodd" d="M14.25 5C14.25 6.24264 13.2426 7.25 12 7.25C10.7574 7.25 9.75 6.24264 9.75 5C9.75 3.75736 10.7574 2.75 12 2.75C13.2426 2.75 14.25 3.75736 14.25 5ZM14.25 12C14.25 13.2426 13.2426 14.25 12 14.25C10.7574 14.25 9.75 13.2426 9.75 12C9.75 10.7574 10.7574 9.75 12 9.75C13.2426 9.75 14.25 10.7574 14.25 12ZM14.25 19C14.25 20.2426 13.2426 21.25 12 21.25C10.7574 21.25 9.75 20.2426 9.75 19C9.75 17.7574 10.7574 16.75 12 16.75C13.2426 16.75 14.25 17.7574 14.25 19ZM21.25 5C21.25 6.24264 20.2426 7.25 19 7.25C17.7574 7.25 16.75 6.24264 16.75 5C16.75 3.75736 17.7574 2.75 19 2.75C20.2426 2.75 21.25 3.75736 21.25 5ZM21.25 12C21.25 13.2426 20.2426 14.25 19 14.25C17.7574 14.25 16.75 13.2426 16.75 12C16.75 10.7574 17.7574 9.75 19 9.75C20.2426 9.75 21.25 10.7574 21.25 12ZM21.25 19C21.25 20.2426 20.2426 21.25 19 21.25C17.7574 21.25 16.75 20.2426 16.75 19C16.75 17.7574 17.7574 16.75 19 16.75C20.2426 16.75 21.25 17.7574 21.25 19ZM7.25 5C7.25 6.24264 6.24264 7.25 5 7.25C3.75736 7.25 2.75 6.24264 2.75 5C2.75 3.75736 3.75736 2.75 5 2.75C6.24264 2.75 7.25 3.75736 7.25 5ZM7.25 12C7.25 13.2426 6.24264 14.25 5 14.25C3.75736 14.25 2.75 13.2426 2.75 12C2.75 10.7574 3.75736 9.75 5 9.75C6.24264 9.75 7.25 10.7574 7.25 12ZM7.25 19C7.25 20.2426 6.24264 21.25 5 21.25C3.75736 21.25 2.75 20.2426 2.75 19C2.75 17.7574 3.75736 16.75 5 16.75C6.24264 16.75 7.25 17.7574 7.25 19ZM6 5C6 5.55228 5.55228 6 5 6C4.44772 6 4 5.55228 4 5C4 4.44772 4.44772 4 5 4C5.55228 4 6 4.44772 6 5ZM12 6C12.5523 6 13 5.55228 13 5C13 4.44772 12.5523 4 12 4C11.4477 4 11 4.44772 11 5C11 5.55228 11.4477 6 12 6ZM12 13C12.5523 13 13 12.5523 13 12C13 11.4477 12.5523 11 12 11C11.4477 11 11 11.4477 11 12C11 12.5523 11.4477 13 12 13ZM13 19C13 19.5523 12.5523 20 12 20C11.4477 20 11 19.5523 11 19C11 18.4477 11.4477 18 12 18C12.5523 18 13 18.4477 13 19ZM19 6C19.5523 6 20 5.55228 20 5C20 4.44772 19.5523 4 19 4C18.4477 4 18 4.44772 18 5C18 5.55228 18.4477 6 19 6ZM20 12C20 12.5523 19.5523 13 19 13C18.4477 13 18 12.5523 18 12C18 11.4477 18.4477 11 19 11C19.5523 11 20 11.4477 20 12ZM19 20C19.5523 20 20 19.5523 20 19C20 18.4477 19.5523 18 19 18C18.4477 18 18 18.4477 18 19C18 19.5523 18.4477 20 19 20ZM5 13C5.55228 13 6 12.5523 6 12C6 11.4477 5.55228 11 5 11C4.44772 11 4 11.4477 4 12C4 12.5523 4.44772 13 5 13ZM6 19C6 19.5523 5.55228 20 5 20C4.44772 20 4 19.5523 4 19C4 18.4477 4.44772 18 5 18C5.55228 18 6 18.4477 6 19Z" fill="white"/>
</svg>
