<svg width="24" height="24" viewBox="0 0 24 24" fill="none" xmlns="http://www.w3.org/2000/svg">
<path fill-rule="evenodd" clip-rule="evenodd" d="M8.55923 3.69044C8.3921 3.73403 8.227 3.81475 7.84393 4.01457C4.96314 5.51735 3 8.53015 3 11.9998C3 16.9704 7.02944 20.9998 12 20.9998C16.9706 20.9998 21 16.9704 21 11.9998C21 8.6698 19.192 5.7609 16.4993 4.20324C16.0212 3.9267 15.8579 3.31497 16.1344 2.83691C16.4109 2.35885 17.0227 2.19549 17.5007 2.47203C20.786 4.37247 23 7.927 23 11.9998C23 18.0749 18.0751 22.9998 12 22.9998C5.92487 22.9998 1 18.0749 1 11.9998C1 7.75597 3.40353 4.07515 6.91892 2.24134C6.93362 2.23367 6.94839 2.22596 6.96323 2.21821C7.28638 2.0494 7.64542 1.86186 8.05455 1.75517C8.51449 1.63522 8.97871 1.62784 9.53704 1.70349C10.0495 1.77292 10.6077 2.03386 11.0428 2.29761C11.4779 2.56135 11.9674 2.93561 12.266 3.35786C13.0019 4.39866 13.0011 5.39424 13.0001 6.65524C13 6.70305 13 6.75123 13 6.79982V13.5856L15.2929 11.2927C15.6834 10.9022 16.3166 10.9022 16.7071 11.2927C17.0976 11.6832 17.0976 12.3164 16.7071 12.7069L12.7071 16.7069C12.3166 17.0974 11.6834 17.0974 11.2929 16.7069L7.29289 12.7069C6.90237 12.3164 6.90237 11.6832 7.29289 11.2927C7.68342 10.9022 8.31658 10.9022 8.70711 11.2927L11 13.5856V6.79982C11 5.34856 10.9702 4.98939 10.633 4.51257C10.5658 4.41753 10.3459 4.21393 10.006 4.00787C9.66608 3.80182 9.38386 3.70101 9.26852 3.68538C8.88196 3.63301 8.69433 3.65521 8.55923 3.69044Z" fill="white"/>
</svg>
