<svg width="24" height="24" viewBox="0 0 24 24" fill="none" xmlns="http://www.w3.org/2000/svg">
<path fill-rule="evenodd" clip-rule="evenodd" d="M15.793 2.79312C17.012 1.57417 18.9883 1.57417 20.2072 2.79312C21.4262 4.01207 21.4262 5.98838 20.2072 7.20733L7.64449 19.7701C7.62469 19.7899 7.60507 19.8095 7.58561 19.829C7.29817 20.117 7.04473 20.3709 6.7392 20.5581C6.47078 20.7226 6.17815 20.8438 5.87204 20.9173C5.5236 21.001 5.16485 21.0007 4.75796 21.0003C4.73041 21.0003 4.70265 21.0002 4.67464 21.0002H3.0001C2.44782 21.0002 2.0001 20.5525 2.0001 20.0002V18.3257C2.0001 18.2977 2.00008 18.27 2.00005 18.2424C1.99967 17.8355 1.99934 17.4768 2.08299 17.1283C2.15648 16.8222 2.2777 16.5296 2.44218 16.2612C2.62942 15.9556 2.88332 15.7022 3.17131 15.4147C3.1908 15.3953 3.21046 15.3757 3.23026 15.3559L15.793 2.79312ZM18.793 4.20733C18.3551 3.76943 17.6451 3.76943 17.2072 4.20733L4.64447 16.7701C4.26491 17.1496 4.19492 17.2287 4.14746 17.3062C4.09263 17.3956 4.05223 17.4932 4.02773 17.5952C4.00653 17.6835 4.0001 17.7889 4.0001 18.3257V19.0002H4.67464C5.21143 19.0002 5.31683 18.9938 5.40515 18.9726C5.50718 18.9481 5.60473 18.9077 5.6942 18.8529C5.77164 18.8054 5.85072 18.7354 6.23028 18.3559L18.793 5.79312C19.2309 5.35522 19.2309 4.64524 18.793 4.20733ZM11.0001 20.0002C11.0001 19.448 11.4478 19.0002 12.0001 19.0002H21.0001C21.5524 19.0002 22.0001 19.448 22.0001 20.0002C22.0001 20.5525 21.5524 21.0002 21.0001 21.0002H12.0001C11.4478 21.0002 11.0001 20.5525 11.0001 20.0002Z" fill="white"/>
</svg>
