<svg width="24" height="24" viewBox="0 0 24 24" fill="none" xmlns="http://www.w3.org/2000/svg">
<path fill-rule="evenodd" clip-rule="evenodd" d="M16.2929 2.2927C17.788 0.797613 20.212 0.797615 21.7071 2.29271C23.2022 3.7878 23.2022 6.21183 21.7071 7.70692L8.50084 20.9132C8.48408 20.93 8.46748 20.9466 8.451 20.9631C8.2061 21.2084 7.99008 21.4247 7.7334 21.594C7.50774 21.7428 7.26301 21.8604 7.00584 21.9437C6.71335 22.0384 6.40945 22.0719 6.06494 22.1099C6.04175 22.1125 6.01837 22.115 5.99481 22.1177L2.61044 22.4937C2.30851 22.5272 2.00771 22.4217 1.7929 22.2069C1.57809 21.9921 1.47258 21.6913 1.50612 21.3894L1.88216 18.005C1.88478 17.9815 1.88736 17.9581 1.88992 17.9349C1.92792 17.5904 1.96144 17.2865 2.05613 16.994C2.13938 16.7368 2.25701 16.4921 2.40582 16.2664C2.57507 16.0097 2.79144 15.7937 3.03673 15.5488C3.05323 15.5323 3.06987 15.5157 3.08663 15.499L16.2929 2.2927Z" fill="white"/>
</svg>
