<svg width="24" height="24" viewBox="0 0 24 24" fill="none" xmlns="http://www.w3.org/2000/svg">
<path fill-rule="evenodd" clip-rule="evenodd" d="M11 20.0002C11 19.448 11.4477 19.0002 12 19.0002H21C21.5522 19.0002 22 19.448 22 20.0002C22 20.5525 21.5522 21.0002 21 21.0002H12C11.4477 21.0002 11 20.5525 11 20.0002Z" fill="white"/>
<path fill-rule="evenodd" clip-rule="evenodd" d="M15.7929 2.79312C17.0118 1.57417 18.9882 1.57417 20.2071 2.79312C21.4261 4.01207 21.4261 5.98838 20.2071 7.20733L7.64437 19.7701C7.62457 19.7899 7.60496 19.8095 7.5855 19.829C7.29805 20.117 7.04461 20.3709 6.73907 20.5581C6.47066 20.7226 6.17802 20.8438 5.87192 20.9173C5.52347 21.001 5.16472 21.0007 4.75782 21.0003C4.73028 21.0003 4.70252 21.0002 4.67452 21.0002H2.99998C2.44769 21.0002 1.99998 20.5525 1.99998 20.0002V18.3257C1.99998 18.2977 1.99995 18.2699 1.99993 18.2424C1.99955 17.8355 1.99922 17.4768 2.08287 17.1283C2.15636 16.8222 2.27757 16.5296 2.44206 16.2612C2.6293 15.9556 2.88321 15.7022 3.17119 15.4147C3.19069 15.3953 3.21034 15.3757 3.23013 15.3559L15.7929 2.79312Z" fill="white"/>
</svg>
