<svg width="24" height="24" viewBox="0 0 24 24" fill="none" xmlns="http://www.w3.org/2000/svg">
<path fill-rule="evenodd" clip-rule="evenodd" d="M17.7929 1.79312C19.0118 0.574168 20.9882 0.57417 22.2071 1.79312C23.4261 3.01207 23.4261 4.98838 22.2071 6.20733L12.6444 15.7701C12.6246 15.7899 12.605 15.8095 12.5855 15.829C12.2981 16.117 12.0446 16.3709 11.7391 16.5581C11.4707 16.7226 11.178 16.8438 10.8719 16.9173C10.5235 17.001 10.1647 17.0007 9.75781 17.0003C9.73027 17.0003 9.70251 17.0002 9.67452 17.0002H7.99997C7.44769 17.0002 6.99997 16.5525 6.99997 16.0002V14.3257C6.99997 14.2977 6.99995 14.27 6.99992 14.2424C6.99954 13.8355 6.99921 13.4768 7.08286 13.1283C7.15636 12.8222 7.27757 12.5296 7.44206 12.2612C7.62929 11.9556 7.8832 11.7022 8.17119 11.4147C8.19068 11.3953 8.21033 11.3757 8.23013 11.3559L17.7929 1.79312ZM20.7929 3.20733C20.355 2.76943 19.645 2.76943 19.2071 3.20733L9.64434 12.7701C9.26478 13.1496 9.19479 13.2287 9.14733 13.3062C9.0925 13.3956 9.0521 13.4932 9.0276 13.5952C9.0064 13.6835 8.99997 13.7889 8.99997 14.3257V15.0002H9.67452C10.2113 15.0002 10.3167 14.9938 10.405 14.9726C10.5071 14.9481 10.6046 14.9077 10.6941 14.8529C10.7715 14.8054 10.8506 14.7354 11.2302 14.3559L20.7929 4.79312C21.2308 4.35522 21.2308 3.64524 20.7929 3.20733ZM6.7587 3.00023L11 3.00023C11.5523 3.00023 12 3.44794 12 4.00023C12 4.55251 11.5523 5.00023 11 5.00023H6.8C5.94342 5.00023 5.36113 5.00101 4.91104 5.03778C4.47262 5.0736 4.24842 5.13853 4.09202 5.21821C3.7157 5.40996 3.40973 5.71592 3.21799 6.09225C3.1383 6.24865 3.07337 6.47285 3.03755 6.91127C3.00078 7.36135 3 7.94365 3 8.80023V17.2002C3 18.0568 3.00078 18.6391 3.03755 19.0892C3.07337 19.5276 3.1383 19.7518 3.21799 19.9082C3.40973 20.2845 3.7157 20.5905 4.09202 20.7822C4.24842 20.8619 4.47262 20.9269 4.91104 20.9627C5.36113 20.9994 5.94342 21.0002 6.8 21.0002H15.2C16.0566 21.0002 16.6389 20.9994 17.089 20.9627C17.5274 20.9269 17.7516 20.8619 17.908 20.7822C18.2843 20.5905 18.5903 20.2845 18.782 19.9082C18.8617 19.7518 18.9266 19.5276 18.9624 19.0892C18.9992 18.6391 19 18.0568 19 17.2002V13.0002C19 12.4479 19.4477 12.0002 20 12.0002C20.5523 12.0002 21 12.4479 21 13.0002V17.2416C21 18.0465 21 18.7109 20.9558 19.2521C20.9099 19.8141 20.8113 20.3309 20.564 20.8162C20.1805 21.5688 19.5686 22.1808 18.816 22.5643C18.3306 22.8115 17.8139 22.9101 17.2518 22.956C16.7106 23.0002 16.0463 23.0002 15.2413 23.0002H6.75868C5.95372 23.0002 5.28936 23.0002 4.74817 22.956C4.18608 22.9101 3.66937 22.8115 3.18404 22.5643C2.43139 22.1808 1.81947 21.5688 1.43598 20.8162C1.18868 20.3309 1.09012 19.8141 1.04419 19.2521C0.999977 18.7109 0.999988 18.0465 1 17.2415V8.75893C0.999988 7.95396 0.999977 7.2896 1.04419 6.7484C1.09012 6.1863 1.18868 5.6696 1.43597 5.18427C1.81947 4.43162 2.43139 3.8197 3.18404 3.4362C3.66937 3.18891 4.18608 3.09035 4.74817 3.04442C5.28937 3.0002 5.95373 3.00021 6.7587 3.00023Z" fill="white"/>
</svg>
