<svg width="24" height="24" viewBox="0 0 24 24" fill="none" xmlns="http://www.w3.org/2000/svg">
<path fill-rule="evenodd" clip-rule="evenodd" d="M12 3C7.02944 3 3 7.02944 3 12C3 16.9706 7.02944 21 12 21C16.9706 21 21 16.9706 21 12C21 7.02944 16.9706 3 12 3ZM1 12C1 5.92487 5.92487 1 12 1C18.0751 1 23 5.92487 23 12C23 18.0751 18.0751 23 12 23C5.92487 23 1 18.0751 1 12ZM10.6315 8.46462C11.0597 8.81338 11.1241 9.44326 10.7754 9.87149C10.2152 10.5593 9.40285 11 8.5 11C7.58714 11 6.7988 10.551 6.23632 9.88559C5.87977 9.46382 5.93264 8.83286 6.35441 8.47631C6.77618 8.11976 7.40714 8.17264 7.76368 8.59441C8.0212 8.89904 8.28286 9 8.5 9C8.72715 9 8.99477 8.89073 9.22462 8.6085C9.57339 8.18027 10.2033 8.11585 10.6315 8.46462ZM17.6315 8.46462C18.0597 8.81338 18.1241 9.44326 17.7754 9.87149C17.2152 10.5593 16.4028 11 15.5 11C14.5871 11 13.7988 10.551 13.2363 9.88559C12.8798 9.46382 12.9326 8.83286 13.3544 8.47631C13.7762 8.11976 14.4071 8.17264 14.7637 8.59441C15.0212 8.89904 15.2829 9 15.5 9C15.7272 9 15.9948 8.89073 16.2246 8.6085C16.5734 8.18027 17.2033 8.11585 17.6315 8.46462Z" fill="white"/>
<path fill-rule="evenodd" clip-rule="evenodd" d="M7.4 13.2C7.84044 12.8697 8.46468 12.9576 8.79686 13.3958L8.8015 13.4018C8.80745 13.4093 8.81877 13.4234 8.83531 13.4431C8.86846 13.4826 8.92219 13.5442 8.99543 13.6206C9.14272 13.7743 9.36407 13.9828 9.65067 14.1913C10.2277 14.6109 11.0255 15 12 15C12.9745 15 13.7723 14.6109 14.3493 14.1913C14.6359 13.9828 14.8573 13.7743 15.0046 13.6206C15.0778 13.5442 15.1315 13.4826 15.1647 13.4431C15.1812 13.4234 15.1925 13.4093 15.1985 13.4018L15.2031 13.3958C15.5353 12.9576 16.1596 12.8697 16.6 13.2C17.0418 13.5314 17.1314 14.1582 16.8 14.6L16 14C16.8 14.6 16.7992 14.601 16.799 14.6013L16.7978 14.6029L16.7951 14.6065L16.7879 14.6159L16.7666 14.6432C16.7493 14.6649 16.726 14.6938 16.6966 14.7288C16.638 14.7987 16.555 14.8933 16.4486 15.0044C16.2365 15.2257 15.9266 15.5172 15.5257 15.8087C14.7277 16.3891 13.5255 17 12 17C10.4745 17 9.27227 16.3891 8.47433 15.8087C8.07343 15.5172 7.76353 15.2257 7.55145 15.0044C7.445 14.8933 7.36201 14.7987 7.30336 14.7288C7.27401 14.6938 7.25065 14.6649 7.23341 14.6432L7.21211 14.6159L7.2049 14.6065L7.20216 14.6029L7.2 14.6C6.86863 14.1582 6.95817 13.5314 7.4 13.2ZM7.2 14.6L8 14C7.20549 14.5959 7.1998 14.5997 7.2 14.6Z" fill="white"/>
</svg>
