<svg width="24" height="24" viewBox="0 0 24 24" fill="none" xmlns="http://www.w3.org/2000/svg">
<path fill-rule="evenodd" clip-rule="evenodd" d="M9.92518 4.22821C10.5484 4.20488 11.1468 4.47362 11.5435 4.95492C11.8626 5.34215 11.9361 5.81929 11.9674 6.1674C12 6.52981 12 6.99146 12 7.51783V16.4821C12 17.0085 12 17.4701 11.9674 17.8325C11.9361 18.1806 11.8626 18.6578 11.5435 19.045C11.1468 19.5263 10.5484 19.795 9.92518 19.7717C9.42377 19.753 9.01828 19.4909 8.7373 19.2831C8.44476 19.0667 8.09973 18.7599 7.70632 18.4102L2.65532 13.9204C2.44487 13.7334 2.24254 13.5536 2.08566 13.3882C1.91537 13.2087 1.72805 12.9756 1.61812 12.6625C1.46754 12.2337 1.46754 11.7663 1.61812 11.3374C1.72805 11.0243 1.91537 10.7912 2.08566 10.6117C2.24253 10.4463 2.44486 10.2665 2.6553 10.0795C2.66384 10.0719 2.67239 10.0643 2.68096 10.0567L7.70634 5.5897C8.09974 5.23998 8.44477 4.93325 8.7373 4.71685C9.01828 4.50899 9.42377 4.24698 9.92518 4.22821Z" fill="#1B2631"/>
<path fill-rule="evenodd" clip-rule="evenodd" d="M20.9252 4.22821C21.5484 4.20488 22.1468 4.47362 22.5435 4.95492C22.8626 5.34215 22.9361 5.81929 22.9674 6.1674C23 6.52981 23 6.99146 23 7.51783V16.4821C23 17.0085 23 17.4701 22.9674 17.8325C22.9361 18.1806 22.8626 18.6578 22.5435 19.045C22.1468 19.5263 21.5484 19.795 20.9252 19.7717C20.4238 19.753 20.0183 19.4909 19.7373 19.2831C19.4448 19.0667 19.0997 18.7599 18.7063 18.4102L13.6553 13.9204C13.4449 13.7334 13.2425 13.5536 13.0857 13.3882C12.9154 13.2087 12.728 12.9756 12.6181 12.6625C12.4675 12.2337 12.4675 11.7663 12.6181 11.3374C12.728 11.0243 12.9154 10.7912 13.0857 10.6117C13.2425 10.4463 13.4449 10.2665 13.6553 10.0795C13.6638 10.0719 13.6724 10.0643 13.681 10.0567L18.7063 5.5897C19.0997 5.23998 19.4448 4.93325 19.7373 4.71685C20.0183 4.50899 20.4238 4.24698 20.9252 4.22821Z" fill="#1B2631"/>
</svg>
