<svg width="24" height="24" viewBox="0 0 24 24" fill="none" xmlns="http://www.w3.org/2000/svg">
<path fill-rule="evenodd" clip-rule="evenodd" d="M18.3631 4.78533C16.4561 3.05186 13.5439 3.05186 11.6369 4.78533C11.5531 4.86142 11.4542 4.95994 11.2071 5.20705L6.17574 10.2384C6.0831 10.3311 6.03704 10.3775 6.005 10.4126C6.00416 10.4135 6.00335 10.4144 6.00258 10.4152C6.00252 10.4164 6.00247 10.4176 6.00241 10.4188C6.00024 10.4663 6 10.5317 6 10.6627V16.5857L15.2929 7.29284C15.6834 6.90232 16.3166 6.90232 16.7071 7.29284C17.0976 7.68337 17.0976 8.31653 16.7071 8.70705L11.4142 13.9999H17.5858L18.7929 12.7928C19.04 12.5457 19.1385 12.4468 19.2146 12.3631C20.9481 10.4561 20.9481 7.54384 19.2146 5.6368C19.1385 5.5531 19.04 5.45417 18.7929 5.20705C18.5458 4.95994 18.4469 4.86142 18.3631 4.78533ZM18.7073 15.7069L20.2296 14.1846C20.4471 13.967 20.5822 13.832 20.6946 13.7083C23.1214 11.0385 23.1214 6.9614 20.6946 4.29155C20.5822 4.16791 20.4472 4.03289 20.2297 3.81542L20.1845 3.77027C19.9671 3.55278 19.832 3.41775 19.7084 3.30537C17.0385 0.878516 12.9615 0.878516 10.2916 3.30537C10.1679 3.41777 10.0329 3.55281 9.81539 3.77035L4.76152 8.82421C4.7498 8.83593 4.73773 8.84794 4.72537 8.86024C4.59072 8.99417 4.42117 9.16281 4.29472 9.36916C4.18506 9.54811 4.10425 9.7432 4.05526 9.94727C3.99876 10.1826 3.9994 10.4217 3.99991 10.6117C3.99995 10.6291 4 10.6461 4 10.6627L4 17.4318C3.99997 17.6842 3.99994 17.93 4.01695 18.1382C4.0264 18.2539 4.04237 18.3802 4.07378 18.5119L1.29289 21.2928C0.902369 21.6834 0.902369 22.3165 1.29289 22.7071C1.68342 23.0976 2.31658 23.0976 2.70711 22.7071L5.488 19.9262C5.61972 19.9576 5.74602 19.9735 5.86177 19.983C6.06992 20 6.31571 20 6.56808 20L13.3373 19.9999C13.3538 19.9999 13.3709 20 13.3883 20C13.5782 20.0005 13.8173 20.0012 14.0527 19.9447C14.2568 19.8957 14.4518 19.8149 14.6308 19.7052C14.8371 19.5788 15.0058 19.4092 15.1397 19.2746C15.152 19.2622 15.164 19.2501 15.1757 19.2384L18.7073 15.7069C18.7074 15.7067 18.7072 15.707 18.7073 15.7069ZM15.5858 15.9999H9.41421L7.41421 17.9999H13.3373C13.4683 17.9999 13.5336 17.9997 13.5811 17.9975C13.5824 17.9975 13.5836 17.9974 13.5847 17.9974C13.5856 17.9966 13.5865 17.9958 13.5874 17.995C13.6225 17.9629 13.6689 17.9168 13.7615 17.8242L15.5858 15.9999Z" fill="#1B2631"/>
</svg>
