<svg width="24" height="24" viewBox="0 0 24 24" fill="none" xmlns="http://www.w3.org/2000/svg">
<path d="M7.20003 22.5C6.80003 22.5 6.30003 22.2 6.20003 21.7L2.00003 4.7C1.80003 3.9 1.70003 3.4 1.90003 2.9C2.00003 2.4 2.30003 2 2.70003 1.8C3.20003 1.5 3.70003 1.5 4.50003 1.5H12.5C13.2 1.5 13.6 1.5 14 1.7C14.4 1.9 14.7 2.2 14.9 2.6C15.1 3 15.1 3.5 15.1 4.1V5.7H20.1C20.7 5.7 21.1 5.7 21.5 6C21.8 6.2 22.1 6.6 22.1 7C22.2 7.5 22 7.8 21.7 8.3L20.3 10.9L21.7 13.4C22 13.9 22.2 14.3 22.1 14.8C22.1 15.2 21.8 15.6 21.5 15.8C21.1 16.1 20.7 16.1 20.1 16.1H12.5C11.8 16.1 11.4 16.1 11 15.9C10.6 15.7 10.3 15.4 10.1 15C9.90003 14.6 9.90003 14.1 9.90003 13.5V11.9H5.90003L8.20003 21.2C8.30003 21.7 8.00003 22.3 7.50003 22.4C7.40003 22.5 7.30003 22.5 7.20003 22.5ZM11.9 11.9V13.5C11.9 13.8 11.9 14.1 11.9 14.1C11.9 14.1 12.2 14.1 12.5 14.1H19.8L18.5 11.8C18.4 11.6 18.3 11.5 18.3 11.2C18.3 11 18.3 10.8 18.3 10.6C18.3 10.4 18.4 10.2 18.5 10L19.8 7.7H15.1V9.3C15.1 10 15.1 10.4 14.9 10.8C14.7 11.2 14.4 11.5 14 11.7C13.6 11.9 13.1 11.9 12.5 11.9H11.9ZM5.40003 9.9H12.5C12.8 9.9 13.1 9.9 13.1 9.9C13.1 9.9 13.1 9.6 13.1 9.3V4.1C13.1 3.8 13.1 3.5 13.1 3.5C13.1 3.5 12.8 3.5 12.5 3.5H4.50003C4.20003 3.5 3.90003 3.5 3.80003 3.5C3.80003 3.7 3.90003 4 4.00003 4.2L5.40003 9.9Z" fill="#1B2631"/>
</svg>
