<svg width="24" height="24" viewBox="0 0 24 24" fill="none" xmlns="http://www.w3.org/2000/svg">
<path fill-rule="evenodd" clip-rule="evenodd" d="M11.9998 9C10.3429 9 8.9998 10.3431 8.9998 12C8.9998 13.6569 10.3429 15 11.9998 15C13.6567 15 14.9998 13.6569 14.9998 12C14.9998 10.3431 13.6567 9 11.9998 9ZM7.09982 11C7.56309 8.71776 9.58085 7 11.9998 7C14.4188 7 16.4365 8.71776 16.8998 11H21.9998C22.5521 11 22.9998 11.4477 22.9998 12C22.9998 12.5523 22.5521 13 21.9998 13H16.8998C16.4365 15.2822 14.4188 17 11.9998 17C9.58085 17 7.56309 15.2822 7.09982 13H2C1.44772 13 1 12.5523 1 12C1 11.4477 1.44772 11 2 11H7.09982Z" fill="#1B2631"/>
</svg>
