<svg width="24" height="24" viewBox="0 0 24 24" fill="none" xmlns="http://www.w3.org/2000/svg">
<path fill-rule="evenodd" clip-rule="evenodd" d="M5.96091 4C5.97378 4 5.98683 4 6.00007 4C6.55236 4 7.00007 4.44772 7.00007 5C7.00007 5.55229 6.55236 6 6.00007 6C5.71469 6 5.62819 6.00074 5.56074 6.00596C4.65253 6.07624 3.90655 6.75134 3.74625 7.64806C3.73434 7.71465 3.725 7.80065 3.6966 8.08462L3.43435 10.7071C5.35492 9.5573 7.88089 9.80975 9.53561 11.4645C10.041 11.9698 10.4156 12.5565 10.6593 13.1823C11.5356 12.9392 12.4646 12.9392 13.3408 13.1824C13.5846 12.5565 13.9592 11.9699 14.4645 11.4645C16.1193 9.80975 18.6452 9.5573 20.5658 10.7071L20.3035 8.08462C20.2752 7.80066 20.2658 7.71465 20.2539 7.64806C20.0936 6.75134 19.3476 6.07624 18.4394 6.00596C18.372 6.00074 18.2855 6 18.0001 6C17.4478 6 17.0001 5.55229 17.0001 5C17.0001 4.44772 17.4478 4 18.0001 4L18.0392 4C18.2684 3.99996 18.4388 3.99993 18.5937 4.01192C20.4101 4.15247 21.9021 5.50269 22.2227 7.29611C22.25 7.44911 22.267 7.6186 22.2897 7.84669L22.9107 14.056C22.9695 14.3637 22.9993 14.6757 23.0001 14.9878C23.0002 14.997 23.0002 15.0061 23.0001 15.0152C22.9962 16.2897 22.5081 17.5631 21.5356 18.5355C19.583 20.4882 16.4172 20.4882 14.4645 18.5355C13.5319 17.6029 13.0447 16.3935 13.003 15.1717C12.3556 14.9428 11.6445 14.9428 10.9971 15.1716C10.9554 16.3934 10.4683 17.6029 9.53561 18.5355C7.58299 20.4882 4.41717 20.4882 2.46454 18.5355C1.4921 17.5631 1.00395 16.2898 1.0001 15.0152C0.99997 15.0061 0.999967 14.9969 1.00009 14.9878C1.00085 14.6757 1.03065 14.3636 1.08948 14.0561L1.70653 7.88561C1.70784 7.87243 1.70914 7.85945 1.71042 7.84665C1.73319 7.61858 1.75011 7.4491 1.77746 7.29611C2.09805 5.50269 3.59002 4.15247 5.40644 4.01192C5.56139 3.99993 5.73171 3.99996 5.96091 4ZM3.00043 15.0463C3.01197 15.7986 3.30475 16.5473 3.87875 17.1213C5.05033 18.2929 6.94983 18.2929 8.1214 17.1213C9.29297 15.9497 9.29297 14.0502 8.1214 12.8787C6.94982 11.7071 5.05032 11.7071 3.87875 12.8787C3.45741 13.3 3.1876 13.8155 3.06932 14.3574L3.00043 15.0463ZM20.9308 14.3574L20.9997 15.0463C20.9882 15.7986 20.6954 16.5473 20.1214 17.1213C18.9498 18.2929 17.0503 18.2929 15.8788 17.1213C14.7072 15.9498 14.7072 14.0503 15.8788 12.8787C17.0503 11.7071 18.9498 11.7071 20.1214 12.8787C20.5427 13.3 20.8125 13.8155 20.9308 14.3574Z" fill="#1B2631"/>
</svg>
