<svg width="24" height="24" viewBox="0 0 24 24" fill="none" xmlns="http://www.w3.org/2000/svg">
<path fill-rule="evenodd" clip-rule="evenodd" d="M17.9245 1.66116C18.3151 1.27064 18.9482 1.27064 19.3388 1.66116C24.2203 6.54272 24.2203 14.4573 19.3388 19.3388C14.6636 24.014 7.20755 24.2116 2.29639 19.9321C2.29074 19.9271 2.28496 19.9221 2.27905 19.917C2.19639 19.845 2.08994 19.7524 2.0018 19.6598C1.8929 19.5453 1.76387 19.3836 1.67824 19.1576C1.56267 18.8526 1.55072 18.5042 1.6451 18.192L2.60232 18.4814L3.08092 18.6261M17.9245 1.66116C17.534 2.05169 17.534 2.68485 17.9245 3.07538V1.66116ZM17.9245 3.07538C22.025 7.17588 22.025 13.8241 17.9245 17.9246V3.07538ZM10.4999 4C6.91007 4 3.99992 6.91015 3.99992 10.5C3.99992 14.0898 6.91007 17 10.4999 17C14.0898 17 16.9999 14.0898 16.9999 10.5C16.9999 6.91015 14.0898 4 10.4999 4ZM1.99992 10.5C1.99992 5.80558 5.8055 2 10.4999 2C15.1943 2 18.9999 5.80558 18.9999 10.5C18.9999 15.1944 15.1943 19 10.4999 19C8.51305 19 6.6854 18.3183 5.23811 17.176L3.81559 18.5985C7.93981 22.0113 14.0626 21.7866 17.9245 17.9246M3.82389 15.7618L2.22677 17.3589C2.22128 17.3644 2.21569 17.37 2.21001 17.3757C2.12679 17.4588 2.02416 17.5614 1.94102 17.6607C1.84167 17.7794 1.71728 17.9533 1.6451 18.192L2.60232 18.4814M1.99992 10.5C1.99992 12.4869 2.68162 14.3145 3.82389 15.7618L1.99992 10.5Z" fill="#1B2631"/>
</svg>
