<svg width="24" height="24" viewBox="0 0 24 24" fill="none" xmlns="http://www.w3.org/2000/svg">
<path d="M12 23C11.5 23 10.9 23 10.4 22.9H10.3C5 22.1 1 17.5 1 12C1 11.6 1 11.2 1.1 10.8V10.7C1.7 5.2 6.4 1 12 1C13 1 14 1.1 15 1.4C15.6 1.1 16.3 1 17 1C19.8 1 22 3.2 22 6C22 6.4 22 6.8 21.9 7.1C22.6 8.6 23 10.3 23 12C23 18.1 18.1 23 12 23ZM11.5 21C11.7 21 11.8 21 12 21C17 21 21 17 21 12C21 11.2 20.9 10.3 20.7 9.5C20 10.4 19.1 11.3 18.2 12.2L17.7 12.7C17.3 13.1 16.7 13.1 16.3 12.7L15.8 12.2C13.9 10.3 12 8.4 12 6C12 4.9 12.4 3.9 13 3.1C12.6 3 12.3 3 12 3C7.8 3 4.3 5.9 3.3 9.7L7.5 9.3C8.1 9.3 8.6 9.5 8.9 10.1L10.7 13.2L13.4 14.8C13.8 15 14.1 15.4 14.1 15.8C14.2 16.2 14.1 16.7 13.8 17L11.4 19.8V21H11.5ZM3 11.8C3 11.9 3 11.9 3 12C3 16.1 5.8 19.6 9.5 20.6V19.6C9.5 19.2 9.6 18.9 9.9 18.6L12 16.2L9.7 14.9C9.5 14.8 9.3 14.6 9.1 14.3L7.4 11.3L3 11.8ZM17 3C15.3 3 14 4.3 14 6C14 7.5 15.4 9 17 10.6C18.6 9 20 7.6 20 6C20 4.3 18.7 3 17 3ZM17 7C16.3 7 15.8 6.4 15.8 5.8C15.8 5.2 16.4 4.6 17 4.6C17.6 4.6 18.2 5.2 18.2 5.8C18.2 6.4 17.7 7 17 7Z" fill="#1B2631"/>
</svg>
