<svg width="24" height="24" viewBox="0 0 24 24" fill="none" xmlns="http://www.w3.org/2000/svg">
<path d="M12 23C5.9 23 1 18.1 1 12C1 10.2 1.4 8.6 2.1 7.1C2.1 7 2.1 7 2.2 6.9C4.1 3.4 7.8 1 12 1C12.9 1 13.7 1.1 14.5 1.3H14.6C19.4 2.5 23 6.8 23 12C23 18.1 18.1 23 12 23ZM3.5 9C3.2 10 3 11 3 12C3 17 7 21 12 21C17 21 21 17 21 12C21 8.2 18.6 4.9 15.2 3.6L15 6.6C15 6.8 15 7 14.9 7.3C14.8 7.5 14.7 7.7 14.5 7.8C14.4 7.9 14.2 8 14 8.1L10.2 9.8L9.3 11C9.1 11.3 8.9 11.5 8.6 11.7C8.3 11.8 8 11.9 7.7 11.8C7.3 11.7 7.1 11.6 6.8 11.4L3.5 9ZM4.4 7.2L7.8 9.6L8.6 8.5C8.7 8.4 8.7 8.3 8.8 8.3C8.8 8.3 8.9 8.2 9 8.1C9.1 8.1 9.1 8 9.3 8L13 6.3L13.2 3.1C12.8 3 12.4 3 12 3C8.8 3 6 4.7 4.4 7.2ZM14.6 19H12.6C12.3 19 12.1 19 11.8 18.9C11.6 18.8 11.4 18.7 11.2 18.5C11 18.2 11 18 10.9 17.8L10.2 15.7C10.2 15.6 10.1 15.4 10.1 15.2C10.1 15 10.1 14.9 10.1 14.7C10.1 14.5 10.2 14.4 10.3 14.3L10.8 13.2C10.9 12.9 11.1 12.7 11.3 12.5C11.5 12.3 11.8 12.2 12.1 12.2C12.4 12.2 12.7 12.3 13 12.4L13.8 12.7H13.9L16.5 13.8C16.9 14 17.2 14.1 17.4 14.4C17.6 14.7 17.7 15 17.7 15.4C17.7 15.8 17.5 16.1 17.3 16.4L16.1 18.2C16 18.4 15.9 18.5 15.7 18.7C15.5 18.8 15.4 18.9 15.2 19C15 19 14.8 19 14.6 19ZM12.7 17H14.4L15.4 15.4L13 14.4L12.4 14.2L12 15.1L12.7 17Z" fill="#1B2631"/>
</svg>
