<svg width="24" height="24" viewBox="0 0 24 24" fill="none" xmlns="http://www.w3.org/2000/svg">
<path fill-rule="evenodd" clip-rule="evenodd" d="M17.5104 2.07538C17.9009 1.68485 18.5341 1.68485 18.9246 2.07538C23.0251 6.17588 23.0251 12.8241 18.9246 16.9246C17.2569 18.5923 15.1677 19.5818 13 19.8929V21H17C17.5523 21 18 21.4477 18 22C18 22.5523 17.5523 23 17 23H6.99997C6.44768 23 5.99997 22.5523 5.99997 22C5.99997 21.4477 6.44768 21 6.99997 21H11V19.9882C8.7941 19.8836 6.61491 19.0871 4.81569 17.5985L3.36824 19.0459C2.97772 19.4365 2.34455 19.4365 1.95403 19.0459C1.5635 18.6554 1.5635 18.0223 1.95403 17.6317L4.07474 15.511C4.07454 15.5112 4.07494 15.5108 4.07474 15.511C4.07494 15.5108 4.07575 15.51 4.07595 15.5098L5.89358 13.6922C5.01837 12.5236 4.49997 11.0723 4.49997 9.5C4.49997 5.63401 7.63397 2.5 11.5 2.5C15.366 2.5 18.5 5.63401 18.5 9.5C18.5 13.366 15.366 16.5 11.5 16.5C9.92763 16.5 8.47638 15.9816 7.3078 15.1064L6.23782 16.1764C9.57402 18.8126 14.4301 18.5906 17.5104 15.5104C20.8298 12.191 20.8298 6.80905 17.5104 3.48959C17.1199 3.09907 17.1199 2.4659 17.5104 2.07538ZM11.5 4.5C8.73854 4.5 6.49997 6.73858 6.49997 9.5C6.49997 12.2614 8.73854 14.5 11.5 14.5C14.2614 14.5 16.5 12.2614 16.5 9.5C16.5 6.73858 14.2614 4.5 11.5 4.5Z" fill="#1B2631"/>
</svg>
