<svg width="24" height="24" viewBox="0 0 24 24" fill="none" xmlns="http://www.w3.org/2000/svg">
<path fill-rule="evenodd" clip-rule="evenodd" d="M11.8026 4.52045L11.8026 4.52046L11.8026 4.52045ZM12 4.61804L19.7639 8.5L19.5721 8.5959C19.5596 8.60187 19.5471 8.60809 19.5348 8.61457L17 9.88197L12.4472 7.60558C11.9532 7.35859 11.3526 7.55881 11.1056 8.05279C10.8586 8.54677 11.0588 9.14744 11.5528 9.39443L14.7639 11L12 12.382L4.4652 8.61457C4.4529 8.60809 4.44044 8.60186 4.42784 8.59589L4.23607 8.5L12 4.61804ZM3 10.118L1.55279 9.39443C1.214 9.22504 1 8.87878 1 8.5C1 8.12123 1.214 7.77497 1.55279 7.60558L11.195 2.78446C11.2024 2.78076 11.211 2.77639 11.2206 2.77149C11.3139 2.72388 11.507 2.62535 11.7234 2.58474C11.9062 2.55045 12.0938 2.55045 12.2766 2.58474C12.493 2.62535 12.6861 2.72388 12.7794 2.77149C12.789 2.77639 12.7976 2.78076 12.805 2.78446L22.4472 7.60558C22.786 7.77497 23 8.12123 23 8.5C23 8.87878 22.786 9.22504 22.4472 9.39443L21 10.118V16.3066C21 16.3321 21.0001 16.3583 21.0002 16.3852C21.0013 16.6708 21.0027 17.0297 20.884 17.363C20.7814 17.6508 20.6142 17.9114 20.3952 18.1246C20.1417 18.3714 19.8149 18.5197 19.5548 18.6377C19.5303 18.6488 19.5065 18.6596 19.4833 18.6702L13.0833 21.6035C13.0667 21.6112 13.0496 21.619 13.0321 21.6271C12.8423 21.7148 12.6034 21.8251 12.3421 21.8705C12.1157 21.9098 11.8843 21.9098 11.6579 21.8705C11.3966 21.8251 11.1577 21.7148 10.9679 21.6271C10.9504 21.619 10.9333 21.6112 10.9167 21.6035L4.5167 18.6702L4.93335 17.7611L4.51669 18.6702C4.49354 18.6596 4.46967 18.6487 4.44522 18.6377C4.1851 18.5197 3.85826 18.3714 3.60476 18.1246C3.3858 17.9114 3.21862 17.6508 3.11604 17.363C2.99727 17.0297 2.99867 16.6708 2.99979 16.3852C2.9999 16.3583 3 16.3321 3 16.3066V10.118ZM5 11.118V16.3066C5 16.505 5.00047 16.6074 5.00521 16.6815C5.00536 16.6838 5.0055 16.6859 5.00565 16.688C5.00747 16.689 5.00938 16.69 5.01138 16.6911C5.07675 16.7263 5.16965 16.7694 5.35001 16.8521L11.75 19.7854C11.8813 19.8456 11.9473 19.8755 11.9962 19.895C11.9975 19.8956 11.9988 19.8961 12 19.8966C12.0012 19.8961 12.0025 19.8956 12.0038 19.895C12.0527 19.8755 12.1187 19.8456 12.25 19.7854L18.65 16.8521C18.8304 16.7694 18.9233 16.7263 18.9886 16.6911C18.9906 16.69 18.9925 16.689 18.9944 16.688C18.9945 16.6859 18.9946 16.6838 18.9948 16.6815C18.9995 16.6074 19 16.505 19 16.3066V11.118L18 11.618V14.5C18 15.0523 17.5523 15.5 17 15.5C16.4477 15.5 16 15.0523 16 14.5V12.618L12.805 14.2155C12.7976 14.2192 12.789 14.2236 12.7794 14.2285C12.6861 14.2761 12.493 14.3747 12.2766 14.4153C12.0938 14.4496 11.9062 14.4496 11.7234 14.4153C11.507 14.3747 11.3139 14.2761 11.2206 14.2285C11.211 14.2236 11.2024 14.2192 11.195 14.2155L5 11.118ZM11.8026 12.4796C11.8024 12.4797 11.8024 12.4796 11.8026 12.4795L11.8026 12.4796ZM12.1974 12.4795C12.1976 12.4796 12.1976 12.4797 12.1974 12.4796L12.1974 12.4795ZM12.1974 4.52046L12.1974 4.52045L12.1974 4.52046Z" fill="#1B2631"/>
</svg>
