<svg width="24" height="24" viewBox="0 0 24 24" fill="none" xmlns="http://www.w3.org/2000/svg">
<path fill-rule="evenodd" clip-rule="evenodd" d="M9.66438 2.01376C10.2092 2.10456 10.5772 2.61978 10.4864 3.16456L9.84711 7.00016H15.8195L16.5136 2.83576C16.6044 2.29099 17.1196 1.92297 17.6644 2.01376C18.2091 2.10456 18.5772 2.61978 18.4864 3.16456L17.8471 7.00016H20.5C21.0523 7.00016 21.5 7.44787 21.5 8.00016C21.5 8.55244 21.0523 9.00016 20.5 9.00016H17.5138L16.5138 15.0002H19.5C20.0523 15.0002 20.5 15.4479 20.5 16.0002C20.5 16.5524 20.0523 17.0002 19.5 17.0002H16.1804L15.4864 21.1646C15.3956 21.7093 14.8803 22.0773 14.3356 21.9865C13.7908 21.8958 13.4228 21.3805 13.5136 20.8358L14.1528 17.0002H8.18045L7.48638 21.1646C7.39558 21.7093 6.88036 22.0773 6.33559 21.9865C5.79082 21.8958 5.4228 21.3805 5.51359 20.8358L6.15286 17.0002H2.5C1.94772 17.0002 1.5 16.5524 1.5 16.0002C1.5 15.4479 1.94772 15.0002 2.5 15.0002H6.48619L7.48619 9.00016H3.5C2.94772 9.00016 2.5 8.55244 2.5 8.00016C2.5 7.44787 2.94772 7.00016 3.5 7.00016H7.81953L8.51359 2.83576C8.60439 2.29099 9.11961 1.92297 9.66438 2.01376ZM9.51378 9.00016L8.51378 15.0002H14.4862L15.4862 9.00016H9.51378Z" fill="white"/>
</svg>
