<svg width="24" height="24" viewBox="0 0 24 24" fill="none" xmlns="http://www.w3.org/2000/svg">
<path fill-rule="evenodd" clip-rule="evenodd" d="M11.597 1.18505C11.8628 1.13038 12.137 1.13038 12.4028 1.18505C12.7101 1.24824 12.9847 1.40207 13.203 1.52436C13.2234 1.53575 13.2432 1.54687 13.2626 1.55761L20.6626 5.66872C20.683 5.68009 20.7041 5.6917 20.7257 5.70359C20.9568 5.8309 21.2474 5.99097 21.4706 6.23315C21.6636 6.44252 21.8096 6.69069 21.8989 6.96105C22.0022 7.27375 22.001 7.60553 22.0001 7.86939C22 7.89406 21.9999 7.91813 21.9999 7.94153V16.0586C21.9999 16.082 22 16.1061 22.0001 16.1308C22.001 16.3946 22.0022 16.7264 21.8989 17.0391C21.8096 17.3095 21.6636 17.5576 21.4706 17.767C21.2474 18.0092 20.9568 18.1693 20.7257 18.2966C20.7041 18.3085 20.683 18.3201 20.6626 18.3314L13.2626 22.4426C13.2432 22.4533 13.2234 22.4644 13.203 22.4758C12.9847 22.5981 12.7101 22.7519 12.4028 22.8151C12.137 22.8698 11.8628 22.8698 11.597 22.8151C11.2897 22.7519 11.0151 22.5981 10.7967 22.4758C10.7764 22.4644 10.7565 22.4533 10.7372 22.4426L3.33721 18.3314C3.31675 18.3201 3.29568 18.3085 3.27408 18.2966C3.04295 18.1693 2.75233 18.0092 2.52915 17.767C2.3362 17.5576 2.19018 17.3095 2.10085 17.0391C1.99753 16.7264 1.99874 16.3946 1.9997 16.1308C1.99979 16.1061 1.99988 16.082 1.99988 16.0586V7.94153C1.99988 7.91813 1.99979 7.89406 1.9997 7.8694C1.99874 7.60553 1.99753 7.27375 2.10085 6.96105C2.19017 6.69069 2.3362 6.44253 2.52915 6.23315C2.75232 5.99097 3.04294 5.8309 3.27407 5.7036C3.29567 5.6917 3.31675 5.68009 3.33721 5.66872L10.7372 1.55761C10.7565 1.54687 10.7764 1.53575 10.7967 1.52436C11.0151 1.40207 11.2897 1.24824 11.597 1.18505ZM11.9999 3.14907C11.9984 3.1498 11.9968 3.15056 11.9951 3.15136C11.9374 3.17919 11.86 3.22173 11.7085 3.30592L4.30849 7.41704C4.14854 7.5059 4.06688 7.55174 4.00958 7.58825C4.00789 7.58932 4.00628 7.59035 4.00475 7.59135C4.00462 7.59317 4.0045 7.59509 4.00438 7.59709C4.0003 7.6649 3.99988 7.75855 3.99988 7.94153V16.0586C3.99988 16.2416 4.0003 16.3353 4.00438 16.4031C4.0045 16.4051 4.00462 16.407 4.00474 16.4088C4.00628 16.4098 4.00789 16.4108 4.00958 16.4119C4.06688 16.4484 4.14854 16.4943 4.3085 16.5831L11.7085 20.6942C11.86 20.7784 11.9374 20.821 11.9951 20.8488C11.9968 20.8496 11.9984 20.8504 11.9999 20.8511C12.0014 20.8504 12.003 20.8496 12.0047 20.8488C12.0624 20.821 12.1397 20.7784 12.2913 20.6942L19.6913 16.5831C19.8512 16.4943 19.9329 16.4484 19.9902 16.4119C19.9919 16.4108 19.9935 16.4098 19.995 16.4088C19.9951 16.407 19.9953 16.4051 19.9954 16.4031C19.9995 16.3353 19.9999 16.2416 19.9999 16.0586V7.94153C19.9999 7.75855 19.9995 7.6649 19.9954 7.59708C19.9953 7.59509 19.9951 7.59317 19.995 7.59135C19.9935 7.59035 19.9919 7.58932 19.9902 7.58825C19.9329 7.55174 19.8512 7.5059 19.6913 7.41703L12.2913 3.30592C12.1397 3.22173 12.0624 3.1792 12.0047 3.15136C12.003 3.15056 12.0014 3.1498 11.9999 3.14907ZM11.9959 7.72356C10.6794 6.79114 8.86721 6.66481 7.42763 7.89481C5.77337 9.30825 5.52737 11.7018 6.84238 13.3939C7.53815 14.2892 9.22829 15.8573 10.2831 16.8119L10.3051 16.8318C10.4652 16.9767 10.6264 17.1227 10.776 17.2373C10.9452 17.367 11.152 17.499 11.4165 17.5791C11.7901 17.6923 12.2028 17.6923 12.5764 17.5791C12.8409 17.499 13.0477 17.367 13.2169 17.2373C13.3665 17.1227 13.5277 16.9767 13.6878 16.8318L13.7098 16.8119C14.7646 15.8573 16.4548 14.2892 17.1505 13.3939C18.4567 11.7131 18.2544 9.29861 16.5549 7.88604C15.1052 6.68119 13.3102 6.79147 11.9959 7.72356ZM11.2365 9.71801C10.5311 8.89335 9.48789 8.7651 8.72683 9.41537C7.87604 10.1423 7.76935 11.3274 8.42158 12.1667C8.98583 12.8927 10.5226 14.3313 11.6251 15.329C11.8163 15.502 11.9159 15.5911 11.9924 15.6497C11.9938 15.6508 11.9951 15.6518 11.9965 15.6528C11.9978 15.6518 11.9991 15.6508 12.0005 15.6497C12.077 15.5911 12.1766 15.502 12.3678 15.329C13.4703 14.3313 15.0071 12.8927 15.5713 12.1667C16.2324 11.316 16.1251 10.1294 15.2765 9.42414C14.4836 8.76513 13.4542 8.90216 12.7564 9.71801C12.5664 9.94012 12.2887 10.068 11.9965 10.068C11.7042 10.068 11.4265 9.94012 11.2365 9.71801Z" fill="white"/>
</svg>
