<svg width="24" height="24" viewBox="0 0 24 24" fill="none" xmlns="http://www.w3.org/2000/svg">
<path fill-rule="evenodd" clip-rule="evenodd" d="M8.29831 3.1779C9.68086 1.27275 12.1355 0.359819 14.5952 1.49282C17.3548 2.76393 18.4829 5.89339 17.345 8.59353C17.1854 8.97234 16.9599 9.42245 16.6992 9.90465C16.8094 10.1108 16.9072 10.3249 16.992 10.5455C19.3167 10.1759 21.698 11.2661 22.6361 13.8066C23.6886 16.6567 22.2734 19.6672 19.5595 20.7719C18.5837 21.1691 16.9095 21.6126 15.3229 21.9921C13.7118 22.3774 12.1093 22.7153 11.2317 22.8956L11.2113 22.8998C11.1107 22.9205 10.9856 22.9462 10.8718 22.9603C10.7357 22.9771 10.548 22.9875 10.3344 22.9368C10.0509 22.8694 9.79047 22.7191 9.59039 22.5072C9.4397 22.3476 9.35482 22.1799 9.30132 22.0535C9.25662 21.948 9.21637 21.8267 9.184 21.7293C9.18178 21.7226 9.17959 21.716 9.17744 21.7095C8.89469 20.8594 8.38612 19.3026 7.91427 17.7147C7.61473 16.7067 7.32005 15.6539 7.10988 14.7533C5.61564 13.9475 4.03755 13.0466 3.17234 12.3911C0.825343 10.613 0.29708 7.35035 1.99558 4.87797C3.53199 2.64153 6.1461 2.22022 8.29831 3.1779ZM8.96798 13.8999C8.96564 13.8877 8.96308 13.8756 8.96029 13.8635C8.90467 13.5996 8.86162 13.3634 8.83391 13.1624C8.57921 11.3154 9.78783 9.61177 11.698 9.25735C12.9315 9.02847 14.0178 9.51737 14.6865 10.4377C14.7102 10.4777 14.7369 10.5161 14.7664 10.5527C15.0286 10.9478 15.2175 11.4146 15.314 11.9329C15.3675 12.2202 15.544 12.4698 15.7971 12.6159C16.0502 12.7621 16.3546 12.7902 16.6302 12.6928C18.3676 12.079 20.1158 12.7552 20.7599 14.4994C21.4291 16.3115 20.5457 18.2112 18.8055 18.9195C17.9921 19.2506 16.4632 19.663 14.8577 20.0469C13.3836 20.3995 11.9116 20.7128 11.0154 20.8981C10.7278 20.0294 10.2631 18.5978 9.83142 17.145C9.47477 15.9448 9.15433 14.7747 8.96798 13.8999ZM15.3117 8.23318C14.2656 7.4087 12.8879 7.00243 11.3331 7.29091C8.77003 7.76648 6.97412 9.85332 6.81182 12.3063C5.7969 11.7345 4.90385 11.1937 4.3801 10.7969C2.89403 9.67106 2.54397 7.61176 3.64406 6.01045C4.67732 4.50641 6.56401 4.29638 8.09285 5.34545C8.33385 5.51082 8.63514 5.56247 8.91747 5.48683C9.19979 5.41118 9.43488 5.2158 9.56091 4.95208C10.3554 3.28961 12.0697 2.53149 13.7585 3.30938C15.5131 4.11755 16.2316 6.0855 15.502 7.81684C15.4496 7.94122 15.3857 8.0806 15.3117 8.23318Z" fill="white"/>
</svg>
