<svg width="24" height="24" viewBox="0 0 24 24" fill="none" xmlns="http://www.w3.org/2000/svg">
<path fill-rule="evenodd" clip-rule="evenodd" d="M8.47189 1.0001C8.48934 1.00015 8.50636 1.00019 8.52293 1.00019H15.4774C15.494 1.00019 15.511 1.00015 15.5285 1.0001C15.7184 0.999592 15.9575 0.998953 16.1929 1.05545C16.3969 1.10444 16.592 1.18525 16.771 1.29491C16.9773 1.42137 17.146 1.59091 17.2799 1.72556C17.2922 1.73793 17.3042 1.75 17.3159 1.76171L22.2387 6.68446C22.2504 6.69618 22.2625 6.70819 22.2748 6.72049C22.4095 6.85442 22.579 7.02306 22.7055 7.22941C22.8151 7.40835 22.8959 7.60344 22.9449 7.80751C23.0014 8.04284 23.0008 8.28198 23.0003 8.47189C23.0002 8.48933 23.0002 8.50636 23.0002 8.52293V15.4774C23.0002 15.494 23.0002 15.511 23.0003 15.5285C23.0008 15.7184 23.0014 15.9575 22.9449 16.1929C22.8959 16.3969 22.8151 16.592 22.7055 16.771C22.579 16.9773 22.4095 17.146 22.2748 17.2799C22.2625 17.2922 22.2504 17.3042 22.2387 17.3159L17.3159 22.2387C17.3042 22.2504 17.2922 22.2625 17.2799 22.2748C17.146 22.4095 16.9773 22.579 16.771 22.7055C16.592 22.8151 16.3969 22.8959 16.1929 22.9449C15.9575 23.0014 15.7184 23.0008 15.5285 23.0003C15.511 23.0002 15.494 23.0002 15.4774 23.0002H8.52293C8.50636 23.0002 8.48933 23.0002 8.47189 23.0003C8.28198 23.0008 8.04284 23.0014 7.80751 22.9449C7.60344 22.8959 7.40835 22.8151 7.22941 22.7055C7.02306 22.579 6.85442 22.4095 6.72049 22.2748C6.70819 22.2625 6.69618 22.2504 6.68446 22.2387L1.76171 17.3159C1.75 17.3042 1.73793 17.2922 1.72556 17.2799C1.59092 17.146 1.42137 16.9773 1.29491 16.771C1.18525 16.592 1.10444 16.3969 1.05545 16.1929C0.998953 15.9575 0.999592 15.7184 1.0001 15.5285C1.00015 15.511 1.00019 15.494 1.00019 15.4774V8.52293C1.00019 8.50636 1.00015 8.48934 1.0001 8.47189C0.999592 8.28198 0.998953 8.04285 1.05545 7.80751C1.10444 7.60344 1.18525 7.40835 1.29491 7.22941C1.42136 7.02305 1.59091 6.85441 1.72556 6.72048C1.73793 6.70818 1.75 6.69617 1.76171 6.68446L6.68446 1.76171C6.69617 1.75 6.70818 1.73792 6.72048 1.72556C6.85441 1.59091 7.02305 1.42136 7.22941 1.29491C7.40835 1.18525 7.60344 1.10444 7.80751 1.05545C8.04285 0.998953 8.28198 0.999592 8.47189 1.0001ZM8.27547 3.00277C8.27462 3.00354 8.27374 3.00435 8.27282 3.00519C8.2377 3.03723 8.1913 3.0833 8.09867 3.17593L3.17593 8.09867C3.0833 8.1913 3.03723 8.2377 3.00519 8.27282C3.00435 8.27374 3.00354 8.27462 3.00277 8.27547C3.00272 8.27662 3.00266 8.27782 3.0026 8.27906C3.00043 8.32655 3.00019 8.39193 3.00019 8.52293V15.4774C3.00019 15.6084 3.00043 15.6738 3.0026 15.7213C3.00266 15.7226 3.00272 15.7238 3.00277 15.7249C3.00354 15.7258 3.00435 15.7266 3.00519 15.7276C3.03723 15.7627 3.0833 15.8091 3.17593 15.9017L8.09867 20.8245C8.1913 20.9171 8.2377 20.9632 8.27282 20.9952C8.27374 20.996 8.27462 20.9968 8.27547 20.9976C8.27662 20.9977 8.27781 20.9977 8.27906 20.9978C8.32655 21 8.39193 21.0002 8.52293 21.0002H15.4774C15.6084 21.0002 15.6738 21 15.7213 20.9978C15.7226 20.9977 15.7238 20.9977 15.7249 20.9976C15.7258 20.9968 15.7266 20.996 15.7276 20.9952C15.7627 20.9632 15.8091 20.9171 15.9017 20.8245L20.8245 15.9017C20.9171 15.8091 20.9632 15.7627 20.9952 15.7276C20.996 15.7266 20.9968 15.7258 20.9976 15.7249C20.9977 15.7238 20.9977 15.7226 20.9978 15.7213C21 15.6738 21.0002 15.6084 21.0002 15.4774V8.52293C21.0002 8.39193 21 8.32655 20.9978 8.27906C20.9977 8.27781 20.9977 8.27662 20.9976 8.27547C20.9968 8.27462 20.996 8.27374 20.9952 8.27282C20.9632 8.2377 20.9171 8.1913 20.8245 8.09867L15.9017 3.17593C15.8091 3.0833 15.7627 3.03723 15.7276 3.00519C15.7266 3.00435 15.7258 3.00354 15.7249 3.00277C15.7238 3.00272 15.7226 3.00266 15.7213 3.0026C15.6738 3.00043 15.6084 3.00019 15.4774 3.00019H8.52293C8.39193 3.00019 8.32655 3.00043 8.27906 3.0026C8.27782 3.00266 8.27662 3.00272 8.27547 3.00277ZM11.9962 7.72367C10.6797 6.79125 8.86752 6.66491 7.42794 7.89492C5.77368 9.30836 5.52769 11.7019 6.84269 13.394C7.53846 14.2893 9.2286 15.8575 10.2834 16.812L10.3054 16.8319C10.4655 16.9768 10.6267 17.1228 10.7763 17.2374C10.9456 17.3671 11.1523 17.4991 11.4168 17.5792C11.7904 17.6924 12.2031 17.6924 12.5767 17.5792C12.8412 17.4991 13.048 17.3671 13.2172 17.2374C13.3668 17.1228 13.528 16.9768 13.6881 16.8319L13.7101 16.812C14.7649 15.8575 16.4551 14.2893 17.1508 13.394C18.457 11.7132 18.2547 9.29872 16.5552 7.88615C15.1056 6.68129 13.3105 6.79158 11.9962 7.72367ZM11.2368 9.71811C10.5315 8.89345 9.4882 8.7652 8.72714 9.41547C7.87635 10.1424 7.76967 11.3275 8.42189 12.1668C8.98614 12.8928 10.523 14.3314 11.6254 15.3291C11.8166 15.5021 11.9163 15.5912 11.9927 15.6498C11.9941 15.6509 11.9955 15.6519 11.9968 15.6529C11.9981 15.6519 11.9994 15.6509 12.0008 15.6498C12.0773 15.5912 12.1769 15.5021 12.3681 15.3291C13.4706 14.3314 15.0074 12.8928 15.5716 12.1668C16.2327 11.3161 16.1254 10.1295 15.2768 9.42424C14.4839 8.76524 13.4545 8.90226 12.7567 9.71811C12.5667 9.94022 12.289 10.0681 11.9968 10.0681C11.7045 10.0681 11.4268 9.94022 11.2368 9.71811Z" fill="white"/>
</svg>
