<svg width="24" height="24" viewBox="0 0 24 24" fill="none" xmlns="http://www.w3.org/2000/svg">
<path fill-rule="evenodd" clip-rule="evenodd" d="M17.5354 2.30608C16.5778 1.19519 15.0109 0.672974 13.4497 1.41798C11.6347 2.28415 10.841 4.36417 11.6109 6.19128C11.9983 7.1104 13.0462 8.78673 13.7372 9.86035C13.7426 9.86868 13.7479 9.87703 13.7533 9.88538C13.87 10.0667 13.9876 10.2496 14.1023 10.3992C14.2323 10.5687 14.3978 10.7499 14.6327 10.8961C14.9645 11.1026 15.3648 11.2098 15.7554 11.1969C16.0319 11.1878 16.2658 11.1136 16.4632 11.0318C16.6373 10.9595 16.8306 10.86 17.0223 10.7613L17.0488 10.7477C18.184 10.1634 19.9297 9.23562 20.7247 8.63331C22.2936 7.44467 22.6915 5.23799 21.5111 3.56894C20.5176 2.16405 18.918 1.82273 17.5354 2.30608ZM16.2891 4.02355C15.8875 3.18318 15.0659 2.8628 14.3111 3.22299C13.4499 3.63399 13.1034 4.58281 13.454 5.41459C13.7591 6.13874 14.6953 7.6535 15.419 8.77794C15.5584 8.99458 15.6312 9.10626 15.6896 9.18247C15.6906 9.18375 15.6916 9.18499 15.6925 9.1862C15.6939 9.18562 15.6954 9.18502 15.6969 9.18441C15.7856 9.14761 15.9044 9.0873 16.1335 8.9694C17.3225 8.35745 18.8906 7.51371 19.5169 7.03916C20.2479 6.48539 20.4197 5.48938 19.8782 4.72376C19.3786 4.01725 18.5156 3.8965 17.7572 4.41691C17.5162 4.58229 17.2149 4.63394 16.9326 4.55829C16.6502 4.48264 16.4151 4.28727 16.2891 4.02355ZM3.56809 12.0001H4.43189C4.68428 12.0001 4.93007 12 5.13824 12.0171C5.36683 12.0357 5.63656 12.0798 5.90799 12.2181C6.28431 12.4098 6.59027 12.7158 6.78202 13.0921C6.861 13.2471 6.90925 13.4016 6.93958 13.5482L8.53285 12.8819L8.54205 12.8777C8.55726 12.8709 8.57881 12.8613 8.60606 12.8493C8.66053 12.8253 8.73803 12.7917 8.83354 12.7517C9.02386 12.672 9.28913 12.5654 9.58833 12.4582C10.1413 12.26 10.9678 12.0001 11.6431 12.0001C12.1223 12.0001 12.599 12.0572 13.0643 12.17L15.4497 12.7501C16.5433 13.0153 17.3491 13.9575 17.4048 15.0845L18.8878 14.0026C19.9068 13.2595 21.3291 13.3549 22.2352 14.2364C23.2544 15.2278 23.2555 16.8471 22.2352 17.8386L20.0776 19.9374C19.3555 20.6398 18.4379 21.1162 17.4442 21.3098L14.3945 21.9031C13.6488 22.0479 12.8793 22.0306 12.1402 21.8506L9.38268 21.1805L9.3804 21.1799C9.12936 21.1183 8.87118 21.0873 8.6103 21.0873H6.98685C6.98569 21.1045 6.98443 21.1216 6.98306 21.1383C6.96438 21.3669 6.92032 21.6367 6.78202 21.9081C6.59027 22.2844 6.28431 22.5904 5.90799 22.7821C5.63656 22.9204 5.36682 22.9645 5.13823 22.9832C4.93008 23.0002 4.68429 23.0001 4.43192 23.0001H3.56809C3.31571 23.0001 3.06993 23.0002 2.86177 22.9832C2.63318 22.9645 2.36345 22.9204 2.09202 22.7821C1.7157 22.5904 1.40974 22.2844 1.21799 21.9081C1.07969 21.6367 1.03563 21.3669 1.01695 21.1383C0.999943 20.9302 0.999973 20.6844 1 20.432L1 14.5682C0.999973 14.3158 0.999943 14.07 1.01695 13.8619C1.03563 13.6333 1.07969 13.3636 1.21799 13.0921C1.40974 12.7158 1.7157 12.4098 2.09202 12.2181C2.36345 12.0798 2.63318 12.0357 2.86178 12.0171C3.06993 12 3.31571 12.0001 3.56809 12.0001ZM7.00001 19.0873H8.6103C9.02964 19.0873 9.44753 19.1371 9.85593 19.2373C9.85636 19.2374 9.8568 19.2375 9.85723 19.2376L12.613 19.9073C13.0708 20.0188 13.5488 20.0299 14.0125 19.9399M14.0125 19.9399L17.0618 19.3467C17.0617 19.3467 17.0618 19.3467 17.0618 19.3467C17.6791 19.2264 18.2437 18.9312 18.6831 18.5038L20.8406 16.405C21.052 16.1998 21.0535 15.877 20.8406 15.67C20.6373 15.4722 20.3025 15.4462 20.0663 15.6184L17.5527 17.4523C17.0188 17.8426 16.3733 18.0499 15.7137 18.0499H13.2855C12.7333 18.0499 12.2855 17.6022 12.2855 17.05C12.2855 16.4977 12.7332 16.05 13.2855 16.0499L14.831 16.0499C15.1761 16.0499 15.4079 15.7853 15.4079 15.516V15.2093C15.4079 14.9837 15.2478 14.7591 14.9784 14.6938L12.5929 14.1137C12.2818 14.0382 11.9633 14.0001 11.6431 14.0001C11.3537 14.0001 10.8246 14.1397 10.2631 14.3409C10.0051 14.4334 9.77346 14.5264 9.60617 14.5965C9.52287 14.6314 9.4564 14.6602 9.41159 14.6799L9.36145 14.7022L9.34984 14.7074L9.34785 14.7083C9.33793 14.7128 9.32777 14.7173 9.31771 14.7215L7.00001 15.6907V19.0873M5.00001 15.0481V20.4001C5.00001 20.6966 4.99923 20.8589 4.9897 20.9755C4.98932 20.9801 4.98894 20.9845 4.98856 20.9887C4.98441 20.989 4.98001 20.9894 4.97537 20.9898C4.85879 20.9993 4.69653 21.0001 4.4 21.0001H3.6C3.30348 21.0001 3.14122 20.9993 3.02464 20.9898C3.02 20.9894 3.0156 20.989 3.01145 20.9887C3.01107 20.9845 3.01069 20.9801 3.01031 20.9755C3.00078 20.8589 3.00001 20.6966 3.00001 20.4001V14.6001C3.00001 14.3036 3.00078 14.1413 3.01031 14.0247C3.01069 14.0201 3.01107 14.0157 3.01145 14.0116C3.0156 14.0112 3.02 14.0108 3.02464 14.0104C3.14122 14.0009 3.30348 14.0001 3.60001 14.0001H4.40001C4.69653 14.0001 4.85879 14.0009 4.97537 14.0104C4.98001 14.0108 4.98441 14.0112 4.98856 14.0116C4.98894 14.0157 4.98932 14.0201 4.9897 14.0247C4.99923 14.1413 5.00001 14.3036 5.00001 14.6001V15.0027C4.99966 15.0178 4.99966 15.033 5.00001 15.0481Z" fill="white"/>
</svg>
