<svg width="24" height="24" viewBox="0 0 24 24" fill="none" xmlns="http://www.w3.org/2000/svg">
<path fill-rule="evenodd" clip-rule="evenodd" d="M11.9929 3.71691C9.65298 1.67202 6.19252 1.25356 3.50521 3.54965C0.598423 6.03328 0.176093 10.2161 2.47471 13.1739C3.34724 14.2967 5.05023 15.9835 6.68684 17.5282C8.34261 19.0911 9.99457 20.5679 10.8092 21.2894L10.8247 21.3031C10.9013 21.371 10.9967 21.4555 11.0881 21.5244C11.1975 21.6068 11.3547 21.7091 11.5645 21.7717C11.8434 21.8549 12.1432 21.8549 12.4221 21.7717C12.6319 21.7091 12.789 21.6068 12.8984 21.5244C12.9898 21.4555 13.0852 21.371 13.1618 21.3031L13.1773 21.2894C13.992 20.5679 15.6439 19.0911 17.2997 17.5282C18.9363 15.9835 20.6393 14.2967 21.5118 13.1739C23.8016 10.2275 23.4445 6.01238 20.4709 3.54088C17.7537 1.28246 14.3301 1.67124 11.9929 3.71691ZM11.2333 5.78575C9.52828 3.79238 6.818 3.34975 4.80441 5.07021C2.7011 6.86733 2.41807 9.84171 4.05392 11.9467C4.81701 12.9286 6.40681 14.5137 8.05966 16.0738C9.6027 17.5303 11.1462 18.9145 11.9933 19.6663C12.8403 18.9145 14.3838 17.5303 15.9269 16.0738C17.5797 14.5137 19.1695 12.9286 19.9326 11.9467C21.5773 9.83034 21.3152 6.84319 19.1925 5.07898C17.1256 3.36105 14.4507 3.80119 12.7532 5.78575C12.5632 6.00786 12.2856 6.13573 11.9933 6.13573C11.701 6.13573 11.4233 6.00786 11.2333 5.78575Z" fill="white"/>
</svg>
