<svg width="24" height="24" viewBox="0 0 24 24" fill="none" xmlns="http://www.w3.org/2000/svg">
<path fill-rule="evenodd" clip-rule="evenodd" d="M17.5354 2.30608C16.5778 1.19519 15.0109 0.672974 13.4497 1.41798C11.6347 2.28415 10.841 4.36417 11.6109 6.19128C11.9983 7.1104 13.0462 8.78673 13.7372 9.86035C13.7426 9.86868 13.7479 9.87702 13.7533 9.88536C13.87 10.0667 13.9876 10.2495 14.1023 10.3992C14.2323 10.5687 14.3978 10.7499 14.6327 10.8961C14.9645 11.1026 15.3648 11.2098 15.7554 11.1969C16.0319 11.1878 16.2658 11.1136 16.4632 11.0318C16.6373 10.9595 16.8306 10.86 17.0223 10.7613C17.0312 10.7568 17.04 10.7522 17.0488 10.7477C18.184 10.1634 19.9297 9.23562 20.7247 8.63331C22.2936 7.44467 22.6915 5.23799 21.5111 3.56894C20.5176 2.16405 18.918 1.82273 17.5354 2.30608Z" fill="white"/>
<path d="M17.7089 15.8934C17.7089 16.6847 17.1855 17.354 16.464 17.5777L16.9279 17.5562C17.4349 17.5562 17.9279 17.3967 18.333 17.1006L21.1619 15.0367C21.8679 14.5219 22.8561 14.5902 23.4802 15.1973C24.1734 15.8716 24.1734 16.9639 23.4802 17.637L21.053 19.9982C20.3996 20.6337 19.5659 21.0677 18.6597 21.2443L15.229 21.9117C14.5487 22.0438 13.8473 22.0279 13.1741 21.8639L10.0712 21.1099C9.70002 21.0187 9.31948 20.9732 8.9366 20.9732C8.5301 20.9732 8.32685 20.9732 8.16378 20.915C7.88133 20.8141 7.65906 20.5918 7.55822 20.3094C7.5 20.1463 7.5 19.9431 7.5 19.5366V16.1074C7.5 15.8216 7.5 15.6787 7.5367 15.547C7.56921 15.4303 7.62265 15.3205 7.69441 15.223C7.77541 15.1128 7.88788 15.0246 8.11281 14.8483L9.2984 13.9188C9.2984 13.9188 11.2632 13.0001 12.3486 13.0001C12.7982 13.0001 13.2455 13.0548 13.6822 13.1631L16.3659 13.8303C17.1551 14.0259 17.7089 14.7314 17.7089 15.5406V15.8934Z" fill="white"/>
<path fill-rule="evenodd" clip-rule="evenodd" d="M3.47354 13.0001C3.48235 13.0001 3.49117 13.0001 3.5 13.0001C3.50884 13.0001 3.51766 13.0001 3.52648 13.0001C3.73652 13.0001 3.94115 13.0001 4.11523 13.0119C4.3056 13.0249 4.53133 13.0554 4.76537 13.1524C5.25543 13.3553 5.64477 13.7447 5.84776 14.2347C5.94471 14.4688 5.97518 14.6945 5.98817 14.8849C6.00005 15.059 6.00003 15.2636 6.00001 15.4736C6 15.4825 6 15.4913 6 15.5001L6.00001 20.5266C6.00003 20.7366 6.00005 20.9413 5.98817 21.1153C5.97518 21.3057 5.94471 21.5314 5.84776 21.7655C5.64477 22.2555 5.25543 22.6449 4.76537 22.8479C4.53133 22.9448 4.3056 22.9753 4.11523 22.9883C3.94115 23.0002 3.73653 23.0001 3.52648 23.0001H3.47352C3.26348 23.0001 3.05886 23.0002 2.88478 22.9883C2.6944 22.9753 2.46868 22.9448 2.23464 22.8479C1.74458 22.6449 1.35523 22.2555 1.15224 21.7655C1.0553 21.5314 1.02483 21.3057 1.01184 21.1153C0.99996 20.9413 0.999981 20.7366 1 20.5266L1 15.5001C1 15.4913 1 15.4825 1 15.4736C0.999981 15.2636 0.99996 15.059 1.01184 14.8849C1.02483 14.6945 1.0553 14.4688 1.15224 14.2347C1.35523 13.7447 1.74458 13.3553 2.23464 13.1524C2.46868 13.0554 2.69441 13.0249 2.88478 13.0119C3.05886 13.0001 3.26349 13.0001 3.47354 13.0001Z" fill="white"/>
</svg>
