<svg width="24" height="24" viewBox="0 0 24 24" fill="none" xmlns="http://www.w3.org/2000/svg">
<path fill-rule="evenodd" clip-rule="evenodd" d="M8.52269 1.00019L8.47165 1.0001C8.28174 0.999592 8.0426 0.998953 7.80727 1.05545C7.6032 1.10444 7.40811 1.18525 7.22916 1.29491C7.02281 1.42136 6.85417 1.59091 6.72024 1.72556L6.68421 1.76171L1.76147 6.68446L1.72531 6.72048C1.59067 6.85441 1.42112 7.02305 1.29467 7.22941C1.18501 7.40835 1.1042 7.60344 1.05521 7.80751C0.998709 8.04285 0.999348 8.28198 0.999855 8.47189L0.999947 8.52293V15.4774L0.999855 15.5285C0.999348 15.7184 0.998709 15.9575 1.05521 16.1929C1.1042 16.3969 1.18501 16.592 1.29467 16.771C1.42112 16.9773 1.59067 17.146 1.72532 17.2799L1.76147 17.3159L6.68421 22.2387L6.72024 22.2748C6.85417 22.4095 7.02281 22.579 7.22916 22.7055C7.40811 22.8151 7.6032 22.8959 7.80727 22.9449C8.0426 23.0014 8.28174 23.0008 8.47166 23.0003L8.52269 23.0002H15.4772L15.5282 23.0003C15.7181 23.0008 15.9573 23.0014 16.1926 22.9449C16.3967 22.8959 16.5918 22.8151 16.7707 22.7055C16.9771 22.579 17.1457 22.4095 17.2797 22.2748L17.3157 22.2387L22.2384 17.3159L22.2746 17.2799C22.4092 17.146 22.5788 16.9773 22.7052 16.771C22.8149 16.592 22.8957 16.3969 22.9447 16.1929C23.0012 15.9575 23.0005 15.7184 23 15.5285L22.9999 15.4774V8.52293L23 8.4719C23.0005 8.28199 23.0012 8.04285 22.9447 7.80751C22.8957 7.60344 22.8149 7.40835 22.7052 7.22941C22.5788 7.02306 22.4092 6.85442 22.2746 6.72049L22.2384 6.68445L17.3157 1.76171L17.2797 1.72556C17.1457 1.59091 16.9771 1.42136 16.7707 1.29491C16.5918 1.18525 16.3967 1.10444 16.1926 1.05545C15.9573 0.998953 15.7182 0.999592 15.5282 1.0001L15.4772 1.00019H8.52269ZM10.9066 8.27147C11.3138 8.03216 11.7925 7.94467 12.2581 8.02452C12.7236 8.10437 13.1458 8.3464 13.45 8.70773C13.7542 9.06907 13.9206 9.5264 13.9199 9.99872L13.9199 10.0002C13.9199 10.4693 13.5548 10.9584 12.8652 11.4182C12.5509 11.6277 12.2294 11.7892 11.9825 11.8989C11.8605 11.9531 11.7603 11.9932 11.6928 12.0188C11.6629 12.0302 11.6329 12.0413 11.6027 12.0519C11.0794 12.2269 10.7967 12.7928 10.9712 13.3164C11.1459 13.8404 11.7122 14.1235 12.2362 13.9489L12.4048 13.8878C12.5015 13.851 12.6356 13.7973 12.7948 13.7265C13.1105 13.5862 13.539 13.3727 13.9746 13.0823C14.7849 12.5421 15.9195 11.5315 15.9199 10.0011C15.9212 9.05668 15.5883 8.14226 14.98 7.41973C14.3717 6.69706 13.5272 6.21301 12.5962 6.05331C11.6651 5.89361 10.7076 6.06857 9.8932 6.54721C9.0788 7.02584 8.46007 7.77725 8.1466 8.66836C7.96333 9.18935 8.2371 9.76027 8.75809 9.94354C9.27908 10.1268 9.85 9.85304 10.0333 9.33205C10.19 8.88649 10.4994 8.51079 10.9066 8.27147ZM11.9999 16.0002C11.4476 16.0002 10.9999 16.4479 10.9999 17.0002C10.9999 17.5525 11.4476 18.0002 11.9999 18.0002H12.0099C12.5622 18.0002 13.0099 17.5525 13.0099 17.0002C13.0099 16.4479 12.5622 16.0002 12.0099 16.0002H11.9999Z" fill="white"/>
</svg>
