<svg width="24" height="24" viewBox="0 0 24 24" fill="none" xmlns="http://www.w3.org/2000/svg">
<path fill-rule="evenodd" clip-rule="evenodd" d="M8.47189 1.0001C8.48934 1.00015 8.50636 1.00019 8.52293 1.00019H15.4774C15.494 1.00019 15.511 1.00015 15.5285 1.0001C15.7184 0.999592 15.9575 0.998953 16.1929 1.05545C16.3969 1.10444 16.592 1.18525 16.771 1.29491C16.9773 1.42137 17.146 1.59091 17.2799 1.72556C17.2922 1.73793 17.3042 1.75 17.3159 1.76171L22.2387 6.68446C22.2504 6.69618 22.2625 6.70819 22.2748 6.72049C22.4095 6.85442 22.579 7.02306 22.7055 7.22941C22.8151 7.40835 22.8959 7.60344 22.9449 7.80751C23.0014 8.04284 23.0008 8.28198 23.0003 8.47189C23.0002 8.48933 23.0002 8.50636 23.0002 8.52293V15.4774C23.0002 15.494 23.0002 15.511 23.0003 15.5285C23.0008 15.7184 23.0014 15.9575 22.9449 16.1929C22.8959 16.3969 22.8151 16.592 22.7055 16.771C22.579 16.9773 22.4095 17.146 22.2748 17.2799C22.2625 17.2922 22.2504 17.3042 22.2387 17.3159L17.3159 22.2387C17.3042 22.2504 17.2922 22.2625 17.2799 22.2748C17.146 22.4095 16.9773 22.579 16.771 22.7055C16.592 22.8151 16.3969 22.8959 16.1929 22.9449C15.9575 23.0014 15.7184 23.0008 15.5285 23.0003C15.511 23.0002 15.494 23.0002 15.4774 23.0002H8.52293C8.50636 23.0002 8.48933 23.0002 8.47189 23.0003C8.28198 23.0008 8.04284 23.0014 7.80751 22.9449C7.60344 22.8959 7.40835 22.8151 7.22941 22.7055C7.02306 22.579 6.85442 22.4095 6.72049 22.2748C6.70819 22.2625 6.69618 22.2504 6.68446 22.2387L1.76171 17.3159C1.75 17.3042 1.73793 17.2922 1.72556 17.2799C1.59092 17.146 1.42137 16.9773 1.29491 16.771C1.18525 16.592 1.10444 16.3969 1.05545 16.1929C0.998953 15.9575 0.999592 15.7184 1.0001 15.5285C1.00015 15.511 1.00019 15.494 1.00019 15.4774V8.52293C1.00019 8.50636 1.00015 8.48934 1.0001 8.47189C0.999592 8.28198 0.998953 8.04285 1.05545 7.80751C1.10444 7.60344 1.18525 7.40835 1.29491 7.22941C1.42136 7.02305 1.59091 6.85441 1.72556 6.72048C1.73793 6.70818 1.75 6.69617 1.76171 6.68446L6.68446 1.76171C6.69617 1.75 6.70818 1.73792 6.72048 1.72556C6.85441 1.59091 7.02305 1.42136 7.22941 1.29491C7.40835 1.18525 7.60344 1.10444 7.80751 1.05545C8.04285 0.998953 8.28198 0.999592 8.47189 1.0001ZM8.27547 3.00277C8.27462 3.00354 8.27374 3.00435 8.27282 3.00519C8.2377 3.03723 8.1913 3.0833 8.09867 3.17593L3.17593 8.09867C3.0833 8.1913 3.03723 8.2377 3.00519 8.27282C3.00435 8.27374 3.00354 8.27462 3.00277 8.27547C3.00272 8.27662 3.00266 8.27782 3.0026 8.27906C3.00043 8.32655 3.00019 8.39193 3.00019 8.52293V15.4774C3.00019 15.6084 3.00043 15.6738 3.0026 15.7213C3.00266 15.7226 3.00272 15.7238 3.00277 15.7249C3.00354 15.7258 3.00435 15.7266 3.00519 15.7276C3.03723 15.7627 3.0833 15.8091 3.17593 15.9017L8.09867 20.8245C8.1913 20.9171 8.2377 20.9632 8.27282 20.9952C8.27374 20.996 8.27462 20.9968 8.27547 20.9976C8.27662 20.9977 8.27781 20.9977 8.27906 20.9978C8.32655 21 8.39193 21.0002 8.52293 21.0002H15.4774C15.6084 21.0002 15.6738 21 15.7213 20.9978C15.7226 20.9977 15.7238 20.9977 15.7249 20.9976C15.7258 20.9968 15.7266 20.996 15.7276 20.9952C15.7627 20.9632 15.8091 20.9171 15.9017 20.8245L20.8245 15.9017C20.9171 15.8091 20.9632 15.7627 20.9952 15.7276C20.996 15.7266 20.9968 15.7258 20.9976 15.7249C20.9977 15.7238 20.9977 15.7226 20.9978 15.7213C21 15.6738 21.0002 15.6084 21.0002 15.4774V8.52293C21.0002 8.39193 21 8.32655 20.9978 8.27906C20.9977 8.27781 20.9977 8.27662 20.9976 8.27547C20.9968 8.27462 20.996 8.27374 20.9952 8.27282C20.9632 8.2377 20.9171 8.1913 20.8245 8.09867L15.9017 3.17593C15.8091 3.0833 15.7627 3.03723 15.7276 3.00519C15.7266 3.00435 15.7258 3.00354 15.7249 3.00277C15.7238 3.00272 15.7226 3.00266 15.7213 3.0026C15.6738 3.00043 15.6084 3.00019 15.4774 3.00019H8.52293C8.39193 3.00019 8.32655 3.00043 8.27906 3.0026C8.27782 3.00266 8.27662 3.00272 8.27547 3.00277ZM12.2583 8.0245C11.7928 7.94465 11.314 8.03213 10.9068 8.27145C10.4996 8.51076 10.1902 8.88647 10.0335 9.33202C9.85022 9.85301 9.2793 10.1268 8.75831 9.94351C8.23732 9.76024 7.96355 9.18933 8.14682 8.66834C8.46029 7.77723 9.07903 7.02581 9.89343 6.54718C10.7078 6.06855 11.6653 5.89359 12.5964 6.05329C13.5274 6.21299 14.3719 6.69704 14.9803 7.41971C15.5885 8.14223 15.9214 9.05666 15.9202 10.0011C15.9197 11.5314 14.7851 12.5421 13.9749 13.0822C13.5392 13.3727 13.1107 13.5862 12.795 13.7265C12.6358 13.7973 12.5017 13.851 12.4051 13.8878C12.3567 13.9062 12.3174 13.9205 12.2889 13.9307L12.2541 13.9428L12.2431 13.9466L12.2392 13.9479L12.2376 13.9484C12.2373 13.9485 12.2364 13.9489 11.9202 13.0002L12.2364 13.9489C11.7124 14.1235 11.1461 13.8404 10.9715 13.3164C10.7969 12.7926 11.0798 12.2265 11.6034 12.0517L11.6188 12.0462C11.6342 12.0408 11.6594 12.0316 11.6931 12.0188C11.7605 11.9931 11.8608 11.9531 11.9828 11.8989C12.2296 11.7892 12.5511 11.6277 12.8655 11.4181C13.5551 10.9584 13.9202 10.4693 13.9202 10.0002L13.9202 9.99869C13.9209 9.52637 13.7544 9.06905 13.4502 8.70771C13.146 8.34637 12.7238 8.10435 12.2583 8.0245ZM11.0002 17.0002C11.0002 16.4479 11.4479 16.0002 12.0002 16.0002H12.0102C12.5625 16.0002 13.0102 16.4479 13.0102 17.0002C13.0102 17.5525 12.5625 18.0002 12.0102 18.0002H12.0002C11.4479 18.0002 11.0002 17.5525 11.0002 17.0002Z" fill="white"/>
</svg>
