<svg width="24" height="24" viewBox="0 0 24 24" fill="none" xmlns="http://www.w3.org/2000/svg">
<path fill-rule="evenodd" clip-rule="evenodd" d="M12.4029 1.18505C12.1371 1.13038 11.8629 1.13038 11.5971 1.18505C11.2898 1.24824 11.0152 1.40207 10.7968 1.52436L10.7373 1.55761L3.33733 5.66872L3.27419 5.70359C3.04306 5.8309 2.75244 5.99097 2.52927 6.23315C2.33632 6.44253 2.1903 6.69069 2.10097 6.96105C1.99765 7.27375 1.99886 7.60553 1.99982 7.8694L2 7.94153V16.0586L1.99982 16.1308C1.99886 16.3946 1.99765 16.7264 2.10097 17.0391C2.1903 17.3095 2.33632 17.5576 2.52927 17.767C2.75243 18.0092 3.04303 18.1692 3.27416 18.2966L3.33733 18.3314L10.7373 22.4426L10.7968 22.4758C11.0152 22.5981 11.2898 22.7519 11.5971 22.8151C11.8629 22.8698 12.1371 22.8698 12.4029 22.8151C12.7102 22.7519 12.9848 22.5981 13.2032 22.4758L13.2627 22.4426L20.6627 18.3314L20.7258 18.2966C20.9569 18.1693 21.2476 18.0092 21.4707 17.767C21.6637 17.5576 21.8097 17.3095 21.899 17.0391C22.0023 16.7264 22.0011 16.3946 22.0002 16.1308L22 16.0586V7.94153L22.0002 7.8694C22.0011 7.60553 22.0023 7.27375 21.899 6.96105C21.8097 6.69069 21.6637 6.44253 21.4707 6.23315C21.2476 5.99097 20.9569 5.8309 20.7258 5.70359L20.6627 5.66872L13.2627 1.55761L13.2032 1.52436C12.9848 1.40207 12.7102 1.24824 12.4029 1.18505ZM10.9066 8.27135C11.3138 8.03203 11.7926 7.94455 12.2581 8.0244C12.7236 8.10425 13.1459 8.34628 13.45 8.70761C13.7542 9.06895 13.9207 9.52628 13.92 9.99859L13.92 10.0001C13.92 10.4692 13.5549 10.9583 12.8653 11.418C12.5509 11.6276 12.2294 11.7891 11.9826 11.8988C11.8606 11.953 11.7603 11.993 11.6929 12.0187C11.663 12.0301 11.6329 12.0411 11.6027 12.0517C11.0794 12.2268 10.7968 12.7927 10.9713 13.3163C11.146 13.8403 11.7123 14.1234 12.2362 13.9488L12.4049 13.8877C12.5015 13.8509 12.6356 13.7972 12.7949 13.7264C13.1105 13.5861 13.5391 13.3726 13.9747 13.0821C14.7849 12.542 15.9195 11.5314 15.92 10.001C15.9213 9.05656 15.5883 8.14213 14.9801 7.41961C14.3717 6.69694 13.5273 6.21289 12.5962 6.05319C11.6652 5.89349 10.7077 6.06845 9.89327 6.54708C9.07886 7.02572 8.46013 7.77713 8.14666 8.66824C7.96339 9.18923 8.23716 9.76015 8.75815 9.94342C9.27914 10.1267 9.85006 9.85292 10.0333 9.33193C10.1901 8.88637 10.4994 8.51066 10.9066 8.27135ZM12 16.0001C11.4477 16.0001 11 16.4478 11 17.0001C11 17.5524 11.4477 18.0001 12 18.0001H12.01C12.5623 18.0001 13.01 17.5524 13.01 17.0001C13.01 16.4478 12.5623 16.0001 12.01 16.0001H12Z" fill="white"/>
</svg>
