<svg width="24" height="24" viewBox="0 0 24 24" fill="none" xmlns="http://www.w3.org/2000/svg">
<path fill-rule="evenodd" clip-rule="evenodd" d="M11.597 1.18505C11.8628 1.13038 12.137 1.13038 12.4028 1.18505C12.7101 1.24824 12.9847 1.40207 13.203 1.52436C13.2234 1.53575 13.2432 1.54687 13.2626 1.55761L20.6626 5.66872C20.683 5.68009 20.7041 5.6917 20.7257 5.70359C20.9568 5.8309 21.2474 5.99097 21.4706 6.23315C21.6636 6.44252 21.8096 6.69069 21.8989 6.96105C22.0022 7.27375 22.001 7.60553 22.0001 7.86939C22 7.89406 21.9999 7.91813 21.9999 7.94153V16.0586C21.9999 16.082 22 16.1061 22.0001 16.1308C22.001 16.3946 22.0022 16.7264 21.8989 17.0391C21.8096 17.3095 21.6636 17.5576 21.4706 17.767C21.2474 18.0092 20.9568 18.1693 20.7257 18.2966C20.7041 18.3085 20.683 18.3201 20.6626 18.3314L13.2626 22.4426C13.2432 22.4533 13.2234 22.4644 13.203 22.4758C12.9847 22.5981 12.7101 22.7519 12.4028 22.8151C12.137 22.8698 11.8628 22.8698 11.597 22.8151C11.2897 22.7519 11.0151 22.5981 10.7967 22.4758C10.7764 22.4644 10.7565 22.4533 10.7372 22.4426L3.33721 18.3314C3.31675 18.3201 3.29568 18.3085 3.27408 18.2966C3.04295 18.1693 2.75233 18.0092 2.52915 17.767C2.3362 17.5576 2.19018 17.3095 2.10085 17.0391C1.99753 16.7264 1.99874 16.3946 1.9997 16.1308C1.99979 16.1061 1.99988 16.082 1.99988 16.0586V7.94153C1.99988 7.91813 1.99979 7.89406 1.9997 7.8694C1.99874 7.60553 1.99753 7.27375 2.10085 6.96105C2.19017 6.69069 2.3362 6.44253 2.52915 6.23315C2.75232 5.99097 3.04294 5.8309 3.27407 5.7036C3.29567 5.6917 3.31675 5.68009 3.33721 5.66872L10.7372 1.55761C10.7565 1.54687 10.7764 1.53575 10.7967 1.52436C11.0151 1.40207 11.2897 1.24824 11.597 1.18505ZM11.9999 3.14907C11.9984 3.1498 11.9968 3.15056 11.9951 3.15136C11.9374 3.17919 11.86 3.22173 11.7085 3.30592L4.30849 7.41704C4.14854 7.5059 4.06688 7.55174 4.00958 7.58825C4.00789 7.58932 4.00628 7.59035 4.00475 7.59135C4.00462 7.59317 4.0045 7.59509 4.00438 7.59709C4.0003 7.6649 3.99988 7.75855 3.99988 7.94153V16.0586C3.99988 16.2416 4.0003 16.3353 4.00438 16.4031C4.0045 16.4051 4.00462 16.407 4.00474 16.4088C4.00628 16.4098 4.00789 16.4108 4.00958 16.4119C4.06688 16.4484 4.14854 16.4943 4.3085 16.5831L11.7085 20.6942C11.86 20.7784 11.9374 20.821 11.9951 20.8488C11.9968 20.8496 11.9984 20.8504 11.9999 20.8511C12.0014 20.8504 12.003 20.8496 12.0047 20.8488C12.0624 20.821 12.1397 20.7784 12.2913 20.6942L19.6913 16.5831C19.8512 16.4943 19.9329 16.4484 19.9902 16.4119C19.9919 16.4108 19.9935 16.4098 19.995 16.4088C19.9951 16.407 19.9953 16.4051 19.9954 16.4031C19.9995 16.3353 19.9999 16.2416 19.9999 16.0586V7.94153C19.9999 7.75855 19.9995 7.6649 19.9954 7.59708C19.9953 7.59509 19.9951 7.59317 19.995 7.59135C19.9935 7.59035 19.9919 7.58932 19.9902 7.58825C19.9329 7.55174 19.8512 7.5059 19.6913 7.41703L12.2913 3.30592C12.1397 3.22173 12.0624 3.1792 12.0047 3.15136C12.003 3.15056 12.0014 3.1498 11.9999 3.14907ZM12.258 8.02439C11.7924 7.94454 11.3137 8.03202 10.9065 8.27134C10.4993 8.51066 10.1899 8.88636 10.0332 9.33192C9.84991 9.85291 9.27899 10.1267 8.758 9.94341C8.23701 9.76014 7.96324 9.18922 8.14651 8.66823C8.45998 7.77712 9.07871 7.02571 9.89312 6.54707C10.7075 6.06844 11.665 5.89348 12.5961 6.05318C13.5271 6.21288 14.3716 6.69693 14.9799 7.4196C15.5882 8.14213 15.9211 9.05655 15.9198 10.001C15.9194 11.5313 14.7848 12.542 13.9745 13.0821C13.5389 13.3725 13.1104 13.5861 12.7947 13.7264C12.6355 13.7972 12.5014 13.8509 12.4047 13.8877C12.3563 13.9061 12.3171 13.9204 12.2885 13.9306L12.2538 13.9427L12.2428 13.9465L12.2389 13.9478L12.2373 13.9483C12.237 13.9484 12.2361 13.9488 11.9198 13.0001L12.2361 13.9488C11.7121 14.1234 11.1458 13.8402 10.9712 13.3163C10.7966 12.7925 11.0795 12.2264 11.6031 12.0516L11.6019 12.052C11.6021 12.0519 11.6021 12.0519 11.6031 12.0516L11.6185 12.0461C11.6339 12.0407 11.6591 12.0315 11.6928 12.0187C11.7602 11.993 11.8605 11.953 11.9825 11.8988C12.2293 11.7891 12.5508 11.6276 12.8651 11.418C13.5547 10.9583 13.9198 10.4692 13.9198 10.0001L13.9198 9.99858C13.9206 9.52627 13.7541 9.06894 13.4499 8.7076C13.1457 8.34627 12.7235 8.10424 12.258 8.02439ZM10.9999 17.0001C10.9999 16.4478 11.4476 16.0001 11.9999 16.0001H12.0099C12.5622 16.0001 13.0099 16.4478 13.0099 17.0001C13.0099 17.5524 12.5622 18.0001 12.0099 18.0001H11.9999C11.4476 18.0001 10.9999 17.5524 10.9999 17.0001Z" fill="white"/>
</svg>
