<svg width="24" height="24" viewBox="0 0 24 24" fill="none" xmlns="http://www.w3.org/2000/svg">
<path fill-rule="evenodd" clip-rule="evenodd" d="M11.4773 1.3366C11.8196 1.24392 12.1804 1.24392 12.5227 1.3366C12.9201 1.44419 13.2546 1.70685 13.5216 1.91648C15.825 3.72486 18.1428 5.51496 20.4563 7.31036C20.8329 7.60264 21.1647 7.86015 21.412 8.19445C21.629 8.48783 21.7906 8.81834 21.889 9.16975C22.0011 9.57016 22.0006 9.99017 22.0001 10.4669C21.9975 12.9242 22 15.3815 22 17.8388C22 18.3659 22.0001 18.8207 21.9694 19.1953C21.9371 19.5906 21.8658 19.9838 21.673 20.3622C21.3854 20.9267 20.9265 21.3856 20.362 21.6732C19.9836 21.866 19.5904 21.9374 19.195 21.9697C18.3935 22.0351 17.5806 21.9998 16.7769 22.0002C16.6578 22.0003 16.5155 22.0003 16.3902 21.9901C16.245 21.9782 16.037 21.9478 15.819 21.8367C15.5368 21.6929 15.3073 21.4635 15.1635 21.1812C15.0525 20.9633 15.022 20.7553 15.0101 20.6101C14.9999 20.4847 15 20.3425 15 20.2234L15.0079 14.6271C15.0087 14.0664 15.0091 13.786 14.9002 13.5717C14.8044 13.3833 14.6514 13.2301 14.4631 13.134C14.249 13.0249 13.9687 13.0249 13.4079 13.0249H10.608C10.0487 13.0249 9.76904 13.0249 9.55528 13.1337C9.36725 13.2294 9.21431 13.3821 9.11834 13.57C9.00923 13.7836 9.00884 14.0632 9.00804 14.6226L9.00002 20.2234C9.00007 20.3425 9.00012 20.4847 8.98988 20.6101C8.97802 20.7553 8.94758 20.9633 8.83653 21.1812C8.69272 21.4635 8.46325 21.6929 8.181 21.8367C7.96306 21.9478 7.75507 21.9782 7.60985 21.9901C7.48453 22.0003 7.34228 22.0003 7.22317 22.0002C6.41948 21.9998 5.60651 22.0351 4.80499 21.9697C4.40964 21.9374 4.01643 21.866 3.63805 21.6732C3.07356 21.3856 2.61462 20.9267 2.327 20.3622C2.1342 19.9838 2.06289 19.5906 2.03059 19.1953C1.99998 18.8207 2 18.3659 2.00002 17.8388C2.00002 15.3815 2.0026 12.9242 1.99995 10.4669C1.99943 9.99017 1.99898 9.57016 2.11106 9.16975C2.20942 8.81834 2.37107 8.48783 2.58806 8.19445C2.83532 7.86015 3.16713 7.60265 3.54376 7.31037C5.8572 5.51503 8.17512 3.72482 10.4784 1.91648C10.7454 1.70685 11.08 1.44419 11.4773 1.3366Z" fill="white"/>
</svg>
