<svg width="24" height="24" viewBox="0 0 24 24" fill="none" xmlns="http://www.w3.org/2000/svg">
<path fill-rule="evenodd" clip-rule="evenodd" d="M11.4773 1.3366C11.8196 1.24392 12.1804 1.24392 12.5227 1.3366C12.9201 1.44419 13.2546 1.70685 13.5216 1.91648C13.5471 1.93649 13.572 1.95602 13.5963 1.97489L20.3786 7.25002C20.4047 7.27032 20.4306 7.29042 20.4563 7.31036C20.8329 7.60264 21.1647 7.86015 21.412 8.19445C21.629 8.48783 21.7906 8.81834 21.889 9.16975C22.0011 9.57016 22.0006 9.99017 22.0001 10.4669C22.0001 10.4994 22 10.5322 22 10.5653V17.8388C22 18.3659 22.0001 18.8207 21.9694 19.1953C21.9371 19.5906 21.8658 19.9838 21.673 20.3622C21.3854 20.9267 20.9265 21.3856 20.362 21.6732C19.9836 21.866 19.5904 21.9374 19.195 21.9697C18.8205 22.0003 18.3657 22.0002 17.8386 22.0002H6.16145C5.63431 22.0002 5.17956 22.0003 4.80499 21.9697C4.40964 21.9374 4.01643 21.866 3.63805 21.6732C3.07356 21.3856 2.61462 20.9267 2.327 20.3622C2.1342 19.9838 2.06289 19.5906 2.03059 19.1953C1.99998 18.8207 2 18.3659 2.00002 17.8388L2.00002 10.5653C2.00002 10.5322 1.99998 10.4994 1.99995 10.4669C1.99943 9.99017 1.99898 9.57016 2.11106 9.16975C2.20942 8.81834 2.37107 8.48783 2.58806 8.19445C2.83532 7.86015 3.16713 7.60265 3.54376 7.31037C3.56946 7.29042 3.59536 7.27032 3.62147 7.25002L10.4038 1.97489C10.428 1.95602 10.4529 1.93649 10.4784 1.91648C10.7454 1.70685 11.08 1.44419 11.4773 1.3366Z" fill="white"/>
</svg>
