<svg width="24" height="24" viewBox="0 0 24 24" fill="none" xmlns="http://www.w3.org/2000/svg">
<path fill-rule="evenodd" clip-rule="evenodd" d="M11.4774 1.3366C11.8197 1.24392 12.1805 1.24392 12.5228 1.3366C12.9202 1.44419 13.2548 1.70685 13.5218 1.91648C13.5473 1.93649 13.5721 1.95602 13.5964 1.97489L20.3787 7.25002C20.4048 7.27032 20.4307 7.29043 20.4564 7.31038C20.833 7.60265 21.1648 7.86015 21.4121 8.19445C21.6291 8.48784 21.7907 8.81835 21.8891 9.16974C22.0012 9.57016 22.0007 9.99017 22.0002 10.4669C22.0002 10.4994 22.0001 10.5322 22.0001 10.5653V17.8388C22.0002 18.3659 22.0002 18.8207 21.9696 19.1953C21.9373 19.5906 21.866 19.9838 21.6732 20.3622C21.3855 20.9267 20.9266 21.3856 20.3621 21.6732C19.9837 21.866 19.5905 21.9374 19.1952 21.9697C18.8206 22.0003 18.3658 22.0002 17.8387 22.0002H6.16157C5.63443 22.0002 5.17968 22.0003 4.80511 21.9697C4.40977 21.9374 4.01655 21.866 3.63817 21.6732C3.07368 21.3856 2.61474 20.9267 2.32712 20.3622C2.13433 19.9838 2.06301 19.5906 2.03071 19.1953C2.00011 18.8207 2.00012 18.3659 2.00014 17.8388L2.00014 10.5653C2.00014 10.5322 2.0001 10.4994 2.00007 10.4669C1.99955 9.99017 1.9991 9.57016 2.11118 9.16974C2.20954 8.81834 2.37119 8.48783 2.58818 8.19445C2.83544 7.86015 3.16725 7.60265 3.54389 7.31036C3.56958 7.29042 3.59549 7.27032 3.62159 7.25002L10.4039 1.97489C10.4282 1.95602 10.453 1.93649 10.4785 1.91648C10.7455 1.70685 11.0801 1.44419 11.4774 1.3366ZM10.0001 20.0002H14.0001V13.6002C14.0001 13.3037 13.9994 13.1414 13.9898 13.0249C13.9895 13.0202 13.9891 13.0158 13.9887 13.0117C13.9845 13.0113 13.9801 13.0109 13.9755 13.0105C13.8589 13.001 13.6967 13.0002 13.4001 13.0002H10.6001C10.3036 13.0002 10.1414 13.001 10.0248 13.0105C10.0201 13.0109 10.0157 13.0113 10.0116 13.0117C10.0112 13.0158 10.0108 13.0202 10.0104 13.0249C10.0009 13.1414 10.0001 13.3037 10.0001 13.6002V20.0002ZM16.0001 20.0002L16.0001 13.5683C16.0002 13.316 16.0002 13.0702 15.9832 12.862C15.9645 12.6334 15.9204 12.3637 15.7822 12.0922C15.5904 11.7159 15.2844 11.41 14.9081 11.2182C14.6367 11.0799 14.367 11.0358 14.1384 11.0172C13.9302 11.0002 13.6844 11.0002 13.432 11.0002H10.5683C10.3159 11.0002 10.0701 11.0002 9.86191 11.0172C9.63332 11.0359 9.36358 11.0799 9.09216 11.2182C8.71583 11.41 8.40987 11.7159 8.21813 12.0922C8.07983 12.3637 8.03576 12.6334 8.01709 12.862C8.00008 13.0702 8.00011 13.3159 8.00014 13.5683L8.00014 20.0002H6.20014C5.62359 20.0002 5.25131 19.9995 4.96798 19.9763C4.69631 19.9541 4.59559 19.9164 4.54615 19.8912C4.35799 19.7954 4.20501 19.6424 4.10913 19.4542C4.08394 19.4048 4.04626 19.3041 4.02407 19.0324C4.00092 18.7491 4.00014 18.3768 4.00014 17.8002V10.5653C4.00014 9.93431 4.00883 9.81005 4.03715 9.70885C4.06994 9.59171 4.12382 9.48154 4.19615 9.38375C4.25864 9.29926 4.3514 9.21611 4.84947 8.82872L11.6318 3.55359C11.8187 3.40822 11.9177 3.33198 11.9928 3.28177C11.9954 3.28007 11.9978 3.27846 12.0001 3.27694C12.0025 3.27846 12.0049 3.28007 12.0074 3.28177C12.0826 3.33198 12.1816 3.40822 12.3685 3.5536L19.1508 8.82872C19.6489 9.21611 19.7416 9.29926 19.8041 9.38375C19.8765 9.48154 19.9303 9.59171 19.9631 9.70885C19.9915 9.81005 20.0001 9.93431 20.0001 10.5653V17.8002C20.0001 18.3768 19.9994 18.7491 19.9762 19.0324C19.954 19.3041 19.9163 19.4048 19.8911 19.4542C19.7953 19.6424 19.6423 19.7954 19.4541 19.8912C19.4047 19.9164 19.304 19.9541 19.0323 19.9763C18.749 19.9995 18.3767 20.0002 17.8001 20.0002H16.0001Z" fill="white"/>
</svg>
