<svg width="24" height="24" viewBox="0 0 24 24" fill="none" xmlns="http://www.w3.org/2000/svg">
<path fill-rule="evenodd" clip-rule="evenodd" d="M12.5227 1.33611C12.1804 1.24343 11.8196 1.24343 11.4773 1.33611C11.08 1.4437 10.7454 1.70635 10.4784 1.91598L10.4038 1.9744L3.54376 7.30988C3.16713 7.60216 2.83532 7.85966 2.58806 8.19396C2.37107 8.48735 2.20942 8.81785 2.11106 9.16926C1.99898 9.56967 1.99943 9.98968 1.99995 10.4664L2.00002 17.8383C2 18.3654 1.99998 18.8202 2.03059 19.1948C2.06289 19.5901 2.1342 19.9833 2.327 20.3617C2.61462 20.9262 3.07356 21.3851 3.63805 21.6728C4.01643 21.8656 4.40964 21.9369 4.80499 21.9692C5.17956 21.9998 5.63431 21.9998 6.16145 21.9997H17.8386C18.3657 21.9998 18.8205 21.9998 19.195 21.9692C19.5904 21.9369 19.9836 21.8656 20.362 21.6728C20.9265 21.3851 21.3854 20.9262 21.673 20.3617C21.8658 19.9833 21.9371 19.5901 21.9694 19.1948C22.0001 18.8202 22 18.3654 22 17.8383L22.0001 10.4664C22.0006 9.98969 22.0011 9.56967 21.889 9.16926C21.7906 8.81785 21.629 8.48735 21.412 8.19396C21.1647 7.85966 20.8329 7.60216 20.4563 7.30987L13.5963 1.9744L13.5216 1.91599C13.2546 1.70636 12.9201 1.4437 12.5227 1.33611ZM9.09447 13.7505C8.95681 13.2156 8.41163 12.8937 7.87678 13.0313C7.34192 13.169 7.01994 13.7142 7.1576 14.249C7.7126 16.4053 9.66885 17.9998 12 17.9998C14.3312 17.9998 16.2874 16.4053 16.8424 14.249C16.9801 13.7142 16.6581 13.169 16.1233 13.0313C15.5884 12.8937 15.0432 13.2156 14.9056 13.7505C14.5725 15.0446 13.3965 15.9998 12 15.9998C10.6035 15.9998 9.42756 15.0446 9.09447 13.7505Z" fill="white"/>
</svg>
