<svg width="24" height="24" viewBox="0 0 24 24" fill="none" xmlns="http://www.w3.org/2000/svg">
<path fill-rule="evenodd" clip-rule="evenodd" d="M18.0001 4C16.8956 4 16.0001 4.89543 16.0001 6C16.0001 7.10457 16.8956 8 18.0001 8C19.1047 8 20.0001 7.10457 20.0001 6C20.0001 4.89543 19.1047 4 18.0001 4ZM14.0001 6C14.0001 3.79086 15.791 2 18.0001 2C20.2093 2 22.0001 3.79086 22.0001 6C22.0001 8.20914 20.2093 10 18.0001 10C15.791 10 14.0001 8.20914 14.0001 6ZM9.24697 7.90405C9.72989 7.70774 10.2704 7.70774 10.7533 7.90405C11.1168 8.0518 11.3684 8.30772 11.5515 8.52701C11.7259 8.73584 11.9138 9.00735 12.1155 9.2987L14.9091 13.3338C15.0934 13.0575 15.2655 12.8029 15.4263 12.6035C15.6092 12.3766 15.8629 12.1092 16.234 11.9553C16.7245 11.7519 17.2758 11.7519 17.7663 11.9553C18.1374 12.1092 18.391 12.3766 18.574 12.6035C18.7493 12.8208 18.9379 13.1038 19.1413 13.409L22.1978 17.9937C22.4466 18.3668 22.6702 18.7023 22.8245 18.987C22.9789 19.2718 23.1553 19.6628 23.1281 20.1192C23.0932 20.703 22.8046 21.2422 22.3382 21.595C21.9736 21.8708 21.5504 21.941 21.2278 21.9705C20.9053 22.0001 20.5021 22 20.0537 22H4.01032C3.55315 22 3.14331 22.0001 2.8163 21.9701C2.49056 21.9403 2.06115 21.8697 1.69371 21.5886C1.2253 21.2304 0.938859 20.6837 0.910942 20.0947C0.889044 19.6326 1.07538 19.2393 1.23628 18.9546C1.39781 18.6686 1.63113 18.3317 1.89138 17.9558L7.86243 9.33097C7.8699 9.32019 7.87734 9.30943 7.88476 9.29871C8.08643 9.00736 8.27436 8.73584 8.44876 8.52701C8.63189 8.30772 8.8835 8.0518 9.24697 7.90405ZM14.0895 15.6637C14.098 15.6765 14.1067 15.6891 14.1157 15.7016L17.0916 20H4.05384C3.53938 20 3.22304 19.999 2.99859 19.9785C2.98388 19.9771 2.97028 19.9757 2.95772 19.9743C2.96371 19.9632 2.97032 19.9512 2.97758 19.9384C3.08845 19.7421 3.26769 19.4815 3.56053 19.0585L9.50682 10.4694C9.73862 10.1346 9.87471 9.93969 9.98386 9.80899C9.9896 9.80211 9.99502 9.79573 10.0001 9.7898C10.0052 9.79573 10.0107 9.80211 10.0164 9.80899C10.1256 9.93969 10.2616 10.1346 10.4934 10.4694L14.0895 15.6637ZM19.5241 20L16.1336 15.1026L16.5009 14.5516C16.7341 14.2018 16.872 13.9967 16.9831 13.859C16.9891 13.8515 16.9948 13.8446 17.0001 13.8382C17.0055 13.8446 17.0112 13.8515 17.0172 13.859C17.1283 13.9967 17.2661 14.2018 17.4994 14.5516L20.5097 19.0672C20.7901 19.4877 20.961 19.7459 21.0661 19.9399C21.0729 19.9524 21.0791 19.964 21.0847 19.9749C21.0726 19.9762 21.0594 19.9776 21.0453 19.9789C20.8255 19.999 20.516 20 20.0105 20H19.5241Z" fill="#1B2631"/>
</svg>
