<svg width="24" height="24" viewBox="0 0 24 24" fill="none" xmlns="http://www.w3.org/2000/svg">
<path fill-rule="evenodd" clip-rule="evenodd" d="M8.81412 3.00007C8.86426 3.0001 8.91508 3.00013 8.96658 3.00013H15.0335C15.085 3.00013 15.1358 3.0001 15.1859 3.00007C16.1136 2.99944 16.813 2.99897 17.4502 3.21875C18.0107 3.41208 18.5212 3.7276 18.9448 4.14246C19.4263 4.6141 19.7387 5.23985 20.153 6.06987C20.1754 6.11475 20.1981 6.16022 20.2211 6.20629L22.3877 10.5394C22.3964 10.5569 22.4051 10.5742 22.4136 10.5912C22.5777 10.9193 22.7019 11.1674 22.7912 11.4328C22.8701 11.6673 22.9271 11.9087 22.9614 12.1537C23.0002 12.4311 23.0001 12.7085 23 13.0753C23 13.0944 23 13.1137 23 13.1333V15.2415C23 16.0464 23 16.7108 22.9558 17.252C22.9099 17.8141 22.8113 18.3308 22.564 18.8161C22.1806 19.5687 21.5686 20.1807 20.816 20.5642C20.3306 20.8115 19.8139 20.91 19.2518 20.9559C18.7107 21.0002 18.0463 21.0001 17.2413 21.0001H6.7587C5.95374 21.0001 5.28938 21.0002 4.74819 20.9559C4.1861 20.91 3.66939 20.8115 3.18406 20.5642C2.43141 20.1807 1.81949 19.5687 1.436 18.8161C1.1887 18.3308 1.09014 17.8141 1.04421 17.252C0.999997 16.7108 1.00001 16.0464 1.00002 15.2414L1.00002 13.1333C1.00002 13.1137 1.00002 13.0944 1.00001 13.0753C0.999908 12.7085 0.99983 12.4311 1.03865 12.1538C1.07296 11.9087 1.12994 11.6673 1.20885 11.4328C1.29814 11.1674 1.42228 10.9193 1.58641 10.5913C1.59495 10.5742 1.60359 10.5569 1.61234 10.5394L2.50677 10.9866L2.51262 10.9896M2.50677 10.9866L1.61234 10.5394L3.77891 6.20629C3.80194 6.16023 3.82464 6.11476 3.84703 6.06989C4.26135 5.23985 4.5737 4.6141 5.05525 4.14246C5.47883 3.72759 5.98934 3.41208 6.54984 3.21875C7.18704 2.99897 7.88642 2.99944 8.81412 3.00007M3.61806 11.0001L5.56776 7.10072C6.08177 6.0727 6.24378 5.77787 6.45468 5.5713C6.66647 5.36386 6.92173 5.20611 7.20198 5.10944C7.48106 5.01318 7.81722 5.00013 8.96658 5.00013H15.0335C16.1828 5.00013 16.519 5.01318 16.7981 5.10944C17.0783 5.20611 17.3336 5.36386 17.5454 5.5713C17.7563 5.77786 17.9183 6.0727 18.4323 7.10072L20.382 11.0001H18.1181C17.0541 11.0001 16.0814 11.6013 15.6056 12.5529C15.4686 12.827 15.1884 13.0001 14.882 13.0001H9.11806C8.81162 13.0001 8.53149 12.827 8.39445 12.5529C7.91862 11.6013 6.94596 11.0001 5.88199 11.0001H3.61806ZM3.00011 13.0001C3.00005 13.0411 3.00002 13.0854 3.00002 13.1333V15.2001C3.00002 16.0567 3.0008 16.639 3.03757 17.0891C3.07339 17.5275 3.13832 17.7517 3.21801 17.9081C3.40975 18.2844 3.71572 18.5904 4.09204 18.7821C4.24844 18.8618 4.47264 18.9268 4.91106 18.9626C5.36115 18.9994 5.94344 19.0001 6.80002 19.0001H17.2C18.0566 19.0001 18.6389 18.9994 19.089 18.9626C19.5274 18.9268 19.7516 18.8618 19.908 18.7821C20.2843 18.5904 20.5903 18.2844 20.782 17.9081C20.8617 17.7517 20.9266 17.5275 20.9625 17.0891C20.9992 16.639 21 16.0567 21 15.2001V13.1333C21 13.0854 21 13.0411 20.9999 13.0001H18.1181C17.8116 13.0001 17.5315 13.1733 17.3944 13.4473C16.9186 14.399 15.946 15.0001 14.882 15.0001H9.11806C8.05408 15.0001 7.08142 14.399 6.60559 13.4473C6.46855 13.1733 6.18842 13.0001 5.88199 13.0001H3.00011Z" fill="white"/>
</svg>
