<svg width="24" height="24" viewBox="0 0 24 24" fill="none" xmlns="http://www.w3.org/2000/svg">
<path fill-rule="evenodd" clip-rule="evenodd" d="M8.47189 0.999855C8.48934 0.999902 8.50636 0.999947 8.52293 0.999947H15.4774C15.494 0.999947 15.511 0.999902 15.5285 0.999855C15.7184 0.999348 15.9575 0.998709 16.1929 1.05521C16.3969 1.1042 16.592 1.18501 16.771 1.29467C16.9773 1.42112 17.146 1.59067 17.2799 1.72532C17.2922 1.73768 17.3042 1.74975 17.3159 1.76147L22.2387 6.68421C22.2504 6.69593 22.2625 6.70794 22.2748 6.72025C22.4095 6.85417 22.579 7.02282 22.7055 7.22916C22.8151 7.40811 22.8959 7.6032 22.9449 7.80727C23.0014 8.0426 23.0008 8.28173 23.0003 8.47164C23.0002 8.48909 23.0002 8.50612 23.0002 8.52269V15.4772C23.0002 15.4938 23.0002 15.5108 23.0003 15.5282C23.0008 15.7182 23.0014 15.9573 22.9449 16.1926C22.8959 16.3967 22.8151 16.5918 22.7055 16.7707C22.579 16.9771 22.4095 17.1457 22.2748 17.2797C22.2625 17.292 22.2504 17.304 22.2387 17.3157L17.3159 22.2384C17.3042 22.2501 17.2922 22.2622 17.2799 22.2746C17.146 22.4092 16.9773 22.5788 16.771 22.7052C16.592 22.8149 16.3969 22.8957 16.1929 22.9447C15.9575 23.0012 15.7184 23.0005 15.5285 23C15.511 23 15.494 22.9999 15.4774 22.9999H8.52293C8.50636 22.9999 8.48933 23 8.47189 23C8.28198 23.0005 8.04284 23.0012 7.80751 22.9447C7.60344 22.8957 7.40835 22.8149 7.22941 22.7052C7.02306 22.5788 6.85442 22.4092 6.72049 22.2746C6.70819 22.2622 6.69618 22.2501 6.68446 22.2384L1.76171 17.3157C1.75 17.304 1.73793 17.292 1.72556 17.2797C1.59092 17.1457 1.42137 16.9771 1.29491 16.7707C1.18525 16.5918 1.10444 16.3967 1.05545 16.1926C0.998953 15.9573 0.999592 15.7182 1.0001 15.5282C1.00015 15.5108 1.00019 15.4938 1.00019 15.4772V8.52269C1.00019 8.50612 1.00015 8.48909 1.0001 8.47165C0.999592 8.28174 0.998953 8.0426 1.05545 7.80727C1.10444 7.6032 1.18525 7.40811 1.29491 7.22916C1.42136 7.02281 1.59091 6.85417 1.72556 6.72024C1.73793 6.70794 1.75 6.69593 1.76171 6.68421L6.68446 1.76147C6.69617 1.74975 6.70818 1.73768 6.72048 1.72531C6.85441 1.59067 7.02305 1.42112 7.22941 1.29467C7.40835 1.18501 7.60344 1.1042 7.80751 1.05521C8.04285 0.998709 8.28198 0.999348 8.47189 0.999855ZM8.27547 3.00253C8.27462 3.0033 8.27374 3.0041 8.27282 3.00494C8.2377 3.03699 8.1913 3.08305 8.09867 3.17568L3.17593 8.09842C3.0833 8.19106 3.03723 8.23746 3.00519 8.27257C3.00435 8.27349 3.00354 8.27438 3.00277 8.27523C3.00272 8.27638 3.00266 8.27757 3.0026 8.27882C3.00043 8.32631 3.00019 8.39169 3.00019 8.52269V15.4772C3.00019 15.6082 3.00043 15.6736 3.0026 15.7211C3.00266 15.7223 3.00272 15.7235 3.00277 15.7247C3.00354 15.7255 3.00435 15.7264 3.00519 15.7273C3.03723 15.7624 3.0833 15.8088 3.17593 15.9015L8.09867 20.8242C8.1913 20.9168 8.2377 20.9629 8.27282 20.995C8.27374 20.9958 8.27462 20.9966 8.27547 20.9974C8.27662 20.9974 8.27781 20.9975 8.27906 20.9975C8.32655 20.9997 8.39193 20.9999 8.52293 20.9999H15.4774C15.6084 20.9999 15.6738 20.9997 15.7213 20.9975C15.7226 20.9975 15.7238 20.9974 15.7249 20.9974C15.7258 20.9966 15.7266 20.9958 15.7276 20.995C15.7627 20.9629 15.8091 20.9168 15.9017 20.8242L20.8245 15.9015C20.9171 15.8088 20.9632 15.7624 20.9952 15.7273C20.996 15.7264 20.9968 15.7255 20.9976 15.7247C20.9977 15.7235 20.9977 15.7223 20.9978 15.7211C21 15.6736 21.0002 15.6082 21.0002 15.4772V8.52269C21.0002 8.39169 21 8.32631 20.9978 8.27881C20.9977 8.27757 20.9977 8.27638 20.9976 8.27523C20.9968 8.27438 20.996 8.27349 20.9952 8.27257C20.9632 8.23746 20.9171 8.19106 20.8245 8.09842L15.9017 3.17568C15.8091 3.08305 15.7627 3.03699 15.7276 3.00494C15.7266 3.0041 15.7258 3.0033 15.7249 3.00253C15.7238 3.00247 15.7226 3.00241 15.7213 3.00236C15.6738 3.00019 15.6084 2.99995 15.4774 2.99995H8.52293C8.39193 2.99995 8.32655 3.00019 8.27906 3.00236C8.27782 3.00241 8.27662 3.00247 8.27547 3.00253ZM11.0002 7.99995C11.0002 7.44766 11.4479 6.99995 12.0002 6.99995H12.0102C12.5625 6.99995 13.0102 7.44766 13.0102 7.99995C13.0102 8.55223 12.5625 8.99995 12.0102 8.99995H12.0002C11.4479 8.99995 11.0002 8.55223 11.0002 7.99995ZM12.0002 10.9999C12.5525 10.9999 13.0002 11.4477 13.0002 11.9999V15.9999C13.0002 16.5522 12.5525 16.9999 12.0002 16.9999C11.4479 16.9999 11.0002 16.5522 11.0002 15.9999V11.9999C11.0002 11.4477 11.4479 10.9999 12.0002 10.9999Z" fill="white"/>
</svg>
