<svg width="24" height="24" viewBox="0 0 24 24" fill="none" xmlns="http://www.w3.org/2000/svg">
<path d="M6.16142 3H17.8385C18.3656 2.99998 18.8204 2.99997 19.195 3.03057C19.5903 3.06287 19.9836 3.13419 20.3619 3.32698C20.9264 3.6146 21.3854 4.07355 21.673 4.63803C21.8658 5.01641 21.9371 5.40963 21.9694 5.80498C22 6.17954 22 6.6343 22 7.16144V13.4C22 13.9601 22 14.2401 21.891 14.454C21.7951 14.6422 21.6421 14.7951 21.454 14.891C21.24 15 20.96 15 20.4 15H3.59997C3.03991 15 2.75989 15 2.54598 14.891C2.35781 14.7951 2.20483 14.6422 2.10896 14.454C1.99997 14.2401 1.99997 13.9601 1.99997 13.4L1.99997 7.16146C1.99995 6.63431 1.99993 6.17955 2.03054 5.80498C2.06284 5.40963 2.13415 5.01641 2.32695 4.63803C2.61457 4.07355 3.07351 3.6146 3.638 3.32698C4.01638 3.13419 4.40959 3.06287 4.80494 3.03057C5.17949 2.99997 5.6343 2.99998 6.16142 3Z" fill="#1B2631"/>
<path d="M2.41616 17C1.9381 17 1.69907 17 1.46716 17.1338C1.29663 17.2321 1.09496 17.4721 1.02744 17.657C0.935622 17.9085 0.966314 18.0841 1.0277 18.4352C1.04868 18.5552 1.07364 18.6698 1.10223 18.7765C1.37963 19.8118 2.18828 20.6204 3.22355 20.8978C3.60908 21.0011 4.04711 21.0007 4.55483 21.0001H19.4452C19.9529 21.0007 20.3909 21.0011 20.7765 20.8978C21.8117 20.6204 22.6204 19.8118 22.8978 18.7765C22.9263 18.6702 22.9511 18.5559 22.972 18.4361C23.0334 18.0842 23.0641 17.9082 22.9723 17.6568C22.9047 17.4718 22.7031 17.2321 22.5325 17.1337C22.3007 17 22.0613 17 21.5826 17H2.41616Z" fill="#1B2631"/>
</svg>
