<svg width="24" height="24" viewBox="0 0 24 24" fill="none" xmlns="http://www.w3.org/2000/svg">
<path fill-rule="evenodd" clip-rule="evenodd" d="M11.8028 5.52051L11.8029 5.52052L11.8028 5.52051ZM12.0002 5.6181L19.7642 9.50006L12.0002 13.382L4.23629 9.50006L12.0002 5.6181ZM11.8028 13.4796C11.8026 13.4797 11.8026 13.4797 11.8029 13.4796L11.8028 13.4796ZM12.1976 13.4796C12.1978 13.4797 12.1978 13.4797 12.1976 13.4796L12.1976 13.4796ZM12.1976 5.52052L12.1976 5.52051L12.1976 5.52052ZM11.7236 3.5848C11.9064 3.55051 12.094 3.55051 12.2768 3.5848C12.4933 3.62541 12.6863 3.72394 12.7796 3.77155C12.7892 3.77646 12.7978 3.78082 12.8052 3.78452L22.4474 8.60564C22.7862 8.77503 23.0002 9.12129 23.0002 9.50006C23.0002 9.87884 22.7862 10.2251 22.4474 10.3945L12.8052 15.2156C12.7978 15.2193 12.7892 15.2237 12.7796 15.2286C12.6863 15.2762 12.4933 15.3747 12.2768 15.4153C12.094 15.4496 11.9064 15.4496 11.7236 15.4153C11.5072 15.3747 11.3141 15.2762 11.2208 15.2286C11.2112 15.2237 11.2026 15.2193 11.1952 15.2156L1.55301 10.3945C1.21422 10.2251 1.00022 9.87884 1.00022 9.50006C1.00022 9.12129 1.21422 8.77503 1.55301 8.60564L11.1952 3.78452C11.2026 3.78082 11.2112 3.77646 11.2208 3.77155C11.3141 3.72394 11.5072 3.62541 11.7236 3.5848ZM1.10579 14.0529C1.35278 13.5589 1.95345 13.3586 2.44743 13.6056L12.0002 18.382L21.553 13.6056C22.047 13.3586 22.6477 13.5589 22.8946 14.0529C23.1416 14.5468 22.9414 15.1475 22.4474 15.3945L12.8052 20.2156C12.7978 20.2193 12.7892 20.2237 12.7796 20.2286C12.6863 20.2762 12.4933 20.3747 12.2768 20.4153C12.094 20.4496 11.9064 20.4496 11.7236 20.4153C11.5072 20.3747 11.3141 20.2762 11.2208 20.2286C11.2112 20.2237 11.2026 20.2193 11.1952 20.2156L1.55301 15.3945C1.05903 15.1475 0.858803 14.5468 1.10579 14.0529ZM11.8028 18.4796C11.8026 18.4797 11.8026 18.4797 11.8029 18.4796L11.8028 18.4796ZM12.1976 18.4796C12.1978 18.4797 12.1978 18.4797 12.1976 18.4796L12.1976 18.4796Z" fill="#1B2631"/>
</svg>
