<svg width="24" height="24" viewBox="0 0 24 24" fill="none" xmlns="http://www.w3.org/2000/svg">
<path fill-rule="evenodd" clip-rule="evenodd" d="M4.85208 2.13906C4.86141 2.14606 4.87072 2.15304 4.88001 2.16001L8.74668 5.06001C8.75414 5.06561 8.76168 5.07126 8.76928 5.07695C8.89383 5.1703 9.03464 5.27584 9.14756 5.37741C9.27209 5.48941 9.45549 5.67557 9.56467 5.95631C9.70068 6.30602 9.70068 6.69401 9.56467 7.04372C9.45549 7.32445 9.27209 7.51061 9.14756 7.62261C9.03464 7.72418 8.89383 7.82972 8.76928 7.92306C8.76168 7.92876 8.75414 7.93441 8.74668 7.94001L4.88001 10.84C4.87072 10.847 4.8614 10.854 4.85208 10.861C4.67071 10.9971 4.48405 11.1371 4.31984 11.2384C4.16015 11.3368 3.85699 11.5078 3.46883 11.4997C3.01869 11.4903 2.59655 11.2793 2.31898 10.9248C2.07962 10.6191 2.03447 10.274 2.01743 10.0872C1.99991 9.89503 1.99996 9.66167 2 9.43492C2.00001 9.42326 2.00001 9.41163 2.00001 9.40001V3.60001C2.00001 3.5884 2.00001 3.57676 2 3.5651C1.99996 3.33836 1.99991 3.10499 2.01743 2.91286C2.03447 2.72604 2.07962 2.38095 2.31898 2.07526C2.59655 1.72076 3.01868 1.5097 3.46883 1.50034C3.85699 1.49227 4.16015 1.6632 4.31984 1.76166C4.48405 1.86292 4.67072 2.00298 4.85208 2.13906ZM4.00001 4.00001V9.00001L7.33334 6.50001L4.00001 4.00001ZM11 4.00001C11 3.44773 11.4477 3.00001 12 3.00001L21 3.00001C21.5523 3.00001 22 3.44773 22 4.00001C22 4.5523 21.5523 5.00001 21 5.00001L12 5.00001C11.4477 5.00001 11 4.5523 11 4.00001ZM11 9.25001C11 8.69773 11.4477 8.25001 12 8.25001H21C21.5523 8.25001 22 8.69773 22 9.25001C22 9.8023 21.5523 10.25 21 10.25H12C11.4477 10.25 11 9.8023 11 9.25001ZM2.00001 14.75C2.00001 14.1977 2.44772 13.75 3.00001 13.75H21C21.5523 13.75 22 14.1977 22 14.75C22 15.3023 21.5523 15.75 21 15.75H3.00001C2.44772 15.75 2.00001 15.3023 2.00001 14.75ZM2.00001 20C2.00001 19.4477 2.44772 19 3.00001 19H21C21.5523 19 22 19.4477 22 20C22 20.5523 21.5523 21 21 21H3.00001C2.44772 21 2.00001 20.5523 2.00001 20Z" fill="#1B2631"/>
</svg>
