<svg width="24" height="24" viewBox="0 0 24 24" fill="none" xmlns="http://www.w3.org/2000/svg">
<path fill-rule="evenodd" clip-rule="evenodd" d="M13.3981 1.08269C13.8053 1.25946 14.0472 1.68353 13.9921 2.12403L13.1326 9L19.3276 8.99999C19.5686 8.99995 19.8127 8.9999 20.0121 9.01796C20.2008 9.03503 20.5619 9.08021 20.8751 9.33332C21.2337 9.62308 21.4391 10.0616 21.4322 10.5226C21.4261 10.9253 21.2296 11.2316 21.122 11.3875C21.0082 11.5522 20.8519 11.7397 20.6976 11.9248L11.7681 22.6402C11.4839 22.9812 11.0089 23.0941 10.6017 22.9173C10.1945 22.7405 9.95252 22.3165 10.0076 21.876L10.8671 15L4.67209 15C4.4311 15 4.187 15.0001 3.98758 14.982C3.79897 14.965 3.4378 14.9198 3.12459 14.6667C2.76601 14.3769 2.5606 13.9383 2.56755 13.4774C2.57363 13.0747 2.77013 12.7684 2.87776 12.6125C2.99156 12.4478 3.14787 12.2603 3.30219 12.0751C3.30983 12.066 3.31747 12.0568 3.3251 12.0477L12.2316 1.35981C12.5158 1.01878 12.9908 0.905925 13.3981 1.08269ZM5.1349 13H11.9999C12.2867 13 12.5597 13.1232 12.7495 13.3382C12.9394 13.5532 13.0277 13.8394 12.9921 14.124L12.4152 18.7395L18.8648 11H11.9999C11.713 11 11.44 10.8768 11.2502 10.6618C11.0604 10.4468 10.972 10.1606 11.0076 9.87596L11.5845 5.26045L5.1349 13Z" fill="#1B2631"/>
</svg>
