<svg width="24" height="24" viewBox="0 0 24 24" fill="none" xmlns="http://www.w3.org/2000/svg">
<path fill-rule="evenodd" clip-rule="evenodd" d="M8.45892 0.999749C8.47211 0.999879 8.48383 0.999995 8.49391 0.999995H14.2495C14.5775 0.999995 14.8846 1.16083 15.0714 1.4304C15.2582 1.69998 15.301 2.04402 15.1858 2.35112L13.4425 7L19.1537 6.99999C19.4177 6.99995 19.6788 6.99991 19.8896 7.01869C20.0801 7.03567 20.4665 7.08029 20.7907 7.35409C21.1546 7.66145 21.3508 8.12336 21.3195 8.59864C21.2916 9.02204 21.0555 9.33115 20.9355 9.48008C20.8026 9.6449 20.6214 9.8328 20.4381 10.0228L8.21932 22.6941C7.89897 23.0264 7.39287 23.0962 6.99452 22.8631C6.59617 22.6301 6.40904 22.1547 6.54165 21.7126L9.15545 13H4.29391C4.28343 13 4.27289 13 4.2623 13C4.07608 13.0001 3.87443 13.0001 3.70444 12.9845C3.52623 12.9682 3.22904 12.9252 2.94879 12.7292C2.61068 12.4927 2.38491 12.1274 2.32461 11.7192C2.27462 11.3809 2.36903 11.0958 2.43414 10.9292C2.49624 10.7702 2.58647 10.5898 2.66979 10.4233C2.67453 10.4138 2.67925 10.4044 2.68394 10.395L6.88394 1.99501C6.88844 1.986 6.89358 1.97547 6.89936 1.96361C6.95498 1.84959 7.07032 1.61309 7.25892 1.42837C7.41776 1.27279 7.6092 1.15448 7.81939 1.08198C8.06895 0.995898 8.33207 0.998496 8.45892 0.999749ZM8.61751 3L4.61751 11H10.4995C10.8156 11 11.1131 11.1495 11.3018 11.4031C11.4905 11.6567 11.5481 11.9846 11.4573 12.2873L9.64238 18.3371L18.646 9H11.9995C11.6715 9 11.3644 8.83916 11.1776 8.56959C10.9907 8.30002 10.948 7.95597 11.0632 7.64887L12.8065 3H8.61751Z" fill="#1B2631"/>
</svg>
