<svg width="24" height="24" viewBox="0 0 24 24" fill="none" xmlns="http://www.w3.org/2000/svg">
<path fill-rule="evenodd" clip-rule="evenodd" d="M6.31628 7.27026C6.71931 6.89265 7.35214 6.91326 7.72975 7.31628L11.545 11.3883L14.6679 9.76684C14.6786 9.76125 14.6911 9.75459 14.7052 9.74707C14.8389 9.67563 15.1167 9.52726 15.4262 9.49937C15.686 9.47597 15.9474 9.52071 16.1846 9.62918C16.4673 9.75842 16.6799 9.99072 16.7823 10.1026C16.793 10.1143 16.8026 10.1248 16.8109 10.1336L20.7297 14.3163C21.1074 14.7193 21.0868 15.3521 20.6837 15.7297C20.2807 16.1074 19.6479 16.0868 19.2703 15.6837L15.455 11.6117L12.3321 13.2332C12.3214 13.2388 12.3089 13.2454 12.2948 13.2529C12.1611 13.3244 11.8833 13.4727 11.5738 13.5006C11.314 13.524 11.0526 13.4793 10.8154 13.3708C10.5327 13.2416 10.3201 13.0093 10.2177 12.8974C10.207 12.8857 10.1974 12.8752 10.1891 12.8664L6.27026 8.68372C5.89265 8.2807 5.91326 7.64787 6.31628 7.27026Z" fill="white"/>
<path fill-rule="evenodd" clip-rule="evenodd" d="M3.00001 2C3.55229 2 4.00001 2.44772 4.00001 3V19.4C4.00001 19.6966 4.00078 19.8588 4.01031 19.9754C4.01069 19.98 4.01107 19.9844 4.01145 19.9885C4.0156 19.9889 4.02 19.9893 4.02464 19.9897C4.14123 19.9992 4.30348 20 4.60001 20H21C21.5523 20 22 20.4477 22 21C22 21.5523 21.5523 22 21 22L4.56809 22C4.31572 22 4.06993 22.0001 3.86177 21.9831C3.63318 21.9644 3.36343 21.9203 3.092 21.782C2.71592 21.5903 2.40981 21.2845 2.21796 20.9079C2.07969 20.6365 2.03563 20.3668 2.01695 20.1383C1.99994 19.9301 1.99997 19.6843 2 19.4319L2.00001 3C2.00001 2.44772 2.44772 2 3.00001 2Z" fill="white"/>
</svg>
