<svg width="24" height="24" viewBox="0 0 24 24" fill="none" xmlns="http://www.w3.org/2000/svg">
<path fill-rule="evenodd" clip-rule="evenodd" d="M4.00001 3C4.00001 2.44772 3.55229 2 3.00001 2C2.44772 2 2.00001 2.44772 2.00001 3L2 19.4319C1.99997 19.6843 1.99994 19.9301 2.01695 20.1383C2.03563 20.3668 2.07969 20.6365 2.21796 20.9079C2.40981 21.2845 2.71592 21.5903 3.092 21.782C3.09201 21.782 3.09201 21.782 3.09202 21.782C3.10898 21.7907 3.12593 21.7989 3.14286 21.8068C3.39698 21.9257 3.64745 21.9655 3.86175 21.9831C3.86176 21.9831 3.86177 21.9831 3.86177 21.9831C4.06989 22.0001 4.31563 22 4.56795 22C4.56796 22 4.56797 22 4.56798 22H4.56809L21 22C21.5523 22 22 21.5523 22 21C22 20.4477 21.5523 20 21 20H4.60001C4.58147 20 4.56346 20 4.54596 20C4.28337 19.9999 4.13394 19.9986 4.02464 19.9897L4.01145 19.9885L4.01031 19.9754C4.00912 19.9608 4.00806 19.9455 4.00713 19.9294C4.00107 19.8242 4.00012 19.6816 4.00002 19.4541C4.00001 19.4365 4.00001 19.4185 4.00001 19.4V3ZM16 7C16 7.55228 16.4477 8 17 8H18.5858L15 11.5858L13.2728 9.85858L13.2564 9.84222C13.1722 9.75796 13.0717 9.65733 12.9758 9.57595C12.8648 9.48166 12.6962 9.35611 12.4635 9.28052C12.1623 9.18263 11.8377 9.18263 11.5365 9.28052C11.3038 9.35611 11.1352 9.48166 11.0242 9.57595C10.9283 9.65732 10.8278 9.75795 10.7436 9.8422L10.7272 9.85858L6.29289 14.2929C5.90237 14.6834 5.90237 15.3166 6.29289 15.7071C6.68342 16.0976 7.31658 16.0976 7.70711 15.7071L12 11.4142L13.7272 13.1414L13.7436 13.1578L13.7436 13.1578C13.8278 13.2421 13.9283 13.3427 14.0242 13.4241C14.1352 13.5183 14.3038 13.6439 14.5365 13.7195C14.8377 13.8174 15.1623 13.8174 15.4635 13.7195C15.6962 13.6439 15.8648 13.5183 15.9758 13.4241C16.0717 13.3427 16.1722 13.242 16.2564 13.1578L16.2728 13.1414L20 9.41421V11C20 11.5523 20.4477 12 21 12C21.5523 12 22 11.5523 22 11V7C22 6.44772 21.5523 6 21 6H17C16.4477 6 16 6.44772 16 7Z" fill="white"/>
</svg>
