<svg width="24" height="24" viewBox="0 0 24 24" fill="none" xmlns="http://www.w3.org/2000/svg">
<path fill-rule="evenodd" clip-rule="evenodd" d="M4.00001 3C4.00001 2.44772 3.55229 2 3.00001 2C2.44772 2 2.00001 2.44772 2.00001 3L2 19.4319C1.99997 19.6843 1.99994 19.9301 2.01695 20.1383C2.03563 20.3668 2.07969 20.6365 2.21796 20.9079C2.40981 21.2845 2.71592 21.5903 3.092 21.782C3.09201 21.782 3.09201 21.782 3.09202 21.782C3.10898 21.7907 3.12593 21.7989 3.14286 21.8068C3.39698 21.9257 3.64745 21.9655 3.86175 21.9831C3.86176 21.9831 3.86177 21.9831 3.86177 21.9831C4.06989 22.0001 4.31563 22 4.56795 22C4.56796 22 4.56797 22 4.56798 22H4.56809L21 22C21.5523 22 22 21.5523 22 21C22 20.4477 21.5523 20 21 20H4.60001C4.58147 20 4.56346 20 4.54596 20C4.28337 19.9999 4.13394 19.9986 4.02464 19.9897L4.01145 19.9885L4.01031 19.9754C4.00912 19.9608 4.00806 19.9455 4.00713 19.9294C4.00107 19.8242 4.00012 19.6816 4.00002 19.4541C4.00001 19.4365 4.00001 19.4185 4.00001 19.4V3ZM7.70711 6.29289C7.31658 5.90237 6.68342 5.90237 6.29289 6.29289C5.90237 6.68342 5.90237 7.31658 6.29289 7.70711L10.7272 12.1414L10.7436 12.1578C10.8278 12.242 10.9283 12.3427 11.0242 12.4241C11.1352 12.5183 11.3038 12.6439 11.5365 12.7195C11.8377 12.8174 12.1623 12.8174 12.4635 12.7195C12.6962 12.6439 12.8648 12.5183 12.9758 12.4241C13.0717 12.3427 13.1722 12.242 13.2564 12.1578L13.2728 12.1414L15 10.4142L18.5858 14H17C16.4477 14 16 14.4477 16 15C16 15.5523 16.4477 16 17 16H21C21.5523 16 22 15.5523 22 15V11C22 10.4477 21.5523 10 21 10C20.4477 10 20 10.4477 20 11V12.5858L16.2728 8.85858L16.2564 8.84222C16.1722 8.75796 16.0717 8.65733 15.9758 8.57595C15.8648 8.48166 15.6962 8.35611 15.4635 8.28052C15.1623 8.18263 14.8377 8.18263 14.5365 8.28052C14.3038 8.35611 14.1352 8.48166 14.0242 8.57595C13.9283 8.65733 13.8278 8.75796 13.7436 8.84222L13.7272 8.85858L12 10.5858L7.70711 6.29289Z" fill="white"/>
</svg>
