<svg width="24" height="24" viewBox="0 0 24 24" fill="none" xmlns="http://www.w3.org/2000/svg">
<path fill-rule="evenodd" clip-rule="evenodd" d="M4.00001 3C4.00001 2.44772 3.55229 2 3.00001 2C2.44772 2 2.00001 2.44772 2.00001 3L2 19.4319C1.99997 19.6843 1.99994 19.9301 2.01695 20.1383C2.03563 20.3668 2.07969 20.6365 2.21796 20.9079C2.40981 21.2845 2.71592 21.5903 3.092 21.782C3.09201 21.782 3.09201 21.782 3.09202 21.782C3.10898 21.7907 3.12593 21.7989 3.14286 21.8068C3.39698 21.9257 3.64745 21.9655 3.86175 21.9831C3.86176 21.9831 3.86177 21.9831 3.86177 21.9831C4.06989 22.0001 4.31563 22 4.56795 22C4.56796 22 4.56797 22 4.56798 22H4.56809L21 22C21.5523 22 22 21.5523 22 21C22 20.4477 21.5523 20 21 20H4.60001C4.58147 20 4.56346 20 4.54596 20C4.28337 19.9999 4.13394 19.9986 4.02464 19.9897L4.01145 19.9885L4.01031 19.9754C4.00912 19.9608 4.00806 19.9455 4.00713 19.9294C4.00107 19.8242 4.00012 19.6816 4.00002 19.4541C4.00001 19.4365 4.00001 19.4185 4.00001 19.4V3ZM20.7297 8.68372C21.1074 8.28069 21.0867 7.64787 20.6837 7.27026C20.2807 6.89265 19.6479 6.91325 19.2703 7.31628L15.455 11.3883L12.3321 9.76683C12.3214 9.76127 12.309 9.75463 12.295 9.74714L12.2948 9.74707C12.1611 9.67563 11.8833 9.52726 11.5738 9.49937C11.314 9.47596 11.0526 9.5207 10.8154 9.62917C10.5327 9.75842 10.3201 9.99072 10.2177 10.1026L10.2177 10.1027C10.2069 10.1144 10.1974 10.1248 10.1891 10.1336L6.27026 14.3163C5.89265 14.7193 5.91325 15.3521 6.31628 15.7297C6.71931 16.1074 7.35213 16.0867 7.72974 15.6837L11.545 11.6117L14.6679 13.2332C14.6786 13.2388 14.6911 13.2454 14.7052 13.2529L14.7052 13.2529C14.8389 13.3244 15.1167 13.4727 15.4262 13.5006C15.686 13.524 15.9474 13.4793 16.1846 13.3708C16.4673 13.2416 16.6799 13.0093 16.7823 12.8974L16.7823 12.8973C16.7931 12.8856 16.8026 12.8752 16.8109 12.8664L20.7297 8.68372Z" fill="white"/>
</svg>
