<svg width="24" height="24" viewBox="0 0 24 24" fill="none" xmlns="http://www.w3.org/2000/svg">
<path fill-rule="evenodd" clip-rule="evenodd" d="M12.7755 2.75068C13.9071 1.65773 15.4227 1.05296 16.9959 1.06663C18.5691 1.0803 20.074 1.71132 21.1864 2.82377C22.2988 3.93621 22.9299 5.44109 22.9435 7.01427C22.9572 8.58745 22.3524 10.1031 21.2595 11.2347L21.2473 11.2471L18.2474 14.2469C18.2474 14.247 18.2475 14.2469 18.2474 14.2469C17.6392 14.8554 16.9071 15.326 16.101 15.6267C15.2949 15.9274 14.4336 16.0512 13.5754 15.9897C12.7172 15.9283 11.8823 15.683 11.1273 15.2705C10.3723 14.858 9.71478 14.2879 9.19944 13.5989C8.86863 13.1567 8.95897 12.53 9.40122 12.1992C9.84347 11.8684 10.4702 11.9587 10.801 12.401C11.1445 12.8603 11.5829 13.2403 12.0862 13.5153C12.5896 13.7903 13.1462 13.9539 13.7183 13.9949C14.2904 14.0358 14.8646 13.9533 15.402 13.7528C15.9394 13.5523 16.4275 13.2386 16.833 12.833L19.8266 9.83931C20.5517 9.08554 20.9527 8.07768 20.9436 7.03165C20.9345 5.98286 20.5138 4.97961 19.7722 4.23798C19.0306 3.49635 18.0273 3.07567 16.9785 3.06656C15.932 3.05746 14.9237 3.45887 14.1698 4.18452L12.4552 5.88913C12.0636 6.27851 11.4304 6.27667 11.041 5.88501C10.6516 5.49335 10.6535 4.86018 11.0452 4.4708L12.7652 2.7608L12.7755 2.75068ZM7.89935 8.37325C8.70546 8.07255 9.56681 7.94873 10.425 8.01019C11.2832 8.07165 12.1181 8.31695 12.8731 8.72946C13.6281 9.14197 14.2856 9.71203 14.801 10.401C15.1318 10.8432 15.0414 11.4699 14.5992 11.8007C14.1569 12.1315 13.5302 12.0412 13.1994 11.5989C12.8559 11.1396 12.4175 10.7596 11.9142 10.4846C11.4108 10.2096 10.8542 10.0461 10.2821 10.0051C9.71 9.9641 9.13577 10.0466 8.59836 10.2471C8.06095 10.4476 7.57294 10.7613 7.16743 11.1669L4.17379 14.1606C3.44875 14.9144 3.0477 15.9222 3.05679 16.9683C3.06591 18.0171 3.48658 19.0203 4.22821 19.762C4.96985 20.5036 5.9731 20.9243 7.02188 20.9334C8.06794 20.9425 9.07582 20.5414 9.82959 19.8164L11.5331 18.1129C11.9236 17.7223 12.5568 17.7223 12.9473 18.1129C13.3378 18.5034 13.3378 19.1365 12.9473 19.5271L11.2373 21.2371L11.2249 21.2493C10.0933 22.3422 8.57768 22.947 7.0045 22.9333C5.43132 22.9196 3.92645 22.2886 2.814 21.1762C1.70155 20.0637 1.07054 18.5588 1.05687 16.9857C1.0432 15.4125 1.64796 13.8969 2.74091 12.7653L2.75309 12.7529L5.75296 9.75299C5.75292 9.75303 5.75301 9.75294 5.75296 9.75299C6.3612 9.14456 7.0933 8.67393 7.89935 8.37325Z" fill="white"/>
</svg>
