<svg width="24" height="24" viewBox="0 0 24 24" fill="none" xmlns="http://www.w3.org/2000/svg">
<path fill-rule="evenodd" clip-rule="evenodd" d="M17.8146 3.47809C17.3073 3.50196 16.6534 3.58828 15.6978 3.7157L9.10585 4.59462C8.73409 4.64419 8.62191 4.66045 8.5347 4.68131C7.7084 4.87897 7.09716 5.57712 7.01044 6.4223C7.00129 6.51149 7 6.62484 7 6.99989C7 7.55217 6.55228 7.99989 6 7.99989C5.44771 7.99989 5 7.55217 5 6.99989C5 6.98254 5 6.96544 4.99999 6.94859C4.99993 6.64718 4.99988 6.42292 5.02089 6.21816C5.19433 4.5278 6.41681 3.13151 8.06941 2.73619C8.2696 2.6883 8.4919 2.65871 8.79067 2.61894C8.80738 2.61671 8.82433 2.61446 8.84152 2.61217L15.4774 1.72738C16.3783 1.60725 17.1175 1.50868 17.7206 1.4803C18.3435 1.45099 18.9236 1.48906 19.4779 1.70949C20.3304 2.04843 21.0404 2.67007 21.489 3.47022C21.7808 3.9906 21.8952 4.5605 21.9484 5.18182C22 5.78346 22 6.52921 22 7.43809V16.5617C22 17.4706 22 18.2163 21.9484 18.8179C21.8952 19.4393 21.7808 20.0092 21.489 20.5296C21.0404 21.3297 20.3304 21.9513 19.4779 22.2903C18.9236 22.5107 18.3435 22.5488 17.7206 22.5195C17.1175 22.4911 16.3783 22.3925 15.4774 22.2724L8.84152 21.3876L8.79039 21.3808C8.49182 21.341 8.26953 21.3115 8.06941 21.2636C6.41681 20.8683 5.19433 19.472 5.02089 17.7816C4.99988 17.5769 4.99993 17.3526 4.99999 17.0512C5 17.0343 5 17.0172 5 16.9999C5 16.4476 5.44771 15.9999 6 15.9999C6.55228 15.9999 7 16.4476 7 16.9999C7 17.3749 7.00129 17.4883 7.01044 17.5775C7.09716 18.4227 7.7084 19.1208 8.53471 19.3185C8.6219 19.3393 8.73411 19.3556 9.10586 19.4052L15.6978 20.2841C16.6534 20.4115 17.3073 20.4978 17.8146 20.5217C18.312 20.5451 18.5652 20.5009 18.739 20.4318C19.1652 20.2623 19.5202 19.9515 19.7445 19.5514C19.836 19.3883 19.9132 19.1432 19.9558 18.6471C19.9991 18.1411 20 17.4815 20 16.5174V7.48237C20 6.51828 19.9991 5.8587 19.9558 5.35268C19.9132 4.8566 19.836 4.61148 19.7445 4.44833C19.5202 4.04825 19.1652 3.73743 18.739 3.56796C18.5652 3.49885 18.312 3.45469 17.8146 3.47809ZM11.2929 7.29278C11.6834 6.90226 12.3166 6.90226 12.7071 7.29278L16.7071 11.2928C17.0976 11.6833 17.0976 12.3165 16.7071 12.707L12.7071 16.707C12.3166 17.0975 11.6834 17.0975 11.2929 16.707C10.9024 16.3165 10.9024 15.6833 11.2929 15.2928L13.5858 12.9999H3C2.44772 12.9999 2 12.5522 2 11.9999C2 11.4476 2.44772 10.9999 3 10.9999H13.5858L11.2929 8.70699C10.9024 8.31647 10.9024 7.6833 11.2929 7.29278Z" fill="white"/>
</svg>
