<svg width="24" height="24" viewBox="0 0 24 24" fill="none" xmlns="http://www.w3.org/2000/svg">
<path fill-rule="evenodd" clip-rule="evenodd" d="M15.0104 1C15.5627 1 16.0104 1.44772 16.0104 2V3.5C16.0104 4.05228 15.5627 4.5 15.0104 4.5C14.4582 4.5 14.0104 4.05228 14.0104 3.5V2C14.0104 1.44772 14.4582 1 15.0104 1ZM9.24268 3.29289C9.6332 2.90237 10.2664 2.90237 10.6569 3.29289L11.7176 4.35355C12.1081 4.74408 12.1081 5.37724 11.7176 5.76777C11.327 6.15829 10.6939 6.15829 10.3033 5.76777L9.24268 4.70711C8.85215 4.31658 8.85215 3.68342 9.24268 3.29289ZM20.7176 3.29289C21.1081 3.68342 21.1081 4.31658 20.7176 4.70711L19.6569 5.76777C19.2664 6.15829 18.6332 6.15829 18.2427 5.76777C17.8522 5.37724 17.8522 4.74408 18.2427 4.35355L19.3033 3.29289C19.6939 2.90237 20.327 2.90237 20.7176 3.29289ZM12.8821 7.0121C13.2837 6.88158 13.7164 6.88158 14.1181 7.0121C14.4078 7.10624 14.6297 7.2658 14.8046 7.41424C14.9638 7.54941 15.1376 7.72324 15.316 7.90173L16.0984 8.68406C16.2769 8.86251 16.4507 9.03629 16.5859 9.19551C16.7343 9.37036 16.8939 9.59225 16.988 9.88197C17.1185 10.2837 17.1185 10.7163 16.988 11.118C16.8939 11.4078 16.7343 11.6296 16.5859 11.8045C16.4507 11.9637 16.2769 12.1375 16.0984 12.3159L13.7079 14.7064C13.7077 14.7066 13.7074 14.7069 13.7072 14.7071C13.707 14.7073 13.7067 14.7076 13.7065 14.7078L6.81603 21.5983C6.63759 21.7768 6.4638 21.9506 6.30458 22.0858C6.12974 22.2342 5.90784 22.3938 5.61813 22.4879C5.21644 22.6184 4.78375 22.6184 4.38206 22.4879C4.09234 22.3938 3.87045 22.2342 3.69561 22.0858C3.53639 21.9506 3.3626 21.7768 3.18416 21.5983L3.16162 21.5757L2.42436 20.8385L2.4018 20.8159C2.22332 20.6375 2.0495 20.4637 1.91433 20.3045C1.7659 20.1296 1.60633 19.9078 1.51219 19.618C1.38168 19.2163 1.38168 18.7837 1.51219 18.382C1.60633 18.0922 1.7659 17.8704 1.91433 17.6955C2.0495 17.5363 2.22332 17.3625 2.4018 17.1841L9.29263 10.2932L11.6842 7.9017C11.8626 7.72322 12.0364 7.5494 12.1956 7.41424C12.3705 7.26581 12.5923 7.10624 12.8821 7.0121ZM10.0001 12.4142L3.83857 18.5757C3.62889 18.7854 3.51471 18.9007 3.43901 18.9899C3.436 18.9934 3.43316 18.9968 3.4305 19C3.43316 19.0032 3.436 19.0066 3.43901 19.0101C3.51471 19.0993 3.62889 19.2146 3.83857 19.4243L4.57583 20.1615C4.78551 20.3712 4.90079 20.4854 4.98996 20.5611C4.99351 20.5641 4.9969 20.5669 5.0001 20.5696C5.0033 20.5669 5.00668 20.5641 5.01023 20.5611C5.0994 20.4854 5.21468 20.3712 5.42436 20.1615L11.5859 14L10.0001 12.4142ZM13.0001 12.5858L11.4143 11L13.0758 9.33848C13.2855 9.1288 13.4008 9.01462 13.49 8.93892C13.4935 8.9359 13.4969 8.93307 13.5001 8.9304C13.5033 8.93307 13.5067 8.9359 13.5102 8.93892C13.5994 9.01462 13.7147 9.1288 13.9244 9.33848L14.6616 10.0757C14.8713 10.2854 14.9855 10.4007 15.0612 10.4899C15.0642 10.4934 15.067 10.4968 15.0697 10.5C15.067 10.5032 15.0642 10.5066 15.0612 10.5101C14.9855 10.5993 14.8713 10.7146 14.6616 10.9243L13.0001 12.5858ZM19.5104 9C19.5104 8.44772 19.9582 8 20.5104 8H22.0104C22.5627 8 23.0104 8.44772 23.0104 9C23.0104 9.55228 22.5627 10 22.0104 10H20.5104C19.9582 10 19.5104 9.55228 19.5104 9ZM18.2427 12.2929C18.6332 11.9024 19.2664 11.9024 19.6569 12.2929L20.7176 13.3536C21.1081 13.7441 21.1081 14.3772 20.7176 14.7678C20.327 15.1583 19.6939 15.1583 19.3033 14.7678L18.2427 13.7071C17.8522 13.3166 17.8522 12.6834 18.2427 12.2929Z" fill="#1B2631"/>
</svg>
