<svg width="24" height="24" viewBox="0 0 24 24" fill="none" xmlns="http://www.w3.org/2000/svg">
<path fill-rule="evenodd" clip-rule="evenodd" d="M11.3145 0.964631C11.7654 0.858795 12.2347 0.858795 12.6856 0.964631C13.2007 1.08553 13.6585 1.38402 14.1794 1.72362C14.2156 1.74724 14.2522 1.77105 14.289 1.79501L21.5389 6.50744C21.5563 6.51873 21.5739 6.53015 21.5916 6.54167L21.817 6.68823C21.8352 6.70001 21.8538 6.71206 21.873 6.7244C22.0788 6.85716 22.3376 7.02417 22.5348 7.26012C22.7054 7.46428 22.8335 7.70043 22.9117 7.95473C23.0021 8.24862 23.0011 8.55668 23.0002 8.80156C23.0002 8.82434 23.0001 8.84656 23.0001 8.86818V16.2412C23.0001 17.0462 23.0001 17.7105 22.9559 18.2517C22.91 18.8138 22.8114 19.3305 22.5641 19.8158C22.1806 20.5685 21.5687 21.1804 20.816 21.5639C20.3307 21.8112 19.814 21.9098 19.2519 21.9557C18.7107 21.9999 18.0464 21.9999 17.2414 21.9999H6.75875C5.95379 21.9999 5.28944 21.9999 4.74825 21.9557C4.18615 21.9098 3.66945 21.8112 3.18411 21.5639C2.43146 21.1804 1.81954 20.5685 1.43605 19.8158C1.18876 19.3305 1.09019 18.8138 1.04427 18.2517C1.00005 17.7105 1.00006 17.0462 1.00007 16.2412L1.00007 8.86818C1.00007 8.84656 0.999998 8.82433 0.999921 8.80156C0.999088 8.55668 0.998041 8.24862 1.08841 7.95473C1.16661 7.70042 1.29477 7.46427 1.46537 7.26012C1.66253 7.02417 1.92139 6.85716 2.12716 6.7244C2.1463 6.71206 2.16498 6.70001 2.1831 6.68823L2.4086 6.54166C2.42629 6.53014 2.44386 6.51872 2.46124 6.50743C2.46988 6.50182 2.47848 6.49623 2.48702 6.49068L9.71112 1.79502C9.74799 1.77105 9.78451 1.74724 9.82073 1.72363C10.3416 1.38402 10.7995 1.08553 11.3145 0.964631ZM10.8011 3.4719L3.83498 7.99988L10.8011 12.5279C11.4965 12.9798 11.6423 13.0577 11.7716 13.088C11.9219 13.1233 12.0783 13.1233 12.2286 13.0881C12.3578 13.0577 12.5037 12.9798 13.199 12.5279L20.1652 7.99988L13.199 3.4719C12.5037 3.01992 12.3578 2.94205 12.2286 2.91171C12.0783 2.87643 11.9219 2.87643 11.7716 2.91171C11.6423 2.94205 11.4965 3.01992 10.8011 3.4719ZM21.0001 9.84257L14.289 14.2048C14.2522 14.2287 14.2156 14.2525 14.1794 14.2761C13.6585 14.6157 13.2007 14.9142 12.6856 15.0351C12.2347 15.141 11.7654 15.141 11.3145 15.0351C10.7995 14.9142 10.3416 14.6157 9.82072 14.2761C9.78451 14.2525 9.74799 14.2287 9.71112 14.2047L3.00007 9.84257V16.1999C3.00007 17.0565 3.00085 17.6388 3.03762 18.0888C3.07344 18.5273 3.13837 18.7515 3.21806 18.9079C3.40981 19.2842 3.71577 19.5901 4.09209 19.7819C4.24849 19.8616 4.4727 19.9265 4.91111 19.9623C5.3612 19.9991 5.94349 19.9999 6.80007 19.9999H17.2001C18.0567 19.9999 18.6389 19.9991 19.089 19.9623C19.5275 19.9265 19.7517 19.8616 19.9081 19.7819C20.2844 19.5901 20.5903 19.2842 20.7821 18.9079C20.8618 18.7515 20.9267 18.5273 20.9625 18.0888C20.9993 17.6388 21.0001 17.0565 21.0001 16.1999V9.84257Z" fill="white"/>
</svg>
