<svg width="24" height="24" viewBox="0 0 24 24" fill="none" xmlns="http://www.w3.org/2000/svg">
<path fill-rule="evenodd" clip-rule="evenodd" d="M6.75881 3H17.2414C18.0464 2.99999 18.7107 2.99998 19.2519 3.04419C19.814 3.09012 20.3307 3.18868 20.8161 3.43597C21.5687 3.81947 22.1806 4.43139 22.5641 5.18404C22.8028 5.6524 22.9029 6.14997 22.9509 6.68935C23.0045 6.85298 23.0137 7.02526 22.982 7.18959C23.0001 7.63971 23.0001 8.16035 23.0001 8.75868V15.2413C23.0001 16.0463 23.0001 16.7106 22.9559 17.2518C22.91 17.8139 22.8114 18.3306 22.5641 18.816C22.1806 19.5686 21.5687 20.1805 20.8161 20.564C20.3307 20.8113 19.814 20.9099 19.2519 20.9558C18.7107 21 18.0464 21 17.2414 21H6.75878C5.95382 21 5.28947 21 4.74828 20.9558C4.18618 20.9099 3.66948 20.8113 3.18414 20.564C2.4315 20.1805 1.81957 19.5686 1.43608 18.816C1.18879 18.3306 1.09023 17.8139 1.0443 17.2518C1.00008 16.7106 1.00009 16.0463 1.00011 15.2413V8.7587C1.0001 8.16037 1.00009 7.63972 1.01824 7.18959C0.986505 7.02527 0.995755 6.85297 1.04932 6.68934C1.0973 6.14996 1.19744 5.65239 1.43608 5.18404C1.81957 4.43139 2.4315 3.81947 3.18414 3.43597C3.66948 3.18868 4.18618 3.09012 4.74828 3.04419C5.28948 2.99998 5.95384 2.99999 6.75881 3ZM3.00011 8.86852V15.2C3.00011 16.0566 3.00088 16.6389 3.03766 17.089C3.07348 17.5274 3.1384 17.7516 3.21809 17.908C3.40984 18.2843 3.7158 18.5903 4.09213 18.782C4.24853 18.8617 4.47273 18.9266 4.91114 18.9624C5.36123 18.9992 5.94353 19 6.80011 19H17.2001C18.0567 19 18.639 18.9992 19.0891 18.9624C19.5275 18.9266 19.7517 18.8617 19.9081 18.782C20.2844 18.5903 20.5904 18.2843 20.7821 17.908C20.8618 17.7516 20.9267 17.5274 20.9626 17.089C20.9993 16.6389 21.0001 16.0566 21.0001 15.2V8.86852L17.361 11.2946C17.3439 11.306 17.3271 11.3172 17.3103 11.3284C17.0605 11.4952 16.8401 11.6424 16.5948 11.7494C16.379 11.8437 16.1528 11.9121 15.921 11.9534C15.6575 12.0004 15.3925 12.0002 15.0921 12C15.072 12 15.0517 12 15.0312 12H8.96899C8.94853 12 8.92824 12 8.90811 12C8.60775 12.0002 8.34273 12.0004 8.0792 11.9534C7.84737 11.9121 7.62123 11.8437 7.40542 11.7494C7.16009 11.6423 6.93968 11.4952 6.68988 11.3284C6.67314 11.3172 6.65627 11.306 6.63925 11.2946L3.00011 8.86852ZM20.9146 6.52181L16.2516 9.63051C15.9233 9.84936 15.857 9.88924 15.7946 9.91648C15.7227 9.94789 15.6473 9.97071 15.57 9.98448C15.503 9.99643 15.4258 10 15.0312 10H8.96899C8.57444 10 8.49721 9.99643 8.43017 9.98448C8.3529 9.97071 8.27752 9.94789 8.20558 9.91648C8.14317 9.88924 8.07693 9.84937 7.74865 9.63051L3.08559 6.52181C3.12094 6.3234 3.16641 6.19345 3.21809 6.09202C3.40984 5.7157 3.7158 5.40973 4.09213 5.21799C4.24853 5.1383 4.47273 5.07337 4.91114 5.03755C5.36123 5.00078 5.94353 5 6.80011 5H17.2001C18.0567 5 18.639 5.00078 19.0891 5.03755C19.5275 5.07337 19.7517 5.1383 19.9081 5.21799C20.2844 5.40973 20.5904 5.7157 20.7821 6.09202C20.8338 6.19345 20.8793 6.3234 20.9146 6.52181Z" fill="white"/>
</svg>
