<svg width="24" height="24" viewBox="0 0 24 24" fill="none" xmlns="http://www.w3.org/2000/svg">
<path fill-rule="evenodd" clip-rule="evenodd" d="M11.3145 0.964631C11.7654 0.858795 12.2347 0.858795 12.6856 0.964631C13.2007 1.08553 13.6585 1.38402 14.1794 1.72362C14.2156 1.74724 14.2522 1.77105 14.289 1.79501L20.515 5.8419C20.5371 5.85625 20.5591 5.87052 20.5809 5.88472L21.817 6.68823C21.8352 6.70001 21.8538 6.71206 21.873 6.7244C22.0788 6.85716 22.3376 7.02417 22.5348 7.26012C22.7054 7.46428 22.8335 7.70043 22.9117 7.95473C23.0021 8.24862 23.0011 8.55668 23.0002 8.80156C23.0002 8.82434 23.0001 8.84656 23.0001 8.86818V16.2412C23.0001 17.0462 23.0001 17.7105 22.9559 18.2517C22.91 18.8138 22.8114 19.3305 22.5641 19.8158C22.1806 20.5685 21.5687 21.1804 20.816 21.5639C20.3307 21.8112 19.814 21.9098 19.2519 21.9557C18.7107 21.9999 18.0464 21.9999 17.2414 21.9999H6.75875C5.95379 21.9999 5.28944 21.9999 4.74825 21.9557C4.18615 21.9098 3.66945 21.8112 3.18411 21.5639C2.43146 21.1804 1.81954 20.5685 1.43605 19.8158C1.18876 19.3305 1.09019 18.8138 1.04427 18.2517C1.00005 17.7105 1.00006 17.0462 1.00007 16.2412L1.00007 8.86818C1.00007 8.84656 0.999998 8.82433 0.999921 8.80156C0.999088 8.55668 0.998041 8.24862 1.08841 7.95473C1.16661 7.70042 1.29477 7.46427 1.46537 7.26012C1.66253 7.02417 1.92139 6.85716 2.12716 6.7244C2.1463 6.71206 2.16498 6.70001 2.1831 6.68823L3.41849 5.88523C3.44057 5.87086 3.4628 5.85642 3.48514 5.8419C3.49638 5.8346 3.50765 5.82727 3.51895 5.81993L9.71112 1.79502C9.74799 1.77105 9.78451 1.74724 9.82073 1.72363C10.3416 1.38402 10.7995 1.08553 11.3145 0.964631ZM10.8011 3.4719L4.60892 7.49682C4.2488 7.73089 4.03666 7.86996 3.89408 7.9823C3.8862 7.98851 3.87889 7.99437 3.87212 7.99988C3.87889 8.0054 3.8862 8.01126 3.89408 8.01747C4.03666 8.1298 4.2488 8.26887 4.60892 8.50295L10.8011 12.5279C11.4965 12.9798 11.6423 13.0577 11.7716 13.088C11.9219 13.1233 12.0783 13.1233 12.2286 13.0881C12.3578 13.0577 12.5037 12.9798 13.199 12.5279L19.3912 8.50295C19.7513 8.26887 19.9635 8.1298 20.1061 8.01747C20.114 8.01126 20.1213 8.00539 20.128 7.99988C20.1213 7.99437 20.114 7.98851 20.1061 7.9823C19.9649 7.87111 19.7557 7.73373 19.4022 7.50396C19.3986 7.50159 19.3949 7.4992 19.3912 7.49681L13.199 3.4719C12.5037 3.01992 12.3578 2.94205 12.2286 2.91171C12.0783 2.87643 11.9219 2.87643 11.7716 2.91171C11.6423 2.94205 11.4965 3.01992 10.8011 3.4719ZM21.0001 9.83769C20.8501 9.94007 20.6861 10.0467 20.515 10.1579L16.2627 12.9218L20.9965 17.1975C20.9999 16.9114 21.0001 16.5831 21.0001 16.1999V9.83769ZM20.439 19.389L14.5276 14.0497L14.289 14.2048C14.2522 14.2287 14.2156 14.2525 14.1794 14.2761C13.6585 14.6157 13.2007 14.9142 12.6856 15.0351C12.2347 15.141 11.7654 15.141 11.3145 15.0351C10.7995 14.9142 10.3416 14.6157 9.82072 14.2761C9.78451 14.2525 9.74799 14.2287 9.71112 14.2047L9.47254 14.0497L3.56118 19.389C3.71422 19.5475 3.89334 19.6806 4.09209 19.7819C4.24849 19.8616 4.4727 19.9265 4.91111 19.9623C5.3612 19.9991 5.94349 19.9999 6.80007 19.9999H17.2001C18.0567 19.9999 18.6389 19.9991 19.089 19.9623C19.5275 19.9265 19.7517 19.8616 19.9081 19.7819C20.1068 19.6806 20.2859 19.5475 20.439 19.389ZM3.00369 17.1975L7.73741 12.9218L3.48511 10.1578C3.31402 10.0467 3.15 9.94006 3.00007 9.83769V16.1999C3.00007 16.5831 3.00023 16.9114 3.00369 17.1975Z" fill="white"/>
</svg>
