<svg width="24" height="24" viewBox="0 0 24 24" fill="none" xmlns="http://www.w3.org/2000/svg">
<path fill-rule="evenodd" clip-rule="evenodd" d="M8.02191 2.00001C8.00709 1.99967 7.99223 1.99967 7.97735 2.00001L7.75888 2C6.95391 1.99999 6.28955 1.99998 5.74836 2.0442C5.18626 2.09012 4.66956 2.18869 4.18422 2.43598C3.43157 2.81947 2.81965 3.4314 2.43616 4.18404C2.18887 4.66938 2.0903 5.18608 2.04438 5.74818C2.00016 6.28937 2.00017 6.95374 2.00018 7.75871V16.2413C2.00018 16.4897 2.00017 16.7246 2.00147 16.9467C1.99927 16.9874 1.99953 17.0282 2.00233 17.0691C2.00608 17.5158 2.01633 17.9086 2.04438 18.2518C2.0903 18.8139 2.18887 19.3306 2.43616 19.816C2.81965 20.5686 3.43157 21.1805 4.18422 21.564C4.66956 21.8113 5.18626 21.9099 5.74836 21.9558C6.28955 22 6.9539 22 7.75886 22H15.9785C15.9933 22.0003 16.0081 22.0003 16.023 22H16.2415C17.0465 22 17.7108 22 18.252 21.9558C18.8141 21.9099 19.3308 21.8113 19.8161 21.564C20.5688 21.1805 21.1807 20.5686 21.5642 19.816C21.8115 19.3306 21.9101 18.8139 21.956 18.2518C22.0002 17.7106 22.0002 17.0463 22.0002 16.2413V7.75868C22.0002 6.95372 22.0002 6.28937 21.956 5.74818C21.9101 5.18608 21.8115 4.66938 21.5642 4.18404C21.1807 3.43139 20.5688 2.81947 19.8161 2.43598C19.3308 2.18869 18.8141 2.09012 18.252 2.0442C17.7108 1.99998 17.0465 1.99999 16.2415 2L8.02191 2.00001ZM16.6499 19.9997C17.2685 19.9985 17.7226 19.9924 18.0891 19.9625C18.5276 19.9266 18.7518 19.8617 18.9082 19.782C19.2845 19.5903 19.5904 19.2843 19.7822 18.908C19.8619 18.7516 19.9268 18.5274 19.9626 18.089C19.9994 17.6389 20.0002 17.0566 20.0002 16.2V7.80001C20.0002 6.94343 19.9994 6.36113 19.9626 5.91104C19.9268 5.47263 19.8619 5.24842 19.7822 5.09202C19.5905 4.7157 19.2845 4.40974 18.9082 4.21799C18.7518 4.1383 18.5276 4.07338 18.0891 4.03756C17.6391 4.00078 17.0568 4.00001 16.2002 4.00001H9.53894L12.9099 11.5847C12.913 11.5915 12.916 11.5983 12.919 11.6051L16.6499 19.9997ZM14.4614 20L11.5303 13.405L4.01143 17.5822C4.017 17.7698 4.02531 17.9369 4.03773 18.089C4.07355 18.5274 4.13848 18.7516 4.21817 18.908C4.40992 19.2843 4.71588 19.5903 5.0922 19.782C5.2486 19.8617 5.4728 19.9266 5.91122 19.9625C6.36131 19.9992 6.9436 20 7.80018 20H14.4614ZM4.00018 15.3005V7.8C4.00018 6.94343 4.00096 6.36113 4.03773 5.91104C4.07355 5.47263 4.13848 5.24842 4.21817 5.09202C4.40992 4.7157 4.71588 4.40974 5.0922 4.21799C5.2486 4.1383 5.4728 4.07338 5.91122 4.03756C6.27773 4.00761 6.7319 4.00154 7.35044 4.00031L10.7148 11.5701L4.00018 15.3005Z" fill="#1B2631"/>
</svg>
