<svg width="24" height="24" viewBox="0 0 24 24" fill="none" xmlns="http://www.w3.org/2000/svg">
<path fill-rule="evenodd" clip-rule="evenodd" d="M2.99956 11.5C2.99956 6.25329 7.25285 2 12.4996 2C17.7463 2 21.9996 6.25329 21.9996 11.5C21.9996 16.7467 17.7463 21 12.4996 21C11.2979 21 10.1462 20.7764 9.08521 20.3677C8.99426 20.3326 8.94157 20.3124 8.90272 20.2984C8.89797 20.2967 8.89386 20.2953 8.89036 20.2941C8.88909 20.2941 8.88773 20.2942 8.88628 20.2944C8.85466 20.2968 8.8115 20.3012 8.72894 20.3097L3.60792 20.8391C3.59666 20.8402 3.58536 20.8414 3.57404 20.8426C3.35985 20.8648 3.13641 20.8879 2.94952 20.8901C2.76377 20.8923 2.42898 20.8818 2.10798 20.6859C1.73169 20.4564 1.47541 20.073 1.40719 19.6376C1.34899 19.2661 1.46727 18.9527 1.5403 18.7819C1.61377 18.61 1.72058 18.4124 1.82298 18.223L3.47484 15.1655C3.5463 15.0332 3.5845 14.962 3.6102 14.909C3.61155 14.9063 3.6128 14.9036 3.61395 14.9012C3.61203 14.8943 3.60969 14.8861 3.60687 14.8766C3.58522 14.8033 3.55191 14.7039 3.49531 14.536C3.17355 13.5814 2.99956 12.56 2.99956 11.5ZM12.4996 4C8.35742 4 4.99956 7.35786 4.99956 11.5C4.99956 12.34 5.13726 13.1458 5.39055 13.8972C5.39859 13.9211 5.40689 13.9455 5.41535 13.9703C5.49649 14.2089 5.59181 14.489 5.61187 14.7425C5.63016 14.9736 5.61349 15.169 5.55632 15.3936C5.4938 15.6393 5.36673 15.8729 5.26367 16.0623C5.25368 16.0807 5.24392 16.0986 5.23446 16.1161L3.77866 18.8108L8.5233 18.3203C8.53406 18.3192 8.54511 18.318 8.55642 18.3169C8.67542 18.3044 8.8229 18.2889 8.96763 18.2944C9.09991 18.2995 9.21138 18.3143 9.34037 18.344C9.48197 18.3767 9.63559 18.4361 9.76514 18.4863C9.77843 18.4914 9.79147 18.4965 9.80421 18.5014C10.6394 18.8231 11.5476 19 12.4996 19C16.6417 19 19.9996 15.6421 19.9996 11.5C19.9996 7.35786 16.6417 4 12.4996 4ZM12.8315 8.51797C12.541 8.46813 12.2421 8.52274 11.988 8.67211C11.7338 8.82148 11.5407 9.05598 11.4429 9.33408C11.2596 9.85507 10.6887 10.1288 10.1677 9.94557C9.64673 9.7623 9.37295 9.19138 9.55622 8.67039C9.81079 7.94674 10.3132 7.33653 10.9746 6.94784C11.636 6.55915 12.4136 6.41707 13.1696 6.54676C13.9257 6.67645 14.6115 7.06954 15.1055 7.6564C15.5994 8.24313 15.8698 8.98568 15.8688 9.75261C15.8683 11.0324 14.9217 11.8551 14.2993 12.27C13.9577 12.4978 13.6231 12.6643 13.3779 12.7733C13.2539 12.8284 13.1492 12.8704 13.0731 12.8994C13.035 12.9139 13.0038 12.9252 12.9807 12.9334L12.9523 12.9434L12.9428 12.9466L12.9394 12.9478L12.9379 12.9483C12.9376 12.9484 12.9367 12.9487 12.6205 12L12.9367 12.9487C12.4128 13.1233 11.8464 12.8402 11.6718 12.3162C11.4972 11.7925 11.7801 11.2263 12.3037 11.0515L12.3024 11.0519L12.3107 11.049C12.3206 11.0455 12.3377 11.0393 12.3611 11.0304C12.408 11.0125 12.4789 10.9842 12.5656 10.9457C12.742 10.8673 12.9695 10.7528 13.1899 10.6059C13.6916 10.2714 13.8688 9.97025 13.8688 9.75168L13.8688 9.75019C13.8692 9.45539 13.7653 9.16994 13.5755 8.94441C13.3856 8.71887 13.1221 8.56781 12.8315 8.51797ZM11.6495 15C11.6495 14.4477 12.0972 14 12.6495 14H12.6595C13.2117 14 13.6595 14.4477 13.6595 15C13.6595 15.5523 13.2117 16 12.6595 16H12.6495C12.0972 16 11.6495 15.5523 11.6495 15Z" fill="white"/>
</svg>
