<svg width="24" height="24" viewBox="0 0 24 24" fill="none" xmlns="http://www.w3.org/2000/svg">
<path fill-rule="evenodd" clip-rule="evenodd" d="M19.4138 4.58579C18.6327 3.80474 17.3664 3.80474 16.5853 4.58579C15.8043 5.36683 15.8043 6.63317 16.5853 7.41421C17.3664 8.19526 18.6327 8.19526 19.4138 7.41421C20.1948 6.63317 20.1948 5.36683 19.4138 4.58579ZM15.1711 3.17157C16.7332 1.60948 19.2659 1.60948 20.828 3.17157C22.3901 4.73367 22.3901 7.26633 20.828 8.82843C19.2659 10.3905 16.7332 10.3905 15.1711 8.82843C13.609 7.26633 13.609 4.73367 15.1711 3.17157ZM12.7027 2.94439C12.7535 3.49433 12.3489 3.98136 11.799 4.03222C7.98585 4.38484 4.99956 7.59425 4.99956 11.5C4.99956 12.34 5.13726 13.1458 5.39055 13.8972C5.39859 13.9211 5.40689 13.9455 5.41534 13.9703C5.49649 14.2088 5.59181 14.489 5.61187 14.7425C5.63015 14.9736 5.61349 15.169 5.55632 15.3936C5.4938 15.6393 5.36673 15.8729 5.26367 16.0623C5.25368 16.0807 5.24392 16.0986 5.23446 16.1161L3.77866 18.8108L8.5233 18.3203C8.53407 18.3192 8.54515 18.318 8.55647 18.3168C8.67539 18.3044 8.82294 18.2889 8.96764 18.2944C9.0999 18.2995 9.21137 18.3143 9.34037 18.344C9.48197 18.3767 9.63559 18.4361 9.76514 18.4863C9.77843 18.4914 9.79147 18.4965 9.80421 18.5014C10.6394 18.8231 11.5476 19 12.4996 19C16.4085 19 19.62 16.0088 19.9682 12.1911C20.0184 11.6411 20.5049 11.2359 21.0549 11.2861C21.6049 11.3362 22.0101 11.8228 21.9599 12.3728C21.5187 17.2109 17.4522 21 12.4996 21C11.2979 21 10.1462 20.7764 9.08521 20.3677C8.99426 20.3326 8.94157 20.3124 8.90273 20.2984C8.89797 20.2967 8.89386 20.2953 8.89036 20.2941C8.88909 20.2941 8.88772 20.2942 8.88627 20.2944C8.85463 20.2968 8.81147 20.3012 8.72894 20.3097C8.72894 20.3097 8.72895 20.3097 8.72894 20.3097L3.57404 20.8426C3.35985 20.8648 3.13641 20.8879 2.94951 20.8901C2.76377 20.8923 2.42898 20.8818 2.10798 20.6859C1.7317 20.4564 1.47541 20.073 1.40719 19.6376C1.34899 19.2661 1.46727 18.9527 1.5403 18.7819C1.61377 18.6101 1.72058 18.4124 1.82297 18.223L3.47484 15.1655C3.5463 15.0332 3.5845 14.962 3.6102 14.909C3.61155 14.9063 3.6128 14.9036 3.61395 14.9012C3.61203 14.8943 3.60969 14.8861 3.60687 14.8765C3.58522 14.8033 3.55191 14.7039 3.49531 14.536C3.17355 13.5814 2.99956 12.56 2.99956 11.5C2.99956 6.55145 6.78244 2.48759 11.6149 2.04072C12.1648 1.98986 12.6518 2.39445 12.7027 2.94439Z" fill="white"/>
</svg>
