<svg width="24" height="24" viewBox="0 0 24 24" fill="none" xmlns="http://www.w3.org/2000/svg">
<path fill-rule="evenodd" clip-rule="evenodd" d="M2.99956 11.5C2.99956 6.25329 7.25285 2 12.4996 2C17.7463 2 21.9996 6.25329 21.9996 11.5C21.9996 16.7467 17.7463 21 12.4996 21C11.2979 21 10.1462 20.7764 9.08521 20.3677C8.99426 20.3326 8.94157 20.3124 8.90272 20.2984C8.89797 20.2967 8.89386 20.2953 8.89036 20.2941C8.88909 20.2941 8.88773 20.2942 8.88628 20.2944C8.85466 20.2968 8.8115 20.3012 8.72894 20.3097L3.60792 20.8391C3.59666 20.8402 3.58536 20.8414 3.57404 20.8426C3.35985 20.8648 3.13641 20.8879 2.94952 20.8901C2.76377 20.8923 2.42898 20.8818 2.10798 20.6859C1.73169 20.4564 1.47541 20.073 1.40719 19.6376C1.34899 19.2661 1.46727 18.9527 1.5403 18.7819C1.61377 18.61 1.72058 18.4124 1.82298 18.223L3.47484 15.1655C3.5463 15.0332 3.5845 14.962 3.6102 14.909C3.61155 14.9063 3.6128 14.9036 3.61395 14.9012C3.61203 14.8943 3.60969 14.8861 3.60687 14.8766C3.58522 14.8033 3.55191 14.7039 3.49531 14.536C3.17355 13.5814 2.99956 12.56 2.99956 11.5ZM12.4996 4C8.35742 4 4.99956 7.35786 4.99956 11.5C4.99956 12.34 5.13726 13.1458 5.39055 13.8972C5.39859 13.9211 5.40689 13.9455 5.41535 13.9703C5.49649 14.2089 5.59181 14.489 5.61187 14.7425C5.63016 14.9736 5.61349 15.169 5.55632 15.3936C5.4938 15.6393 5.36673 15.8729 5.26367 16.0623C5.25368 16.0807 5.24392 16.0986 5.23446 16.1161L3.77866 18.8108L8.5233 18.3203C8.53406 18.3192 8.54511 18.318 8.55642 18.3169C8.67542 18.3044 8.8229 18.2889 8.96763 18.2944C9.09991 18.2995 9.21138 18.3143 9.34037 18.344C9.48197 18.3767 9.63559 18.4361 9.76514 18.4863C9.77843 18.4914 9.79147 18.4965 9.80421 18.5014C10.6394 18.8231 11.5476 19 12.4996 19C16.6417 19 19.9996 15.6421 19.9996 11.5C19.9996 7.35786 16.6417 4 12.4996 4ZM12.4959 7.62384C11.284 6.80638 9.63784 6.70947 8.32424 7.81798C6.79134 9.11156 6.55899 11.3124 7.78256 12.8674C8.39655 13.6478 9.84866 14.9841 10.794 15.8316L10.816 15.8512C10.9747 15.9936 11.1349 16.1372 11.2836 16.2501C11.4523 16.3782 11.6578 16.508 11.9201 16.5869C12.2911 16.6986 12.7018 16.6986 13.0729 16.5869C13.3352 16.508 13.5406 16.3782 13.7093 16.2501C13.8581 16.1372 14.0183 15.9935 14.177 15.8512L14.1989 15.8316C15.1443 14.9841 16.5964 13.6478 17.2104 12.8674C18.425 11.3238 18.2345 9.10321 16.6583 7.8093C15.3365 6.72431 13.7057 6.80686 12.4959 7.62384ZM11.7406 9.60392C11.1365 8.90646 10.2536 8.80681 9.6141 9.34647C8.89246 9.95545 8.80739 10.9356 9.35434 11.6307C9.83723 12.2444 11.1382 13.4542 12.129 14.3423C12.3188 14.5124 12.4173 14.5997 12.4928 14.6571C12.4941 14.658 12.4953 14.6589 12.4965 14.6598C12.4977 14.6589 12.4989 14.658 12.5001 14.6571C12.5757 14.5997 12.6742 14.5124 12.8639 14.3423C13.8547 13.4542 15.1557 12.2444 15.6386 11.6307C16.1945 10.9242 16.1063 9.94378 15.3893 9.35516C14.7201 8.8058 13.849 8.91509 13.2524 9.60392C13.0624 9.82324 12.7866 9.94925 12.4965 9.94925C12.2063 9.94925 11.9305 9.82324 11.7406 9.60392Z" fill="white"/>
</svg>
