<svg width="24" height="24" viewBox="0 0 24 24" fill="none" xmlns="http://www.w3.org/2000/svg">
<path fill-rule="evenodd" clip-rule="evenodd" d="M11.9977 1.74364C12.1398 2.19299 11.9489 2.68057 11.5395 2.91395C9.4232 4.12016 8 6.39466 8 9.00032C8 12.8663 11.134 16.0003 15 16.0003C17.6055 16.0003 19.8798 14.5773 21.0861 12.4614C21.3195 12.0519 21.8071 11.861 22.2564 12.0032C22.7058 12.1453 22.9949 12.5819 22.9504 13.0511C22.4206 18.6337 17.7208 23.0001 12 23.0001C5.92487 23.0001 1 18.0752 1 12.0001C1 6.27898 5.36684 1.57899 10.9499 1.04963C11.4191 1.00514 11.8556 1.29428 11.9977 1.74364ZM7.3151 4.31388C4.72743 5.89468 3 8.74593 3 12.0001C3 16.9706 7.02944 21.0001 12 21.0001C15.2539 21.0001 18.105 19.2729 19.6858 16.6856C18.3212 17.5194 16.7169 18.0003 15 18.0003C10.0294 18.0003 6 13.9709 6 9.00032C6 7.28312 6.48105 5.6786 7.3151 4.31388Z" fill="#1B2631"/>
</svg>
