<?xml version="1.0" encoding="UTF-8"?>
<svg id="Layer_2" data-name="Layer 2" xmlns="http://www.w3.org/2000/svg" viewBox="0 0 24 24">
  <defs>
    <style>
      .cls-1 {
        fill: none;
      }

      .cls-2 {
        fill: #2f3945;
        fill-rule: evenodd;
      }
    </style>
  </defs>
  <g id="Layer_4" data-name="Layer 4">
    <g>
      <rect class="cls-1" width="24" height="24"/>
      <g>
        <path class="cls-2" d="M14.19,10.73c.11-.22.14-.43.16-.61,0-.16,0-.35,0-.55v-2.51c0-.2,0-.39,0-.56-.02-.18-.05-.39-.16-.6-.15-.3-.39-.54-.68-.69-.2-.1-.39-.14-.56-.15v-1.11c0-.52-.42-.94-.95-.94s-.94.42-.94.94v1.11c-.16.02-.36.05-.56.15-.3.15-.54.4-.68.69-.11.22-.14.42-.16.6,0,.17,0,.36,0,.56v2.51c0,.2,0,.39,0,.55.02.18.05.4.16.61.14.3.39.54.68.68.2.11.4.13.56.15v1.12c0,.52.42.94.94.94s.95-.42.95-.94v-1.12c.17-.02.36-.05.56-.15.3-.14.53-.39.68-.68ZM12.95,9.63c0,.28-.22.5-.5.5h-.9c-.27,0-.49-.22-.49-.5v-2.65c0-.27.22-.49.49-.49h.9c.28,0,.5.22.5.49v2.65Z"/>
        <path class="cls-2" d="M7.56,5.93c-.15-.3-.4-.53-.69-.68-.19-.1-.39-.13-.55-.15v-1.15c0-.52-.43-.94-.95-.94s-.94.42-.94.94v1.15c-.17.02-.36.05-.56.15-.3.15-.54.39-.69.68-.11.22-.14.43-.15.61-.02.16-.02.36-.02.56v9.79c0,.21,0,.4.02.56,0,.18.05.4.15.61.15.3.4.53.69.68.2.1.39.14.56.15v1.15c0,.52.42.94.94.94s.95-.42.95-.94v-1.15c.16-.02.36-.05.55-.15.3-.15.54-.39.69-.68.11-.22.14-.43.16-.61,0-.16,0-.35,0-.56V7.1c0-.2,0-.4,0-.56-.02-.18-.05-.4-.16-.61ZM6.32,16.93c0,.08-.02.16-.05.23-.09.21-.3.36-.55.36h-.72c-.24,0-.45-.15-.54-.36-.03-.07-.05-.15-.05-.23V7.07c0-.08.02-.16.05-.23.09-.21.3-.36.54-.36h.72c.24,0,.46.15.55.36.03.07.05.15.05.23v9.86Z"/>
        <path class="cls-2" d="M20.76,19.57l-.75-.74c.37-.58.58-1.27.58-2,0-2.08-1.68-3.75-3.75-3.75s-3.75,1.68-3.75,3.75,1.68,3.75,3.75,3.75c.73,0,1.42-.21,1.99-.58l.75.75c.33.33.86.33,1.18,0,.33-.33.33-.86,0-1.18ZM16.83,18.91c-1.15,0-2.08-.93-2.08-2.08s.93-2.08,2.08-2.08,2.08.93,2.08,2.08-.93,2.08-2.08,2.08Z"/>
      </g>
    </g>
  </g>
</svg>