<?xml version="1.0" encoding="UTF-8"?>
<svg id="Layer_2" data-name="Layer 2" xmlns="http://www.w3.org/2000/svg" viewBox="0 0 24 24">
  <defs>
    <style>
      .cls-1 {
        fill: none;
      }

      .cls-2 {
        fill: #2f3945;
      }
    </style>
  </defs>
  <g id="Layer_4" data-name="Layer 4">
    <g>
      <rect class="cls-1" width="24" height="24"/>
      <path class="cls-2" d="M22,12.01c0-5.51-4.49-10.01-10.01-10.01-5.51,0-9.99,4.49-9.99,10.01,0,5.51,4.48,9.99,9.99,9.99,5.51,0,10.01-4.48,10.01-9.99h0ZM18.43,12.01c0,.78-.66,1.42-1.44,1.42s-1.42-.64-1.42-1.42.64-1.43,1.42-1.43,1.44.65,1.44,1.43h0ZM13.43,12.01c0,.78-.65,1.42-1.43,1.42-.78,0-1.42-.64-1.42-1.42s.64-1.43,1.42-1.43c.78,0,1.43.65,1.43,1.43h0ZM8.43,12.01c0,.78-.66,1.42-1.44,1.42s-1.42-.64-1.42-1.42.64-1.43,1.42-1.43,1.44.65,1.44,1.43h0Z"/>
    </g>
  </g>
</svg>