<?xml version="1.0" encoding="UTF-8"?>
<svg id="Layer_2" data-name="Layer 2" xmlns="http://www.w3.org/2000/svg" viewBox="0 0 24 24">
  <defs>
    <style>
      .cls-1 {
        fill: none;
      }

      .cls-2 {
        fill: #2f3945;
        fill-rule: evenodd;
      }
    </style>
  </defs>
  <g id="Layer_4" data-name="Layer 4">
    <g>
      <rect class="cls-1" width="24" height="24"/>
      <g>
        <path class="cls-2" d="M13.5,11.42c.3-.15.54-.39.69-.69.11-.21.14-.43.16-.61.01-.16.01-.36.01-.56v-2.51c0-.2,0-.39-.01-.56-.01-.18-.05-.39-.16-.61-.15-.3-.39-.54-.69-.69-.2-.1-.39-.13-.56-.15v-1.11c0-.52-.42-.95-.95-.95s-.95.42-.95.95v1.11c-.17.02-.36.05-.56.15-.3.15-.54.39-.69.69-.11.21-.14.43-.16.61-.01.16-.01.36-.01.56v2.51c0,.2,0,.39.01.56.01.18.05.39.16.61.15.3.39.54.69.69.2.1.39.13.56.15v1.11c0,.52.42.95.95.95s.95-.42.95-.95v-1.11c.17-.02.36-.05.56-.15Z"/>
        <path class="cls-2" d="M7.56,5.94c-.15-.3-.39-.54-.69-.69-.2-.1-.39-.13-.56-.15v-1.15c0-.52-.42-.95-.95-.95s-.95.42-.95.95v1.15c-.17.02-.36.05-.56.15-.3.15-.54.39-.69.69-.11.21-.14.43-.16.61-.01.16-.01.36-.01.56v9.8c0,.2,0,.39.01.56.01.18.05.39.16.61.15.3.39.54.69.69.2.1.39.13.56.15v1.15c0,.52.42.95.95.95s.95-.42.95-.95v-1.15c.17-.02.36-.05.56-.15.3-.15.54-.39.69-.69.11-.21.14-.43.16-.61.01-.16.01-.36.01-.56V7.1c0-.2,0-.39-.01-.56-.01-.18-.05-.39-.16-.61Z"/>
        <path class="cls-2" d="M20.76,19.57l-.75-.74c.37-.58.58-1.27.58-2,0-2.08-1.68-3.75-3.75-3.75s-3.75,1.68-3.75,3.75,1.68,3.75,3.75,3.75c.73,0,1.42-.21,1.99-.58l.75.75c.33.32.86.32,1.18,0,.33-.33.33-.86,0-1.18ZM16.83,18.91c-1.15,0-2.08-.93-2.08-2.08s.93-2.08,2.08-2.08,2.08.93,2.08,2.08-.93,2.08-2.08,2.08Z"/>
      </g>
    </g>
  </g>
</svg>