<?xml version="1.0" encoding="UTF-8"?>
<svg id="Layer_2" data-name="Layer 2" xmlns="http://www.w3.org/2000/svg" viewBox="0 0 24 24">
  <defs>
    <style>
      .cls-1 {
        fill: none;
      }

      .cls-2 {
        fill: #2f3945;
      }
    </style>
  </defs>
  <g id="Layer_4" data-name="Layer 4">
    <g>
      <rect class="cls-1" width="24" height="24"/>
      <g>
        <path class="cls-2" d="M11.99,2C6.48,2,2,6.49,2,12.01s4.48,9.99,9.99,9.99,10.01-4.48,10.01-9.99S17.51,2,11.99,2ZM12,20.35c-4.61,0-8.35-3.73-8.35-8.34S7.39,3.66,12,3.66s8.34,3.73,8.34,8.35-3.73,8.34-8.34,8.34Z"/>
        <path class="cls-2" d="M17.87,12.01c0,.71-.6,1.3-1.31,1.3s-1.3-.59-1.3-1.3.59-1.31,1.3-1.31c.71,0,1.31.6,1.31,1.31h0Z"/>
        <path class="cls-2" d="M13.3,12.01c0,.71-.6,1.3-1.31,1.3-.71,0-1.3-.59-1.3-1.3s.59-1.31,1.3-1.31,1.31.6,1.31,1.31h0Z"/>
        <path class="cls-2" d="M8.74,12.01c0,.71-.6,1.3-1.31,1.3-.71,0-1.3-.59-1.3-1.3s.59-1.31,1.3-1.31,1.31.6,1.31,1.31h0Z"/>
      </g>
    </g>
  </g>
</svg>