<?xml version="1.0" encoding="UTF-8"?>
<svg id="Layer_2" data-name="Layer 2" xmlns="http://www.w3.org/2000/svg" viewBox="0 0 24 24">
  <defs>
    <style>
      .cls-1 {
        fill: none;
      }

      .cls-2 {
        fill: #2f3945;
        fill-rule: evenodd;
      }
    </style>
  </defs>
  <g id="Layer_4" data-name="Layer 4">
    <g>
      <rect class="cls-1" width="24" height="24"/>
      <g>
        <path class="cls-2" d="M16.89,15.98h2.22c.49,0,.89-.4.89-.89s-.4-.89-.89-.89h-.89c0-.49-.4-.89-.89-.89s-.89.4-.89.89v.04c-1.01.21-1.78,1.1-1.78,2.18,0,1.23,1,2.22,2.22,2.22h.89c.25,0,.44.2.44.44s-.2.44-.44.44h-2.22c-.49,0-.89.4-.89.89s.4.89.89.89h.89c0,.49.4.89.89.89s.89-.4.89-.89v-.04c1.01-.21,1.78-1.1,1.78-2.18,0-1.23-.99-2.22-2.22-2.22h-.89c-.25,0-.44-.2-.44-.44s.2-.44.44-.44Z"/>
        <path class="cls-2" d="M19.88,6.17c-.33-1.23-1.29-2.18-2.52-2.51-.28-.08-.57-.11-.92-.12h-.01c-.02-.97-.81-1.75-1.78-1.75h-5.32c-.97,0-1.76.78-1.78,1.75-.34,0-.64.04-.91.11-1.23.33-2.19,1.28-2.52,2.51-.12.46-.12.99-.12,1.69v8.34c0,.72,0,1.31.04,1.79.04.5.13.96.35,1.4.35.67.89,1.21,1.56,1.55.44.22.89.31,1.4.36.48.04,1.07.04,1.79.04h4.4c-.12-.28-.19-.57-.19-.89,0-.69.32-1.32.83-1.72-.52-.62-.83-1.41-.83-2.28,0-1.38.8-2.61,2-3.2.36-.74,1.12-1.24,2-1.24.72,0,1.37.35,1.78.89.31,0,.61.07.89.19v-5.2c0-.7,0-1.23-.12-1.69ZM9.32,4.12c0-.3.24-.53.53-.53h4.25c.3,0,.53.24.53.53v.68c0,.3-.24.53-.53.53h-4.25c-.3,0-.53-.24-.53-.53v-.68ZM10.22,13.91h-1.78c-.49,0-.89-.4-.89-.89s.4-.89.89-.89h1.78c.49,0,.89.4.89.89s-.4.89-.89.89ZM15.55,10.36h-7.17c-.49,0-.89-.4-.89-.89s.4-.89.89-.89h7.17c.49,0,.89.4.89.89s-.4.89-.89.89Z"/>
      </g>
    </g>
  </g>
</svg>