<?xml version="1.0" encoding="UTF-8"?>
<svg id="Layer_2" data-name="Layer 2" xmlns="http://www.w3.org/2000/svg" viewBox="0 0 24 24">
  <defs>
    <style>
      .cls-1 {
        fill: none;
      }

      .cls-2 {
        fill: #2f3945;
      }
    </style>
  </defs>
  <g id="Layer_4" data-name="Layer 4">
    <g>
      <rect class="cls-1" width="24" height="24"/>
      <g>
        <path class="cls-2" d="M20.13,5.48l-1.72.02-.02-1.72c0-.47-.39-.85-.87-.85-.47,0-.85.39-.85.87l.02,1.72-1.72.02c-.47,0-.85.39-.85.87s.39.85.87.85l1.72-.02.02,1.72c0,.47.39.85.87.85.47,0,.85-.39.85-.87l-.02-1.72,1.72-.02c.47,0,.85-.39.85-.87s-.39-.85-.87-.85Z"/>
        <path class="cls-2" d="M20.23,11.98c0-.41-.34-.74-.75-.74s-.75.34-.75.75l.03,5.37c0,.42,0,.78,0,1.01-.02.15-.04.35-.1.46-.1.21-.27.38-.45.48-.1.05-.24.08-.45.1-.26.02-.62.03-1.05.03l-10.01.11c-.18,0-.35,0-.51,0-.2,0-.37,0-.53-.02-.21-.02-.35-.04-.44-.08-.21-.11-.37-.27-.48-.48-.04-.09-.08-.22-.09-.43-.03-.27-.03-.63-.03-1.05v-.08l-.02-1.5.5-.51,1.52,1.48c.07.07.15.16.24.23.09.08.24.19.44.25.26.08.54.08.8,0,.2-.07.34-.18.44-.26.09-.07.17-.16.24-.23l3.17-3.24v1.36c.02.47.4.85.87.84.48,0,.86-.39.85-.87l-.03-3.43c0-.47-.39-.85-.87-.84l-3.43.03c-.47,0-.86.39-.85.87,0,.47.39.86.87.85l1.36-.02-3.05,3.11-1.51-1.48c-.07-.07-.15-.15-.24-.22-.09-.09-.24-.18-.45-.25-.26-.08-.54-.07-.8,0-.03.02-.07.03-.1.04l-.06-6.15c0-.4,0-.78,0-1.05,0-.21.03-.34.08-.43.1-.21.27-.38.45-.47.13-.07.33-.09.45-.11.27-.03.63-.03,1.05-.03l5.35-.03c.41,0,.74-.34.74-.75s-.33-.75-.74-.75h-.02l-5.35.03c-.45,0-.84,0-1.17.04-.33.03-.68.1-1,.27-.47.26-.87.65-1.11,1.13-.16.33-.21.67-.24,1.01-.02.32-.02.71,0,1.16l.03,2.57.05,4.94.03,2.43v.08c0,.45.02.84.04,1.17.03.33.09.68.26,1,.04.09.09.16.15.24.25.38.58.68.99.87.33.15.67.21,1,.24.19,0,.4.02.63.02.16,0,.34,0,.53,0l10.01-.11c.45,0,.85,0,1.17-.03.34-.03.68-.09,1-.27.47-.25.87-.65,1.11-1.14.16-.32.21-.66.25-1,.02-.33.02-.71,0-1.17l-.03-5.37Z"/>
      </g>
    </g>
  </g>
</svg>