<?xml version="1.0" encoding="UTF-8"?>
<svg id="Layer_2" data-name="Layer 2" xmlns="http://www.w3.org/2000/svg" viewBox="0 0 24 24">
  <defs>
    <style>
      .cls-1 {
        fill: none;
      }

      .cls-2 {
        fill: #2f3945;
        fill-rule: evenodd;
      }
    </style>
  </defs>
  <g id="Layer_4" data-name="Layer 4">
    <g>
      <rect class="cls-1" width="24" height="24"/>
      <g>
        <path class="cls-2" d="M19.88,6.14c-.33-1.23-1.29-2.19-2.51-2.51-.27-.07-.58-.1-.93-.11,0,0,0-.02,0-.02,0-.04,0-.07,0-.11v.04c-.08-.91-.84-1.63-1.77-1.63h-5.32c-.94,0-1.7.72-1.77,1.64v-.05s0,.08,0,.13h0c-.35.01-.65.04-.93.12-1.23.33-2.19,1.29-2.51,2.51-.12.45-.12.98-.12,1.69v8.34c0,.72,0,1.31.04,1.79.04.5.13.96.35,1.39.34.67.88,1.21,1.55,1.55.43.22.89.31,1.39.35.48.04,1.07.04,1.79.04h3.25c.49,0,.89-.4.89-.89s-.4-.89-.89-.89h-3.21c-.76,0-1.28,0-1.68-.03-.39-.03-.59-.09-.73-.16-.33-.17-.61-.44-.78-.78-.07-.14-.13-.34-.16-.73-.03-.4-.03-.92-.03-1.68V7.95c0-.88,0-1.15.06-1.35.16-.61.64-1.09,1.26-1.26.11-.03.23-.04.46-.05v.05c0,.99.8,1.79,1.79,1.79h5.32c.99,0,1.79-.8,1.79-1.79v-.05c.23,0,.35.02.46.05.61.16,1.09.64,1.26,1.26.05.2.06.47.06,1.35v3.1c0,.49.4.89.89.89s.89-.4.89-.89v-3.23c0-.71,0-1.23-.12-1.69ZM14.66,4.79c0,.3-.24.53-.53.53h-4.24c-.3,0-.53-.24-.53-.53v-.68c0-.3.24-.53.53-.53h4.24c.3,0,.53.24.53.53v.68Z"/>
        <path class="cls-2" d="M8.44,12.15c-.49,0-.89.4-.89.89s.4.89.89.89h1.78c.49,0,.89-.4.89-.89s-.4-.89-.89-.89h-1.78Z"/>
        <path class="cls-2" d="M16.44,9.49c0-.49-.4-.89-.89-.89h-7.11c-.49,0-.89.4-.89.89s.4.89.89.89h7.11c.49,0,.89-.4.89-.89Z"/>
        <path class="cls-2" d="M16.89,15.99h2.22c.49,0,.89-.4.89-.89s-.4-.89-.89-.89h-.89c0-.49-.4-.89-.89-.89s-.89.4-.89.89v.04c-1.01.21-1.78,1.1-1.78,2.18,0,1.23,1,2.22,2.22,2.22h.89c.25,0,.44.2.44.44s-.2.44-.44.44h-2.22c-.49,0-.89.4-.89.89s.4.89.89.89h.89c0,.49.4.89.89.89s.89-.4.89-.89v-.04c1.01-.21,1.78-1.1,1.78-2.18,0-1.23-1-2.22-2.22-2.22h-.89c-.25,0-.44-.2-.44-.44s.2-.44.44-.44Z"/>
      </g>
    </g>
  </g>
</svg>