<?xml version="1.0" encoding="UTF-8"?>
<svg id="Layer_2" data-name="Layer 2" xmlns="http://www.w3.org/2000/svg" viewBox="0 0 24 24">
  <defs>
    <style>
      .cls-1 {
        fill: none;
      }

      .cls-2 {
        fill: #2f3945;
        fill-rule: evenodd;
      }
    </style>
  </defs>
  <g id="Layer_4" data-name="Layer 4">
    <g>
      <rect class="cls-1" width="24" height="24"/>
      <path class="cls-2" d="M21.39,9.66c-.09-.33-.25-.65-.45-.93-.24-.32-.55-.56-.91-.84-.02-.02-.05-.04-.07-.06l-6.44-5.01s-.05-.04-.07-.06c-.25-.2-.57-.45-.95-.55-.33-.09-.67-.09-.99,0-.38.1-.7.35-.95.55-.02.02-.05.04-.07.06l-6.44,5.01s-.05.04-.07.06c-.36.28-.67.52-.91.84-.21.28-.36.59-.45.93-.11.38-.11.78-.11,1.23,0,.03,0,.06,0,.09v6.91c0,.5,0,.93.03,1.29.03.38.1.75.28,1.11.27.54.71.97,1.25,1.25.36.18.73.25,1.11.28.36.03.79.03,1.29.03h1.96c.11,0,.25,0,.37,0,.14-.01.34-.04.54-.15.27-.14.49-.35.62-.62.11-.21.13-.4.15-.54,0-.12,0-.25,0-.37h.01v-6c0-.47.38-.85.85-.85h2.08c.47,0,.85.38.85.85v6h.01c0,.11,0,.25,0,.37.01.14.04.34.15.54.14.27.35.49.62.62.21.11.4.13.54.15.12,0,.25,0,.37,0h1.96c.5,0,.93,0,1.29-.03.38-.03.75-.1,1.11-.28.54-.27.97-.71,1.25-1.25.18-.36.25-.73.28-1.11.03-.36.03-.79.03-1.29v-7c0-.45,0-.85-.11-1.23ZM12.35,4.32l6.44,5.01c.47.37.56.45.62.53.07.09.12.2.15.31.03.1.04.21.04.81v6.87c0,.55,0,.9-.02,1.17-.02.26-.06.35-.08.4-.09.18-.24.32-.42.42-.05.02-.14.06-.4.08-.27.02-.62.02-1.17.02h-1.71v-6.11c0-.24,0-.47-.02-.67-.02-.22-.06-.47-.19-.73-.18-.36-.47-.65-.83-.83-.26-.13-.51-.17-.73-.19-.2-.02-.43-.02-.67-.02h-2.72c-.24,0-.47,0-.67.02-.22.02-.47.06-.73.19-.36.18-.65.47-.83.83-.13.26-.17.51-.19.73-.02.2-.02.43-.02.67v6.11h-1.71c-.55,0-.9,0-1.17-.02-.26-.02-.35-.06-.4-.08-.18-.09-.32-.24-.42-.42-.02-.05-.06-.14-.08-.4-.02-.27-.02-.62-.02-1.17v-6.87c0-.6,0-.72.04-.81.03-.11.08-.22.15-.31.06-.08.15-.16.62-.53l6.44-5.01c.18-.14.27-.21.34-.26"/>
    </g>
  </g>
</svg>