<svg width="24" height="24" viewBox="0 0 24 24" fill="none" xmlns="http://www.w3.org/2000/svg">
<path fill-rule="evenodd" clip-rule="evenodd" d="M11.3263 1.90254C11.7481 1.69199 12.2443 1.69199 12.6661 1.90254C13.0395 2.08891 13.2324 2.41706 13.3243 2.58421C13.4245 2.76638 13.527 3.0003 13.6299 3.235C13.6348 3.24618 13.6397 3.25736 13.6446 3.26854L20.9412 19.9047C21.0563 20.167 21.1677 20.421 21.239 20.6318C21.3006 20.8139 21.4256 21.2071 21.2918 21.63C21.1444 22.0964 20.7787 22.4616 20.3122 22.6085C19.8891 22.7417 19.4961 22.6164 19.314 22.5545C19.1033 22.483 18.8494 22.3712 18.5873 22.2559L11.9962 19.3558L5.40519 22.2558C5.14302 22.3712 4.88912 22.483 4.6784 22.5545C4.49633 22.6164 4.10331 22.7417 3.68024 22.6085C3.21368 22.4616 2.84807 22.0964 2.70059 21.63C2.56686 21.2071 2.69178 20.8139 2.75339 20.6318C2.8247 20.421 2.93616 20.167 3.05124 19.9047L10.3478 3.26854C10.3527 3.25736 10.3576 3.24618 10.3625 3.23501C10.4654 3.00031 10.5679 2.76638 10.6681 2.58421C10.76 2.41706 10.9529 2.08891 11.3263 1.90254ZM12.1736 19.2786C12.1737 19.2785 12.1737 19.2785 12.1736 19.2786V19.2786ZM11.9962 4.48946L5.10421 20.2032L11.2713 17.4897C11.278 17.4867 11.2858 17.4833 11.2945 17.4794C11.3794 17.4413 11.5548 17.3625 11.7486 17.3301C11.9126 17.3027 12.0799 17.3027 12.2438 17.3301C12.4376 17.3625 12.6131 17.4413 12.698 17.4794C12.7067 17.4833 12.7144 17.4867 12.7211 17.4897L18.8882 20.2032L11.9962 4.48946Z" fill="#1B2631"/>
</svg>
