<svg width="24" height="24" viewBox="0 0 24 24" fill="none" xmlns="http://www.w3.org/2000/svg">
<path fill-rule="evenodd" clip-rule="evenodd" d="M20.2391 3.76063L11.7005 7.09273C11.1861 7.29351 10.6062 7.03919 10.4054 6.5247C10.2046 6.0102 10.459 5.43036 10.9735 5.22958L19.9709 1.71838C20.2096 1.62518 20.4475 1.53229 20.6472 1.4743C20.8303 1.42109 21.1988 1.32547 21.5946 1.45769C22.0417 1.60706 22.3926 1.95797 22.542 2.40512C22.6742 2.80089 22.5786 3.16935 22.5254 3.35253C22.4674 3.55217 22.3745 3.79009 22.2813 4.0288L18.7589 13.0549C18.5582 13.5694 17.9783 13.8237 17.4638 13.6229C16.9493 13.4221 16.695 12.8423 16.8958 12.3278L20.2391 3.76063ZM2.29241 2.29306C2.68294 1.90254 3.3161 1.90254 3.70663 2.29306L8.25832 6.84476C8.30435 6.8831 8.34717 6.92579 8.38607 6.97251L17.0662 15.6526C17.0841 15.6693 17.1014 15.6866 17.118 15.7045L21.7066 20.2931C22.0972 20.6836 22.0972 21.3168 21.7066 21.7073C21.3161 22.0978 20.6829 22.0978 20.2924 21.7073L16.7606 18.1755L15.6639 20.9859C15.5598 21.2528 15.459 21.5112 15.3604 21.7106C15.2751 21.883 15.0855 22.2493 14.6919 22.4538C14.2578 22.6793 13.741 22.679 13.3072 22.453C12.9139 22.2481 12.7246 21.8815 12.6396 21.709C12.5412 21.5095 12.4407 21.2509 12.3369 20.9839L9.72699 14.2727L3.01575 11.6628C2.74879 11.559 2.49024 11.4585 2.29065 11.3601C2.11819 11.2751 1.75163 11.0858 1.54668 10.6924C1.32067 10.2587 1.32036 9.7419 1.54586 9.30784C1.75035 8.91423 2.11669 8.72455 2.28905 8.63932C2.48852 8.54069 2.74695 8.43988 3.01379 8.33579C3.02552 8.33121 3.03727 8.32662 3.04904 8.32203L5.82419 7.23905L2.29241 3.70728C1.90189 3.31675 1.90189 2.68359 2.29241 2.29306ZM7.36844 8.78331L4.25438 9.99855L10.5339 12.4406C10.5407 12.4432 10.5487 12.4463 10.5576 12.4497C10.6446 12.4828 10.8243 12.5512 10.9843 12.6653C11.1196 12.7618 11.2379 12.8801 11.3344 13.0154C11.4485 13.1753 11.5169 13.3551 11.55 13.4421C11.5534 13.451 11.5564 13.4589 11.5591 13.4658L14.0011 19.7453L15.2164 16.6312L7.36844 8.78331ZM9.90698 14.3435C9.90709 14.3436 9.90711 14.3436 9.90698 14.3435V14.3435Z" fill="#1B2631"/>
</svg>
