<svg width="24" height="24" viewBox="0 0 24 24" fill="none" xmlns="http://www.w3.org/2000/svg">
<path fill-rule="evenodd" clip-rule="evenodd" d="M11.597 1.18492C11.8628 1.13025 12.137 1.13025 12.4028 1.18492C12.7101 1.24812 12.9847 1.40195 13.203 1.52424C13.2234 1.53563 13.2432 1.54674 13.2626 1.55749L12.7844 2.41811L13.2626 1.55749L20.6626 5.6686C20.683 5.67996 20.7041 5.69157 20.7257 5.70347C20.9568 5.83078 21.2474 5.99085 21.4706 6.23303L21.1561 6.52284L21.4706 6.23303C21.6636 6.44241 21.8096 6.69057 21.8989 6.96092C22.0022 7.27362 22.001 7.60541 22.0001 7.86928C22 7.89394 21.9999 7.91801 21.9999 7.94141V13C21.9999 13.5522 21.5522 14 20.9999 14C20.4476 14 19.9999 13.5522 19.9999 13V8.69943L17.0027 10.3645C16.9919 10.3708 16.981 10.3769 16.9699 10.3827L12.9999 12.5883L12.9999 20.3005L13.5142 20.0147C13.997 19.7465 14.6058 19.9204 14.874 20.4032C15.1423 20.886 14.9683 21.4948 14.4855 21.763L13.2626 22.4424C13.2432 22.4532 13.2234 22.4643 13.203 22.4757C12.9847 22.598 12.7101 22.7518 12.4028 22.815C12.137 22.8697 11.8628 22.8697 11.597 22.815C11.2897 22.7518 11.0151 22.598 10.7967 22.4757C10.7764 22.4643 10.7565 22.4532 10.7372 22.4424L3.33721 18.3313C3.31676 18.32 3.29568 18.3084 3.27408 18.2965C3.04295 18.1692 2.75232 18.0091 2.52915 17.7669C2.3362 17.5575 2.19018 17.3094 2.10085 17.039C1.99753 16.7263 1.99874 16.3945 1.9997 16.1306C1.99979 16.106 1.99988 16.0819 1.99988 16.0585V7.94141C1.99988 7.91801 1.99979 7.89394 1.9997 7.86928C1.99874 7.60541 1.99753 7.27363 2.10085 6.96093C2.19017 6.69057 2.3362 6.44241 2.52915 6.23303C2.75232 5.99085 3.04294 5.83078 3.27406 5.70348C3.29567 5.69158 3.31675 5.67997 3.33721 5.6686L3.33721 5.6686L6.99892 3.63432C7.0085 3.62879 7.01816 3.62342 7.0279 3.61822L10.7372 1.55749C10.7565 1.54675 10.7764 1.53563 10.7967 1.52424C11.0151 1.40195 11.2897 1.24812 11.597 1.18492ZM7.49988 5.64392L5.05902 6.99996L11.9998 10.856L14.4407 9.49994L7.49988 5.64392ZM16.4998 8.35598L9.55901 4.49996L11.7085 3.3058C11.86 3.22161 11.9374 3.17908 11.9951 3.15124C11.9968 3.15044 11.9984 3.14968 11.9999 3.14895C12.0014 3.14968 12.003 3.15044 12.0047 3.15124C12.0624 3.17907 12.1397 3.22161 12.2913 3.3058L18.9407 6.99994L16.4998 8.35598ZM10.9999 12.5883L3.99988 8.69947V16.0585C3.99988 16.2415 4.0003 16.3351 4.00438 16.403C4.0045 16.405 4.00462 16.4069 4.00474 16.4087C4.00628 16.4097 4.0079 16.4107 4.00959 16.4118C4.06688 16.4483 4.14855 16.4942 4.30849 16.583L3.82285 17.4572L4.3085 16.583L10.9999 20.3004L10.9999 12.5883ZM14.9999 18C14.9999 17.4477 15.4476 17 15.9999 17H21.9999C22.5522 17 22.9999 17.4477 22.9999 18C22.9999 18.5522 22.5522 19 21.9999 19H15.9999C15.4476 19 14.9999 18.5522 14.9999 18Z" fill="#1B2631"/>
</svg>
