<svg width="24" height="24" viewBox="0 0 24 24" fill="none" xmlns="http://www.w3.org/2000/svg">
<path fill-rule="evenodd" clip-rule="evenodd" d="M14.382 1.51207C14.7837 1.38156 15.2164 1.38156 15.6181 1.51207C15.9078 1.60621 16.1297 1.76578 16.3045 1.91421C16.4637 2.04938 16.6375 2.2232 16.816 2.40169L21.5984 7.1841C21.7768 7.36252 21.9506 7.53628 22.0858 7.69548C22.2342 7.87033 22.3938 8.09222 22.4879 8.38194C22.6184 8.78362 22.6184 9.21632 22.4879 9.618C22.3938 9.90772 22.2342 10.1296 22.0858 10.3045C21.9506 10.4637 21.7768 10.6375 21.5983 10.8159L20.8159 11.5983C20.6375 11.7768 20.4637 11.9506 20.3045 12.0857C20.1297 12.2342 19.9078 12.3937 19.6181 12.4879C19.3229 12.5838 19.011 12.6092 18.707 12.5642L17.681 17.6943C17.676 17.7191 17.671 17.7447 17.6658 17.7709C17.6112 18.05 17.5425 18.4006 17.3618 18.7032C17.2057 18.9645 16.992 19.1868 16.7371 19.353C16.4419 19.5455 16.0942 19.628 15.8175 19.6936C15.7915 19.6998 15.7662 19.7058 15.7415 19.7118L2.23466 22.9721C1.89602 23.0538 1.53925 22.9534 1.29291 22.7071C1.04658 22.4607 0.946197 22.104 1.02794 21.7653L4.28821 8.25847C4.29416 8.23383 4.30018 8.20846 4.30635 8.18246C4.37199 7.90577 4.45447 7.55813 4.64696 7.26293C4.81322 7.00796 5.03548 6.79429 5.29681 6.63822C5.59937 6.45753 5.95 6.38883 6.22905 6.33415C6.25527 6.32901 6.28087 6.324 6.30573 6.31903L11.4358 5.29301C11.3908 4.98898 11.4162 4.67709 11.5121 4.38194C11.6063 4.09222 11.7658 3.87033 11.9143 3.69548C12.0494 3.53627 12.2232 3.36249 12.4017 3.18405L13.1615 2.42424L13.1841 2.40169C13.3625 2.2232 13.5363 2.04938 13.6955 1.91421C13.8704 1.76578 14.0923 1.60621 14.382 1.51207ZM12.6713 7.08551L6.69796 8.28019C6.50429 8.31892 6.40448 8.33936 6.33313 8.35842C6.33095 8.35901 6.32887 8.35957 6.32688 8.36011C6.32626 8.36208 6.32561 8.36414 6.32494 8.36629C6.30308 8.43683 6.27872 8.53577 6.23238 8.72775L3.80604 18.7797L8.29239 14.2934C8.10497 13.9018 8.00002 13.4631 8.00002 13C8.00002 11.3431 9.34316 9.99997 11 9.99997C12.6569 9.99997 14 11.3431 14 13C14 14.6568 12.6569 16 11 16C10.5369 16 10.0982 15.895 9.7066 15.7076L5.22025 20.194L15.2722 17.7676C15.4642 17.7213 15.5632 17.6969 15.6337 17.675C15.6359 17.6744 15.6379 17.6737 15.6399 17.6731C15.6404 17.6711 15.641 17.669 15.6416 17.6669C15.6606 17.5955 15.6811 17.4957 15.7198 17.302L16.9145 11.3286L12.6713 7.08551ZM10.3054 13.7194C10.4853 13.8931 10.7302 14 11 14C11.5523 14 12 13.5523 12 13C12 12.4477 11.5523 12 11 12C10.4477 12 10 12.4477 10 13C10 13.2698 10.1069 13.5147 10.2806 13.6946C10.2848 13.6986 10.289 13.7027 10.2931 13.7069C10.2973 13.711 10.3014 13.7152 10.3054 13.7194ZM15 3.43037C14.9968 3.43304 14.9934 3.43587 14.9899 3.43889C14.9007 3.51459 14.7854 3.62877 14.5758 3.83845L13.8385 4.57571C13.6288 4.78538 13.5146 4.90066 13.4389 4.98984C13.4359 4.99339 13.4331 4.99677 13.4304 4.99997C13.4331 5.00318 13.4359 5.00655 13.4389 5.0101C13.5146 5.09928 13.6288 5.21456 13.8385 5.42423L18.5758 10.1615C18.7854 10.3712 18.9007 10.4854 18.9899 10.5611C18.9934 10.5641 18.9968 10.5669 19 10.5696C19.0032 10.5669 19.0066 10.5641 19.0102 10.5611C19.0993 10.4853 19.2146 10.3712 19.4243 10.1615L20.1615 9.42424C20.3712 9.21456 20.4854 9.09928 20.5611 9.0101C20.5641 9.00656 20.5669 9.00317 20.5696 8.99996C20.5669 8.99676 20.5641 8.99339 20.5611 8.98984C20.4854 8.90066 20.3712 8.78538 20.1615 8.57571L15.4243 3.83845C15.2146 3.62877 15.0993 3.51459 15.0102 3.43889C15.0066 3.43587 15.0032 3.43304 15 3.43037Z" fill="#1B2631"/>
</svg>
