<svg width="24" height="24" viewBox="0 0 24 24" fill="none" xmlns="http://www.w3.org/2000/svg">
<path d="M2.03165 22.9627C1.72216 22.9627 1.51583 22.8595 1.3095 22.6532C1.20633 22.55 1.10317 22.4468 1.10317 22.3437C1.10317 22.2405 1 22.2405 1 22.1373C1 21.931 1 21.7247 1.10317 21.6215L3.26964 15.9474C3.47597 15.4316 3.47597 15.2253 3.57913 15.0189C3.6823 14.8126 3.78546 14.6063 3.99179 14.3999C4.09496 14.1936 4.30129 14.0904 4.61079 13.781L16.2685 2.12327C17.7128 0.678961 20.3951 0.678961 21.8394 2.12327C23.3869 3.67075 23.3869 6.14672 21.8394 7.6942L10.1817 19.3519C9.87221 19.6614 9.66588 19.8677 9.56272 19.9709C9.35639 20.074 9.15006 20.2804 8.94373 20.3835C8.7374 20.4867 8.53107 20.5899 8.1184 20.693L2.34115 22.8595C2.23798 22.9627 2.13482 22.9627 2.03165 22.9627ZM5.02345 17.0822L3.88863 20.1772L6.98359 19.0424L5.02345 17.0822ZM6.0551 15.2253C6.15826 15.3284 6.15826 15.3284 6.26143 15.4316L8.63423 17.8044C8.7374 17.9076 8.7374 17.9076 8.84056 18.0107L20.3951 6.24989C21.1172 5.52773 21.1172 4.28975 20.3951 3.56759C19.6729 2.84543 18.4349 2.84543 17.7128 3.56759L6.0551 15.2253Z" fill="#1B2631"/>
</svg>
