<svg width="24" height="24" viewBox="0 0 24 24" fill="none" xmlns="http://www.w3.org/2000/svg">
<path d="M2.03165 22.9626C1.72216 22.9626 1.51583 22.8594 1.3095 22.6531C1.20633 22.5499 1.10317 22.4468 1.10317 22.3436C1.10317 22.2404 1 22.2404 1 22.1373C1 21.931 1 21.7246 1.10317 21.6215L3.26964 15.9474C3.47597 15.4315 3.47597 15.2252 3.57913 15.0189C3.6823 14.8125 3.78546 14.6062 3.99179 14.3999C4.09496 14.1936 4.30129 14.0904 4.61079 13.7809L16.2685 2.12321C17.7128 0.678899 20.3951 0.678899 21.8394 2.12321C23.3869 3.67069 23.3869 6.14666 21.8394 7.69414L10.1817 19.3518C9.87221 19.6613 9.66588 19.8676 9.56272 19.9708C9.35639 20.074 9.15006 20.2803 8.94373 20.3835C8.7374 20.4866 8.53107 20.5898 8.1184 20.693L2.34115 22.8594C2.23798 22.9626 2.13482 22.9626 2.03165 22.9626ZM5.02345 17.0822L3.88863 20.1771L6.98359 19.0423L5.02345 17.0822ZM6.0551 15.2252C6.15826 15.3284 6.15826 15.3284 6.26143 15.4315L8.63423 17.8043C8.7374 17.9075 8.7374 17.9075 8.84056 18.0107L20.3951 6.24983C21.1172 5.52767 21.1172 4.28968 20.3951 3.56753C19.6729 2.84537 18.4349 2.84537 17.7128 3.56753L6.0551 15.2252ZM21.1172 22.4468H12.864C12.245 22.4468 11.8324 22.0341 11.8324 21.4151C11.8324 20.7961 12.245 20.3835 12.864 20.3835H21.1172C21.7362 20.3835 22.1489 20.7961 22.1489 21.4151C22.1489 22.0341 21.7362 22.4468 21.1172 22.4468Z" fill="#1B2631"/>
</svg>
