<svg width="24" height="24" viewBox="0 0 24 24" fill="none" xmlns="http://www.w3.org/2000/svg">
<path fill-rule="evenodd" clip-rule="evenodd" d="M11.5035 1.54832C11.8296 1.46469 12.1715 1.46469 12.4975 1.54832C12.8756 1.64532 13.1986 1.88188 13.4561 2.07047C13.4805 2.08836 13.5044 2.10583 13.5276 2.1227L21.6462 8.01463C21.6695 8.03154 21.6936 8.04883 21.7182 8.06655C21.9778 8.25323 22.3034 8.48741 22.513 8.81745C22.6937 9.10203 22.7995 9.42767 22.8207 9.76412C22.8452 10.1543 22.7195 10.5352 22.6193 10.8388C22.6098 10.8676 22.6005 10.8958 22.5916 10.9231L19.4913 20.4543C19.4824 20.4816 19.4734 20.5098 19.4641 20.5386C19.3666 20.8428 19.2443 21.2243 18.9953 21.5252C18.7806 21.7847 18.5038 21.9857 18.1906 22.1096C17.8275 22.2534 17.4268 22.2516 17.1074 22.2503C17.0771 22.2501 17.0475 22.25 17.0188 22.25H6.98224C6.9535 22.25 6.92391 22.2501 6.8936 22.2503C6.57422 22.2516 6.17357 22.2534 5.8104 22.1096C5.49725 21.9857 5.22047 21.7847 5.00573 21.5252C4.7567 21.2243 4.63442 20.8428 4.53693 20.5386C4.52768 20.5098 4.51865 20.4816 4.50976 20.4543L1.40947 10.9231C1.40056 10.8958 1.39128 10.8676 1.38177 10.8388C1.28155 10.5352 1.15583 10.1543 1.18035 9.76412C1.20149 9.42767 1.30734 9.10203 1.48805 8.81745C1.69762 8.48741 2.02325 8.25323 2.28284 8.06655C2.30748 8.04883 2.33153 8.03154 2.35482 8.01463L10.4734 2.1227C10.4966 2.10583 10.5205 2.08836 10.5449 2.07047C10.8024 1.88188 11.1254 1.64532 11.5035 1.54832ZM11.9938 3.49831C11.9224 3.54294 11.828 3.6108 11.6481 3.74136L3.52954 9.63329C3.34931 9.76408 3.25531 9.83298 3.19063 9.88714C3.18852 9.88891 3.18651 9.8906 3.1846 9.89222C3.18519 9.89465 3.18582 9.8972 3.18649 9.89987C3.20697 9.98171 3.24249 10.0927 3.31138 10.3045L6.41167 19.8356C6.48048 20.0471 6.51701 20.1576 6.54855 20.2358C6.54958 20.2383 6.55057 20.2407 6.55152 20.243C6.554 20.2432 6.55662 20.2434 6.55936 20.2436C6.64342 20.2494 6.75981 20.25 6.98224 20.25H17.0188C17.2412 20.25 17.3576 20.2494 17.4417 20.2436C17.4444 20.2434 17.447 20.2432 17.4495 20.243C17.4505 20.2407 17.4515 20.2383 17.4525 20.2358C17.484 20.1576 17.5206 20.0471 17.5894 19.8356L20.6897 10.3045C20.7585 10.0927 20.7941 9.98171 20.8145 9.89987C20.8152 9.8972 20.8158 9.89465 20.8164 9.89222C20.8145 9.8906 20.8125 9.88891 20.8104 9.88714C20.7457 9.83298 20.6517 9.76408 20.4715 9.63328L12.3529 3.74136C12.173 3.6108 12.0786 3.54294 12.0072 3.49831C12.0049 3.49686 12.0026 3.49548 12.0005 3.49418C11.9984 3.49548 11.9962 3.49686 11.9938 3.49831Z" fill="#1B2631"/>
</svg>
