<svg width="24" height="24" viewBox="0 0 24 24" fill="none" xmlns="http://www.w3.org/2000/svg">
<path fill-rule="evenodd" clip-rule="evenodd" d="M7.0688 1.87976L18.7437 4.47419C19.1629 4.56733 19.5289 4.64864 19.8296 4.73904C20.1502 4.8354 20.4618 4.95997 20.7536 5.17022C21.1951 5.4883 21.5418 5.92049 21.7566 6.42051C21.8985 6.75101 21.9525 7.08214 21.977 7.41602C22 7.72921 22 8.10408 22 8.53353V15.4664C22 15.8959 22 16.2707 21.977 16.5839C21.9525 16.9178 21.8985 17.249 21.7566 17.5795C21.5418 18.0795 21.1951 18.5117 20.7536 18.8297C20.4618 19.04 20.1502 19.1646 19.8296 19.2609C19.5289 19.3513 19.1629 19.4326 18.7437 19.5258L7.06886 22.1202C6.43915 22.2601 5.90361 22.3792 5.46149 22.4374C5.00142 22.498 4.53052 22.5106 4.06151 22.3562C3.3743 22.1298 2.79204 21.6628 2.42201 21.041C2.16948 20.6167 2.07964 20.1543 2.03901 19.692C1.99997 19.2478 1.99998 18.6992 2 18.0541L2 12.0005L2 5.94581C1.99998 5.30076 1.99997 4.75217 2.03901 4.30796C2.07964 3.8457 2.16948 3.38327 2.42201 2.95894C2.79204 2.33719 3.3743 1.87012 4.06151 1.64378C4.53052 1.48931 5.00142 1.50193 5.46149 1.56254C5.9036 1.62079 6.43912 1.73981 7.0688 1.87976ZM4 13L4 18.0108C4 18.711 4.00091 19.1708 4.03133 19.5169C4.06103 19.8548 4.11187 19.9698 4.14067 20.0182C4.26402 20.2254 4.4581 20.3811 4.68717 20.4566C4.74067 20.4742 4.86391 20.4989 5.20024 20.4545C5.54467 20.4092 5.99373 20.3103 6.67725 20.1584L9 19.6422V13H4ZM9 11H4V5.98915C4 5.28895 4.00091 4.82915 4.03133 4.48308C4.06103 4.14514 4.11187 4.03018 4.14067 3.98179C4.26402 3.77454 4.4581 3.61885 4.68717 3.5434C4.74067 3.52578 4.86391 3.50109 5.20024 3.54541C5.54467 3.59078 5.99373 3.68964 6.67725 3.84154L9 4.3577V11ZM11 13V19.1978L15 18.3089V13H11ZM15 11H11V4.80215L15 5.69104V11ZM17 13V17.8645L18.2772 17.5806C18.7385 17.4781 19.032 17.4123 19.2539 17.3456C19.4638 17.2825 19.5427 17.2372 19.5845 17.207C19.7317 17.101 19.8473 16.9569 19.9189 16.7902C19.9392 16.7428 19.9663 16.656 19.9824 16.4374C19.9994 16.2063 20 15.9055 20 15.433V13H17ZM20 11H17V6.13548L18.2772 6.41932C18.7385 6.52182 19.032 6.58767 19.2539 6.65439C19.4638 6.71747 19.5427 6.76279 19.5845 6.79295C19.7317 6.89898 19.8473 7.04305 19.9189 7.20972C19.9392 7.25714 19.9663 7.34394 19.9824 7.56251C19.9994 7.79367 20 8.09443 20 8.56693V11Z" fill="#1B2631"/>
</svg>
