<svg width="24" height="24" viewBox="0 0 24 24" fill="none" xmlns="http://www.w3.org/2000/svg">
<path fill-rule="evenodd" clip-rule="evenodd" d="M16.0557 21.8806C12.8625 20.9743 9.84956 19.2639 7.33792 16.7523C4.82628 14.2406 3.11593 11.2277 2.2096 8.03448C2.20423 8.01555 2.19889 7.99679 2.1936 7.97817C2.0461 7.45916 1.93171 7.05669 1.93007 6.50479C1.92819 5.87402 2.1337 5.08378 2.44263 4.53384C2.97391 3.58807 4.11467 2.37601 5.1 1.87764C5.95134 1.44704 6.95674 1.44704 7.80808 1.87764C8.65032 2.30364 9.58831 3.2572 10.1112 4.06146C10.7577 5.0558 10.7577 6.33767 10.1112 7.33201C9.93798 7.59846 9.69105 7.84497 9.40439 8.13114C9.31513 8.22025 9.21688 8.28464 9.28212 8.42053C9.92995 9.76981 10.8134 11.0354 11.9341 12.1561C13.0548 13.2768 14.3204 14.1603 15.6697 14.8081C15.8104 14.8756 15.8658 14.7792 15.9591 14.6858C16.2452 14.3991 16.4917 14.1522 16.7582 13.979C17.7525 13.3325 19.0344 13.3325 20.0287 13.979C20.8115 14.4879 21.7899 15.4465 22.2126 16.2821C22.6432 17.1335 22.6432 18.1389 22.2126 18.9902C21.7142 19.9755 20.5021 21.1163 19.5564 21.6476C19.0064 21.9565 18.2162 22.162 17.5854 22.1601C17.0335 22.1585 16.631 22.0441 16.112 21.8966C16.0934 21.8913 16.0746 21.886 16.0557 21.8806Z" fill="white"/>
</svg>
