<svg width="24" height="24" viewBox="0 0 24 24" fill="none" xmlns="http://www.w3.org/2000/svg">
<path d="M19.5 22H19.3C19 22 18.9 22 18.8 22C17.4 21.9 16.3 20.7 16.1 19.3C16.1 19.2 16.1 19 16.1 18.8C13.5 17.8 10.7 17.8 8.1 18.7C8.1 19.1 8.1 19.2 8.1 19.3C8 20.7 6.8 21.8 5.4 22C5.3 22 5.1 22 4.9 22H4.5C4 22 3.7 22 3.4 21.9C2.2 21.7 1.3 20.7 1 19.5C1 19.3 1 19 1 18.5V18.3C1 17.8 1 17.5 1.1 17.1C1.3 16.3 1.8 15.3 2.5 14.8C2.8 14.6 3 14.4 3.3 14.3C8.6 11.3 15.5 11.3 20.8 14.3C21.1 14.5 21.3 14.6 21.6 14.8C22.3 15.3 22.8 16.3 23 17.1C23.1 17.5 23.1 17.8 23.1 18.3V18.5C23.1 19 23.1 19.3 23 19.6C22.8 20.8 21.8 21.7 20.6 22C20.3 22 20 22 19.5 22ZM12 14C9.3 14 6.6 14.7 4.2 16C3.9 16.2 3.8 16.2 3.7 16.3C3.4 16.5 3.1 17.1 3 17.5C3 17.7 3 17.8 3 18.3V18.5C3 18.9 3 19.1 3 19.2C3.1 19.6 3.4 19.9 3.8 20C3.9 20 4.1 20 4.5 20H4.7C4.9 20 5 20 5 20C5.5 20 5.9 19.6 5.9 19.1C5.9 19 5.9 18.9 5.9 18.8C5.9 18.7 5.9 18.6 5.9 18.6C6 17.9 6.4 17.2 7.1 16.9C7.2 16.9 7.2 16.9 7.3 16.8C10.3 15.8 13.6 15.8 16.6 16.8C16.7 16.8 16.7 16.8 16.8 16.9C17.5 17.2 17.9 17.9 18 18.6C18 18.7 18 18.7 18 18.8C18 19 18 19.1 18 19.1C18 19.6 18.4 20 18.9 20C19 20 19.1 20 19.2 20H19.4C19.8 20 20 20 20.1 20C20.5 19.9 20.8 19.6 20.9 19.2C20.9 19.1 20.9 18.9 20.9 18.5V18.3C20.9 17.8 20.9 17.7 20.9 17.5C20.8 17.1 20.5 16.6 20.2 16.3C20.1 16.2 20 16.1 19.7 16C17.4 14.7 14.7 14 12 14ZM16.5 10C16.2 10 16 9.9 15.8 9.7C14.8 8.6 13.4 8 12 8C10.6 8 9.2 8.6 8.3 9.7C7.9 10.1 7.3 10.1 6.9 9.8C6.5 9.4 6.5 8.8 6.8 8.4C8.1 6.9 10 6 12 6C14 6 15.9 6.9 17.2 8.3C17.6 8.7 17.5 9.3 17.1 9.7C16.9 9.9 16.7 10 16.5 10ZM19.1 7C18.8 7 18.6 6.9 18.4 6.7C16.7 5 14.4 4 12 4C9.6 4 7.3 5 5.6 6.7C5.2 7.1 4.6 7.1 4.2 6.7C3.8 6.3 3.8 5.7 4.2 5.3C6.2 3.2 9 2 12 2C15 2 17.8 3.2 19.9 5.3C20.3 5.7 20.3 6.3 19.9 6.7C19.6 6.9 19.4 7 19.1 7Z" fill="white"/>
</svg>
