<svg width="24" height="24" viewBox="0 0 24 24" fill="none" xmlns="http://www.w3.org/2000/svg">
<path fill-rule="evenodd" clip-rule="evenodd" d="M13.0558 1.88968C13.1168 1.34077 13.6112 0.945223 14.1601 1.0062C16.4148 1.25669 18.5174 2.2664 20.1226 3.86954C21.7277 5.47269 22.7401 7.57399 22.9934 9.82842C23.0551 10.3773 22.6602 10.8722 22.1113 10.9338C21.5625 10.9955 21.0676 10.6006 21.0059 10.0518C20.8033 8.2482 19.9934 6.56717 18.7092 5.28465C17.4251 4.00213 15.743 3.19436 13.9392 2.99397C13.3903 2.93299 12.9948 2.43858 13.0558 1.88968ZM5.90502 4.6623C5.62124 4.51877 5.2861 4.51877 5.00232 4.6623C4.8956 4.71628 4.76256 4.83155 4.17554 5.41857L4.0179 5.5762C3.45769 6.13642 3.30668 6.29844 3.18597 6.51333C3.04606 6.76239 2.92884 7.21314 2.92969 7.49881C2.93045 7.75302 2.96798 7.9061 3.13324 8.48836C3.94884 11.3619 5.48744 14.0737 7.75177 16.338C10.0161 18.6024 12.7279 20.141 15.6014 20.9566C16.1837 21.1218 16.3368 21.1593 16.591 21.1601C16.8767 21.161 17.3274 21.0437 17.5765 20.9038C17.7914 20.7831 17.9534 20.6321 18.5136 20.0719L18.6712 19.9143C19.2582 19.3272 19.3735 19.1942 19.4275 19.0875C19.571 18.8037 19.571 18.4686 19.4275 18.1848C19.3735 18.0781 19.2583 17.945 18.6712 17.358L18.4764 17.1631C18.0907 16.7774 18.0039 16.6984 17.9382 16.6557C17.6067 16.4402 17.1795 16.4402 16.848 16.6557C16.7823 16.6984 16.6955 16.7774 16.3098 17.1631C16.3022 17.1707 16.2944 17.1786 16.2864 17.1866C16.1967 17.2767 16.0831 17.3907 15.9466 17.4884L15.3644 16.6753L15.9466 17.4884C15.4596 17.8371 14.7976 17.95 14.2226 17.7824C14.0622 17.7356 13.9302 17.672 13.8275 17.6225C13.8193 17.6185 13.8114 17.6147 13.8037 17.611C12.2537 16.8668 10.802 15.8527 9.51953 14.5703C8.23706 13.2878 7.22297 11.8361 6.4788 10.2861C6.47507 10.2784 6.47124 10.2704 6.46733 10.2623C6.41782 10.1596 6.35419 10.0276 6.30744 9.86725L7.26748 9.58739L6.30744 9.86725C6.13981 9.29221 6.25271 8.63015 6.60141 8.14316L6.60142 8.14316C6.69911 8.00672 6.81314 7.89311 6.9032 7.80337C6.91122 7.79538 6.91906 7.78758 6.92667 7.77996C7.31238 7.39425 7.39136 7.30753 7.43409 7.24179L7.4341 7.24179C7.64959 6.91035 7.64959 6.48306 7.4341 6.15161L8.27247 5.60652L7.4341 6.15161C7.39136 6.08588 7.31238 5.99915 6.92667 5.61344L6.7318 5.41857C6.14478 4.83155 6.01174 4.71628 5.90502 4.6623ZM4.09963 2.87761C4.95097 2.447 5.95637 2.447 6.80771 2.87761C7.2403 3.09641 7.61586 3.47292 8.0503 3.90848C8.08188 3.94014 8.11377 3.97211 8.14601 4.00436L8.34088 4.19923C8.36213 4.22047 8.38318 4.24149 8.40402 4.26229C8.69068 4.54847 8.93761 4.79498 9.11085 5.06143L8.31397 5.57954L9.11085 5.06143C9.75734 6.05576 9.75734 7.33764 9.11085 8.33197C8.93761 8.59842 8.69068 8.84493 8.40403 9.1311C8.38318 9.15191 8.36213 9.17293 8.34088 9.19417C8.28328 9.25178 8.25389 9.28133 8.23342 9.30298C8.23304 9.30461 8.23268 9.30641 8.23235 9.30836C8.23198 9.31053 8.23171 9.31254 8.23151 9.31435C8.23481 9.32166 8.23927 9.33133 8.24542 9.34439C8.25503 9.36482 8.26632 9.38836 8.28176 9.4205C8.92958 10.7698 9.81307 12.0354 10.9337 13.156C12.0544 14.2767 13.32 15.1602 14.6693 15.808L14.2365 16.7095L14.6693 15.808C14.7014 15.8235 14.725 15.8348 14.7454 15.8444C14.7585 15.8505 14.7681 15.855 14.7754 15.8583C14.7773 15.8581 14.7793 15.8578 14.7814 15.8575C14.7834 15.8571 14.7852 15.8568 14.7868 15.8564C14.8085 15.8359 14.838 15.8065 14.8956 15.7489C14.9169 15.7277 14.9379 15.7066 14.9587 15.6858C15.2449 15.3991 15.4914 15.1522 15.7578 14.9789C16.7522 14.3325 18.034 14.3325 19.0284 14.9789C19.2948 15.1522 19.5413 15.3991 19.8275 15.6858C19.8483 15.7066 19.8693 15.7277 19.8906 15.7489L20.0854 15.9438C20.1177 15.976 20.1497 16.0079 20.1813 16.0395C20.6169 16.4739 20.9934 16.8495 21.2122 17.2821C21.6428 18.1334 21.6428 19.1388 21.2122 19.9902C20.9934 20.4228 20.6169 20.7983 20.1813 21.2328C20.1497 21.2643 20.1177 21.2962 20.0854 21.3285L19.9278 21.4861C19.905 21.5089 19.8824 21.5315 19.8601 21.5539C19.3948 22.0196 19.0381 22.3767 18.556 22.6475C18.006 22.9565 17.2158 23.162 16.585 23.1601C16.0332 23.1585 15.6307 23.0441 15.1117 22.8966C15.0931 22.8913 15.0743 22.8859 15.0554 22.8806C11.8621 21.9742 8.84919 20.2639 6.33755 17.7522C3.82592 15.2406 2.11557 12.2277 1.20923 9.03444C1.20386 9.01551 1.19853 8.99674 1.19323 8.97813C1.04573 8.45912 0.931342 8.05665 0.9297 7.50476C0.927823 6.87399 1.13333 6.08375 1.44226 5.5338L1.44226 5.5338C1.71306 5.05174 2.07021 4.69495 2.53594 4.22969C2.55828 4.20738 2.58086 4.18482 2.60369 4.16199L2.76132 4.00436C2.79357 3.97211 2.82546 3.94014 2.85704 3.90848C3.29148 3.47293 3.66703 3.09641 4.09963 2.87761L4.55098 3.76996L4.09963 2.87761ZM13.0682 5.80859C13.1739 5.26653 13.6991 4.91284 14.2412 5.01859C15.4132 5.24727 16.4904 5.8205 17.3348 6.66492C18.1792 7.50933 18.7525 8.58651 18.9812 9.75859C19.0869 10.3007 18.7332 10.8258 18.1912 10.9316C17.6491 11.0373 17.1239 10.6836 17.0182 10.1416C16.8657 9.36019 16.4836 8.64207 15.9206 8.07913C15.3577 7.51619 14.6396 7.13403 13.8582 6.98158C13.3161 6.87582 12.9624 6.35066 13.0682 5.80859Z" fill="white"/>
</svg>
