<svg width="24" height="24" viewBox="0 0 24 24" fill="none" xmlns="http://www.w3.org/2000/svg">
<path d="M21.7071 3.70723C22.0976 3.3167 22.0976 2.68354 21.7071 2.29302C21.3166 1.90249 20.6834 1.90249 20.2929 2.29302L2.29289 20.293C1.90237 20.6835 1.90237 21.3167 2.29289 21.7072C2.68342 22.0978 3.31658 22.0978 3.70711 21.7072L8.01561 17.3987C10.3247 19.5008 13.1035 21.0415 16.1122 21.8966C16.6313 22.0441 17.0337 22.1585 17.5856 22.1602C18.2164 22.1621 19.0066 21.9565 19.5566 21.6476C20.516 21.1087 21.7181 19.9682 22.2128 18.9902C22.6434 18.1389 22.6434 17.1335 22.2128 16.2822C21.7901 15.4465 20.8117 14.4879 20.0289 13.979C19.0346 13.3325 17.7527 13.3325 16.7584 13.979C16.492 14.1523 16.2454 14.3992 15.9593 14.6858C15.9461 14.699 15.9337 14.7122 15.9217 14.7251C15.8489 14.8026 15.7897 14.8657 15.6699 14.8081C14.5885 14.2889 13.561 13.6184 12.6186 12.7957L21.7071 3.70723Z" fill="white"/>
<path d="M10.0122 9.74528C9.74243 9.31461 9.49913 8.87226 9.28225 8.42053C9.22534 8.30202 9.2928 8.23789 9.37019 8.16431C9.38154 8.15353 9.3931 8.14254 9.40451 8.13114C9.69117 7.84497 9.9381 7.59846 10.1113 7.33201C10.7578 6.33767 10.7578 5.0558 10.1113 4.06146C9.60242 3.27872 8.64386 2.30031 7.8082 1.87764C6.95686 1.44704 5.95146 1.44704 5.10012 1.87764C4.11479 2.37601 2.97403 3.58807 2.44275 4.53384C2.13382 5.08378 1.92831 5.87402 1.93019 6.5048C1.93183 7.05669 2.04622 7.45916 2.19373 7.97817C2.85325 10.2986 3.92048 12.4821 5.33848 14.419L10.0122 9.74528Z" fill="white"/>
</svg>
