<svg width="24" height="24" viewBox="0 0 24 24" fill="none" xmlns="http://www.w3.org/2000/svg">
<path d="M7.62546 20.1582C7.40338 20.7078 7.29234 20.9826 7.06753 21.1501C6.88809 21.2838 6.60454 21.364 6.38166 21.3442C6.10244 21.3194 5.89482 21.1663 5.47957 20.8602C2.76258 18.8573 1 15.6346 1 12.0002C1 11.9717 1.00011 11.9432 1.00033 11.9147C1.00426 11.3982 1.00622 11.14 1.15367 10.9016C1.27142 10.7113 1.50532 10.5326 1.71989 10.469C1.98857 10.3894 2.27519 10.4651 2.84843 10.6166L9.77061 12.4455C10.0738 12.5256 10.2253 12.5656 10.319 12.6559C10.4012 12.7352 10.4537 12.8402 10.468 12.9535C10.4842 13.0825 10.4255 13.2279 10.308 13.5186L7.62546 20.1582Z" fill="white"/>
<path d="M13.0962 2.80645C13.1024 2.21443 13.1055 1.91842 13.2535 1.68065C13.3715 1.4909 13.606 1.31263 13.8204 1.24957C14.089 1.17054 14.3379 1.23674 14.8355 1.36914C19.5365 2.61975 23 6.9055 23 12.0002C23 18.0753 18.0751 23.0002 12 23.0002C11.5032 23.0002 11.014 22.9673 10.5346 22.9035C10.024 22.8355 9.76874 22.8015 9.55056 22.6254C9.37649 22.4849 9.22809 22.23 9.19184 22.0093C9.14641 21.7326 9.25737 21.458 9.47931 20.9086L12.9272 12.3748C12.9764 12.2531 13.0005 12.1244 13 11.9961L13.0962 2.80645Z" fill="white"/>
<path d="M9.3875 1.31232C9.88795 1.19041 10.1382 1.12946 10.4051 1.21412C10.6181 1.28168 10.8487 1.46478 10.9627 1.65698C11.1056 1.89779 11.1025 2.19386 11.0963 2.78601L11.0243 9.66932C11.0206 10.0206 11.0187 10.1962 10.9446 10.3152C10.8797 10.4194 10.7786 10.4962 10.6607 10.5307C10.5262 10.5701 10.3566 10.5246 10.0173 10.4337L3.36785 8.65198C2.79567 8.49866 2.50958 8.42201 2.31598 8.21928C2.16152 8.05754 2.04724 7.78571 2.03974 7.56219C2.03033 7.28202 2.15676 7.05762 2.40961 6.6088C3.88317 3.99321 6.39579 2.04106 9.3875 1.31232Z" fill="white"/>
</svg>
