<svg width="24" height="24" viewBox="0 0 24 24" fill="none" xmlns="http://www.w3.org/2000/svg">
<path fill-rule="evenodd" clip-rule="evenodd" d="M9.14895 5.03952C9.32925 5.01883 9.71585 4.97448 10.0858 5.13145C10.3901 5.26051 10.6567 5.50174 10.8155 5.79155C10.9362 6.01186 10.9735 6.2238 10.9881 6.38223C11.0001 6.51296 11.0001 6.65922 11 6.77592C11 6.78403 11 6.792 11 6.79981V11.3998C11 11.9599 11 12.2399 11.109 12.4538C11.2049 12.642 11.3579 12.7949 11.546 12.8908C11.7599 12.9998 12.04 12.9998 12.6 12.9998H17.2C17.2078 12.9998 17.2158 12.9998 17.2239 12.9998C17.3406 12.9997 17.4869 12.9997 17.6176 13.0117C17.776 13.0264 17.988 13.0636 18.2083 13.1843C18.4981 13.3431 18.7393 13.6098 18.8684 13.914C19.0253 14.284 18.981 14.6706 18.9603 14.8509C18.9582 14.8688 18.9564 14.8847 18.955 14.8983C18.8083 16.3609 18.3049 17.7702 17.4832 18.9999C16.4943 20.48 15.0887 21.6335 13.4442 22.3147C11.7996 22.9959 9.99002 23.1741 8.24419 22.8269C6.49836 22.4796 4.89472 21.6224 3.63604 20.3638C2.37737 19.1051 1.5202 17.5015 1.17294 15.7556C0.82567 14.0098 1.0039 12.2002 1.68509 10.5557C2.36628 8.91113 3.51983 7.50552 4.99987 6.51659C6.22964 5.69488 7.63892 5.19152 9.10148 5.04477C9.11511 5.0434 9.13101 5.04158 9.14895 5.03952Z" fill="white"/>
<path fill-rule="evenodd" clip-rule="evenodd" d="M14.851 1.0395C14.869 1.04156 14.8849 1.04338 14.8985 1.04475C16.9555 1.25107 18.8892 2.16113 20.364 3.63585C21.8387 5.11057 22.7487 7.04433 22.9551 9.10131C22.9564 9.11494 22.9583 9.13084 22.9603 9.14878C22.981 9.32909 23.0253 9.71569 22.8684 10.0857C22.7393 10.3899 22.4981 10.6565 22.2083 10.8153C21.988 10.936 21.776 10.9733 21.6176 10.9879C21.4869 11 21.3406 10.9999 21.2239 10.9998C21.2158 10.9998 21.2078 10.9998 21.2 10.9998L14.8 10.9998C14.7924 10.9998 14.7847 10.9998 14.7769 10.9998C14.6578 10.9999 14.5155 10.9999 14.3902 10.9897C14.245 10.9778 14.037 10.9474 13.819 10.8363C13.5368 10.6925 13.3073 10.463 13.1635 10.1808C13.0524 9.96285 13.022 9.75486 13.0101 9.60964C12.9999 9.48432 13 9.34207 13 9.22295C13 9.21513 13 9.20742 13 9.19981V2.79981C13 2.792 13 2.78403 13 2.77592C12.9999 2.65922 12.9999 2.51295 13.0119 2.38223C13.0266 2.2238 13.0638 2.01186 13.1845 1.79155C13.3433 1.50174 13.6099 1.26052 13.9141 1.13145C14.2841 0.974471 14.6707 1.01882 14.851 1.0395Z" fill="white"/>
</svg>
