<svg width="24" height="24" viewBox="0 0 24 24" fill="none" xmlns="http://www.w3.org/2000/svg">
<path d="M13.595 1.11497C18.3935 1.81195 22.1882 5.60667 22.8852 10.4052C22.9541 10.8796 22.9886 11.1168 22.8934 11.362C22.8169 11.5589 22.6371 11.7668 22.4532 11.8707C22.2242 12.0002 21.9495 12.0002 21.4 12.0002H13.6C13.0399 12.0002 12.7599 12.0002 12.546 11.8912C12.3578 11.7953 12.2049 11.6423 12.109 11.4542C12 11.2403 12 10.9602 12 10.4002V2.60018C12 2.0507 12 1.77596 12.1295 1.54694C12.2334 1.3631 12.4413 1.18323 12.6381 1.10682C12.8834 1.01161 13.1206 1.04606 13.595 1.11497Z" fill="white"/>
<path d="M10 3.10222C10 2.46414 10 2.14511 9.83731 1.89594C9.70823 1.69827 9.44954 1.51876 9.2192 1.46702C8.92885 1.40179 8.66954 1.49866 8.15093 1.6924C3.97411 3.25276 1 7.27915 1 12.0002C1 18.0753 5.92487 23.0002 12 23.0002C16.721 23.0002 20.7474 20.0261 22.3078 15.8493C22.5015 15.3307 22.5984 15.0714 22.5332 14.781C22.4814 14.5507 22.3019 14.292 22.1042 14.1629C21.8551 14.0002 21.536 14.0002 20.898 14.0002L13.5537 14.0002C13.3155 14.0003 13.031 14.0004 12.7804 13.9799C12.4899 13.9562 12.0739 13.8953 11.6381 13.6732C11.0736 13.3856 10.6146 12.9266 10.327 12.3622C10.1049 11.9263 10.044 11.5103 10.0203 11.2198C9.99981 10.9692 9.99992 10.6847 10 10.4465L10 3.10222Z" fill="white"/>
</svg>
