<svg width="24" height="24" viewBox="0 0 24 24" fill="none" xmlns="http://www.w3.org/2000/svg">
<path fill-rule="evenodd" clip-rule="evenodd" d="M16.3838 2.41001C16.1281 2.15426 15.8905 1.91663 15.6783 1.73973C15.4562 1.55463 15.1582 1.34452 14.7683 1.26546C14.2517 1.16075 13.7147 1.26417 13.274 1.55323C12.9413 1.77146 12.7427 2.07721 12.6053 2.33153C12.4739 2.5746 12.3416 2.88347 12.1991 3.21589L11.1145 5.74668C11.0902 5.80349 11.0782 5.83119 11.0691 5.85119L11.0685 5.85255L11.0675 5.85363C11.0523 5.86951 11.031 5.89088 10.9873 5.93459L9.42641 7.49548C9.35812 7.56377 9.32438 7.59731 9.29906 7.62094L9.29725 7.62262L9.29486 7.62319C9.26115 7.63116 9.21453 7.64062 9.11982 7.65956L5.41296 8.40093C4.97327 8.48884 4.57788 8.56789 4.26752 8.66009C3.95692 8.75235 3.5557 8.9041 3.25226 9.24607C2.86413 9.68349 2.68689 10.2689 2.7672 10.8481C2.82998 11.301 3.07965 11.6498 3.2869 11.8989C3.49399 12.1477 3.77911 12.4328 4.09619 12.7499L6.96249 15.6162L2.01274 20.5659C1.62222 20.9564 1.62222 21.5896 2.01274 21.9801C2.40327 22.3706 3.03643 22.3706 3.42696 21.9801L8.37671 17.0304L11.2431 19.8968C11.5601 20.2138 11.8452 20.499 12.0941 20.7061C12.3432 20.9133 12.692 21.163 13.1448 21.2258C13.7241 21.3061 14.3095 21.1288 14.7469 20.7407C15.0889 20.4373 15.2406 20.036 15.3329 19.7254C15.4251 19.4151 15.5041 19.0197 15.592 18.58L16.3334 14.8731C16.3523 14.7784 16.3618 14.7318 16.3698 14.6981L16.3703 14.6957L16.372 14.6939C16.3956 14.6686 16.4292 14.6348 16.4975 14.5665L18.0584 13.0057C18.1021 12.9619 18.1234 12.9407 18.1393 12.9255L18.1404 12.9244L18.1418 12.9238C18.1618 12.9147 18.1895 12.9028 18.2463 12.8784L20.7771 11.7938C21.1095 11.6514 21.4184 11.519 21.6614 11.3877C21.9158 11.2503 22.2215 11.0517 22.4397 10.7189C22.7288 10.2782 22.8322 9.74123 22.7275 9.22468C22.6484 8.83471 22.4383 8.53675 22.2532 8.3147C22.0763 8.10248 21.8387 7.86489 21.5829 7.60918L16.3838 2.41001Z" fill="white"/>
</svg>
