<svg width="24" height="24" viewBox="0 0 24 24" fill="none" xmlns="http://www.w3.org/2000/svg">
<path fill-rule="evenodd" clip-rule="evenodd" d="M13.2739 1.55323C13.7146 1.26417 14.2516 1.16075 14.7681 1.26546C15.1581 1.34452 15.4561 1.55463 15.6781 1.73973C15.8903 1.91663 16.1279 2.15425 16.3836 2.41L21.5828 7.60919C21.8386 7.8649 22.0762 8.10248 22.2531 8.3147C22.4382 8.53675 22.6483 8.83471 22.7274 9.22468C22.8321 9.74123 22.7287 10.2782 22.4396 10.7189C22.2214 11.0517 21.9156 11.2503 21.6613 11.3877C21.4182 11.519 21.1093 11.6514 20.7769 11.7938L18.2461 12.8784C18.1893 12.9028 18.1616 12.9147 18.1416 12.9238C18.1412 12.924 18.1407 12.9243 18.1403 12.9244C18.1399 12.9248 18.1396 12.9251 18.1392 12.9255C18.1233 12.9407 18.1019 12.9619 18.0582 13.0057L16.4973 14.5665C16.429 14.6348 16.3955 14.6686 16.3719 14.6939C16.3713 14.6945 16.3707 14.6951 16.3702 14.6957C16.37 14.6965 16.3698 14.6973 16.3696 14.6981C16.3617 14.7318 16.3522 14.7784 16.3333 14.8731L15.5919 18.58C15.504 19.0197 15.4249 19.4151 15.3327 19.7254C15.2405 20.036 15.0887 20.4373 14.7467 20.7407C14.3093 21.1288 13.7239 21.3061 13.1447 21.2258C12.6918 21.163 12.343 20.9133 12.094 20.7061C11.8451 20.499 11.56 20.2139 11.243 19.8968L8.37659 17.0304L3.42683 21.9802C3.03631 22.3707 2.40314 22.3707 2.01262 21.9802C1.6221 21.5896 1.6221 20.9565 2.01262 20.5659L6.96238 15.6162L4.09606 12.7499C3.77897 12.4328 3.49385 12.1477 3.28676 11.8989C3.07951 11.6498 2.82984 11.301 2.76706 10.8481C2.68675 10.2689 2.86399 9.68349 3.25212 9.24607C3.55556 8.9041 3.95678 8.75235 4.26738 8.66009C4.57775 8.56789 4.97312 8.48884 5.41282 8.40093L9.11968 7.65956C9.21439 7.64062 9.26101 7.63115 9.29472 7.62319C9.29555 7.62299 9.29635 7.6228 9.29711 7.62262C9.29769 7.62208 9.29829 7.62152 9.29892 7.62094C9.32424 7.59731 9.35798 7.56377 9.42627 7.49548L10.9872 5.93459C11.0309 5.89088 11.0522 5.86951 11.0673 5.85363C11.0677 5.85325 11.068 5.85289 11.0684 5.85255C11.0686 5.85211 11.0688 5.85166 11.069 5.85119C11.0781 5.83119 11.09 5.8035 11.1144 5.74668L12.199 3.21591C12.3414 2.88348 12.4738 2.57461 12.6051 2.33153C12.7425 2.07721 12.9412 1.77146 13.2739 1.55323ZM12.6266 18.452C12.984 18.8094 13.2036 19.0276 13.3732 19.1687C13.3842 19.1778 13.3944 19.1861 13.4039 19.1937C13.4076 19.1821 13.4115 19.1695 13.4155 19.1559C13.4784 18.9444 13.5401 18.641 13.6392 18.1454L14.3721 14.4809C14.3745 14.469 14.3769 14.4568 14.3794 14.4442C14.4066 14.3065 14.441 14.133 14.507 13.9647C14.5643 13.8186 14.6386 13.6797 14.7284 13.5509C14.8318 13.4027 14.9571 13.2778 15.0566 13.1788C15.0657 13.1697 15.0745 13.1609 15.0831 13.1523L16.644 11.5914C16.6495 11.586 16.6551 11.5803 16.6609 11.5746C16.7245 11.5108 16.8046 11.4305 16.896 11.3579C16.9755 11.2947 17.0597 11.2377 17.1478 11.1874C17.2492 11.1294 17.3536 11.0849 17.4364 11.0495C17.4439 11.0463 17.4512 11.0432 17.4583 11.0401L19.9527 9.97113C20.3341 9.80766 20.5573 9.71095 20.7105 9.62815C20.7187 9.62372 20.7264 9.61951 20.7334 9.61553C20.7283 9.6092 20.7228 9.60246 20.7168 9.5953C20.6053 9.4615 20.434 9.28883 20.1406 8.99538L14.9974 3.85225C14.704 3.5588 14.5313 3.38751 14.3975 3.27598C14.3904 3.27001 14.3836 3.26448 14.3773 3.25937C14.3733 3.26647 14.3691 3.2741 14.3647 3.2823C14.2819 3.43555 14.1852 3.65872 14.0217 4.04016L12.9527 6.53452C12.9496 6.54164 12.9465 6.54895 12.9433 6.55645C12.9079 6.63927 12.8634 6.74361 12.8055 6.84498C12.7551 6.93313 12.6981 7.01732 12.635 7.09681C12.5623 7.18823 12.482 7.26836 12.4182 7.33197C12.4125 7.33771 12.4068 7.34333 12.4014 7.3488L10.8405 8.90969C10.8319 8.91828 10.8231 8.92712 10.8141 8.93618C10.715 9.03567 10.5902 9.16098 10.4419 9.26438C10.3132 9.35418 10.1743 9.42851 10.0281 9.48583C9.85986 9.55183 9.68636 9.58617 9.54861 9.61343C9.53607 9.61592 9.52383 9.61834 9.51191 9.62072L5.84745 10.3536C5.35182 10.4527 5.04844 10.5144 4.83691 10.5773C4.82328 10.5813 4.81069 10.5852 4.79907 10.5889C4.80668 10.5984 4.81501 10.6087 4.82411 10.6196C4.96525 10.7892 5.18345 11.0088 5.54086 11.3662L12.6266 18.452Z" fill="white"/>
</svg>
