<svg width="24" height="24" viewBox="0 0 24 24" fill="none" xmlns="http://www.w3.org/2000/svg">
<path fill-rule="evenodd" clip-rule="evenodd" d="M17.5999 3.9999H14.3999V2.3999H17.5999C19.809 2.3999 21.5999 4.19076 21.5999 6.3999V9.5999H19.9999V6.3999C19.9999 5.07442 18.9254 3.9999 17.5999 3.9999Z" fill="white"/>
<path fill-rule="evenodd" clip-rule="evenodd" d="M6.4001 3.9999H9.6001V2.3999H6.4001C4.19096 2.3999 2.4001 4.19076 2.4001 6.3999V9.5999H4.0001V6.3999C4.0001 5.07442 5.07461 3.9999 6.4001 3.9999Z" fill="white"/>
<path fill-rule="evenodd" clip-rule="evenodd" d="M6.4001 20.0001H9.6001V21.6001H6.4001C4.19096 21.6001 2.4001 19.8092 2.4001 17.6001V14.4001H4.0001V17.6001C4.0001 18.9256 5.07461 20.0001 6.4001 20.0001Z" fill="white"/>
<path fill-rule="evenodd" clip-rule="evenodd" d="M17.5999 20.0001H14.3999V21.6001H17.5999C19.809 21.6001 21.5999 19.8092 21.5999 17.6001V14.4001H19.9999V17.6001C19.9999 18.9256 18.9254 20.0001 17.5999 20.0001Z" fill="white"/>
</svg>
