<svg width="24" height="24" viewBox="0 0 24 24" fill="none" xmlns="http://www.w3.org/2000/svg">
<path fill-rule="evenodd" clip-rule="evenodd" d="M17.0263 2.11724C18.3796 0.719422 20.6156 0.70134 21.9914 2.07708C23.3294 3.41513 23.3543 5.57674 22.0475 6.94527L19.2688 9.85503C19.1524 9.97694 19.0935 10.0391 19.0532 10.0864C19.052 10.0878 19.0509 10.0891 19.0499 10.0903C19.0502 10.0919 19.0505 10.0936 19.0508 10.0953C19.0613 10.1566 19.0802 10.2401 19.1181 10.4043L20.846 17.8919C20.851 17.9134 20.8561 17.9355 20.8614 17.9581C20.9184 18.2012 20.9901 18.507 20.9661 18.8192C20.9453 19.0892 20.8699 19.3522 20.7444 19.5923C20.5993 19.8697 20.3764 20.091 20.1993 20.267C20.1828 20.2834 20.1667 20.2994 20.151 20.315L19.7511 20.7149C19.4732 20.9929 19.2181 21.248 18.9922 21.436C18.7595 21.6297 18.4422 21.8542 18.0279 21.9274C17.4862 22.0233 16.9289 21.8917 16.4873 21.5637C16.1495 21.3129 15.9661 20.9703 15.8446 20.693C15.7266 20.4237 15.6125 20.0815 15.4882 19.7085L13.9771 15.1752L11.7759 17.3764C11.6691 17.4832 11.6155 17.5373 11.5785 17.5783C11.5775 17.5794 11.5765 17.5805 11.5756 17.5816C11.5756 17.5829 11.5757 17.5844 11.5758 17.5859C11.5791 17.6411 11.5872 17.7167 11.6039 17.8669L11.7876 19.5203C11.7897 19.5394 11.7919 19.559 11.7942 19.579C11.819 19.7962 11.8503 20.0696 11.8067 20.3428C11.769 20.5794 11.689 20.8073 11.5707 21.0156C11.4341 21.2561 11.2389 21.4501 11.0838 21.6042C11.0695 21.6184 11.0555 21.6323 11.042 21.6459L10.8445 21.8434L10.819 21.8688C10.6045 22.0834 10.4003 22.2877 10.2151 22.443C10.0161 22.6101 9.75678 22.7935 9.41709 22.8821C8.956 23.0022 8.46715 22.9538 8.03858 22.7456C7.72285 22.5921 7.50456 22.3614 7.34212 22.1586C7.19108 21.9699 7.03087 21.7296 6.86264 21.4771L5.27432 19.0947C5.23872 19.0413 5.22129 19.0152 5.20819 18.9966C5.20788 18.9961 5.20758 18.9957 5.20729 18.9953C5.20689 18.995 5.20646 18.9947 5.20603 18.9944C5.18734 18.9813 5.16131 18.9639 5.10791 18.9283L2.72545 17.34C2.47302 17.1717 2.23265 17.0115 2.04402 16.8605C1.84115 16.698 1.61043 16.4797 1.457 16.164C1.24874 15.7354 1.20034 15.2466 1.3205 14.7855C1.40903 14.4458 1.59246 14.1865 1.75953 13.9874C1.91489 13.8023 2.11918 13.5981 2.33371 13.3836L2.55667 13.1606C2.57024 13.1471 2.58414 13.1331 2.59838 13.1187C2.75249 12.9637 2.94648 12.7685 3.18698 12.6319C3.3953 12.5136 3.62319 12.4336 3.8598 12.3959C4.13293 12.3523 4.40633 12.3835 4.62353 12.4084C4.64361 12.4106 4.6632 12.4129 4.68227 12.415L6.33566 12.5987C6.48583 12.6154 6.56149 12.6235 6.61668 12.6268C6.61819 12.6268 6.61964 12.6269 6.62103 12.627C6.62206 12.6261 6.62314 12.6251 6.62426 12.6241C6.66532 12.5871 6.71934 12.5335 6.82618 12.4266L9.02738 10.2254L4.49405 8.71434C4.12109 8.59005 3.77885 8.476 3.5096 8.35801C3.23229 8.23649 2.88966 8.05311 2.63883 7.71531C2.31087 7.27363 2.17931 6.71636 2.27513 6.17464C2.34841 5.76033 2.57286 5.44308 2.76654 5.21038C2.9546 4.98443 3.2097 4.72936 3.48771 4.4514C3.49739 4.44173 3.50709 4.43203 3.51682 4.4223L3.88759 4.05153C3.9032 4.03592 3.91919 4.01982 3.93557 4.00332C4.11153 3.82614 4.33287 3.60327 4.61031 3.45821C4.85033 3.33273 5.11334 3.2573 5.38338 3.2365C5.69553 3.21246 6.00134 3.28415 6.24446 3.34114C6.2671 3.34645 6.2892 3.35163 6.3107 3.35659L13.7698 5.07793C13.9354 5.11614 14.02 5.13527 14.082 5.14594C14.0838 5.14626 14.0856 5.14655 14.0872 5.14683C14.0885 5.14569 14.0898 5.14448 14.0912 5.14322C14.1374 5.10055 14.198 5.03855 14.3162 4.91645L17.0263 2.11724ZM20.5771 3.4913C19.9914 2.90555 19.0394 2.91325 18.4632 3.50839L15.7531 6.30761C15.738 6.32321 15.7225 6.3393 15.7066 6.35578C15.5366 6.5326 15.3229 6.75484 15.0541 6.90302C14.8004 7.04285 14.5194 7.12591 14.2305 7.14645C13.9243 7.16822 13.6241 7.09787 13.3853 7.0419C13.363 7.03669 13.3413 7.03159 13.3201 7.02671L5.86098 5.30537C5.69244 5.26648 5.60654 5.24704 5.54354 5.23628C5.54173 5.23597 5.53999 5.23568 5.53833 5.23541C5.53707 5.23652 5.53575 5.23769 5.53438 5.23891C5.48666 5.28143 5.42411 5.34343 5.3018 5.46574L4.93103 5.83651C4.61417 6.15338 4.42595 6.343 4.30377 6.48981C4.29674 6.49825 4.29026 6.50618 4.28429 6.51361C4.29295 6.51758 4.30229 6.52177 4.31236 6.52618C4.48729 6.60285 4.74044 6.68828 5.16556 6.82999L11.1948 8.83975C11.5236 8.94934 11.7722 9.22137 11.8519 9.55868C11.9315 9.89598 11.8308 10.2505 11.5857 10.4955L8.2404 13.8409C8.22683 13.8544 8.21292 13.8684 8.19868 13.8827C8.04457 14.0378 7.85059 14.233 7.61009 14.3696C7.40176 14.4879 7.17387 14.5679 6.93727 14.6056C6.66413 14.6492 6.39074 14.6179 6.17353 14.5931C6.15346 14.5908 6.13386 14.5886 6.1148 14.5865L4.46141 14.4028C4.31124 14.3861 4.23557 14.378 4.18038 14.3747C4.17888 14.3746 4.17743 14.3745 4.17604 14.3745C4.17501 14.3754 4.17393 14.3764 4.17281 14.3774C4.13175 14.4144 4.07772 14.468 3.97089 14.5748L3.77338 14.7723C3.5241 15.0216 3.38367 15.1633 3.29151 15.2731C3.28726 15.2782 3.2833 15.283 3.2796 15.2875C3.28411 15.2912 3.28894 15.2951 3.2941 15.2993C3.40601 15.3889 3.5715 15.5003 3.86482 15.6958L6.21731 17.2642C6.224 17.2686 6.23088 17.2732 6.23792 17.2779C6.31578 17.3296 6.41386 17.3948 6.50601 17.4735C6.58615 17.5418 6.66074 17.6164 6.72911 17.6966C6.80775 17.7887 6.87295 17.8868 6.92471 17.9647C6.92939 17.9717 6.93396 17.9786 6.93842 17.9853L8.50674 20.3377C8.70229 20.6311 8.8137 20.7966 8.90331 20.9085C8.90744 20.9136 8.91136 20.9185 8.91507 20.923C8.91959 20.9193 8.92438 20.9153 8.92944 20.9111C9.03926 20.8189 9.18096 20.6785 9.43023 20.4292L9.62774 20.2317C9.73458 20.1249 9.78817 20.0708 9.8252 20.0298C9.82621 20.0286 9.82718 20.0276 9.8281 20.0265C9.82802 20.0251 9.82794 20.0237 9.82785 20.0222C9.82459 19.967 9.81649 19.8913 9.79981 19.7412L9.6161 18.0878C9.61398 18.0687 9.61174 18.0491 9.60945 18.029C9.58464 17.8118 9.55342 17.5384 9.59698 17.2653C9.63472 17.0287 9.71466 16.8008 9.83299 16.5925C9.9696 16.352 10.1648 16.158 10.3198 16.0039C10.3342 15.9896 10.3481 15.9757 10.3617 15.9622L13.707 12.6169C13.9521 12.3718 14.3066 12.2711 14.6439 12.3507C14.9812 12.4303 15.2532 12.6789 15.3628 13.0077L17.3726 19.037C17.5143 19.4621 17.5997 19.7153 17.6764 19.8902C17.6808 19.9003 17.685 19.9096 17.689 19.9183C17.6964 19.9123 17.7043 19.9058 17.7128 19.8988C17.8596 19.7766 18.0492 19.5884 18.3661 19.2715L18.7368 18.9008C18.8591 18.7785 18.9211 18.7159 18.9637 18.6682C18.9649 18.6668 18.9661 18.6655 18.9672 18.6642C18.9669 18.6626 18.9666 18.6608 18.9663 18.659C18.9555 18.596 18.9361 18.5101 18.8972 18.3416L17.1693 10.854C17.1645 10.8331 17.1594 10.8116 17.1543 10.7896C17.0987 10.5525 17.0288 10.2543 17.0502 9.94926C17.0687 9.68527 17.1394 9.42758 17.2582 9.19111C17.3955 8.91784 17.6078 8.69706 17.7765 8.52156C17.7922 8.50524 17.8075 8.48932 17.8224 8.47378L20.601 5.56401C21.1575 4.98134 21.1468 4.061 20.5771 3.4913Z" fill="#1B2631"/>
</svg>
