<svg width="24" height="24" viewBox="0 0 24 24" fill="none" xmlns="http://www.w3.org/2000/svg">
<path d="M17.0199 20.6199H6.9599C6.4999 20.6199 6.1199 20.6199 5.7999 20.5999C5.4599 20.5799 5.1199 20.5199 4.7999 20.3399C4.3199 20.0999 3.9199 19.6999 3.6799 19.2199C3.5999 19.0399 3.5399 18.8599 3.4999 18.6999C3.4799 18.5999 3.4599 18.5599 3.4799 18.4799C3.4799 18.4199 3.4999 18.3599 3.5199 18.3199C3.5599 18.2599 3.5999 18.2199 3.6799 18.1399L8.5799 13.2399L10.0799 14.7399C10.0799 14.7399 10.2399 14.8999 10.3199 14.9599C10.4199 15.0399 10.5599 15.1399 10.7599 15.2199C11.0199 15.2999 11.2999 15.2999 11.5599 15.2199C11.7599 15.1599 11.8999 15.0399 11.9999 14.9599C12.0799 14.8799 12.1599 14.7999 12.2399 14.7399L15.4599 11.5199V12.8799C15.4599 13.3599 15.8399 13.7399 16.3199 13.7399C16.7999 13.7399 17.1799 13.3599 17.1799 12.8799V9.43994C17.1799 8.95994 16.7999 8.57994 16.3199 8.57994H12.8799C12.3999 8.57994 12.0199 8.95994 12.0199 9.43994C12.0199 9.91994 12.3999 10.2999 12.8799 10.2999H14.2399L11.1599 13.3799L9.6599 11.8799C9.6599 11.8799 9.4999 11.7199 9.4199 11.6599C9.3199 11.5799 9.1799 11.4799 8.9799 11.3999C8.7199 11.3199 8.4399 11.3199 8.1799 11.3999C7.9799 11.4599 7.8399 11.5799 7.7399 11.6599C7.6599 11.7399 7.5799 11.8199 7.4999 11.8799L4.5799 14.7999C4.2199 15.1599 4.0199 15.3599 3.8599 15.3599C3.7199 15.3599 3.5799 15.3199 3.4999 15.2199C3.3999 15.0999 3.3999 14.8399 3.3999 14.3199V6.99994C3.3999 6.53994 3.3999 6.15994 3.4199 5.83994C3.4399 5.49994 3.4999 5.15994 3.6799 4.83994C3.9199 4.35994 4.3199 3.95994 4.7999 3.71994C5.1199 3.55994 5.4599 3.49994 5.7999 3.45994C6.1199 3.43994 6.5199 3.43994 6.9599 3.43994H17.0199C17.4799 3.43994 17.8599 3.43994 18.1799 3.45994C18.5199 3.47994 18.8599 3.53994 19.1799 3.71994C19.6599 3.95994 20.0599 4.35994 20.2999 4.83994C20.4599 5.15994 20.5199 5.49994 20.5599 5.83994C20.5799 6.15994 20.5799 6.55994 20.5799 6.99994V17.0599C20.5799 17.5199 20.5799 17.8999 20.5599 18.2199C20.5399 18.5599 20.4799 18.8999 20.2999 19.2199C20.0599 19.6999 19.6599 20.0999 19.1799 20.3399C18.8599 20.4999 18.5199 20.5599 18.1799 20.5999C17.8599 20.6199 17.4599 20.6199 17.0199 20.6199Z" fill="#2F3945"/>
</svg>
