<svg width="24" height="24" viewBox="0 0 24 24" fill="none" xmlns="http://www.w3.org/2000/svg">
<path fill-rule="evenodd" clip-rule="evenodd" d="M6.54004 5.44C6.44004 5.16 6.40004 4.88 6.40004 4.58C6.40004 3.9 6.66004 3.24 7.14004 2.76C7.62004 2.26 8.26004 2 8.96004 2C10.5 2 11.46 3.06 12 3.96C12.54 3.06 13.5 2 15.04 2C15.72 2 16.38 2.28 16.86 2.76C17.34 3.24 17.6 3.9 17.6 4.58C17.6 4.88 17.56 5.16 17.46 5.44H19.36C19.54 5.44 19.72 5.44 19.86 5.44C20.02 5.44 20.22 5.48 20.42 5.56C20.84 5.74 21.18 6.06 21.36 6.5C21.44 6.7 21.46 6.9 21.48 7.06C21.48 7.22 21.48 7.38 21.48 7.56V7.62C21.48 7.8 21.48 7.98 21.48 8.12C21.48 8.28 21.44 8.48 21.36 8.68C21.18 9.1 20.84 9.42 20.42 9.62C20.22 9.7 20.02 9.74 19.86 9.74C19.72 9.74 19.54 9.74 19.36 9.74H4.66004C4.48004 9.74 4.30004 9.74 4.16004 9.74C4.00004 9.74 3.80004 9.7 3.60004 9.62C3.18004 9.44 2.84004 9.12 2.66004 8.68C2.58004 8.48 2.56004 8.28 2.54004 8.12C2.54004 7.96 2.54004 7.8 2.54004 7.62V7.56C2.54004 7.38 2.54004 7.2 2.54004 7.06C2.54004 6.9 2.58004 6.7 2.66004 6.5C2.84004 6.08 3.18004 5.76 3.60004 5.56C3.80004 5.48 4.00004 5.44 4.16004 5.44C4.30004 5.44 4.48004 5.44 4.66004 5.44H6.56004H6.54004ZM8.94004 3.72C8.72004 3.72 8.52004 3.8 8.36004 3.96C8.20004 4.12 8.12004 4.34 8.12004 4.58C8.12004 4.82 8.22004 5.04 8.36004 5.2C8.52004 5.36 8.72004 5.44 8.94004 5.44H10.8C10.74 5.3 10.66 5.14 10.58 5C10.16 4.22 9.62004 3.72 8.92004 3.72H8.94004ZM13.16 5.44C13.22 5.3 13.3 5.14 13.38 5C13.8 4.22 14.34 3.72 15.04 3.72C15.26 3.72 15.46 3.8 15.62 3.96C15.78 4.12 15.86 4.34 15.86 4.58C15.86 4.82 15.76 5.04 15.62 5.2C15.46 5.36 15.26 5.44 15.04 5.44H13.18H13.16Z" fill="#2F3945"/>
<path d="M4.24023 12.34C4.24023 11.86 4.62023 11.48 5.10023 11.48H10.4402C10.6802 11.48 10.8002 11.48 10.9002 11.52C10.9802 11.56 11.0402 11.64 11.0802 11.7C11.1202 11.8 11.1202 11.92 11.1202 12.16V20.26C11.1202 20.5 11.1202 20.62 11.0802 20.72C11.0402 20.8 10.9802 20.86 10.9002 20.9C10.8002 20.94 10.6802 20.94 10.4402 20.94H7.82023C7.36023 20.94 6.98023 20.94 6.66023 20.92C6.32023 20.9 5.98023 20.84 5.66023 20.66C5.18023 20.42 4.78024 20.02 4.54024 19.54C4.38024 19.22 4.32024 18.88 4.28024 18.54C4.26024 18.22 4.26023 17.82 4.26023 17.36V12.32L4.24023 12.34Z" fill="#2F3945"/>
<path d="M17.3399 20.92C17.0199 20.94 16.6199 20.94 16.1799 20.94H13.5599C13.3199 20.94 13.1999 20.94 13.0999 20.9C13.0199 20.86 12.9599 20.78 12.9199 20.72C12.8799 20.62 12.8799 20.5 12.8799 20.26V12.16C12.8799 11.92 12.8799 11.8 12.9199 11.7C12.9599 11.62 13.0199 11.56 13.0999 11.52C13.1999 11.48 13.3199 11.48 13.5599 11.48H18.8999C19.3799 11.48 19.7599 11.86 19.7599 12.34V17.38C19.7599 17.84 19.7599 18.22 19.7399 18.56C19.7199 18.9 19.6599 19.24 19.4799 19.56C19.2399 20.06 18.8399 20.44 18.3599 20.68C18.0399 20.86 17.6999 20.92 17.3599 20.94L17.3399 20.92Z" fill="#2F3945"/>
</svg>
