<svg width="24" height="24" viewBox="0 0 24 24" fill="none" xmlns="http://www.w3.org/2000/svg">
<path d="M3.04018 12.5598C2.94018 10.0598 4.08018 7.71977 5.88018 6.15977C6.28018 5.81977 6.30018 5.19977 5.92018 4.83977C5.58018 4.49977 5.02018 4.47977 4.66018 4.79977C2.78018 6.41977 1.52018 8.71977 1.26018 11.2998C0.960181 14.3598 2.08018 17.1798 4.02018 19.1798C4.38018 19.5598 4.96018 19.5598 5.32018 19.1998C5.50018 19.0198 5.58018 18.7798 5.58018 18.5598C5.58018 18.3398 5.50018 18.0998 5.32018 17.9398C3.96018 16.5398 3.08018 14.6598 3.02018 12.5598H3.04018ZM18.0802 4.81977C17.7002 5.19977 17.7402 5.79977 18.1402 6.13977C19.8802 7.61977 20.9602 9.81977 20.9602 12.2798C20.9602 14.4798 20.0802 16.4798 18.6402 17.9398C18.3002 18.2798 18.3202 18.8598 18.6402 19.1998C18.8202 19.3798 19.0602 19.4598 19.2802 19.4598C19.5202 19.4598 19.7602 19.3598 19.9402 19.1798C21.6802 17.3998 22.7402 14.9598 22.7402 12.2798C22.7402 9.27977 21.4002 6.59977 19.3002 4.77977C18.9402 4.45977 18.4002 4.47977 18.0602 4.81977H18.0802Z" fill="#2F3945"/>
<path d="M7.8799 11.1997C8.0999 10.3997 8.5999 9.69974 9.2399 9.19974C9.6799 8.85974 9.7599 8.21974 9.3599 7.81974C9.0399 7.49974 8.5399 7.45974 8.1799 7.71974C7.1599 8.47974 6.3999 9.57974 6.0999 10.8397C5.5999 12.8997 6.2199 14.8597 7.5199 16.1797C7.8599 16.5397 8.4199 16.5197 8.7599 16.1797L8.8199 16.1397C9.1599 15.7997 9.1399 15.2597 8.8199 14.8997C7.9399 13.9597 7.5199 12.5997 7.9199 11.1797L7.8799 11.1997ZM14.6399 7.83974C14.2599 8.21974 14.2999 8.85974 14.7199 9.17974C15.6599 9.87974 16.2799 10.9997 16.2799 12.2597C16.2799 13.2997 15.8599 14.2597 15.1999 14.9397C14.8799 15.2797 14.8999 15.8397 15.2399 16.1597C15.4199 16.3397 15.6399 16.4197 15.8799 16.4197C16.1199 16.4197 16.3399 16.3397 16.4999 16.1597C17.4799 15.1397 18.0799 13.7597 18.0799 12.2397C18.0799 10.3797 17.1799 8.73974 15.7999 7.71974C15.4399 7.45974 14.9399 7.49974 14.6199 7.81974L14.6399 7.83974Z" fill="#2F3945"/>
<path d="M12.4798 9.95974V9.03974C12.4798 8.73974 12.2398 8.47974 11.9198 8.47974C11.5998 8.47974 11.3598 8.71974 11.3598 9.03974V9.95974C10.7598 10.1797 10.3198 10.7597 10.3198 11.4397V13.9997C10.3198 14.6797 10.7598 15.2597 11.3598 15.4797V16.3997C11.3598 16.6997 11.5998 16.9597 11.9198 16.9597C12.2398 16.9597 12.4798 16.7197 12.4798 16.3997V15.4797C13.0798 15.2597 13.5198 14.6797 13.5198 13.9997V11.4397C13.5198 10.7597 13.0798 10.1797 12.4798 9.95974Z" fill="#2F3945"/>
</svg>
