<svg width="24" height="24" viewBox="0 0 24 24" fill="none" xmlns="http://www.w3.org/2000/svg">
<path d="M21.4801 8.10002V15.58C21.4801 16.02 21.4801 16.42 21.4401 16.74C21.4201 17.08 21.3601 17.42 21.2001 17.74C20.9601 18.22 20.5601 18.62 20.0801 18.86C19.7601 19.02 19.4201 19.1 19.0801 19.12C18.5001 19.16 17.9201 19.16 17.3401 19.14H16.7001C15.5801 19.14 15.1801 19.14 14.8401 19.26C14.5201 19.36 14.2201 19.52 13.9601 19.74C13.5601 20.06 13.2801 20.54 13.0001 20.98C12.9201 21.1 12.8401 21.24 12.7601 21.36C12.6401 21.52 12.4801 21.66 12.3001 21.72C11.9201 21.82 11.5401 21.68 11.3201 21.36C11.2401 21.24 11.1601 21.12 11.0801 20.98C10.8001 20.54 10.5201 20.08 10.1201 19.74C9.86012 19.52 9.56012 19.36 9.24012 19.26C8.90012 19.16 8.50012 19.14 7.38012 19.14H6.74012C6.16012 19.14 5.58012 19.14 5.00012 19.12C4.66012 19.1 4.32012 19.02 4.00012 18.86C3.52012 18.62 3.12012 18.22 2.88012 17.74C2.72012 17.42 2.66012 17.08 2.64012 16.74C2.62012 16.42 2.62012 16.02 2.62012 15.58V8.10002C2.62012 7.64002 2.62012 7.26002 2.64012 6.92002C2.66012 6.58002 2.72012 6.24002 2.88012 5.92002C3.12012 5.42002 3.52012 5.04002 4.00012 4.78002C4.32012 4.62002 4.66012 4.56002 5.00012 4.54002C5.32012 4.52002 5.72012 4.52002 6.18012 4.52002H6.70012C7.44012 4.52002 8.16012 4.52002 8.88012 4.58002C9.50012 4.64002 10.0601 4.74002 10.5801 5.00002C11.1601 5.30002 11.6801 5.74002 12.0801 6.26002C12.4601 5.74002 12.9801 5.30002 13.5801 5.00002C14.0801 4.74002 14.6401 4.64002 15.2601 4.58002C15.3601 4.58002 15.4401 4.58002 15.5401 4.58002H19.0201C19.0201 4.58002 19.1001 4.58002 19.1401 4.58002C19.4801 4.60002 19.8201 4.66002 20.1401 4.82002C20.6201 5.06002 21.0201 5.46002 21.2601 5.96002C21.4201 6.28002 21.4801 6.62002 21.5001 6.96002C21.5401 7.28002 21.5401 7.68002 21.5401 8.14002L21.4801 8.10002Z" fill="#2F3945"/>
</svg>
