<svg width="24" height="24" viewBox="0 0 24 24" fill="none" xmlns="http://www.w3.org/2000/svg">
<path fill-rule="evenodd" clip-rule="evenodd" d="M21.4399 10.9598C21.4199 10.6198 21.3599 10.2798 21.1799 9.95976C20.9399 9.45976 20.5399 9.07977 20.0599 8.83977C19.7399 8.65977 19.3999 8.59977 19.0599 8.57977C18.7599 8.55977 18.4199 8.55976 18.0199 8.55976H16.2999V7.83977C16.2999 7.37977 16.2999 6.99977 16.2799 6.65977C16.2599 6.31977 16.1999 5.97977 16.0199 5.65977C15.7799 5.15977 15.3799 4.77977 14.8999 4.53977C14.5799 4.35977 14.2399 4.29977 13.8999 4.27977C13.5799 4.25977 13.1799 4.25977 12.7199 4.25977H6.95988C6.49988 4.25977 6.11988 4.25977 5.77988 4.27977C5.43988 4.29977 5.09988 4.35977 4.77988 4.53977C4.27988 4.77977 3.89988 5.17977 3.65988 5.65977C3.47988 5.97977 3.41988 6.31977 3.39988 6.65977C3.37988 6.97977 3.37988 7.37977 3.37988 7.83977V14.7998C3.37988 15.4998 3.37988 16.0598 3.41988 16.5398C3.45988 17.0198 3.53988 17.4798 3.75988 17.8998C4.07988 18.5398 4.61988 19.0798 5.25988 19.3998C5.67988 19.6198 6.13988 19.6998 6.61988 19.7398C7.07988 19.7798 7.65988 19.7798 8.35988 19.7798H16.5199C17.0999 19.7798 17.6799 19.7798 18.2599 19.7398C18.7399 19.6998 19.1999 19.6198 19.6199 19.3998C20.2599 19.0798 20.7999 18.5398 21.1199 17.8998C21.3399 17.4798 21.4199 17.0198 21.4599 16.5398C21.4999 16.0798 21.4999 15.4998 21.4999 14.7998V12.1398C21.4999 11.6798 21.4999 11.2998 21.4799 10.9598H21.4399ZM11.5599 13.9598H6.39988C5.91988 13.9598 5.53988 13.5798 5.53988 13.0998C5.53988 12.6198 5.91988 12.2398 6.39988 12.2398H11.5599C12.0399 12.2398 12.4199 12.6198 12.4199 13.0998C12.4199 13.5798 12.0399 13.9598 11.5599 13.9598ZM13.2799 10.2598H6.37988C5.89988 10.2598 5.51988 9.87977 5.51988 9.39977C5.51988 8.91977 5.89988 8.53977 6.37988 8.53977H13.2799C13.7599 8.53977 14.1399 8.91977 14.1399 9.39977C14.1399 9.87977 13.7599 10.2598 13.2799 10.2598ZM19.7399 14.7398C19.7399 15.4798 19.7399 15.9798 19.6999 16.3598C19.6799 16.7398 19.6199 16.9198 19.5399 17.0598C19.3799 17.3798 19.0999 17.6398 18.7999 17.7998C18.4999 17.9598 18.2399 18.0398 17.7999 17.9798C16.9599 17.8798 16.2999 17.1598 16.2999 16.2798V10.2398C17.1799 10.2398 18.0399 10.1798 18.9199 10.2398C19.1599 10.2598 19.2399 10.2998 19.2799 10.3198C19.4399 10.3998 19.5799 10.5398 19.6599 10.6998C19.6799 10.7398 19.7199 10.8198 19.7399 11.0598C19.7399 11.2998 19.7399 11.6198 19.7399 12.1198V14.6998V14.7398Z" fill="#2F3945"/>
</svg>
