<svg width="24" height="24" viewBox="0 0 24 24" fill="none" xmlns="http://www.w3.org/2000/svg">
<path fill-rule="evenodd" clip-rule="evenodd" d="M1.95996 12C1.95996 17.54 6.45996 22.04 12 22.04C17.54 22.04 22.04 17.54 22.04 12C22.04 6.45996 17.54 1.95996 12 1.95996C6.45996 1.95996 1.95996 6.45996 1.95996 12ZM17.78 14.92C18.14 14.56 18.14 13.98 17.78 13.62C17.42 13.26 16.84 13.26 16.5 13.62L15.78 14.36V7.43996C15.78 6.93996 15.38 6.51996 14.86 6.51996C14.34 6.51996 13.94 6.93996 13.94 7.43996V14.36L13.22 13.62C12.86 13.26 12.28 13.26 11.94 13.62C11.58 13.98 11.58 14.56 11.94 14.92L14.22 17.2C14.58 17.56 15.16 17.56 15.5 17.2L17.78 14.92ZM10.78 10.36C11.14 10.72 11.72 10.72 12.06 10.36C12.42 9.99996 12.42 9.41996 12.06 9.05996L9.77996 6.77996C9.41996 6.41996 8.83996 6.41996 8.49996 6.77996L6.21996 9.05996C5.85996 9.41996 5.85996 9.99996 6.21996 10.36C6.57996 10.72 7.15996 10.72 7.49996 10.36L8.21996 9.61996V16.54C8.21996 17.04 8.61996 17.46 9.13996 17.46C9.65996 17.46 10.06 17.04 10.06 16.54V9.61996L10.78 10.36Z" fill="#2F3945"/>
</svg>
