<svg width="24" height="24" viewBox="0 0 24 24" fill="none" xmlns="http://www.w3.org/2000/svg">
<path d="M4.92895 19.0711C1.0237 15.1659 1.0237 8.83421 4.92895 4.92897C5.72706 4.13086 6.39524 3.49967 6.95365 3L4.00002 3C3.44773 3 3.00002 2.55228 3.00002 2C3.00002 1.44772 3.44773 1 4.00002 1L10 1C10.5523 1 11 1.44772 11 2V8C11 8.55229 10.5523 9 10 9C9.44773 9 9.00002 8.55228 9.00002 8L9.00002 3.87434C8.38282 4.38652 7.52127 5.16508 6.34316 6.34318C3.21897 9.46738 3.21897 14.5327 6.34316 17.6569C7.45116 18.7649 8.80059 19.4787 10.2213 19.801C10.7599 19.9232 11.0974 20.4589 10.9752 20.9975C10.853 21.5361 10.3173 21.8736 9.77875 21.7514C8.00088 21.348 6.3115 20.4537 4.92895 19.0711Z" fill="white"/>
<path d="M13.7787 4.19906C13.2401 4.07686 12.9026 3.54118 13.0248 3.00258C13.147 2.46399 13.6827 2.12644 14.2213 2.24864C15.9991 2.65202 17.6885 3.5464 19.0711 4.92896C22.9763 8.8342 22.9763 15.1658 19.0711 19.0711C18.2733 19.8689 17.6051 20.5001 17.0464 21H20C20.5523 21 21 21.4477 21 22C21 22.5523 20.5523 23 20 23H14C13.4477 23 13 22.5523 13 22V16C13 15.4477 13.4477 15 14 15C14.5523 15 15 15.4477 15 16V20.1257C15.6164 19.6142 16.4779 18.8358 17.6568 17.6569C20.781 14.5327 20.781 9.46736 17.6568 6.34317C16.5489 5.23518 15.1994 4.52141 13.7787 4.19906Z" fill="white"/>
</svg>
