<svg width="24" height="24" viewBox="0 0 24 24" fill="none" xmlns="http://www.w3.org/2000/svg">
<path fill-rule="evenodd" clip-rule="evenodd" d="M7.24973 3.77317C9.98523 2.19382 13.1801 2.13049 15.8588 3.3189C16.3637 3.54286 16.5914 4.13367 16.3674 4.63851C16.1434 5.14334 15.5526 5.37103 15.0478 5.14706C12.9282 4.20674 10.4082 4.25902 8.24973 5.50522C5.09361 7.3274 3.76292 11.0971 4.89922 14.42L4.99159 14.0752C5.13453 13.5418 5.68287 13.2252 6.21633 13.3681C6.7498 13.5111 7.06638 14.0594 6.92344 14.5929L6.19139 17.3249C6.12275 17.5811 5.95515 17.7995 5.72546 17.9321C5.49578 18.0647 5.22282 18.1007 4.96664 18.032L2.23459 17.3C1.70113 17.157 1.38454 16.6087 1.52749 16.0752C1.67043 15.5418 2.21877 15.2252 2.75223 15.3681L3.1572 15.4766C1.45855 11.1715 3.1211 6.15683 7.24973 3.77317ZM17.8088 6.67524C17.9517 6.14177 18.5 5.82519 19.0335 5.96813L21.7656 6.70018C22.299 6.84312 22.6156 7.39146 22.4727 7.92493C22.3297 8.45839 21.7814 8.77497 21.2479 8.63203L20.8425 8.52339C22.5415 12.8286 20.879 17.8437 16.7502 20.2275C14.0147 21.8069 10.8198 21.8702 8.14108 20.6818C7.63625 20.4578 7.40856 19.867 7.63253 19.3622C7.8565 18.8573 8.44731 18.6297 8.95214 18.8536C11.0717 19.7939 13.5917 19.7417 15.7502 18.4955C18.9063 16.6733 20.237 12.9037 19.1007 9.58089L19.0086 9.92493C18.8656 10.4584 18.3173 10.775 17.7838 10.632C17.2504 10.4891 16.9338 9.94075 17.0767 9.40729L17.8088 6.67524Z" fill="white"/>
</svg>
