<svg width="24" height="24" viewBox="0 0 24 24" fill="none" xmlns="http://www.w3.org/2000/svg">
<path d="M19.0711 19.0711C22.9763 15.1659 22.9763 8.83421 19.0711 4.92897C18.2729 4.13086 17.6048 3.49967 17.0463 3H20C20.5523 3 21 2.55229 21 2C21 1.44772 20.5523 1 20 1L14 1C13.4477 1 13 1.44772 13 2V8C13 8.55228 13.4477 9 14 9C14.5523 9 15 8.55228 15 8V3.87433C15.6172 4.38652 16.4787 5.16508 17.6568 6.34318C20.781 9.46738 20.781 14.5327 17.6568 17.6569C16.5488 18.7649 15.1994 19.4787 13.7787 19.801C13.2401 19.9232 12.9026 20.4589 13.0248 20.9975C13.147 21.5361 13.6827 21.8736 14.2213 21.7514C15.9991 21.348 17.6885 20.4537 19.0711 19.0711Z" fill="white"/>
<path d="M10.2213 4.19906C10.7599 4.07686 11.0974 3.54118 10.9752 3.00258C10.853 2.46399 10.3173 2.12643 9.77874 2.24864C8.00087 2.65202 6.3115 3.5464 4.92894 4.92895C1.0237 8.8342 1.0237 15.1658 4.92894 19.0711C5.72672 19.8689 6.39489 20.5001 6.95357 21H3.99998C3.4477 21 2.99998 21.4477 2.99998 22C2.99998 22.5523 3.4477 23 3.99998 23H9.99998C10.5523 23 11 22.5523 11 22V16C11 15.4477 10.5523 15 9.99998 15C9.4477 15 8.99998 15.4477 8.99998 16L8.99998 20.1257C8.38359 19.6142 7.52207 18.8358 6.34316 17.6569C3.21896 14.5327 3.21896 9.46736 6.34316 6.34317C7.45115 5.23518 8.80058 4.52141 10.2213 4.19906Z" fill="white"/>
</svg>
