<svg width="24" height="24" viewBox="0 0 24 24" fill="none" xmlns="http://www.w3.org/2000/svg">
<path fill-rule="evenodd" clip-rule="evenodd" d="M17.6452 7.06007C15.3357 4.41468 11.4058 3.68229 8.24971 5.50444C6.09124 6.75064 4.78594 8.90692 4.54052 11.2127C4.48206 11.7618 3.98947 12.1596 3.44029 12.1012C2.89111 12.0427 2.49329 11.5501 2.55175 11.001C2.86193 8.0869 4.51421 5.35173 7.24971 3.77239C11.3786 1.3886 16.553 2.45638 19.4319 6.08046L19.5406 5.67499C19.6835 5.14152 20.2318 4.82494 20.7653 4.96788C21.2988 5.11082 21.6154 5.65916 21.4724 6.19263L20.7404 8.92468C20.6717 9.18086 20.5041 9.39928 20.2744 9.53189C20.0448 9.66449 19.7718 9.70043 19.5156 9.63179L16.7836 8.89973C16.2501 8.75679 15.9335 8.20846 16.0765 7.67499C16.2194 7.14152 16.7677 6.82494 17.3012 6.96788L17.6452 7.06007ZM20.5588 11.8985C21.108 11.9569 21.5058 12.4495 21.4474 12.9987C21.1372 15.9128 19.4849 18.6479 16.7494 20.2273C12.6208 22.6109 7.44661 21.5434 4.5676 17.9197L4.45909 18.3247C4.31615 18.8581 3.76782 19.1747 3.23435 19.0318C2.70088 18.8888 2.3843 18.3405 2.52724 17.807L3.25929 15.075C3.40223 14.5415 3.95057 14.2249 4.48404 14.3679L7.21609 15.0999C7.74955 15.2429 8.06614 15.7912 7.9232 16.3247C7.78025 16.8581 7.23192 17.1747 6.69845 17.0318L6.35372 16.9394C8.66323 19.5849 12.5933 20.3174 15.7494 18.4952C17.9079 17.249 19.2132 15.0927 19.4586 12.787C19.5171 12.2378 20.0096 11.84 20.5588 11.8985Z" fill="white"/>
</svg>
