<svg width="24" height="24" viewBox="0 0 24 24" fill="none" xmlns="http://www.w3.org/2000/svg">
<path fill-rule="evenodd" clip-rule="evenodd" d="M13.7071 0.892991C14.0976 1.28352 14.0976 1.91668 13.7071 2.3072L13.4103 2.60405C17.9882 3.28532 21.5 7.23259 21.5 12.0001C21.5 15.1588 19.9574 17.9573 17.5889 19.6829C17.1425 20.0082 16.517 19.9099 16.1918 19.4636C15.8665 19.0172 15.9648 18.3917 16.4111 18.0665C18.2853 16.701 19.5 14.4925 19.5 12.0001C19.5 8.35589 16.9009 5.31873 13.4553 4.6412L13.7071 4.89299C14.0976 5.28352 14.0976 5.91668 13.7071 6.3072C13.3166 6.69773 12.6834 6.69773 12.2929 6.3072L10.2929 4.3072C9.90237 3.91668 9.90237 3.28352 10.2929 2.89299L12.2929 0.892991C12.6834 0.502467 13.3166 0.502467 13.7071 0.892991ZM7.80824 4.53664C8.13345 4.98302 8.03523 5.60852 7.58886 5.93373C5.71475 7.29914 4.5 9.50771 4.5 12.0001C4.5 15.6443 7.09909 18.6815 10.5447 19.359L10.2929 19.1072C9.90237 18.7167 9.90237 18.0835 10.2929 17.693C10.6834 17.3025 11.3166 17.3025 11.7071 17.693L13.7071 19.693C14.0976 20.0835 14.0976 20.7167 13.7071 21.1072L11.7071 23.1072C11.3166 23.4977 10.6834 23.4977 10.2929 23.1072C9.90237 22.7167 9.90237 22.0835 10.2929 21.693L10.5897 21.3961C6.01184 20.7149 2.5 16.7676 2.5 12.0001C2.5 8.84141 4.04258 6.04291 6.41114 4.31726C6.85752 3.99204 7.48302 4.09026 7.80824 4.53664Z" fill="white"/>
</svg>
