<svg width="24" height="24" viewBox="0 0 24 24" fill="none" xmlns="http://www.w3.org/2000/svg">
<path fill-rule="evenodd" clip-rule="evenodd" d="M20.6632 4.40783C20.776 3.73101 20.1892 3.14423 19.5124 3.25704L16.1138 3.82347C16.8359 4.3933 17.5359 5.01453 18.2077 5.6863C18.8894 6.36801 19.5191 7.07881 20.0958 7.81227L20.6632 4.40783ZM19.3549 10.1806C18.6203 9.10713 17.7658 8.07278 16.7935 7.10051C15.8306 6.1376 14.8068 5.29016 13.7444 4.56031L9.99742 8.56571C9.98939 8.57461 9.98122 8.58334 9.9729 8.59192L7.17608 11.5816C6.05322 12.7819 5.89333 14.5447 6.68031 15.9048L12.2923 10.2928C12.6829 9.90229 13.316 9.90229 13.7066 10.2928C14.0971 10.6833 14.0971 11.3165 13.7066 11.707L8.117 17.2966C9.46233 18.0184 11.168 17.8393 12.3386 16.7442L15.3244 13.9511C15.3355 13.9401 15.347 13.9294 15.3587 13.9189L19.3549 10.1806ZM17.1757 14.9579L20.7741 11.5917C21.3268 11.0745 21.6938 10.3897 21.8183 9.6431L22.636 4.73663C22.9744 2.70616 21.2141 0.945837 19.1836 1.28425L14.2772 2.10199C13.5305 2.22643 12.8457 2.59341 12.3286 3.14617L8.96233 6.7446L6.69577 5.98908C6.0336 5.76836 5.30426 5.90882 4.77143 6.35968L1.91427 8.77727C0.744415 9.76715 1.07677 11.651 2.51474 12.1807L4.32539 12.8478C3.98533 14.3807 4.29075 16.0251 5.23448 17.3507L2.79234 19.7928C2.40181 20.1833 2.40181 20.8165 2.79234 21.207C3.18286 21.5975 3.81603 21.5975 4.20655 21.207L6.66283 18.7507C7.97183 19.6434 9.57534 19.927 11.0725 19.5949L11.7395 21.4053C12.2693 22.8433 14.1531 23.1757 15.143 22.0058L17.5606 19.1487C18.0114 18.6158 18.1519 17.8865 17.9312 17.2243L17.1757 14.9579ZM15.5686 16.4613L13.7049 18.2047C13.4572 18.4365 13.1939 18.6418 12.9187 18.8206L13.6162 20.7139L16.0338 17.8568L15.5686 16.4613ZM5.09961 11.0016C5.27844 10.7264 5.48373 10.4631 5.71554 10.2153L7.45895 8.35166L6.06331 7.88645L3.20615 10.304L5.09961 11.0016Z" fill="#1B2631"/>
</svg>
