<svg width="24" height="24" viewBox="0 0 24 24" fill="none" xmlns="http://www.w3.org/2000/svg">
<path d="M15.231 2.71764C17.3059 1.57646 19.6382 0.985092 22.0061 0.999779C22.556 1.00319 22.9999 1.4499 22.9999 1.99976C22.9999 4.81006 22.2116 9.70747 17.1476 13.4164C17.2328 13.774 17.3297 14.2446 17.3967 14.7647C17.4699 15.3321 17.511 15.9852 17.4513 16.6279C17.3923 17.2619 17.2287 17.9597 16.832 18.5547L16.8311 18.556C16.1522 19.5709 14.8717 20.1594 13.9772 20.4838C13.4965 20.6582 13.0524 20.7818 12.7293 20.862C12.4857 20.9224 12.307 20.9591 12.226 20.9749C11.9178 21.0335 11.6037 20.9719 11.3591 20.7677C11.1315 20.5777 10.9999 20.2965 10.9999 20V15.414L8.58599 13H3.99995C3.70347 13 3.42229 12.8685 3.23229 12.6409C3.04229 12.4133 2.96308 12.1131 3.01603 11.8214C3.04975 11.6365 3.09272 11.453 3.13795 11.2707C3.21811 10.9475 3.34178 10.5035 3.51613 10.0228C3.84059 9.12829 4.42901 7.84779 5.44392 7.16885L5.44525 7.16797C6.04024 6.77131 6.73803 6.60762 7.37209 6.54869C8.01477 6.48895 8.66789 6.5301 9.23527 6.60322C9.76079 6.67095 10.2358 6.76921 10.5947 6.85508C11.8056 5.1461 13.3898 3.73032 15.231 2.71764Z" fill="#1B2631"/>
<path fill-rule="evenodd" clip-rule="evenodd" d="M6.0031 14.9883C5.21994 14.9641 4.45542 15.2299 3.85615 15.7346C3.32938 16.1774 2.94259 16.7872 2.65611 17.3738C2.36392 17.9719 2.14188 18.6175 1.97602 19.1973C1.80925 19.7804 1.69334 20.3181 1.61908 20.7092C1.58181 20.9055 1.5547 21.0666 1.53671 21.1801C1.52694 21.2417 1.51778 21.3035 1.50905 21.3653L1.50883 21.3669C1.46754 21.6758 1.57252 21.9866 1.79285 22.2069C2.01318 22.4273 2.32448 22.5322 2.63332 22.4909C2.69552 22.4821 2.75765 22.4729 2.81969 22.4631C2.93322 22.4451 3.0943 22.418 3.29056 22.3807C3.6817 22.3065 4.21944 22.1905 4.80247 22.0238C5.38232 21.8579 6.02785 21.6359 6.62604 21.3437C7.21235 21.0573 7.82202 20.6707 8.26469 20.1442C9.28572 18.935 9.30096 17.0516 8.11255 15.8782L8.1004 15.8664C7.53341 15.3253 6.78653 15.0126 6.0031 14.9883Z" fill="#1B2631"/>
</svg>
