<svg width="24" height="24" viewBox="0 0 24 24" fill="none" xmlns="http://www.w3.org/2000/svg">
<path d="M13.4653 4.37177C14.6277 5.14304 15.7468 6.05357 16.7939 7.10065C17.8469 8.15371 18.7619 9.2796 19.5359 10.4491L19.745 10.783C19.9941 11.1808 20.1186 11.3797 20.1491 11.5872C20.176 11.7701 20.1516 11.957 20.0787 12.1269C19.996 12.3196 19.8247 12.4799 19.482 12.8005L17.176 14.9577L17.8249 16.9044L17.8469 16.9698C17.9277 17.2095 18.0294 17.5109 18.034 17.8277C18.038 18.1017 17.9856 18.3736 17.8802 18.6265C17.7582 18.9189 17.5519 19.161 17.3878 19.3536L17.3432 19.4061L15.7813 21.2519C15.5133 21.5686 15.2695 21.8569 15.0514 22.0713C14.8293 22.2898 14.52 22.5507 14.0971 22.6554C13.5491 22.791 12.9693 22.6887 12.5007 22.3737C12.1392 22.1307 11.9378 21.7796 11.8039 21.4984C11.6724 21.2223 11.5419 20.8679 11.3985 20.4787L11.0728 19.5946C9.57573 19.9267 7.97233 19.6432 6.66339 18.7506L4.20692 21.2071C3.8164 21.5976 3.18323 21.5976 2.79271 21.2071C2.40218 20.8166 2.40218 20.1834 2.79271 19.7929L5.235 17.3506C4.29123 16.025 3.98576 14.3807 4.32573 12.8478L3.44182 12.5222C3.05254 12.3788 2.69825 12.2483 2.42212 12.1168C2.14089 11.9828 1.78983 11.7815 1.54679 11.42C1.23179 10.9514 1.12949 10.3716 1.26514 9.82355C1.36979 9.40072 1.63074 9.09134 1.84915 8.86926C2.0636 8.65121 2.35183 8.40736 2.66851 8.13944L4.51442 6.57752L4.56695 6.53286C4.75946 6.3688 5.0016 6.16245 5.29399 6.04053C5.54691 5.93507 5.81881 5.88271 6.09281 5.88669C6.40957 5.8913 6.71102 5.99296 6.9507 6.07379L7.01606 6.09575L8.96254 6.74457L11.1336 4.4238C11.4647 4.06983 11.6303 3.89285 11.8289 3.81008C12.0039 3.73713 12.1961 3.71544 12.3829 3.74756C12.595 3.784 12.7958 3.91964 13.1975 4.19092L13.4586 4.36723L13.4653 4.37177Z" fill="#1B2631"/>
<path d="M14.5746 2.70755C14.2765 2.50627 14.3482 2.06057 14.7005 1.98825C15.6463 1.79406 16.6352 1.70881 17.5718 1.5527C18.2787 1.43488 18.8748 1.3355 19.36 1.29888C19.8601 1.26113 20.3716 1.2767 20.8598 1.48609C21.5672 1.78951 22.1309 2.35323 22.4343 3.06063C22.6437 3.54882 22.6593 4.0603 22.6215 4.56044C22.5849 5.04558 22.4855 5.64174 22.3677 6.34857C22.2093 7.29878 22.1287 8.30977 21.9255 9.27049C21.8523 9.61672 21.4123 9.67707 21.2244 9.37713C20.3851 8.03676 19.3239 6.80226 18.2081 5.68644C17.0682 4.54656 15.847 3.55221 14.5746 2.70755Z" fill="#1B2631"/>
</svg>
