<svg width="24" height="24" viewBox="0 0 24 24" fill="none" xmlns="http://www.w3.org/2000/svg">
<path fill-rule="evenodd" clip-rule="evenodd" d="M16.5364 1.28055C16.8377 1.18267 17.1622 1.18267 17.4635 1.28055C17.6961 1.35614 17.8647 1.48169 17.9758 1.57598C18.0716 1.65736 18.1722 1.75799 18.2564 1.84226C18.2619 1.84778 18.2673 1.85324 18.2727 1.85861L22.1577 5.74361C22.242 5.8278 22.3426 5.92835 22.424 6.0242C22.5183 6.13527 22.6438 6.30387 22.7194 6.53651C22.8173 6.83777 22.8173 7.16229 22.7194 7.46356C22.6438 7.69619 22.5183 7.86479 22.424 7.97587C22.3426 8.0717 22.242 8.17224 22.1578 8.25643L8.25636 22.1578C8.17217 22.2421 8.07161 22.3427 7.97576 22.4241C7.86468 22.5184 7.69608 22.6439 7.46345 22.7195C7.16218 22.8174 6.83766 22.8174 6.5364 22.7195C6.30376 22.6439 6.13516 22.5184 6.02409 22.4241C5.92825 22.3427 5.82772 22.2421 5.74353 22.1579L1.84213 18.2565C1.75787 18.1723 1.65724 18.0717 1.57587 17.9759C1.48158 17.8648 1.35603 17.6962 1.28045 17.4636C1.18256 17.1623 1.18256 16.8378 1.28045 16.5365C1.35603 16.3039 1.48158 16.1353 1.57587 16.0242C1.65725 15.9283 1.75789 15.8278 1.84215 15.7436C1.84767 15.7381 1.85313 15.7326 1.8585 15.7272L15.7271 1.85861C15.7325 1.85323 15.738 1.84777 15.7435 1.84223C15.8277 1.75798 15.9282 1.65735 16.0241 1.57598C16.1352 1.48169 16.3038 1.35614 16.5364 1.28055ZM16.9999 3.41424L15.4142 4.99999L16.7071 6.29289C17.0976 6.68341 17.0976 7.31658 16.7071 7.7071C16.3165 8.09763 15.6834 8.09763 15.2929 7.7071L14 6.41421L12.4142 7.99999L13.7071 9.29289C14.0976 9.68341 14.0976 10.3166 13.7071 10.7071C13.3165 11.0976 12.6834 11.0976 12.2929 10.7071L11 9.41421L9.41418 11L10.7071 12.2929C11.0976 12.6834 11.0976 13.3166 10.7071 13.7071C10.3165 14.0976 9.68338 14.0976 9.29286 13.7071L7.99996 12.4142L6.41418 14L7.70707 15.2929C8.0976 15.6834 8.0976 16.3166 7.70707 16.7071C7.31655 17.0976 6.68338 17.0976 6.29286 16.7071L4.99996 15.4142L3.41414 17L6.99993 20.5858L20.5857 7.00003L16.9999 3.41424Z" fill="#1B2631"/>
</svg>
