<svg width="24" height="24" viewBox="0 0 24 24" fill="none" xmlns="http://www.w3.org/2000/svg">
<path fill-rule="evenodd" clip-rule="evenodd" d="M12.9999 3C12.9999 2.44772 12.5522 2 11.9999 2C11.4477 2 10.9999 2.44772 10.9999 3V7.15302L5.85386 8.0107C5.79169 8.01988 5.73094 8.03483 5.67233 8.05516C5.5449 8.09916 5.43058 8.16758 5.33389 8.25405C5.2546 8.32484 5.186 8.4088 5.13168 8.50386L1.52679 14.8124C1.39559 15.0416 1.2798 15.244 1.19584 15.4648C1.12196 15.659 1.06847 15.8605 1.03623 16.0658C0.999595 16.2991 0.999737 16.5323 0.999899 16.7964L0.999921 17C0.999921 17.0029 0.999933 17.0059 0.999959 17.0088C1.0047 19.7662 3.24146 22 5.99995 22C8.76137 22 11 19.7614 11 17L11 16.7769C11 16.7674 11 16.7577 11 16.748C11 16.5035 10.998 16.2847 10.9636 16.0658C10.9314 15.8605 10.8779 15.659 10.804 15.4648C10.72 15.244 10.6043 15.0416 10.473 14.8124L7.58054 9.75051L16.0865 8.33284L13.5268 12.8124C13.3956 13.0416 13.2798 13.244 13.1958 13.4648C13.122 13.659 13.0685 13.8605 13.0362 14.0658C12.9996 14.2991 12.9997 14.5322 12.9999 14.7964L12.9999 15C12.9999 15.0029 12.9999 15.0059 13 15.0088C13.0047 17.7662 15.2415 20 18 20C20.7614 20 23 17.7614 23 15L23 14.7769C23 14.7646 23 14.752 23 14.7392C22.9999 14.4983 22.9976 14.2821 22.9636 14.0658C22.9314 13.8605 22.8779 13.659 22.804 13.4648C22.72 13.244 22.6043 13.0416 22.473 12.8124L18.8778 6.52078C18.8416 6.45438 18.7982 6.39292 18.7488 6.33724C18.5619 6.12602 18.2916 6.00098 18.0033 6.00001L17.9999 6C17.9379 6 17.8768 6.00574 17.8171 6.01684L12.9999 6.81969V3ZM20.2767 13L17.9999 9.01556L15.7231 13H20.2767ZM8.27674 15L5.99992 11.0156L3.7231 15H8.27674Z" fill="#1B2631"/>
</svg>
