<svg width="24" height="24" viewBox="0 0 24 24" fill="none" xmlns="http://www.w3.org/2000/svg">
<path fill-rule="evenodd" clip-rule="evenodd" d="M4.03883 2.82086C4.04996 2.82587 4.06108 2.83087 4.0722 2.83588L20.8226 10.3735C21.0507 10.4761 21.2796 10.5791 21.4581 10.6795C21.6239 10.7729 21.9441 10.9663 22.1265 11.3353C22.3337 11.7543 22.3337 12.2459 22.1265 12.6649C21.9441 13.0338 21.624 13.2273 21.4581 13.3206C21.2796 13.4211 21.0508 13.524 20.8226 13.6266L4.04456 21.1768C3.81038 21.2822 3.57711 21.3872 3.38043 21.4553C3.20014 21.5178 2.83645 21.6323 2.43402 21.52C1.97957 21.3931 1.61128 21.0599 1.43981 20.6203C1.28796 20.2311 1.36562 19.8578 1.4098 19.6722C1.45801 19.4697 1.53927 19.2271 1.62085 18.9836L3.94624 12.0373L1.62519 5.04436C1.62135 5.03279 1.6175 5.02121 1.61366 5.00963C1.53298 4.76668 1.45254 4.52446 1.40495 4.32223C1.36127 4.13656 1.28489 3.76393 1.43715 3.3757C1.60922 2.93697 1.97748 2.60461 2.43149 2.47828C2.83326 2.36649 3.19613 2.48056 3.37636 2.54299C3.57267 2.61099 3.8054 2.71577 4.03883 2.82086ZM3.66685 4.84664L5.70924 11.0001H10.5003C11.0526 11.0001 11.5003 11.4478 11.5003 12.0001C11.5003 12.5524 11.0526 13.0001 10.5003 13.0001H5.73304L3.67413 19.1503L19.5635 12.0001L3.66685 4.84664Z" fill="white"/>
</svg>
