<svg width="24" height="24" viewBox="0 0 24 24" fill="none" xmlns="http://www.w3.org/2000/svg">
<path d="M12.7036 1.87519C12.285 1.66736 11.7934 1.66657 11.374 1.87306C11.0048 2.05488 10.8108 2.37473 10.7172 2.54039C10.6165 2.71876 10.5132 2.94743 10.4102 3.17543L2.82565 19.9579C2.71997 20.1917 2.61466 20.4246 2.54625 20.621C2.48351 20.8012 2.36861 21.1644 2.48007 21.5667C2.60598 22.0212 2.9383 22.39 3.37727 22.5625C3.76588 22.7151 4.13904 22.6385 4.32475 22.5948C4.52723 22.5472 4.76982 22.4666 5.01326 22.3857L9.90402 20.7625C10.2981 20.6317 10.4951 20.5663 10.6408 20.4447C10.7695 20.3373 10.8691 20.1993 10.9305 20.0433C11 19.8667 11 19.6591 11 19.2439V12.0002C11 11.448 11.4477 11.0002 12 11.0002C12.5523 11.0002 13 11.448 13 12.0002V19.2251C13 19.6392 13 19.8463 13.0692 20.0226C13.1304 20.1782 13.2296 20.3161 13.3578 20.4235C13.503 20.5451 13.6993 20.6108 14.0921 20.7423L18.9873 22.3811C19.2303 22.4625 19.4726 22.5436 19.6748 22.5917C19.8604 22.6359 20.2331 22.7134 20.622 22.5619C21.0613 22.3908 21.3946 22.023 21.5218 21.569C21.6344 21.1672 21.5208 20.8039 21.4587 20.6235C21.3909 20.4269 21.2864 20.1938 21.1815 19.9599L13.6633 3.18067C13.561 2.95235 13.4585 2.72332 13.3583 2.54463C13.2652 2.37867 13.0723 2.0582 12.7036 1.87519Z" fill="white"/>
</svg>
