<svg width="24" height="24" viewBox="0 0 24 24" fill="none" xmlns="http://www.w3.org/2000/svg">
<path fill-rule="evenodd" clip-rule="evenodd" d="M12.0352 4.43669L4.85173 20.3317L11.0005 18.2909V11.9998C11.0005 11.4475 11.4482 10.9998 12.0005 10.9998C12.5528 10.9998 13.0005 11.4475 13.0005 11.9998V18.2671L19.1554 20.3276L12.0352 4.43669ZM11.3745 1.87257C11.7938 1.66608 12.2855 1.66687 12.7041 1.87471C13.0728 2.05771 13.2657 2.37818 13.3588 2.54414C13.459 2.72283 13.5615 2.95184 13.6638 3.18016C13.6687 3.19121 13.6737 3.20226 13.6786 3.2133L21.1821 19.9595C21.2869 20.1934 21.3914 20.4265 21.4591 20.623C21.5213 20.8034 21.6349 21.1667 21.5223 21.5686C21.3951 22.0225 21.0618 22.3903 20.6225 22.5614C20.2336 22.7129 19.8609 22.6354 19.6753 22.5913C19.473 22.5431 19.2308 22.462 18.9877 22.3806L12.0378 20.0539L5.01382 22.3852C4.77035 22.4661 4.52774 22.5467 4.32524 22.5943C4.13953 22.638 3.76636 22.7146 3.37775 22.562C2.93879 22.3896 2.60647 22.0207 2.48056 21.5663C2.3691 21.1639 2.484 20.8007 2.54674 20.6205C2.61514 20.4241 2.72045 20.1912 2.82613 19.9575L10.3957 3.20803C10.4007 3.19702 10.4057 3.18599 10.4107 3.17497C10.5136 2.94696 10.617 2.71828 10.7177 2.5399C10.8113 2.37424 11.0053 2.05439 11.3745 1.87257Z" fill="white"/>
</svg>
