<svg width="24" height="24" viewBox="0 0 24 24" fill="none" xmlns="http://www.w3.org/2000/svg">
<path fill-rule="evenodd" clip-rule="evenodd" d="M7.19916 1.5H16.8011C17.5186 1.49999 18.1137 1.49998 18.6025 1.53772C19.1124 1.5771 19.5821 1.66155 20.0335 1.87072C20.7384 2.19735 21.3329 2.72216 21.7444 3.38106C22.008 3.80303 22.15 4.25869 22.2523 4.75975C22.3504 5.24009 22.4242 5.83062 22.5132 6.54263L22.9924 10.376C23.0045 10.4729 23.0023 10.5683 22.9875 10.6601C22.9958 10.7723 23.0001 10.8857 23.0001 11C23.0001 12.4136 22.3483 13.675 21.3288 14.5C22.3483 15.325 23.0001 16.5864 23.0001 18C23.0001 20.4853 20.9854 22.5 18.5001 22.5H5.50011C3.01482 22.5 1.00011 20.4853 1.00011 18C1.00011 16.5864 1.65194 15.325 2.67144 14.5C1.65194 13.675 1.00011 12.4136 1.00011 11C1.00011 10.8857 1.00437 10.7723 1.01275 10.6601C0.997899 10.5683 0.99571 10.4729 1.00783 10.376L1.487 6.54259C1.57599 5.83059 1.64979 5.24007 1.74787 4.75975C1.85019 4.25869 1.99225 3.80303 2.2558 3.38106C2.66733 2.72216 3.26182 2.19735 3.96668 1.87072C4.41808 1.66155 4.88784 1.5771 5.39773 1.53772C5.88651 1.49998 6.48162 1.49999 7.19916 1.5ZM3.446 6.99511C4.06181 6.67862 4.7601 6.5 5.50011 6.5H18.5001C19.2401 6.5 19.9384 6.67862 20.5542 6.99511L20.5334 6.82867C20.4385 6.06907 20.3736 5.55558 20.2928 5.15989C20.2145 4.77641 20.1349 4.57946 20.0481 4.44053C19.8423 4.11108 19.5451 3.84867 19.1926 3.68536C19.044 3.61649 18.8387 3.56192 18.4485 3.53179C18.0458 3.50069 17.5283 3.5 16.7628 3.5H7.23746C6.47194 3.5 5.95437 3.50069 5.55172 3.53179C5.16149 3.56192 4.95619 3.61649 4.80757 3.68536C4.45514 3.84867 4.15789 4.11108 3.95212 4.44053C3.86535 4.57946 3.78574 4.77641 3.70744 5.15988C3.62664 5.55558 3.56175 6.06907 3.4668 6.82867L3.446 6.99511ZM5.50011 15.5C4.11939 15.5 3.00011 16.6193 3.00011 18C3.00011 19.3807 4.11939 20.5 5.50011 20.5H18.5001C19.8808 20.5 21.0001 19.3807 21.0001 18C21.0001 16.6193 19.8808 15.5 18.5001 15.5H5.50011ZM18.5001 13.5C19.8808 13.5 21.0001 12.3807 21.0001 11C21.0001 9.61929 19.8808 8.5 18.5001 8.5H5.50011C4.11939 8.5 3.00011 9.61929 3.00011 11C3.00011 12.3807 4.11939 13.5 5.50011 13.5H18.5001ZM5.00011 11C5.00011 10.4477 5.44782 10 6.00011 10H6.01011C6.56239 10 7.01011 10.4477 7.01011 11C7.01011 11.5523 6.56239 12 6.01011 12H6.00011C5.44782 12 5.00011 11.5523 5.00011 11ZM11.0001 11C11.0001 10.4477 11.4478 10 12.0001 10H18.0001C18.5524 10 19.0001 10.4477 19.0001 11C19.0001 11.5523 18.5524 12 18.0001 12H12.0001C11.4478 12 11.0001 11.5523 11.0001 11ZM5.00011 18C5.00011 17.4477 5.44782 17 6.00011 17H6.01011C6.56239 17 7.01011 17.4477 7.01011 18C7.01011 18.5523 6.56239 19 6.01011 19H6.00011C5.44782 19 5.00011 18.5523 5.00011 18ZM11.0001 18C11.0001 17.4477 11.4478 17 12.0001 17H18.0001C18.5524 17 19.0001 17.4477 19.0001 18C19.0001 18.5523 18.5524 19 18.0001 19H12.0001C11.4478 19 11.0001 18.5523 11.0001 18Z" fill="#1B2631"/>
</svg>
