<svg width="24" height="24" viewBox="0 0 24 24" fill="none" xmlns="http://www.w3.org/2000/svg">
<path d="M12 16C9.8 16 8 14.2 8 12C8 9.8 9.8 8 12 8C14.2 8 16 9.8 16 12C16 14.2 14.2 16 12 16ZM12 10C10.9 10 10 10.9 10 12C10 13.1 10.9 14 12 14C13.1 14 14 13.1 14 12C14 10.9 13.1 10 12 10Z" fill="white"/>
<path d="M11.8999 23.0001C11.2999 23.0001 10.6999 22.8001 10.0999 22.5001C9.4999 22.2001 9.1999 21.7001 8.9999 21.1001L8.3999 19.8001C8.2999 19.5001 8.0999 19.3001 7.7999 19.1001C7.4999 18.9001 7.1999 18.9001 6.8999 18.9001L5.4999 19.1001C4.8999 19.2001 4.2999 19.1001 3.6999 18.8001C3.0999 18.5001 2.6999 18.1001 2.3999 17.5001C2.0999 17.0001 1.8999 16.3001 1.9999 15.7001C1.9999 15.1001 2.1999 14.5001 2.5999 14.0001L3.3999 12.8001C3.5999 12.6001 3.6999 12.3001 3.6999 12.0001C3.6999 11.7001 3.5999 11.4001 3.3999 11.2001L2.5999 10.0001C2.1999 9.5001 1.9999 8.9001 1.8999 8.3001C1.8999 7.7001 1.9999 7.1001 2.2999 6.5001C2.5999 6.0001 3.0999 5.5001 3.5999 5.2001C4.2999 5.0001 4.8999 4.8001 5.4999 4.9001L6.8999 5.1001C7.1999 5.1001 7.4999 5.1001 7.7999 4.9001C7.9999 4.7001 8.2999 4.5001 8.3999 4.2001L8.9999 2.9001C9.2999 2.3001 9.6999 1.9001 10.1999 1.5001C11.1999 0.800098 12.6999 0.800098 13.6999 1.5001C14.1999 1.8001 14.5999 2.3001 14.8999 2.9001L15.4999 4.2001C15.5999 4.5001 15.7999 4.7001 16.0999 4.9001C16.3999 5.1001 16.6999 5.1001 16.9999 5.1001L18.3999 4.9001C18.9999 4.8001 19.5999 4.9001 20.1999 5.2001C20.7999 5.5001 21.1999 5.9001 21.4999 6.5001C21.7999 7.0001 21.9999 7.7001 21.8999 8.3001C21.8999 8.9001 21.6999 9.5001 21.2999 10.0001L20.4999 11.2001C20.2999 11.4001 20.1999 11.7001 20.1999 12.0001C20.1999 12.3001 20.2999 12.6001 20.4999 12.8001L21.2999 14.0001C21.6999 14.5001 21.8999 15.1001 21.8999 15.7001C21.8999 16.3001 21.7999 16.9001 21.4999 17.5001C21.1999 18.0001 20.6999 18.5001 20.1999 18.8001C19.5999 19.1001 18.9999 19.2001 18.3999 19.1001L16.9999 18.9001C16.6999 18.9001 16.3999 18.9001 16.0999 19.1001C15.7999 19.3001 15.5999 19.5001 15.4999 19.8001L14.8999 21.1001C14.5999 21.7001 14.1999 22.1001 13.6999 22.5001C13.0999 22.8001 12.4999 23.0001 11.8999 23.0001ZM10.1999 19.0001L10.7999 20.3001C10.8999 20.5001 11.0999 20.7001 11.1999 20.8001C11.5999 21.1001 12.0999 21.1001 12.4999 20.8001C12.6999 20.7001 12.8999 20.5001 12.8999 20.3001L13.4999 19.0001C13.7999 18.3001 14.2999 17.8001 14.8999 17.4001C15.4999 17.0001 16.1999 16.9001 16.9999 17.0001L18.3999 17.2001C18.5999 17.2001 18.8999 17.2001 19.0999 17.1001C19.2999 17.0001 19.4999 16.8001 19.5999 16.6001C19.6999 16.4001 19.7999 16.2001 19.7999 15.9001C19.7999 15.7001 19.6999 15.4001 19.5999 15.3001L18.7999 14.0001C18.3999 13.4001 18.0999 12.7001 18.0999 12.0001C18.0999 11.3001 18.2999 10.6001 18.7999 10.0001L19.5999 8.8001C19.6999 8.6001 19.7999 8.4001 19.7999 8.2001C19.7999 8.0001 19.7999 7.7001 19.5999 7.5001C19.4999 7.3001 19.2999 7.1001 19.0999 7.0001C18.8999 6.9001 18.6999 6.9001 18.3999 6.9001L16.9999 7.1001C16.3999 7.1001 15.5999 7.0001 14.9999 6.6001C14.3999 6.2001 13.8999 5.7001 13.5999 5.0001L12.9999 3.7001C12.8999 3.5001 12.6999 3.3001 12.5999 3.2001C12.1999 2.9001 11.6999 2.9001 11.2999 3.2001C11.0999 3.3001 10.8999 3.5001 10.8999 3.7001L10.1999 5.0001C9.8999 5.7001 9.3999 6.2001 8.7999 6.6001C8.1999 7.0001 7.3999 7.1001 6.6999 7.1001L5.2999 6.9001C4.9999 6.9001 4.7999 6.9001 4.5999 7.0001C4.3999 7.1001 4.1999 7.3001 4.0999 7.5001C3.9999 7.7001 3.8999 7.9001 3.8999 8.2001C3.9999 8.4001 3.9999 8.6001 4.1999 8.8001L4.9999 10.0001C5.3999 10.6001 5.6999 11.3001 5.6999 12.0001C5.6999 12.7001 5.4999 13.4001 4.9999 14.0001L4.1999 15.2001C3.9999 15.4001 3.9999 15.6001 3.8999 15.8001C3.7999 16.0001 3.8999 16.3001 4.0999 16.5001C4.1999 16.7001 4.3999 16.9001 4.5999 17.0001C4.7999 17.1001 4.9999 17.1001 5.2999 17.1001L6.6999 16.9001C7.3999 16.8001 8.0999 17.0001 8.7999 17.3001C9.3999 17.7001 9.8999 18.3001 10.1999 19.0001Z" fill="white"/>
</svg>
