<svg width="24" height="24" viewBox="0 0 24 24" fill="none" xmlns="http://www.w3.org/2000/svg">
<path d="M12 16C9.8 16 8 14.2 8 12C8 9.8 9.8 8 12 8C14.2 8 16 9.8 16 12C16 14.2 14.2 16 12 16ZM12 10C10.9 10 10 10.9 10 12C10 13.1 10.9 14 12 14C13.1 14 14 13.1 14 12C14 10.9 13.1 10 12 10Z" fill="white"/>
<path d="M12.1 23.0001C11.3 23.0001 10.6 22.7001 10.1 22.2001C9.6 21.7001 9.3 20.9001 9.3 20.2001C9.3 20.0001 9.3 19.9001 9.2 19.9001C9.1 19.8001 9.1 19.8001 9 19.7001C8.8 19.6001 8.7 19.6001 8.6 19.6001C8.5 19.6001 8.4 19.7001 8.3 19.7001C8 20.0001 7.7 20.2001 7.3 20.4001C6.6 20.7001 5.8 20.7001 5.1 20.4001C4.8 20.3001 4.4 20.1001 4.2 19.8001C3.9 19.5001 3.7 19.2001 3.6 18.9001C3.5 18.6001 3.4 18.2001 3.4 17.8001C3.4 17.4001 3.5 17.1001 3.6 16.7001C3.7 16.4001 3.9 16.0001 4.2 15.8001C4.3 15.7001 4.4 15.6001 4.4 15.5001C4.4 15.4001 4.4 15.3001 4.4 15.2001C4.4 15.1001 4.3 15.0001 4.2 15.0001C4.1 14.9001 4 14.9001 3.9 14.9001H3.8C3 14.9001 2.3 14.6001 1.8 14.1001C1.3 13.6001 1 12.9001 1 12.1001C1 11.3001 1.3 10.6001 1.8 10.1001C2.3 9.6001 3 9.3001 3.8 9.3001C4 9.3001 4.1 9.3001 4.1 9.2001C4.1 9.1001 4.3 9.0001 4.3 8.9001C4.4 8.8001 4.4 8.6001 4.4 8.5001C4.4 8.4001 4.3 8.3001 4.3 8.2001C3.9 8.0001 3.7 7.7001 3.6 7.4001C3.5 7.0001 3.4 6.6001 3.4 6.3001C3.4 6.0001 3.5 5.6001 3.6 5.2001C3.7 4.9001 3.9 4.5001 4.2 4.3001C4.5 4.1001 4.8 3.8001 5.1 3.7001C5.8 3.4001 6.6 3.4001 7.3 3.7001C7.6 3.8001 7.9 4.0001 8.2 4.3001C8.3 4.4001 8.4 4.5001 8.5 4.5001C8.6 4.5001 8.7 4.5001 8.8 4.5001C8.9 4.5001 8.9 4.5001 9 4.4001L9.1 4.3001C9.2 4.2001 9.2 4.1001 9.2 4.0001V3.8001C9.2 3.0001 9.5 2.3001 10 1.8001C11.1 0.700098 12.9 0.700098 14 1.8001C14.5 2.3001 14.8 3.0001 14.8 3.8001C14.8 4.0001 14.8 4.1001 14.9 4.2001C15 4.3001 15 4.3001 15.1 4.4001C15.2 4.4001 15.3 4.5001 15.4 4.4001C15.5 4.4001 15.6 4.3001 15.7 4.3001C16 4.0001 16.3 3.8001 16.7 3.6001C17.4 3.3001 18.2 3.3001 18.9 3.6001C19.2 3.7001 19.6 3.9001 19.8 4.2001C20.1 4.5001 20.3 4.8001 20.4 5.1001C20.5 5.4001 20.6 5.8001 20.6 6.2001C20.6 6.6001 20.5 6.9001 20.4 7.3001C20.3 7.6001 20.1 7.9001 19.8 8.2001C19.7 8.3001 19.6 8.4001 19.6 8.5001C19.6 8.6001 19.6 8.7001 19.6 8.8001C19.6 8.9001 19.6 8.9001 19.7 9.0001L19.8 9.1001C19.9 9.2001 20 9.2001 20.1 9.2001H20.3C21 9.2001 21.8 9.5001 22.3 10.0001C22.8 10.5001 23.1 11.2001 23.1 12.0001C23.1 12.8001 22.8 13.5001 22.3 14.0001C21.8 14.5001 21.1 14.8001 20.3 14.8001C20.1 14.8001 20 14.8001 19.9 14.9001C19.8 15.0001 19.8 15.0001 19.7 15.1001C19.7 15.2001 19.6 15.3001 19.7 15.4001C19.7 15.5001 19.8 15.6001 19.8 15.7001C20.1 16.0001 20.3 16.3001 20.5 16.7001C20.6 17.0001 20.7 17.4001 20.7 17.8001C20.7 18.2001 20.6 18.5001 20.5 18.9001C20.4 19.2001 20.2 19.6001 19.9 19.8001C19.6 20.1001 19.3 20.3001 19 20.4001C18.3 20.7001 17.5 20.7001 16.8 20.4001C16.5 20.3001 16.2 20.1001 15.9 19.8001C15.8 19.7001 15.7 19.6001 15.6 19.6001C15.5 19.6001 15.4 19.6001 15.3 19.6001C15.2 19.6001 15.1 19.7001 15.1 19.8001C15 19.9001 15 20.0001 15 20.1001V20.2001C15 21.0001 14.7 21.7001 14.2 22.2001C13.5 22.7001 12.8 23.0001 12.1 23.0001ZM8.7 17.6001C9 17.6001 9.4 17.7001 9.7 17.8001C10.1 17.9001 10.5 18.3001 10.8 18.7001C11.1 19.1001 11.3 19.6001 11.3 20.1001V20.2001C11.3 20.4001 11.4 20.6001 11.5 20.8001C11.8 21.1001 12.4 21.1001 12.7 20.8001C12.9 20.6001 12.9 20.4001 12.9 20.2001V20.0001C12.9 19.5001 13 19.0001 13.3 18.6001C13.6 18.2001 13.9 17.9001 14.4 17.7001C14.9 17.5001 15.4 17.4001 15.8 17.5001C16.3 17.6001 16.7 17.8001 17.1 18.2001C17.2 18.3001 17.3 18.4001 17.4 18.4001C17.6 18.5001 17.8 18.5001 18 18.4001C18.1 18.4001 18.2 18.3001 18.3 18.2001C18.4 18.1001 18.4 18.0001 18.5 17.9001C18.5 17.8001 18.6 17.7001 18.6 17.6001C18.6 17.5001 18.6 17.4001 18.5 17.3001C18.5 17.2001 18.4 17.1001 18.3 17.0001C17.9 16.6001 17.7 16.1001 17.6 15.6001C17.5 15.1001 17.6 14.6001 17.8 14.2001C18 13.8001 18.3 13.4001 18.7 13.1001C19.1 12.8001 19.6 12.7001 20.1 12.7001C20.4 12.7001 20.6 12.6001 20.8 12.5001C21 12.3001 21 12.1001 21 11.9001C21 11.7001 20.9 11.5001 20.8 11.3001C20.6 11.1001 20.4 11.1001 20.2 11.1001H20C19.5 11.1001 19 11.0001 18.6 10.7001C18.2 10.4001 17.9 10.1001 17.7 9.6001C17.7 9.5001 17.6 9.4001 17.6 9.3001C17.5 8.9001 17.4 8.5001 17.5 8.0001C17.6 7.5001 17.8 7.1001 18.2 6.7001C18.3 6.6001 18.4 6.5001 18.4 6.4001C18.4 6.3001 18.5 6.2001 18.5 6.1001C18.5 6.0001 18.5 5.9001 18.4 5.8001C18.4 5.7001 18.3 5.6001 18.2 5.5001C18.1 5.4001 18 5.4001 17.9 5.3001C17.7 5.2001 17.5 5.2001 17.3 5.3001C17.2 5.3001 17.1 5.4001 17 5.5001C16.6 5.9001 16.1 6.1001 15.6 6.2001C15.1 6.3001 14.6 6.2001 14.1 6.0001C13.7 5.8001 13.3 5.5001 13 5.1001C12.7 4.7001 12.6 4.2001 12.6 3.7001C12.6 3.4001 12.5 3.2001 12.4 3.0001C12.1 2.7001 11.6 2.7001 11.2 3.0001C11 3.2001 11 3.4001 11 3.6001V4.0001C11 4.5001 10.9 5.0001 10.6 5.4001C10.3 5.8001 10 6.1001 9.5 6.3001C9.4 6.3001 9.3 6.4001 9.2 6.4001C9 6.5001 8.6 6.5001 8.1 6.4001C7.7 6.3001 7.2 6.1001 6.8 5.8001C6.7 5.6001 6.6 5.6001 6.5 5.5001C6.3 5.4001 6.1 5.4001 5.9 5.5001C5.8 5.5001 5.7 5.6001 5.6 5.7001C5.5 5.8001 5.5 5.9001 5.4 6.0001C5.4 6.1001 5.3 6.2001 5.3 6.3001C5.3 6.4001 5.3 6.5001 5.4 6.6001C5.4 6.7001 5.5 6.8001 5.6 6.9001C6 7.3001 6.3 7.7001 6.4 8.2001C6.5 8.7001 6.4 9.2001 6.2 9.7001C6 10.1001 5.7 10.5001 5.3 10.8001C4.9 11.1001 4.4 11.3001 3.9 11.3001H3.8C3.6 11.3001 3.4 11.4001 3.2 11.5001C3 11.6001 3 11.9001 3 12.1001C3 12.3001 3.1 12.5001 3.2 12.7001C3.4 12.9001 3.6 12.9001 3.8 12.9001H4C4.5 12.9001 5 13.0001 5.4 13.3001C5.8 13.6001 6.1 13.9001 6.3 14.4001C6.5 14.8001 6.6 15.4001 6.5 15.8001C6.4 16.3001 6.2 16.7001 5.8 17.1001C5.7 17.2001 5.6 17.3001 5.6 17.4001C5.6 17.5001 5.5 17.6001 5.5 17.7001C5.5 17.8001 5.5 17.9001 5.6 18.0001C5.6 18.1001 5.7 18.2001 5.8 18.3001C5.9 18.4001 6 18.4001 6.1 18.5001C6.3 18.6001 6.5 18.6001 6.7 18.5001C6.8 18.5001 6.9 18.4001 7 18.3001C7.4 17.9001 7.9 17.7001 8.4 17.6001C8.4 17.6001 8.5 17.6001 8.7 17.6001Z" fill="white"/>
</svg>
