<svg width="24" height="24" viewBox="0 0 24 24" fill="none" xmlns="http://www.w3.org/2000/svg">
<path fill-rule="evenodd" clip-rule="evenodd" d="M10.3373 3.13927C10.6304 2.77964 11.0734 2.57587 11.5372 2.58738C11.9438 2.59746 12.2509 2.80123 12.4055 2.91129C12.5703 3.02862 12.758 3.1895 12.9441 3.34906C12.9532 3.35688 12.9623 3.36471 12.9714 3.37252L21.4422 10.6331C21.4486 10.6387 21.4552 10.6443 21.4618 10.65C21.5662 10.7394 21.6875 10.8433 21.7853 10.9429C21.8959 11.0556 22.0507 11.2346 22.1434 11.4927C22.2611 11.8205 22.2611 12.1791 22.1434 12.5069C22.0507 12.765 21.8959 12.944 21.7853 13.0567C21.6875 13.1563 21.5662 13.2602 21.4618 13.3497C21.4552 13.3553 21.4486 13.3609 21.4422 13.3665L12.9441 20.6505C12.758 20.8101 12.5704 20.971 12.4055 21.0883C12.2509 21.1984 11.9438 21.4021 11.5372 21.4122C11.0734 21.4237 10.6304 21.22 10.3373 20.8603C10.0803 20.5451 10.0352 20.1793 10.0181 19.9903C9.99991 19.7888 9.99995 19.5416 10 19.2964L10 16.1962C9.0578 16.3591 8.14001 16.6516 7.27329 17.0673C5.92197 17.7156 4.72673 18.6483 3.76944 19.8015C3.5003 20.1257 3.05681 20.2464 2.66047 20.1034C2.26413 19.9603 2 19.5841 2 19.1628V18.5508C2.00136 15.93 2.96754 13.401 4.71418 11.4472C6.1266 9.86724 7.9694 8.75251 10 8.22833V4.73918C10 4.72718 10 4.71517 10 4.70316C9.99995 4.45803 9.99991 4.21085 10.0181 4.00934C10.0352 3.82031 10.0803 3.45455 10.3373 3.13927ZM12 5.17403V9.03444C12 9.52024 11.6509 9.93576 11.1723 10.0195C9.25852 10.3543 7.50691 11.3241 6.20524 12.7801C5.22531 13.8763 4.54774 15.1951 4.22184 16.6075C4.90026 16.0868 5.63269 15.6362 6.40823 15.2641C7.82872 14.5827 9.36428 14.179 10.9323 14.0726C11.2087 14.0539 11.4804 14.1506 11.6828 14.3397C11.8851 14.5288 12 14.7934 12 15.0703V18.8256L19.9634 11.9998L12 5.17403Z" fill="white"/>
</svg>
