<svg width="24" height="24" viewBox="0 0 24 24" fill="none" xmlns="http://www.w3.org/2000/svg">
<path fill-rule="evenodd" clip-rule="evenodd" d="M11.714 1.08867C11.9037 1.06126 12.0963 1.06126 12.286 1.08867C12.5047 1.12027 12.7081 1.19712 12.8696 1.25815C12.8844 1.26373 12.8989 1.26919 12.9129 1.27446L18.2747 3.28513C18.3186 3.3016 18.3622 3.31786 18.4054 3.33398C19.0232 3.56463 19.5657 3.76719 19.9835 4.13541C20.349 4.45753 20.6306 4.86383 20.8039 5.31917C21.0019 5.83968 21.0011 6.4188 21.0001 7.07824C21.0001 7.12434 21 7.17083 21 7.21772V12.0001C21 12.8285 20.8672 13.6191 20.6375 14.3653C20.4751 14.8931 19.9154 15.1893 19.3876 15.0268C18.8598 14.8644 18.5636 14.3047 18.726 13.7769C18.9022 13.2047 19 12.6123 19 12.0001V7.21772C19 6.33636 18.9842 6.16083 18.9346 6.03047C18.8769 5.87869 18.783 5.74325 18.6612 5.63588C18.5565 5.54366 18.3977 5.46726 17.5725 5.15779L12.2107 3.14712C12.0993 3.10534 12.0439 3.08478 12.003 3.07139C12.002 3.07104 12.001 3.07072 12 3.0704C11.999 3.07072 11.998 3.07104 11.997 3.07139C11.9561 3.08478 11.9007 3.10534 11.7893 3.14712L9.1598 4.13319C8.64268 4.32711 8.06627 4.0651 7.87235 3.54798C7.67843 3.03086 7.94044 2.45445 8.45756 2.26053L11.0871 1.27446C11.1011 1.26919 11.1156 1.26373 11.1304 1.25815C11.2919 1.19712 11.4953 1.12027 11.714 1.08867ZM2.29289 2.29301C2.68342 1.90248 3.31658 1.90248 3.70711 2.29301L21.7071 20.293C22.0976 20.6835 22.0976 21.3167 21.7071 21.7072C21.3166 22.0977 20.6834 22.0977 20.2929 21.7072L17.6527 19.067C16.014 20.7313 14.1818 21.907 13.2036 22.4777C13.1902 22.4856 13.1764 22.4937 13.1623 22.5019C12.9771 22.6107 12.7367 22.7519 12.4195 22.82L12.2098 21.8422L12.4195 22.82M11.5807 22.82C11.2635 22.752 11.0238 22.6112 10.8391 22.5028C10.8251 22.4946 10.8115 22.4865 10.7981 22.4787C9.786 21.8883 7.87196 20.6573 6.19906 18.9145C4.53729 17.1833 3 14.8267 3 12.0001V5.77643C3 5.3909 3.10432 5.02301 3.29064 4.70497L2.29289 3.70722C1.90237 3.3167 1.90237 2.68353 2.29289 2.29301M5 6.41433L16.2385 17.6528C14.7791 19.1384 13.1116 20.2158 12.1956 20.7503C12.1382 20.7838 12.0967 20.8081 12.0606 20.8284C12.032 20.8445 12.013 20.8546 12 20.8612C11.9871 20.8547 11.9684 20.8447 11.9403 20.8289C11.9044 20.8087 11.8631 20.7846 11.8059 20.7512C10.87 20.2052 9.13301 19.083 7.64191 17.5296C6.13969 15.9646 5 14.0819 5 12.0001V6.41433Z" fill="#1B2631"/>
</svg>
