<svg width="24" height="24" viewBox="0 0 24 24" fill="none" xmlns="http://www.w3.org/2000/svg">
<path fill-rule="evenodd" clip-rule="evenodd" d="M11.714 1.08867C11.9037 1.06126 12.0963 1.06126 12.2861 1.08867C12.5047 1.12027 12.7081 1.19712 12.8697 1.25815C12.8844 1.26373 12.8989 1.26919 12.9129 1.27446L18.2747 3.28513C18.3186 3.3016 18.3622 3.31786 18.4054 3.33398C19.0232 3.56463 19.5657 3.76719 19.9835 4.13541C20.349 4.45753 20.6306 4.86383 20.8039 5.31917C21.0019 5.83968 21.0011 6.4188 21.0002 7.07824C21.0001 7.12434 21 7.17083 21 7.21772V12.0001C21 14.8267 19.4627 17.1833 17.801 18.9145C16.1281 20.6573 14.214 21.8883 13.2019 22.4787C13.1886 22.4865 13.1749 22.4946 13.1609 22.5028C12.9763 22.6112 12.7365 22.752 12.4194 22.82C12.1599 22.8756 11.8401 22.8756 11.5807 22.82C11.2635 22.752 11.0238 22.6112 10.8391 22.5028C10.8251 22.4946 10.8115 22.4865 10.7981 22.4787C9.78602 21.8883 7.87198 20.6573 6.19908 18.9145C4.53731 17.1833 3.00002 14.8267 3.00002 12.0001V7.21772C3.00002 7.17083 2.99995 7.12434 2.99989 7.07825C2.99893 6.4188 2.99809 5.83968 3.19616 5.31917C3.36943 4.86383 3.65099 4.45753 4.01651 4.13541C4.43433 3.76719 4.97687 3.56463 5.59466 3.33398C5.63785 3.31786 5.6814 3.3016 5.7253 3.28513L11.0871 1.27446C11.1012 1.26919 11.1156 1.26373 11.1304 1.25815C11.2919 1.19712 11.4954 1.12027 11.714 1.08867ZM13 3.44312L17.5725 5.15779C18.3977 5.46726 18.5565 5.54366 18.6612 5.63588C18.783 5.74325 18.8769 5.87868 18.9346 6.03047C18.9842 6.16083 19 6.33636 19 7.21772V12.0001C19 14.0819 17.8603 15.9646 16.3581 17.5295C15.2281 18.7068 13.9568 19.6364 13 20.2553V3.44312ZM11 20.2553C10.0432 19.6364 8.77197 18.7068 7.64193 17.5296C6.13971 15.9646 5.00002 14.0819 5.00002 12.0001V7.21772C5.00002 6.33636 5.01579 6.16083 5.0654 6.03047C5.12316 5.87868 5.21701 5.74325 5.33885 5.63588C5.4435 5.54366 5.60231 5.46726 6.42755 5.15779L11 3.44312V20.2553Z" fill="#1B2631"/>
</svg>
