<svg width="24" height="24" viewBox="0 0 24 24" fill="none" xmlns="http://www.w3.org/2000/svg">
<path fill-rule="evenodd" clip-rule="evenodd" d="M8.37741 2H15.6228C16.3683 1.99999 16.9858 1.99998 17.4915 2.03982C18.0184 2.08133 18.5034 2.17037 18.9662 2.3918C19.6872 2.7368 20.2883 3.28992 20.692 3.97981C20.9511 4.42258 21.0801 4.89856 21.1653 5.42018C21.247 5.92086 21.2982 6.53618 21.3601 7.27916L22.067 15.7614C22.1391 16.6271 22.1985 17.339 22.1979 17.9195C22.1973 18.5203 22.1349 19.0771 21.9033 19.6056C21.546 20.4209 20.9268 21.0938 20.144 21.5176C19.6365 21.7923 19.0869 21.9007 18.4881 21.9512C17.9097 22 17.1953 22 16.3267 22H7.67346C6.80483 22 6.09047 22 5.51202 21.9512C4.91327 21.9007 4.36364 21.7923 3.85619 21.5176C3.07332 21.0938 2.45419 20.4209 2.09686 19.6056C1.86524 19.0771 1.80285 18.5203 1.80225 17.9195C1.80167 17.3389 1.86101 16.6271 1.93316 15.7614L2.64001 7.27916C2.70192 6.53615 2.75318 5.92088 2.83489 5.42017C2.92 4.89856 3.04902 4.42258 3.30811 3.97981C3.71181 3.28992 4.31294 2.7368 5.03396 2.39179C5.49672 2.17037 5.98177 2.08133 6.50865 2.03982C7.01441 1.99998 7.63184 1.99999 8.37741 2ZM9.00006 8C9.00006 7.44772 8.55235 7 8.00006 7C7.44778 7 7.00006 7.44772 7.00006 8C7.00006 9.32608 7.52684 10.5979 8.46453 11.5355C9.40221 12.4732 10.674 13 12.0001 13C13.3261 13 14.5979 12.4732 15.5356 11.5355C16.4733 10.5979 17.0001 9.32608 17.0001 8C17.0001 7.44772 16.5523 7 16.0001 7C15.4478 7 15.0001 7.44772 15.0001 8C15.0001 8.79565 14.684 9.55871 14.1214 10.1213C13.5588 10.6839 12.7957 11 12.0001 11C11.2044 11 10.4413 10.6839 9.87874 10.1213C9.31613 9.55871 9.00006 8.79565 9.00006 8Z" fill="#1B2631"/>
</svg>
