<svg width="24" height="24" viewBox="0 0 24 24" fill="none" xmlns="http://www.w3.org/2000/svg">
<path fill-rule="evenodd" clip-rule="evenodd" d="M6.73861 0.999897C6.75961 0.999964 6.78012 1.00003 6.80007 1.00003H17.2001C17.22 1.00003 17.2405 0.999964 17.2615 0.999897C17.4884 0.999179 17.7739 0.998276 18.0493 1.07692C18.2878 1.14502 18.5115 1.25688 18.709 1.40678C18.9372 1.57989 19.1077 1.80885 19.2433 1.99078C19.2558 2.00762 19.2681 2.02407 19.2801 2.04003L20.861 4.14797C20.8752 4.16691 20.8895 4.18591 20.9037 4.20493L21.1601 4.54669C21.1736 4.56471 21.187 4.58256 21.2003 4.60027C21.3984 4.86402 21.5732 5.0967 21.7008 5.36058C21.813 5.59263 21.8949 5.83817 21.9443 6.09113C22.0006 6.3788 22.0004 6.66981 22.0001 6.99967C22.0001 7.02183 22.0001 7.04417 22.0001 7.06669V18.8386C22.0001 19.3657 22.0001 19.8205 21.9695 20.1951C21.9372 20.5904 21.8659 20.9836 21.6731 21.362C21.3855 21.9265 20.9265 22.3854 20.362 22.673C19.9837 22.8658 19.5904 22.9372 19.1951 22.9695C18.8205 23.0001 18.3658 23 17.8386 23L6.1615 23C5.63436 23 5.17961 23.0001 4.80504 22.9695C4.40969 22.9372 4.01647 22.8658 3.63809 22.673C3.07361 22.3854 2.61467 21.9265 2.32705 21.362C2.13425 20.9836 2.06294 20.5904 2.03064 20.1951C2.00003 19.8205 2.00005 19.3657 2.00007 18.8386L2.00007 7.06669C2.00007 7.04417 2.00005 7.02183 2.00003 6.99967C1.99978 6.66981 1.99956 6.3788 2.0558 6.09113C2.10525 5.83816 2.18709 5.59262 2.29931 5.36058C2.42693 5.0967 2.60171 4.86403 2.79983 4.60029C2.81314 4.58257 2.82655 4.56471 2.84007 4.54669L3.09707 4.20402C3.1111 4.1853 3.12513 4.16659 3.13912 4.14795C3.1454 4.13958 3.15166 4.13123 3.15792 4.12289C3.15863 4.12194 3.15935 4.12098 3.16007 4.12003L4.72007 2.04003C4.73203 2.02407 4.74429 2.00763 4.75684 1.99078C4.89239 1.80885 5.06298 1.57989 5.29112 1.40678C5.48867 1.25688 5.71238 1.14502 5.95084 1.07692C6.22621 0.998276 6.51173 0.999179 6.73861 0.999897ZM6.32007 3.24003L5.00007 5.00003H19.0001L17.6801 3.24003C17.5859 3.11451 17.5381 3.05132 17.5012 3.00718C17.5002 3.00596 17.4992 3.00479 17.4982 3.00367C17.4968 3.00359 17.4953 3.0035 17.4937 3.00342C17.4362 3.00035 17.357 3.00003 17.2001 3.00003H6.80007C6.64317 3.00003 6.56394 3.00035 6.50647 3.00342C6.50488 3.0035 6.50335 3.00359 6.50189 3.00367C6.50094 3.00479 6.49996 3.00596 6.49894 3.00718C6.462 3.05132 6.4142 3.11451 6.32007 3.24003ZM20 6.98924C19.8267 7.00011 19.6284 7.00007 19.435 7.00003L4.60007 7.00003C4.58845 7.00003 4.57682 7.00003 4.56516 7.00003C4.37173 7.00007 4.17348 7.00011 4.00012 6.98924C4.00008 7.01375 4.00007 7.03954 4.00007 7.06669L4.00007 18.8C4.00007 19.3766 4.00084 19.7489 4.02399 20.0322C4.04619 20.3039 4.08387 20.4046 4.10906 20.454C4.20493 20.6422 4.35791 20.7952 4.54608 20.891C4.59552 20.9162 4.69624 20.9539 4.9679 20.9761C5.25124 20.9992 5.62351 21 6.20007 21L17.8001 21C18.3766 21 18.7489 20.9992 19.0322 20.9761C19.3039 20.9539 19.4046 20.9162 19.4541 20.891C19.6422 20.7952 19.7952 20.6422 19.8911 20.454C19.9163 20.4046 19.9539 20.3039 19.9761 20.0322C19.9993 19.7489 20.0001 19.3766 20.0001 18.8V7.06669C20.0001 7.03954 20 7.01375 20 6.98924ZM8.00007 9.00003C8.55235 9.00003 9.00007 9.44774 9.00007 10C9.00007 10.7957 9.31614 11.5587 9.87875 12.1213C10.4414 12.684 11.2044 13 12.0001 13C12.7957 13 13.5588 12.684 14.1214 12.1213C14.684 11.5587 15.0001 10.7957 15.0001 10C15.0001 9.44774 15.4478 9.00003 16.0001 9.00003C16.5524 9.00003 17.0001 9.44774 17.0001 10C17.0001 11.3261 16.4733 12.5979 15.5356 13.5356C14.5979 14.4732 13.3261 15 12.0001 15C10.674 15 9.40221 14.4732 8.46453 13.5356C7.52685 12.5979 7.00007 11.3261 7.00007 10C7.00007 9.44774 7.44778 9.00003 8.00007 9.00003Z" fill="#1B2631"/>
</svg>
