<svg width="24" height="24" viewBox="0 0 24 24" fill="none" xmlns="http://www.w3.org/2000/svg">
<path fill-rule="evenodd" clip-rule="evenodd" d="M8.52269 1.00019L8.47165 1.0001C8.28174 0.999592 8.0426 0.998953 7.80727 1.05545C7.6032 1.10444 7.40811 1.18525 7.22916 1.29491C7.02281 1.42136 6.85417 1.59091 6.72024 1.72556L6.68421 1.76171C5.04329 3.40263 3.40239 5.04354 1.76147 6.68446L1.72531 6.72048C1.59067 6.85441 1.42112 7.02305 1.29467 7.22941C1.18501 7.40835 1.1042 7.60344 1.05521 7.80751C0.998709 8.04285 0.999348 8.28198 0.999855 8.47189L0.999947 8.52293V15.4774L0.999855 15.5285C0.999348 15.7184 0.998709 15.9575 1.05521 16.1929C1.1042 16.3969 1.18501 16.592 1.29467 16.771C1.42112 16.9773 1.59067 17.146 1.72532 17.2799L1.76147 17.3159L6.68421 22.2387L6.72024 22.2748C6.85417 22.4095 7.02281 22.579 7.22916 22.7055C7.40811 22.8151 7.6032 22.8959 7.80727 22.9449C8.0426 23.0014 8.28174 23.0008 8.47166 23.0003L8.52269 23.0002H15.4772L15.5282 23.0003C15.7181 23.0008 15.9573 23.0014 16.1926 22.9449C16.3967 22.8959 16.5918 22.8151 16.7707 22.7055C16.9771 22.579 17.1457 22.4095 17.2797 22.2748L17.3157 22.2387L22.2384 17.3159L22.2746 17.2799C22.4092 17.146 22.5788 16.9773 22.7052 16.771C22.8149 16.592 22.8957 16.3969 22.9447 16.1929C23.0012 15.9575 23.0005 15.7184 23 15.5285L22.9999 15.4774V8.52293L23 8.4719C23.0005 8.28199 23.0012 8.04285 22.9447 7.80751C22.8957 7.60344 22.8149 7.40835 22.7052 7.22941C22.5788 7.02306 22.4092 6.85442 22.2746 6.72049L22.2384 6.68445L17.3157 1.76171L17.2797 1.72556C17.1457 1.59091 16.9771 1.42136 16.7707 1.29491C16.5918 1.18525 16.3967 1.10444 16.1926 1.05545C15.9573 0.998953 15.7182 0.999592 15.5282 1.0001L15.4772 1.00019H8.52269ZM19.0699 17.656L20.8242 15.9017C20.9168 15.8091 20.9629 15.7627 20.995 15.7276L20.9974 15.7249L20.9975 15.7213C20.9997 15.6738 20.9999 15.6084 20.9999 15.4774V8.52293C20.9999 8.39193 20.9997 8.32655 20.9975 8.27906L20.9974 8.27547L20.995 8.27282C20.9629 8.2377 20.9168 8.1913 20.8242 8.09867L15.9015 3.17593C15.8088 3.0833 15.7624 3.03723 15.7273 3.00519L15.7247 3.00277L15.7211 3.0026C15.6736 3.00043 15.6082 3.00019 15.4772 3.00019H8.52269C8.39169 3.00019 8.32631 3.00043 8.27882 3.0026L8.27523 3.00277L8.27257 3.00519C7.6035 3.61575 6.34416 4.93019 6.34416 4.93019L19.0699 17.656ZM4.92995 6.3444L17.6557 19.0702L15.9015 20.8245C15.8088 20.9171 15.7624 20.9632 15.7273 20.9952L15.7247 20.9976L15.7211 20.9978C15.6736 21 15.6082 21.0002 15.4772 21.0002H8.52269C8.39169 21.0002 8.32631 21 8.27882 20.9978L8.27523 20.9976L8.27257 20.9952C8.23746 20.9632 8.19106 20.9171 8.09842 20.8245L3.17568 15.9017C3.08305 15.8091 3.03699 15.7627 3.00494 15.7276L3.00253 15.7249L3.00236 15.7213C3.00019 15.6738 2.99995 15.6084 2.99995 15.4774V8.52293C2.99995 8.39193 3.00019 8.32655 3.00236 8.27906L3.00253 8.27547L3.00494 8.27282C3.03699 8.2377 3.08305 8.1913 3.17568 8.09867L4.92995 6.3444Z" fill="white"/>
</svg>
