<svg width="24" height="24" viewBox="0 0 24 24" fill="none" xmlns="http://www.w3.org/2000/svg">
<path fill-rule="evenodd" clip-rule="evenodd" d="M8.47189 1.0001C8.48934 1.00015 8.50636 1.00019 8.52293 1.00019H15.4774C15.494 1.00019 15.511 1.00015 15.5285 1.0001C15.7184 0.999592 15.9575 0.998953 16.1929 1.05545C16.3969 1.10444 16.592 1.18525 16.771 1.29491C16.9773 1.42137 17.146 1.59091 17.2799 1.72556C17.2922 1.73793 17.3042 1.75 17.3159 1.76171L22.2387 6.68446C22.2504 6.69618 22.2625 6.70819 22.2748 6.72049C22.4095 6.85442 22.579 7.02306 22.7055 7.22941C22.8151 7.40835 22.8959 7.60344 22.9449 7.80751C23.0014 8.04284 23.0008 8.28198 23.0003 8.47189C23.0002 8.48933 23.0002 8.50636 23.0002 8.52293V15.4774C23.0002 15.494 23.0002 15.511 23.0003 15.5285C23.0008 15.7184 23.0014 15.9575 22.9449 16.1929C22.8959 16.3969 22.8151 16.592 22.7055 16.771C22.579 16.9773 22.4095 17.146 22.2748 17.2799C22.2625 17.2922 22.2504 17.3042 22.2387 17.3159L19.7785 19.7761C19.7781 19.7765 19.7777 19.7769 19.7773 19.7773C19.7769 19.7777 19.7765 19.7781 19.7761 19.7785L17.3159 22.2387C17.3042 22.2504 17.2922 22.2625 17.2799 22.2748C17.146 22.4095 16.9773 22.579 16.771 22.7055C16.592 22.8151 16.3969 22.8959 16.1929 22.9449C15.9575 23.0014 15.7184 23.0008 15.5285 23.0003C15.511 23.0002 15.494 23.0002 15.4774 23.0002H8.52293C8.50636 23.0002 8.48933 23.0002 8.47189 23.0003C8.28198 23.0008 8.04284 23.0014 7.80751 22.9449C7.60344 22.8959 7.40835 22.8151 7.22941 22.7055C7.02306 22.579 6.85442 22.4095 6.72049 22.2748C6.70819 22.2625 6.69618 22.2504 6.68446 22.2387L1.76171 17.3159C1.75 17.3042 1.73793 17.2922 1.72556 17.2799C1.59092 17.146 1.42137 16.9773 1.29491 16.771C1.18525 16.592 1.10444 16.3969 1.05545 16.1929C0.998953 15.9575 0.999592 15.7184 1.0001 15.5285C1.00015 15.511 1.00019 15.494 1.00019 15.4774V8.52293C1.00019 8.50636 1.00015 8.48934 1.0001 8.47189C0.999592 8.28198 0.998953 8.04285 1.05545 7.80751C1.10444 7.60344 1.18525 7.40835 1.29491 7.22941C1.42136 7.02305 1.59091 6.85441 1.72556 6.72048C1.73793 6.70818 1.75 6.69617 1.76171 6.68446L4.22237 4.2238C4.22261 4.22356 4.22285 4.22332 4.22308 4.22308C4.22332 4.22285 4.22356 4.22261 4.2238 4.22237L6.68446 1.76171C6.69617 1.75 6.70818 1.73792 6.72048 1.72556C6.85441 1.59091 7.02305 1.42136 7.22941 1.29491C7.40835 1.18525 7.60344 1.10444 7.80751 1.05545C8.04285 0.998953 8.28198 0.999592 8.47189 1.0001ZM4.93019 6.3444L3.17593 8.09867C3.0833 8.1913 3.03723 8.2377 3.00519 8.27282C3.00435 8.27374 3.00354 8.27462 3.00277 8.27547C3.00272 8.27662 3.00266 8.27782 3.0026 8.27906C3.00043 8.32655 3.00019 8.39193 3.00019 8.52293V15.4774C3.00019 15.6084 3.00043 15.6738 3.0026 15.7213C3.00266 15.7226 3.00272 15.7238 3.00277 15.7249C3.00354 15.7258 3.00435 15.7266 3.00519 15.7276C3.03723 15.7627 3.0833 15.8091 3.17593 15.9017L8.09867 20.8245C8.1913 20.9171 8.2377 20.9632 8.27282 20.9952C8.27374 20.996 8.27462 20.9968 8.27547 20.9976C8.27662 20.9977 8.27781 20.9977 8.27906 20.9978C8.32655 21 8.39193 21.0002 8.52293 21.0002H15.4774C15.6084 21.0002 15.6738 21 15.7213 20.9978C15.7226 20.9977 15.7238 20.9977 15.7249 20.9976C15.7258 20.9968 15.7266 20.996 15.7276 20.9952C15.7627 20.9632 15.8091 20.9171 15.9017 20.8245L17.656 19.0702L4.93019 6.3444ZM19.0702 17.656L6.3444 4.93019L8.09867 3.17593C8.1913 3.0833 8.2377 3.03723 8.27282 3.00519C8.27374 3.00435 8.27462 3.00354 8.27547 3.00277C8.27662 3.00272 8.27782 3.00266 8.27906 3.0026C8.32655 3.00043 8.39193 3.00019 8.52293 3.00019H15.4774C15.6084 3.00019 15.6738 3.00043 15.7213 3.0026C15.7226 3.00266 15.7238 3.00272 15.7249 3.00277C15.7258 3.00354 15.7266 3.00435 15.7276 3.00519C15.7627 3.03723 15.8091 3.0833 15.9017 3.17593L20.8245 8.09867C20.9171 8.1913 20.9632 8.2377 20.9952 8.27282C20.996 8.27374 20.9968 8.27462 20.9976 8.27547C20.9977 8.27662 20.9977 8.27781 20.9978 8.27906C21 8.32655 21.0002 8.39193 21.0002 8.52293V15.4774C21.0002 15.6084 21 15.6738 20.9978 15.7213C20.9977 15.7226 20.9977 15.7238 20.9976 15.7249C20.9968 15.7258 20.996 15.7266 20.9952 15.7276C20.9632 15.7627 20.9171 15.8091 20.8245 15.9017L19.0702 17.656Z" fill="white"/>
</svg>
