<svg width="24" height="24" viewBox="0 0 24 24" fill="none" xmlns="http://www.w3.org/2000/svg">
<path fill-rule="evenodd" clip-rule="evenodd" d="M8.29275 1.29289C8.68328 0.902369 9.31644 0.902369 9.70696 1.29289L11.9999 3.58579L14.2928 1.29289C14.6833 0.902369 15.3164 0.902369 15.707 1.29289C16.0975 1.68342 16.0975 2.31658 15.707 2.70711L12.9999 5.41421V10.2679L17.2033 7.84108L18.1942 4.1431C18.3371 3.60964 18.8855 3.29306 19.4189 3.436C19.9524 3.57894 20.269 4.12728 20.126 4.66074L19.2868 7.79289L22.4189 8.63215C22.9524 8.77509 23.269 9.32343 23.126 9.8569C22.9831 10.3904 22.4348 10.7069 21.9013 10.564L18.2033 9.57313L13.9999 12L18.2032 14.4267L21.9013 13.4359C22.4348 13.2929 22.9831 13.6095 23.1261 14.143C23.269 14.6765 22.9524 15.2248 22.4189 15.3677L19.2867 16.207L20.126 19.3391C20.269 19.8726 19.9524 20.4209 19.419 20.5639C18.8855 20.7068 18.3372 20.3903 18.1942 19.8568L17.2032 16.1588L12.9999 13.732V18.5858L15.707 21.2929C16.0975 21.6834 16.0975 22.3166 15.707 22.7071C15.3164 23.0976 14.6833 23.0976 14.2928 22.7071L11.9999 20.4142L9.70696 22.7071C9.31644 23.0976 8.68328 23.0976 8.29275 22.7071C7.90223 22.3166 7.90223 21.6834 8.29275 21.2929L10.9999 18.5858V13.732L6.7964 16.1589L5.80553 19.8569C5.66259 20.3904 5.11425 20.7069 4.58078 20.564C4.04732 20.4211 3.73074 19.8727 3.87368 19.3393L4.71293 16.2071L1.58078 15.3679C1.04732 15.2249 0.730736 14.6766 0.873678 14.1431C1.01662 13.6096 1.56496 13.2931 2.09842 13.436L5.7964 14.4269L9.99994 12L5.79635 9.57301L2.09863 10.5641C1.56518 10.7071 1.01682 10.3905 0.873838 9.85707C0.730858 9.32362 1.0474 8.77526 1.58086 8.63228L4.7129 7.79281L3.87381 4.66082C3.73089 4.12735 4.04749 3.57902 4.58096 3.4361C5.11443 3.29318 5.66276 3.60978 5.80568 4.14325L6.79633 7.84095L10.9999 10.2679V5.41421L8.29275 2.70711C7.90223 2.31658 7.90223 1.68342 8.29275 1.29289Z" fill="#1B2631"/>
</svg>
