<svg width="24" height="24" viewBox="0 0 24 24" fill="none" xmlns="http://www.w3.org/2000/svg">
<path fill-rule="evenodd" clip-rule="evenodd" d="M12 23C5.92487 23 1 18.0751 1 12C1 5.92487 5.92487 1 12 1C18.0751 1 23 5.92487 23 12C23 18.0751 18.0751 23 12 23ZM8.79289 5.66789C9.18342 5.27737 9.81658 5.27737 10.2071 5.66789C10.5976 6.05842 10.5976 6.69158 10.2071 7.08211L9.41421 7.875H17C17.5523 7.875 18 8.32272 18 8.875C18 9.42728 17.5523 9.875 17 9.875H9.41421L10.2071 10.6679C10.5976 11.0584 10.5976 11.6916 10.2071 12.0821C9.81658 12.4726 9.18342 12.4726 8.79289 12.0821L6.29289 9.58211C5.90237 9.19158 5.90237 8.55842 6.29289 8.16789L8.79289 5.66789ZM13.7929 13.3321C13.4024 12.9416 13.4024 12.3084 13.7929 11.9179C14.1834 11.5274 14.8166 11.5274 15.2071 11.9179L17.7071 14.4179C18.0976 14.8084 18.0976 15.4416 17.7071 15.8321L15.2071 18.3321C14.8166 18.7226 14.1834 18.7226 13.7929 18.3321C13.4024 17.9416 13.4024 17.3084 13.7929 16.9179L14.5858 16.125H7C6.44772 16.125 6 15.6773 6 15.125C6 14.5727 6.44772 14.125 7 14.125H14.5858L13.7929 13.3321Z" fill="white"/>
</svg>
