<svg width="24" height="24" viewBox="0 0 24 24" fill="none" xmlns="http://www.w3.org/2000/svg">
<path fill-rule="evenodd" clip-rule="evenodd" d="M12 23C18.0751 23 23 18.0751 23 12C23 5.92487 18.0751 1 12 1C5.92487 1 1 5.92487 1 12C1 18.0751 5.92487 23 12 23ZM15.2071 5.66789C14.8166 5.27737 14.1834 5.27737 13.7929 5.66789C13.4024 6.05842 13.4024 6.69158 13.7929 7.08211L14.5858 7.875H7C6.44772 7.875 6 8.32272 6 8.875C6 9.42728 6.44772 9.875 7 9.875H14.5858L13.7929 10.6679C13.4024 11.0584 13.4024 11.6916 13.7929 12.0821C14.1834 12.4726 14.8166 12.4726 15.2071 12.0821L17.7071 9.58211C18.0976 9.19158 18.0976 8.55842 17.7071 8.16789L15.2071 5.66789ZM10.2071 13.3321C10.5976 12.9416 10.5976 12.3084 10.2071 11.9179C9.81658 11.5274 9.18342 11.5274 8.79289 11.9179L6.29289 14.4179C5.90237 14.8084 5.90237 15.4416 6.29289 15.8321L8.79289 18.3321C9.18342 18.7226 9.81658 18.7226 10.2071 18.3321C10.5976 17.9416 10.5976 17.3084 10.2071 16.9179L9.41421 16.125H17C17.5523 16.125 18 15.6773 18 15.125C18 14.5727 17.5523 14.125 17 14.125H9.41421L10.2071 13.3321Z" fill="white"/>
</svg>
