<svg width="24" height="24" viewBox="0 0 24 24" fill="none" xmlns="http://www.w3.org/2000/svg">
<path fill-rule="evenodd" clip-rule="evenodd" d="M12 20.75C16.8325 20.75 20.75 16.8325 20.75 12C20.75 7.16751 16.8325 3.25 12 3.25C7.16751 3.25 3.25 7.16751 3.25 12C3.25 16.8325 7.16751 20.75 12 20.75ZM12 23C18.0751 23 23 18.0751 23 12C23 5.92487 18.0751 1 12 1C5.92487 1 1 5.92487 1 12C1 18.0751 5.92487 23 12 23Z" fill="white"/>
<path fill-rule="evenodd" clip-rule="evenodd" d="M13.1852 11.7284C12.8272 12.0864 12.8272 12.6668 13.1852 13.0248L15.287 15.1266L13.1852 17.2284C12.8272 17.5864 12.8272 18.1668 13.1852 18.5248C13.5431 18.8828 14.1235 18.8828 14.4815 18.5248L17.2315 15.7748C17.5895 15.4168 17.5895 14.8364 17.2315 14.4784L14.4815 11.7284C14.1235 11.3705 13.5431 11.3705 13.1852 11.7284Z" fill="white"/>
<path fill-rule="evenodd" clip-rule="evenodd" d="M17.5 15.1266C17.5 14.6204 17.0896 14.21 16.5833 14.21H7.41667C6.91041 14.21 6.5 14.6204 6.5 15.1266C6.5 15.6329 6.91041 16.0433 7.41667 16.0433H16.5833C17.0896 16.0433 17.5 15.6329 17.5 15.1266Z" fill="white"/>
<path fill-rule="evenodd" clip-rule="evenodd" d="M10.8148 5.47845C11.1728 5.83643 11.1728 6.41683 10.8148 6.77481L8.71303 8.87663L10.8148 10.9784C11.1728 11.3364 11.1728 11.9168 10.8148 12.2748C10.4569 12.6328 9.87647 12.6328 9.51849 12.2748L6.76849 9.52481C6.4105 9.16683 6.4105 8.58643 6.76849 8.22845L9.51849 5.47845C9.87647 5.12047 10.4569 5.12047 10.8148 5.47845Z" fill="white"/>
<path fill-rule="evenodd" clip-rule="evenodd" d="M6.5 8.87663C6.5 8.37037 6.91041 7.95996 7.41667 7.95996H16.5833C17.0896 7.95996 17.5 8.37037 17.5 8.87663C17.5 9.38289 17.0896 9.79329 16.5833 9.79329H7.41667C6.91041 9.79329 6.5 9.38289 6.5 8.87663Z" fill="white"/>
</svg>
