<svg width="24" height="24" viewBox="0 0 24 24" fill="none" xmlns="http://www.w3.org/2000/svg">
<path fill-rule="evenodd" clip-rule="evenodd" d="M1 12C1 18.0751 5.92487 23 12 23C18.0751 23 23 18.0751 23 12C23 5.92487 18.0751 1 12 1C5.92487 1 1 5.92487 1 12ZM18.3321 15.2071C18.7226 14.8166 18.7226 14.1834 18.3321 13.7929C17.9416 13.4024 17.3084 13.4024 16.9179 13.7929L16.125 14.5858V7C16.125 6.44772 15.6773 6 15.125 6C14.5727 6 14.125 6.44772 14.125 7V14.5858L13.3321 13.7929C12.9416 13.4024 12.3084 13.4024 11.9179 13.7929C11.5274 14.1834 11.5274 14.8166 11.9179 15.2071L14.4179 17.7071C14.8084 18.0976 15.4416 18.0976 15.8321 17.7071L18.3321 15.2071ZM10.6679 10.2071C11.0584 10.5976 11.6916 10.5976 12.0821 10.2071C12.4726 9.81658 12.4726 9.18342 12.0821 8.79289L9.58211 6.29289C9.19158 5.90237 8.55842 5.90237 8.16789 6.29289L5.66789 8.79289C5.27737 9.18342 5.27737 9.81658 5.66789 10.2071C6.05842 10.5976 6.69158 10.5976 7.08211 10.2071L7.875 9.41421V17C7.875 17.5523 8.32271 18 8.875 18C9.42729 18 9.875 17.5523 9.875 17V9.41421L10.6679 10.2071Z" fill="white"/>
</svg>
