<svg width="24" height="24" viewBox="0 0 24 24" fill="none" xmlns="http://www.w3.org/2000/svg">
<path fill-rule="evenodd" clip-rule="evenodd" d="M12 20.75C16.8325 20.75 20.75 16.8325 20.75 12C20.75 7.16751 16.8325 3.25 12 3.25C7.16751 3.25 3.25 7.16751 3.25 12C3.25 16.8325 7.16751 20.75 12 20.75ZM12 23C18.0751 23 23 18.0751 23 12C23 5.92487 18.0751 1 12 1C5.92487 1 1 5.92487 1 12C1 18.0751 5.92487 23 12 23Z" fill="white"/>
<path fill-rule="evenodd" clip-rule="evenodd" d="M11.7267 10.8163C12.0847 11.1743 12.6651 11.1743 13.0231 10.8163L15.1249 8.71449L17.2267 10.8163C17.5847 11.1743 18.1651 11.1743 18.5231 10.8163C18.8811 10.4583 18.8811 9.87793 18.5231 9.51995L15.7731 6.76995C15.4151 6.41197 14.8347 6.41197 14.4767 6.76995L11.7267 9.51995C11.3688 9.87793 11.3688 10.4583 11.7267 10.8163Z" fill="white"/>
<path fill-rule="evenodd" clip-rule="evenodd" d="M15.1249 6.50146C14.6187 6.50146 14.2083 6.91187 14.2083 7.41813L14.2083 16.5848C14.2083 17.0911 14.6187 17.5015 15.1249 17.5015C15.6312 17.5015 16.0416 17.0911 16.0416 16.5848V7.41813C16.0416 6.91187 15.6312 6.50146 15.1249 6.50146Z" fill="white"/>
<path fill-rule="evenodd" clip-rule="evenodd" d="M5.47674 13.1866C5.83472 12.8286 6.41512 12.8286 6.7731 13.1866L8.87492 15.2884L10.9767 13.1866C11.3347 12.8286 11.9151 12.8286 12.2731 13.1866C12.6311 13.5446 12.6311 14.125 12.2731 14.483L9.5231 17.233C9.16512 17.591 8.58472 17.591 8.22674 17.233L5.47674 14.483C5.11876 14.125 5.11876 13.5446 5.47674 13.1866Z" fill="white"/>
<path fill-rule="evenodd" clip-rule="evenodd" d="M8.87492 17.5015C8.36866 17.5015 7.95825 17.0911 7.95825 16.5848L7.95825 7.41813C7.95825 6.91187 8.36866 6.50146 8.87492 6.50146C9.38118 6.50146 9.79159 6.91187 9.79159 7.41813L9.79159 16.5848C9.79159 17.0911 9.38118 17.5015 8.87492 17.5015Z" fill="white"/>
</svg>
