<svg width="24" height="24" viewBox="0 0 24 24" fill="none" xmlns="http://www.w3.org/2000/svg">
<path fill-rule="evenodd" clip-rule="evenodd" d="M1 12C1 5.92487 5.92487 1 12 1C18.0751 1 23 5.92487 23 12C23 18.0751 18.0751 23 12 23C5.92487 23 1 18.0751 1 12ZM18.3321 8.79289C18.7226 9.18342 18.7226 9.81658 18.3321 10.2071C17.9416 10.5976 17.3084 10.5976 16.9179 10.2071L16.125 9.41421V17C16.125 17.5523 15.6773 18 15.125 18C14.5727 18 14.125 17.5523 14.125 17V9.41421L13.3321 10.2071C12.9416 10.5976 12.3084 10.5976 11.9179 10.2071C11.5274 9.81658 11.5274 9.18342 11.9179 8.79289L14.4179 6.29289C14.8084 5.90237 15.4416 5.90237 15.8321 6.29289L18.3321 8.79289ZM10.6679 13.7929C11.0584 13.4024 11.6916 13.4024 12.0821 13.7929C12.4726 14.1834 12.4726 14.8166 12.0821 15.2071L9.58211 17.7071C9.19158 18.0976 8.55842 18.0976 8.16789 17.7071L5.66789 15.2071C5.27737 14.8166 5.27737 14.1834 5.66789 13.7929C6.05842 13.4024 6.69158 13.4024 7.08211 13.7929L7.875 14.5858V7C7.875 6.44772 8.32271 6 8.875 6C9.42729 6 9.875 6.44772 9.875 7V14.5858L10.6679 13.7929Z" fill="white"/>
</svg>
