<svg width="24" height="24" viewBox="0 0 24 24" fill="none" xmlns="http://www.w3.org/2000/svg">
<path fill-rule="evenodd" clip-rule="evenodd" d="M12 20.75C16.8325 20.75 20.75 16.8325 20.75 12C20.75 7.16751 16.8325 3.25 12 3.25C7.16751 3.25 3.25 7.16751 3.25 12C3.25 16.8325 7.16751 20.75 12 20.75ZM12 23C18.0751 23 23 18.0751 23 12C23 5.92487 18.0751 1 12 1C5.92487 1 1 5.92487 1 12C1 18.0751 5.92487 23 12 23Z" fill="white"/>
<path fill-rule="evenodd" clip-rule="evenodd" d="M11.7267 13.1866C12.0847 12.8286 12.6651 12.8286 13.0231 13.1866L15.1249 15.2884L17.2267 13.1866C17.5847 12.8286 18.1651 12.8286 18.5231 13.1866C18.8811 13.5446 18.8811 14.125 18.5231 14.483L15.7731 17.233C15.4151 17.591 14.8347 17.591 14.4767 17.233L11.7267 14.483C11.3688 14.125 11.3688 13.5446 11.7267 13.1866Z" fill="white"/>
<path fill-rule="evenodd" clip-rule="evenodd" d="M15.1249 17.5015C14.6187 17.5015 14.2083 17.0911 14.2083 16.5848V7.41813C14.2083 6.91187 14.6187 6.50146 15.1249 6.50146C15.6312 6.50146 16.0416 6.91187 16.0416 7.41813V16.5848C16.0416 17.0911 15.6312 17.5015 15.1249 17.5015Z" fill="white"/>
<path fill-rule="evenodd" clip-rule="evenodd" d="M5.47674 10.8163C5.83472 11.1743 6.41512 11.1743 6.7731 10.8163L8.87492 8.71449L10.9767 10.8163C11.3347 11.1743 11.9151 11.1743 12.2731 10.8163C12.6311 10.4583 12.6311 9.87793 12.2731 9.51995L9.5231 6.76995C9.16512 6.41197 8.58472 6.41197 8.22674 6.76995L5.47674 9.51995C5.11876 9.87793 5.11876 10.4583 5.47674 10.8163Z" fill="white"/>
<path fill-rule="evenodd" clip-rule="evenodd" d="M8.87492 6.50146C8.36866 6.50146 7.95825 6.91187 7.95825 7.41813L7.95825 16.5848C7.95825 17.0911 8.36866 17.5015 8.87492 17.5015C9.38118 17.5015 9.79159 17.0911 9.79159 16.5848V7.41813C9.79159 6.91187 9.38118 6.50146 8.87492 6.50146Z" fill="white"/>
</svg>
