<svg width="24" height="24" viewBox="0 0 24 24" fill="none" xmlns="http://www.w3.org/2000/svg">
<path fill-rule="evenodd" clip-rule="evenodd" d="M12 20.75C16.8325 20.75 20.75 16.8325 20.75 12C20.75 7.16751 16.8325 3.25 12 3.25C7.16751 3.25 3.25 7.16751 3.25 12C3.25 16.8325 7.16751 20.75 12 20.75ZM12 23C18.0751 23 23 18.0751 23 12C23 5.92487 18.0751 1 12 1C5.92487 1 1 5.92487 1 12C1 18.0751 5.92487 23 12 23Z" fill="white"/>
<path fill-rule="evenodd" clip-rule="evenodd" d="M10.8148 11.7284C11.1728 12.0864 11.1728 12.6668 10.8148 13.0248L8.71303 15.1266L10.8148 17.2284C11.1728 17.5864 11.1728 18.1668 10.8148 18.5248C10.4569 18.8828 9.87647 18.8828 9.51849 18.5248L6.76849 15.7748C6.4105 15.4168 6.4105 14.8364 6.76849 14.4784L9.51849 11.7284C9.87647 11.3705 10.4569 11.3705 10.8148 11.7284Z" fill="white"/>
<path fill-rule="evenodd" clip-rule="evenodd" d="M6.5 15.1266C6.5 14.6204 6.91041 14.21 7.41667 14.21H16.5833C17.0896 14.21 17.5 14.6204 17.5 15.1266C17.5 15.6329 17.0896 16.0433 16.5833 16.0433H7.41667C6.91041 16.0433 6.5 15.6329 6.5 15.1266Z" fill="white"/>
<path fill-rule="evenodd" clip-rule="evenodd" d="M13.1852 5.47845C12.8272 5.83643 12.8272 6.41683 13.1852 6.77481L15.287 8.87663L13.1852 10.9784C12.8272 11.3364 12.8272 11.9168 13.1852 12.2748C13.5431 12.6328 14.1235 12.6328 14.4815 12.2748L17.2315 9.52481C17.5895 9.16683 17.5895 8.58643 17.2315 8.22845L14.4815 5.47845C14.1235 5.12047 13.5431 5.12047 13.1852 5.47845Z" fill="white"/>
<path fill-rule="evenodd" clip-rule="evenodd" d="M17.5 8.87663C17.5 8.37037 17.0896 7.95996 16.5833 7.95996H7.41667C6.91041 7.95996 6.5 8.37037 6.5 8.87663C6.5 9.38289 6.91041 9.79329 7.41667 9.79329H16.5833C17.0896 9.79329 17.5 9.38289 17.5 8.87663Z" fill="white"/>
</svg>
