<svg width="24" height="24" viewBox="0 0 24 24" fill="none" xmlns="http://www.w3.org/2000/svg">
<path fill-rule="evenodd" clip-rule="evenodd" d="M6.74228 0.999928C6.76982 0.999954 6.79759 0.99998 6.82559 0.99998L9.67462 0.99998C9.70262 0.99998 9.73038 0.999955 9.75793 0.999929C10.1648 0.99955 10.5236 0.999217 10.872 1.08287C11.1781 1.15636 11.4708 1.27757 11.7392 1.44206C12.0447 1.6293 12.2981 1.88321 12.5856 2.17119C12.6051 2.19069 12.6247 2.21034 12.6445 2.23013L20.3423 9.92793C20.9115 10.4971 21.3813 10.9669 21.7327 11.3809C22.0977 11.8108 22.3934 12.2459 22.5617 12.7639C22.8227 13.5673 22.8227 14.4327 22.5617 15.236C22.3934 15.7541 22.0977 16.1891 21.7327 16.6191C21.3813 17.033 20.9115 17.5028 20.3423 18.072L18.0721 20.3422C17.5029 20.9114 17.0331 21.3812 16.6192 21.7326C16.1893 22.0976 15.7542 22.3932 15.2362 22.5616C14.4328 22.8226 13.5674 22.8226 12.764 22.5616C12.246 22.3932 11.8109 22.0976 11.381 21.7326C10.967 21.3812 10.4973 20.9114 9.92805 20.3421L2.23025 12.6443C2.21045 12.6245 2.1908 12.6049 2.17131 12.5855C1.88332 12.298 1.62942 12.0446 1.44218 11.739C1.2777 11.4706 1.15648 11.178 1.08299 10.8719C0.999338 10.5234 0.999672 10.1647 1.00005 9.7578C1.00008 9.73026 1.0001 9.70249 1.0001 9.67449L1.0001 6.82546C1.0001 6.79747 1.00008 6.7697 1.00005 6.74216C0.999672 6.33526 0.999338 5.97651 1.08299 5.62807C1.15648 5.32196 1.2777 5.02933 1.44218 4.76091C1.62942 4.45537 1.88333 4.20193 2.17131 3.91448C2.19081 3.89503 2.21046 3.87541 2.23025 3.85561L3.85574 2.23013C3.87553 2.21033 3.89515 2.19068 3.91461 2.17119C4.20206 1.8832 4.45549 1.62929 4.76103 1.44206C5.02945 1.27757 5.32208 1.15636 5.62819 1.08287C5.97664 0.999216 6.33539 0.999549 6.74228 0.999928ZM6.82559 2.99998C6.28881 2.99998 6.1834 3.00641 6.09508 3.02761C5.99305 3.05211 5.8955 3.09251 5.80603 3.14734C5.72859 3.1948 5.64951 3.26478 5.26995 3.64434L3.64447 5.26983C3.26491 5.64939 3.19492 5.72846 3.14746 5.80591C3.09263 5.89538 3.05223 5.99292 3.02773 6.09496C3.00653 6.18328 3.0001 6.28868 3.0001 6.82546L3.0001 9.67449C3.0001 10.2113 3.00653 10.3167 3.02773 10.405C3.05223 10.507 3.09263 10.6046 3.14746 10.6941C3.19492 10.7715 3.26491 10.8506 3.64447 11.2301L11.3131 18.8988C11.9188 19.5044 12.3311 19.9156 12.6753 20.2079C13.0107 20.4926 13.2151 20.6052 13.3821 20.6594C13.7838 20.79 14.2164 20.79 14.6181 20.6594C14.7851 20.6052 14.9895 20.4926 15.3249 20.2079C15.6691 19.9156 16.0814 19.5044 16.6871 18.8988L18.8989 16.687C19.5046 16.0813 19.9158 15.669 20.208 15.3247C20.4927 14.9894 20.6053 14.785 20.6596 14.618C20.7901 14.2163 20.7901 13.7836 20.6596 13.3819C20.6053 13.215 20.4927 13.0106 20.208 12.6752C19.9158 12.331 19.5046 11.9187 18.8989 11.313L11.2303 3.64435C10.8507 3.26478 10.7716 3.1948 10.6942 3.14734C10.6047 3.09251 10.5072 3.05211 10.4051 3.02761C10.3168 3.00641 10.2114 2.99998 9.67462 2.99998L6.82559 2.99998ZM6.5001 7.99998C6.5001 7.17155 7.17168 6.49998 8.0001 6.49998C8.82853 6.49998 9.5001 7.17155 9.5001 7.99998C9.5001 8.82841 8.82853 9.49998 8.0001 9.49998C7.17168 9.49998 6.5001 8.82841 6.5001 7.99998Z" fill="#1B2631"/>
</svg>
