<svg width="24" height="24" viewBox="0 0 24 24" fill="none" xmlns="http://www.w3.org/2000/svg">
<path fill-rule="evenodd" clip-rule="evenodd" d="M11.2244 3.05526C11.0209 3.00643 10.7932 3 10.0119 3L6.0001 3C5.44782 3 5.0001 2.55229 5.0001 2C5.0001 1.44772 5.44782 1 6.0001 1L10.0119 1C10.0463 1 10.0802 0.999986 10.1138 0.99997C10.7487 0.999668 11.2285 0.99944 11.6912 1.11052C12.0994 1.20851 12.4896 1.37013 12.8475 1.58944C13.2532 1.83807 13.5923 2.17749 14.0411 2.62672C14.0648 2.65043 14.0888 2.67445 14.1131 2.69878L21.7072 10.2929C22.0977 10.6834 22.0977 11.3166 21.7072 11.7071C21.3167 12.0976 20.6835 12.0976 20.293 11.7071L12.6989 4.113C12.1464 3.56048 11.9808 3.40402 11.8025 3.29472C11.6235 3.18506 11.4284 3.10426 11.2244 3.05526ZM9.90512 6.52763C9.8168 6.50643 9.7114 6.5 9.17462 6.5H6.2001C5.62355 6.5 5.25128 6.50078 4.96794 6.52393C4.69627 6.54613 4.59556 6.5838 4.54611 6.609C4.35795 6.70487 4.20497 6.85785 4.1091 7.04601C4.0839 7.09546 4.04623 7.19617 4.02403 7.46784C4.00088 7.75117 4.0001 8.12345 4.0001 8.7L4.0001 10.6745C4.0001 11.2113 4.00653 11.3167 4.02773 11.405C4.05223 11.5071 4.09263 11.6046 4.14746 11.6941C4.19492 11.7715 4.26491 11.8506 4.64447 12.2302L12.4445 20.0302C12.8522 20.4378 13.1159 20.7005 13.3327 20.8845C13.5404 21.0609 13.6383 21.1055 13.6911 21.1226C13.8919 21.1879 14.1083 21.1879 14.3091 21.1226C14.3619 21.1055 14.4598 21.0609 14.6675 20.8845C14.8843 20.7005 15.1481 20.4378 15.5557 20.0302L18.0303 17.5556C18.4379 17.148 18.7006 16.8842 18.8846 16.6674C19.061 16.4597 19.1056 16.3618 19.1227 16.309C19.188 16.1082 19.188 15.8918 19.1227 15.691C19.1056 15.6382 19.061 15.5403 18.8846 15.3326C18.7006 15.1158 18.4379 14.8521 18.0303 14.4444L10.7303 7.14437C10.3507 6.76481 10.2716 6.69482 10.1942 6.64736C10.1047 6.59253 10.0072 6.55213 9.90512 6.52763ZM9.25792 4.49995C9.66482 4.49957 10.0236 4.49924 10.372 4.58289C10.6781 4.65638 10.9708 4.7776 11.2392 4.94208C11.5447 5.12932 11.7981 5.38322 12.0856 5.6712C12.1051 5.6907 12.1247 5.71035 12.1445 5.73015L19.4717 13.0574C19.8445 13.4301 20.1661 13.7517 20.4093 14.0382C20.666 14.3406 20.8936 14.6691 21.0248 15.073C21.2206 15.6755 21.2206 16.3245 21.0248 16.9271C20.8936 17.3309 20.666 17.6594 20.4093 17.9618C20.1661 18.2483 19.8445 18.5698 19.4718 18.9425L16.9427 21.4716C16.57 21.8444 16.2484 22.166 15.9619 22.4092C15.6595 22.6659 15.331 22.8935 14.9272 23.0247C14.3246 23.2205 13.6756 23.2205 13.0731 23.0247C12.6692 22.8935 12.3407 22.6659 12.0383 22.4092C11.7518 22.166 11.4303 21.8444 11.0575 21.4717L3.23025 13.6444C3.21046 13.6246 3.1908 13.605 3.17131 13.5855C2.88332 13.298 2.62942 13.0446 2.44218 12.7391C2.27769 12.4707 2.15648 12.178 2.08299 11.8719C1.99934 11.5235 1.99967 11.1647 2.00005 10.7578C2.00008 10.7303 2.0001 10.7025 2.0001 10.6745L2.0001 8.66146C2.00008 8.13431 2.00007 7.67955 2.03067 7.30497C2.06297 6.90963 2.13429 6.51641 2.32708 6.13803C2.6147 5.57354 3.07364 5.1146 3.63813 4.82698C4.01651 4.63419 4.40973 4.56287 4.80507 4.53057C5.17965 4.49997 5.63441 4.49998 6.16156 4.5L9.17462 4.5C9.20262 4.5 9.23038 4.49998 9.25792 4.49995Z" fill="#1B2631"/>
</svg>
