<svg width="24" height="24" viewBox="0 0 24 24" fill="none" xmlns="http://www.w3.org/2000/svg">
<path fill-rule="evenodd" clip-rule="evenodd" d="M20.1204 1.67606C20.2638 1.64993 20.4725 1.62551 20.7118 1.67636C21.0216 1.74222 21.3027 1.90449 21.5147 2.13989C21.6783 2.32167 21.7616 2.51469 21.8106 2.65189C21.8529 2.77028 21.8897 2.90768 21.9205 3.02274L23.3301 8.28348C23.361 8.39853 23.3978 8.53592 23.4204 8.65962C23.4465 8.80296 23.4709 9.01175 23.4201 9.25101C23.3542 9.56085 23.1919 9.8419 22.9565 10.0539C22.7748 10.2175 22.5817 10.3008 22.4445 10.3498C22.3262 10.3921 22.1888 10.4289 22.0737 10.4597L22.0141 10.4756C21.5049 10.6121 21.0656 10.7298 20.6959 10.7972C20.3057 10.8683 19.9074 10.9012 19.492 10.8129C19.127 10.7353 18.782 10.5909 18.4734 10.389L14.4492 11.4673C14.7961 11.9567 15 12.5547 15 13.2002C15 13.8638 14.7845 14.477 14.4198 14.9739L18.8263 21.4367C19.1374 21.8931 19.0197 22.5152 18.5634 22.8263C18.1071 23.1374 17.485 23.0197 17.1739 22.5634L12.7677 16.1011C12.5227 16.1657 12.2653 16.2002 12 16.2002C11.7347 16.2002 11.4775 16.1658 11.2325 16.1011L6.82632 22.5634C6.51519 23.0197 5.89307 23.1374 5.43675 22.8263C4.98044 22.5152 4.86274 21.8931 5.17387 21.4367L9.58032 14.974C9.21549 14.4772 9 13.8638 9 13.2002C9 13.1071 9.00424 13.015 9.01253 12.9241L6.89476 13.4915C6.77972 13.5224 6.64232 13.5593 6.51862 13.5818C6.37528 13.608 6.1665 13.6324 5.92724 13.5815C5.61739 13.5157 5.33635 13.3534 5.12439 13.118C5.07814 13.0666 5.03832 13.0144 5.00387 12.9627L3.73821 13.3019C3.62317 13.3328 3.48576 13.3696 3.36207 13.3922C3.21873 13.4183 3.00994 13.4427 2.77068 13.3919C2.46084 13.326 2.17979 13.1637 1.96783 12.9283C1.80416 12.7466 1.72092 12.5535 1.67188 12.4163C1.62955 12.2979 1.59278 12.1605 1.562 12.0454L1.18767 10.6485C1.1568 10.5334 1.11993 10.396 1.09738 10.2723C1.07126 10.129 1.04683 9.92019 1.09769 9.68093C1.16355 9.37108 1.32581 9.09004 1.56122 8.87808C1.74299 8.7144 1.93602 8.63117 2.07322 8.58212C2.19161 8.5398 2.32904 8.50303 2.4441 8.47224L3.70989 8.13308C3.71391 8.07125 3.72227 8.00621 3.73661 7.93874C3.80247 7.62889 3.96473 7.34785 4.20013 7.13589C4.38191 6.97222 4.57494 6.88898 4.71213 6.83993C4.83053 6.79761 4.96796 6.76084 5.08302 6.73006L16.6618 3.62754C16.8281 3.2985 17.0546 3.00093 17.3319 2.75127C17.6475 2.46711 18.0088 2.29645 18.3823 2.16293C18.7362 2.03642 19.1755 1.91874 19.6847 1.78232L19.7443 1.76635C19.8593 1.73548 19.9967 1.6986 20.1204 1.67606ZM20.0464 3.75603C19.5973 3.87683 19.291 3.96207 19.0556 4.04621C18.7989 4.13797 18.7114 4.20043 18.6701 4.23756C18.5132 4.37887 18.405 4.56623 18.3611 4.77279C18.3496 4.82707 18.3393 4.93411 18.3881 5.20226C18.4391 5.48194 18.5347 5.84173 18.6839 6.39863L18.8392 6.97819C18.9884 7.5351 19.0855 7.89448 19.1812 8.16218C19.273 8.41884 19.3355 8.50637 19.3726 8.54761C19.5139 8.70455 19.7013 8.81272 19.9078 8.85663C19.9621 8.86817 20.0691 8.87849 20.3373 8.82962C20.5832 8.7848 20.8911 8.70547 21.3405 8.58552L20.0464 3.75603Z" fill="#1B2631"/>
</svg>
