<svg width="24" height="24" viewBox="0 0 24 24" fill="none" xmlns="http://www.w3.org/2000/svg">
<path fill-rule="evenodd" clip-rule="evenodd" d="M20.0467 3.75586C19.5976 3.87666 19.2913 3.9619 19.0559 4.04605C18.7992 4.1378 18.7117 4.20026 18.6704 4.23739C18.5135 4.3787 18.4053 4.56606 18.3614 4.77262C18.3499 4.8269 18.3396 4.93394 18.3884 5.20209C18.4394 5.48177 18.535 5.84156 18.6842 6.39847L18.8395 6.97802C18.9887 7.53493 19.0858 7.89432 19.1815 8.16201C19.2733 8.41867 19.3358 8.50621 19.3729 8.54744C19.5142 8.70438 19.7016 8.81255 19.9081 8.85646C19.9624 8.868 20.0694 8.87832 20.3376 8.82945C20.5835 8.78463 20.8914 8.7053 21.3408 8.58535L20.0467 3.75586ZM18.4738 10.3889C18.7823 10.5907 19.1273 10.7352 19.4923 10.8128C19.9077 10.901 20.306 10.8682 20.6962 10.797C21.0659 10.7297 21.5052 10.6119 22.0144 10.4755L22.0739 10.4595C22.189 10.4287 22.3264 10.392 22.4448 10.3496C22.582 10.3006 22.7751 10.2174 22.9568 10.0537C23.1922 9.84173 23.3545 9.56069 23.4204 9.25084C23.4712 9.01158 23.4468 8.80279 23.4207 8.65945C23.3981 8.53576 23.3613 8.39837 23.3304 8.28332C23.3284 8.27577 23.3264 8.26832 23.3244 8.26097L21.9268 3.04497C21.9248 3.03762 21.9228 3.03016 21.9208 3.0226C21.89 2.90753 21.8532 2.77012 21.8109 2.65173C21.7619 2.51453 21.6786 2.3215 21.5149 2.13972C21.303 1.90432 21.0219 1.74206 20.7121 1.6762C20.4728 1.62534 20.2641 1.64977 20.1207 1.67589C19.997 1.69844 19.8596 1.73531 19.7446 1.76618L19.685 1.78215C19.1758 1.91857 18.7365 2.03626 18.3826 2.16276C18.0091 2.29629 17.6478 2.46694 17.3322 2.7511C17.0549 3.00077 16.8284 3.29836 16.6621 3.62742L5.10579 6.72392C5.09844 6.72588 5.09098 6.72788 5.08343 6.7299C4.96836 6.76068 4.83094 6.79745 4.71254 6.83977C4.57535 6.88882 4.38232 6.97206 4.20054 7.13573C3.96513 7.34769 3.80288 7.62874 3.73702 7.93858C3.72266 8.00612 3.7143 8.07122 3.71029 8.13311L2.46683 8.4663C2.45948 8.46827 2.45202 8.47026 2.44447 8.47228C2.3294 8.50307 2.19198 8.53983 2.07358 8.58216C1.93639 8.6312 1.74336 8.71444 1.56158 8.87811C1.32618 9.09007 1.16392 9.37112 1.09806 9.68096C1.0472 9.92023 1.07163 10.129 1.09775 10.2723C1.1203 10.396 1.15717 10.5334 1.18804 10.6485C1.19007 10.656 1.19207 10.6635 1.19404 10.6708L1.55638 12.0231C1.55835 12.0305 1.56034 12.0379 1.56236 12.0455C1.59315 12.1605 1.62992 12.298 1.67224 12.4164C1.72129 12.5536 1.80453 12.7466 1.9682 12.9284C2.18016 13.1638 2.4612 13.326 2.77105 13.3919C3.01031 13.4428 3.21909 13.4183 3.36243 13.3922C3.48613 13.3697 3.62352 13.3328 3.73856 13.3019C3.74611 13.2999 3.75357 13.2979 3.76092 13.2959L5.00438 12.9627C5.03881 13.0143 5.0786 13.0665 5.1248 13.1178C5.33675 13.3533 5.6178 13.5155 5.92765 13.5814C6.16691 13.6322 6.37569 13.6078 6.51903 13.5817C6.64273 13.5591 6.78012 13.5223 6.89516 13.4914C6.90271 13.4894 6.91017 13.4874 6.91752 13.4854L9.01292 12.9239C9.00463 13.0148 9.00039 13.1069 9.00039 13.2C9.00039 13.8636 9.21587 14.4769 9.58068 14.9737L5.17417 21.4366C4.86304 21.8929 4.98074 22.515 5.43705 22.8261C5.89336 23.1373 6.51549 23.0196 6.82662 22.5632L11.2328 16.1009C11.4778 16.1655 11.7351 16.2 12.0004 16.2C12.2657 16.2 12.523 16.1655 12.768 16.1009L17.1742 22.5632C17.4853 23.0196 18.1074 23.1373 18.5637 22.8261C19.02 22.515 19.1377 21.8929 18.8266 21.4366L14.4201 14.9737C14.7849 14.4769 15.0004 13.8636 15.0004 13.2C15.0004 12.5545 14.7965 11.9566 14.4496 11.4672L18.4738 10.3889ZM16.9365 7.60337C16.9303 7.58005 16.924 7.55658 16.9177 7.53295L16.7424 6.87887C16.7365 6.85699 16.7307 6.83524 16.7249 6.81362L16.4418 5.75699L5.81661 8.604L6.00499 9.30707C6.00933 9.32317 6.01356 9.33898 6.01768 9.35438C6.0197 9.36194 6.0217 9.36939 6.02366 9.37674L6.38601 10.729C6.38798 10.7364 6.38998 10.7438 6.392 10.7514C6.39614 10.7668 6.40039 10.7826 6.4047 10.7988L6.59307 11.5018L17.2183 8.65477L16.9365 7.60337ZM12.6415 13.9674C12.8609 13.784 13.0004 13.5083 13.0004 13.2C13.0004 12.6477 12.5527 12.2 12.0004 12.2C11.4481 12.2 11.0004 12.6477 11.0004 13.2C11.0004 13.5083 11.1399 13.784 11.3592 13.9674C11.3875 13.9829 11.4152 13.9999 11.4424 14.0184C11.4697 14.0371 11.4959 14.0569 11.5208 14.0777C11.6632 14.1557 11.8266 14.2 12.0004 14.2C12.1742 14.2 12.3376 14.1557 12.48 14.0777C12.5049 14.0569 12.531 14.0371 12.5584 14.0184C12.5856 13.9999 12.6133 13.9829 12.6415 13.9674ZM4.4024 11.0535L4.14358 10.0876L3.17765 10.3464L3.43647 11.3123L4.4024 11.0535Z" fill="#1B2631"/>
</svg>
