<svg width="24" height="24" viewBox="0 0 24 24" fill="none" xmlns="http://www.w3.org/2000/svg">
<path d="M6.75877 2H17.2414C18.0463 1.99999 18.7107 1.99998 19.2519 2.0442C19.814 2.09012 20.3307 2.18869 20.816 2.43598C21.5687 2.81947 22.1806 3.43139 22.5641 4.18404C22.8114 4.66938 22.9099 5.18608 22.9559 5.74818C22.9736 5.96509 22.9848 6.18248 22.9917 6.40011C23.0089 6.94219 23.0175 7.21325 22.9111 7.43407C22.8194 7.62432 22.6599 7.78898 22.4727 7.88664C22.2553 8 21.9703 8 21.4001 8H2.60006C2.02988 8 1.74478 8 1.52745 7.88664C1.34021 7.78898 1.18069 7.62432 1.08903 7.43407C0.982626 7.21325 0.991238 6.9422 1.00846 6.40011C1.01537 6.18248 1.02654 5.96509 1.04426 5.74818C1.09018 5.18608 1.18875 4.66937 1.43604 4.18404C1.81953 3.43139 2.43145 2.81947 3.1841 2.43598C3.66944 2.18868 4.18614 2.09012 4.74824 2.0442C5.28943 1.99998 5.95381 1.99999 6.75877 2Z" fill="#1B2631"/>
<path fill-rule="evenodd" clip-rule="evenodd" d="M23.0001 11.6V16.2413C23.0001 17.0463 23.0001 17.7106 22.9559 18.2518C22.9099 18.8139 22.8114 19.3306 22.5641 19.816C22.1806 20.5686 21.5687 21.1805 20.816 21.564C20.3307 21.8113 19.814 21.9099 19.2519 21.9558C18.7107 22 18.0463 22 17.2413 22L6.75883 22C5.95383 22 5.28945 22 4.74824 21.9558C4.18614 21.9099 3.66944 21.8113 3.1841 21.564C2.43145 21.1805 1.81953 20.5686 1.43604 19.816C1.18875 19.3306 1.09018 18.8139 1.04426 18.2518C1.00004 17.7106 1.00005 17.0463 1.00006 16.2413V11.6C1.00006 11.0399 1.00006 10.7599 1.10906 10.546C1.20493 10.3578 1.35791 10.2049 1.54607 10.109C1.75999 10 2.04001 10 2.60006 10H21.4001C21.9601 10 22.2401 10 22.4541 10.109C22.6422 10.2049 22.7952 10.3578 22.8911 10.546C23.0001 10.7599 23.0001 11.04 23.0001 11.6ZM6.70717 12.2929C6.31664 11.9024 5.68348 11.9024 5.29295 12.2929C4.90243 12.6834 4.90243 13.3166 5.29295 13.7071L7.08585 15.5L5.29295 17.2929C4.90243 17.6834 4.90243 18.3166 5.29295 18.7071C5.68348 19.0976 6.31664 19.0976 6.70717 18.7071L9.20717 16.2071C9.59769 15.8166 9.59769 15.1834 9.20717 14.7929L6.70717 12.2929ZM11.0001 17C10.4478 17 10.0001 17.4477 10.0001 18C10.0001 18.5523 10.4478 19 11.0001 19H15.0001C15.5523 19 16.0001 18.5523 16.0001 18C16.0001 17.4477 15.5523 17 15.0001 17H11.0001Z" fill="#1B2631"/>
</svg>
