<svg width="24" height="24" viewBox="0 0 24 24" fill="none" xmlns="http://www.w3.org/2000/svg">
<path d="M7.99994 1C7.44766 1 6.99994 1.44772 6.99994 2C6.99994 2.55228 7.44766 3 7.99994 3H10.9999V4H8.75864C7.95369 3.99999 7.28931 3.99998 6.74812 4.0442C6.18602 4.09012 5.66932 4.18868 5.18398 4.43598C4.43133 4.81947 3.81941 5.43139 3.43592 6.18404C3.18863 6.66938 3.09006 7.18608 3.04414 7.74818C3.02641 7.96509 3.01525 8.18248 3.00834 8.40011C2.99112 8.9422 2.9825 9.21324 3.0889 9.43407C3.18057 9.62432 3.34008 9.78898 3.52732 9.88664C3.74466 10 4.02975 10 4.59994 10H19.3999C19.9701 10 20.2552 10 20.4726 9.88664C20.6598 9.78898 20.8193 9.62432 20.911 9.43407C21.0174 9.21325 21.0088 8.9422 20.9915 8.40011C20.9846 8.18248 20.9735 7.96509 20.9557 7.74818C20.9098 7.18608 20.8113 6.66938 20.564 6.18404C20.1805 5.43139 19.5686 4.81947 18.8159 4.43598C18.3306 4.18868 17.8139 4.09012 17.2518 4.0442C16.7106 3.99998 16.0462 3.99999 15.2412 4H12.9999V3H15.9999C16.5522 3 16.9999 2.55228 16.9999 2C16.9999 1.44772 16.5522 1 15.9999 1H7.99994Z" fill="#1B2631"/>
<path d="M9.49994 21C8.94766 21 8.49994 21.4477 8.49994 22C8.49994 22.5523 8.94766 23 9.49994 23H14.4999C15.0522 23 15.4999 22.5523 15.4999 22C15.4999 21.4477 15.0522 21 14.4999 21H9.49994Z" fill="#1B2631"/>
<path fill-rule="evenodd" clip-rule="evenodd" d="M16.3787 19.9939C16.0355 20 15.6572 20 15.2413 20H8.75862C8.34274 20 7.96432 20 7.6211 19.9939L6.39434 22.4474C6.14735 22.9414 5.54668 23.1416 5.0527 22.8946C4.55872 22.6477 4.3585 22.047 4.60549 21.553L5.52559 19.7128C5.40993 19.6704 5.29612 19.6212 5.18398 19.564C4.43133 19.1805 3.81941 18.5686 3.43592 17.816C3.18863 17.3306 3.09006 16.8139 3.04414 16.2518C2.99992 15.7106 2.99993 15.0463 2.99994 14.2413V13.6C2.99994 13.0399 2.99994 12.7599 3.10893 12.546C3.20481 12.3578 3.35779 12.2049 3.54595 12.109C3.75986 12 4.03989 12 4.59994 12H19.3999C19.96 12 20.24 12 20.4539 12.109C20.6421 12.2049 20.7951 12.3578 20.8909 12.546C20.9999 12.7599 20.9999 13.0399 20.9999 13.6V14.2413C21 15.0463 21 15.7106 20.9557 16.2518C20.9098 16.8139 20.8113 17.3306 20.564 17.816C20.1805 18.5686 19.5686 19.1805 18.8159 19.564C18.7038 19.6212 18.5899 19.6704 18.4742 19.7128L19.3943 21.553C19.6413 22.047 19.4411 22.6477 18.9471 22.8946C18.4532 23.1416 17.8525 22.9414 17.6055 22.4474L16.3787 19.9939ZM8.49994 14C7.67151 14 6.99994 14.6716 6.99994 15.5C6.99994 16.3284 7.67151 17 8.49994 17C9.32837 17 9.99994 16.3284 9.99994 15.5C9.99994 14.6716 9.32837 14 8.49994 14ZM15.4999 14C14.6715 14 13.9999 14.6716 13.9999 15.5C13.9999 16.3284 14.6715 17 15.4999 17C16.3284 17 16.9999 16.3284 16.9999 15.5C16.9999 14.6716 16.3284 14 15.4999 14Z" fill="#1B2631"/>
</svg>
