<svg width="24" height="24" viewBox="0 0 24 24" fill="none" xmlns="http://www.w3.org/2000/svg">
<path fill-rule="evenodd" clip-rule="evenodd" d="M8.97834 1H8.63313C8.61356 1 8.59425 0.999996 8.57519 0.999991C8.20837 0.999888 7.93093 0.999811 7.65362 1.03863C7.40855 1.07294 7.1672 1.12992 6.93266 1.20883C6.66727 1.29812 6.41915 1.42227 6.0911 1.5864C6.07405 1.59494 6.05679 1.60358 6.03929 1.61232L5.05279 2.10557C4.55881 2.35256 4.35858 2.95324 4.60557 3.44722C4.85256 3.94119 5.45324 4.14142 5.94721 3.89443L6.93372 3.40118C7.33557 3.20025 7.45349 3.14376 7.57043 3.10442C7.6877 3.06496 7.80838 3.03647 7.93091 3.01932C8.02656 3.00593 8.12743 3.00167 8.38219 3.00044L9.38197 5L8.7587 5C7.95373 4.99999 7.28937 4.99998 6.74817 5.0442C6.18608 5.09012 5.66937 5.18868 5.18404 5.43598C4.43139 5.81947 3.81947 6.43139 3.43597 7.18404C3.18868 7.66937 3.09012 8.18608 3.04419 8.74818C2.99998 9.28937 2.99999 9.95373 3 10.7587V15.2413C2.99999 16.0463 2.99998 16.7106 3.04419 17.2518C3.09012 17.8139 3.18868 18.3306 3.43597 18.816C3.81947 19.5686 4.43139 20.1805 5.18404 20.564C5.29618 20.6212 5.40999 20.6704 5.52566 20.7128L5.1057 21.5528C4.85875 22.0468 5.05901 22.6475 5.553 22.8945C6.047 23.1414 6.64766 22.9412 6.89461 22.4472L7.62112 20.9939C7.96437 21 8.34275 21 8.75868 21H15.2413C15.6573 21 16.0357 21 16.3789 20.9939L17.1056 22.4472C17.3526 22.9412 17.9532 23.1414 18.4472 22.8944C18.9412 22.6474 19.1414 22.0468 18.8944 21.5528L18.4744 20.7128C18.5901 20.6703 18.7038 20.6212 18.816 20.564C19.5686 20.1805 20.1805 19.5686 20.564 18.816C20.8113 18.3306 20.9099 17.8139 20.9558 17.2518C21 16.7106 21 16.0463 21 15.2413V10.7587C21 9.95372 21 9.28937 20.9558 8.74818C20.9099 8.18608 20.8113 7.66937 20.564 7.18404C20.1805 6.43139 19.5686 5.81947 18.816 5.43598C18.3306 5.18868 17.8139 5.09012 17.2518 5.0442C16.7106 4.99998 16.0463 4.99999 15.2413 5L14.618 5L15.6178 3.00044C15.8726 3.00166 15.9734 3.00593 16.0691 3.01932C16.1916 3.03647 16.3123 3.06496 16.4296 3.10441C16.5465 3.14376 16.6644 3.20025 17.0663 3.40118L18.0528 3.89443C18.5468 4.14142 19.1474 3.94119 19.3944 3.44722C19.6414 2.95324 19.4412 2.35256 18.9472 2.10557L17.9607 1.61232C17.9432 1.60357 17.9259 1.59493 17.9089 1.5864C17.5808 1.42227 17.3327 1.29812 17.0673 1.20883C16.8328 1.12992 16.5914 1.07294 16.3464 1.03863C16.0691 0.999811 15.7916 0.999888 15.4248 0.999991C15.4057 0.999996 15.3864 1 15.3669 1H15.0217C15.0077 0.999709 14.9938 0.99971 14.9799 1H9.02012C9.00621 0.99971 8.99228 0.999709 8.97834 1ZM13.382 3H10.618L11.618 5H12.382L13.382 3ZM10.9799 7C10.9938 7.00029 11.0077 7.00029 11.0217 7H12.9783C12.9923 7.00029 13.0062 7.00029 13.0201 7H15.2C16.0566 7 16.6389 7.00078 17.089 7.03755C17.5274 7.07337 17.7516 7.1383 17.908 7.21799C18.2843 7.40974 18.5903 7.7157 18.782 8.09202C18.8617 8.24842 18.9266 8.47262 18.9624 8.91104C18.9992 9.36113 19 9.94342 19 10.8V12H5V10.8C5 9.94342 5.00078 9.36113 5.03755 8.91104C5.07337 8.47262 5.1383 8.24842 5.21799 8.09202C5.40973 7.7157 5.7157 7.40974 6.09202 7.21799C6.24842 7.1383 6.47262 7.07337 6.91104 7.03755C7.36113 7.00078 7.94342 7 8.8 7H10.9799ZM5 14V15.2C5 16.0566 5.00078 16.6389 5.03755 17.089C5.07337 17.5274 5.1383 17.7516 5.21799 17.908C5.40973 18.2843 5.7157 18.5903 6.09202 18.782C6.24842 18.8617 6.47262 18.9266 6.91104 18.9625C7.36113 18.9992 7.94342 19 8.8 19H15.2C16.0566 19 16.6389 18.9992 17.089 18.9625C17.5274 18.9266 17.7516 18.8617 17.908 18.782C18.2843 18.5903 18.5903 18.2843 18.782 17.908C18.8617 17.7516 18.9266 17.5274 18.9624 17.089C18.9992 16.6389 19 16.0566 19 15.2V14H5ZM7 16.5C7 15.6716 7.67157 15 8.5 15C9.32843 15 10 15.6716 10 16.5C10 17.3284 9.32843 18 8.5 18C7.67157 18 7 17.3284 7 16.5ZM14 16.5C14 15.6716 14.6716 15 15.5 15C16.3284 15 17 15.6716 17 16.5C17 17.3284 16.3284 18 15.5 18C14.6716 18 14 17.3284 14 16.5Z" fill="#1B2631"/>
</svg>
