<svg width="24" height="24" viewBox="0 0 24 24" fill="none" xmlns="http://www.w3.org/2000/svg">
<path fill-rule="evenodd" clip-rule="evenodd" d="M8.5751 1.00001C8.20829 0.999908 7.93084 0.99983 7.65354 1.03865C7.40847 1.07296 7.16712 1.12994 6.93258 1.20885C6.66718 1.29814 6.41907 1.42229 6.09103 1.58642L5.0527 2.10559C4.55872 2.35258 4.3585 2.95326 4.60549 3.44723C4.85248 3.94121 5.45315 4.14144 5.94713 3.89445L6.93363 3.4012C7.33549 3.20027 7.4534 3.14378 7.57035 3.10443C7.68762 3.06498 7.8083 3.03649 7.93083 3.01934C8.02646 3.00595 8.12732 3.00169 8.38201 3.00046L9.38177 5H8.75864C7.95369 4.99999 7.28931 4.99998 6.74812 5.0442C6.18602 5.09012 5.66932 5.18868 5.18398 5.43598C4.43133 5.81947 3.81941 6.43139 3.43592 7.18404C3.18863 7.66938 3.09006 8.18608 3.04414 8.74818C3.02641 8.96509 3.01525 9.18248 3.00834 9.40011C2.99112 9.9422 2.9825 10.2132 3.0889 10.4341C3.18057 10.6243 3.34008 10.789 3.52732 10.8866C3.74466 11 4.02975 11 4.59994 11H19.3999C19.9701 11 20.2552 11 20.4726 10.8866C20.6598 10.789 20.8193 10.6243 20.911 10.4341C21.0174 10.2132 21.0088 9.9422 20.9915 9.40011C20.9846 9.18248 20.9735 8.96509 20.9557 8.74818C20.9098 8.18608 20.8113 7.66938 20.564 7.18404C20.1805 6.43139 19.5686 5.81947 18.8159 5.43598C18.3306 5.18868 17.8139 5.09012 17.2518 5.0442C16.7106 4.99998 16.0462 4.99999 15.2412 5H14.6181L15.6178 3.00046C15.8725 3.00169 15.9734 3.00595 16.069 3.01934C16.1915 3.03649 16.3122 3.06498 16.4295 3.10443C16.5464 3.14378 16.6643 3.20027 17.0662 3.4012L18.0527 3.89445C18.5467 4.14144 19.1474 3.94121 19.3943 3.44723C19.6413 2.95326 19.4411 2.35258 18.9471 2.10559L17.9088 1.58642C17.5808 1.42229 17.3326 1.29814 17.0673 1.20885C16.8327 1.12994 16.5914 1.07296 16.3463 1.03865C16.069 0.99983 15.7915 0.999908 15.4247 1.00001H8.5751ZM12.382 5L13.382 3.00002H10.6179L11.6178 5H12.382Z" fill="#1B2631"/>
<path fill-rule="evenodd" clip-rule="evenodd" d="M16.3787 20.9939C16.0355 21 15.6572 21 15.2413 21H8.75862C8.34277 21 7.96437 21 7.62117 20.9939L6.89455 22.4474C6.6476 22.9414 6.04694 23.1416 5.55294 22.8947C5.05895 22.6477 4.85869 22.0471 5.10564 21.5531L5.52569 20.7128C5.41 20.6704 5.29615 20.6212 5.18398 20.564C4.43133 20.1805 3.81941 19.5686 3.43592 18.816C3.18863 18.3306 3.09006 17.8139 3.04414 17.2518C2.99992 16.7106 2.99993 16.0463 2.99994 15.2413V14.6C2.99994 14.0399 2.99994 13.7599 3.10893 13.546C3.20481 13.3578 3.35779 13.2049 3.54595 13.109C3.75986 13 4.03989 13 4.59994 13H19.3999C19.96 13 20.24 13 20.4539 13.109C20.6421 13.2049 20.7951 13.3578 20.8909 13.546C20.9999 13.7599 20.9999 14.0399 20.9999 14.6V15.2413C21 16.0463 21 16.7106 20.9557 17.2518C20.9098 17.8139 20.8113 18.3306 20.564 18.816C20.1805 19.5686 19.5686 20.1805 18.8159 20.564C18.7038 20.6212 18.5899 20.6704 18.4742 20.7128L18.8943 21.553C19.1413 22.047 18.9411 22.6477 18.4471 22.8946C17.9532 23.1416 17.3525 22.9414 17.1055 22.4474L16.3787 20.9939ZM8.49994 15C7.67151 15 6.99994 15.6716 6.99994 16.5C6.99994 17.3284 7.67151 18 8.49994 18C9.32837 18 9.99994 17.3284 9.99994 16.5C9.99994 15.6716 9.32837 15 8.49994 15ZM15.4999 15C14.6715 15 13.9999 15.6716 13.9999 16.5C13.9999 17.3284 14.6715 18 15.4999 18C16.3284 18 16.9999 17.3284 16.9999 16.5C16.9999 15.6716 16.3284 15 15.4999 15Z" fill="#1B2631"/>
</svg>
