<svg width="24" height="24" viewBox="0 0 24 24" fill="none" xmlns="http://www.w3.org/2000/svg">
<path fill-rule="evenodd" clip-rule="evenodd" d="M8.00022 2C8.55251 2 9.00022 2.44772 9.00022 3V4H14.0002C14.5525 4 15.0002 4.44772 15.0002 5C15.0002 5.55228 14.5525 6 14.0002 6H12.3285C11.8162 8.42693 10.8752 10.6671 9.565 12.6367C9.85032 12.8123 10.1339 12.9638 10.41 13.0878C10.9138 13.3142 11.1387 13.906 10.9124 14.4098C10.6861 14.9136 10.0942 15.1385 9.59041 14.9122C9.17766 14.7267 8.76596 14.501 8.3636 14.244C6.75657 16.1638 4.75762 17.7464 2.44525 18.8955C1.95067 19.1413 1.35049 18.9396 1.10471 18.445C0.858922 17.9505 1.06061 17.3503 1.55519 17.1045C3.59445 16.0911 5.35501 14.7039 6.77505 13.0255C5.63612 11.9944 4.63971 10.7161 4.07907 9.38919C3.86412 8.88045 4.10229 8.29379 4.61103 8.07884C5.11977 7.8639 5.70643 8.10207 5.92138 8.61081C6.32645 9.56955 7.07354 10.5659 7.97625 11.413C9.03044 9.79868 9.81343 7.9769 10.2793 6H2.00022C1.44794 6 1.00022 5.55228 1.00022 5C1.00022 4.44772 1.44794 4 2.00022 4H7.00022V3C7.00022 2.44772 7.44794 2 8.00022 2ZM15.8479 9.30812C16.26 9.10912 16.7404 9.10912 17.1525 9.30812C17.511 9.48122 17.7053 9.78284 17.8019 9.94515C17.903 10.1152 18.0068 10.3322 18.1087 10.5455L22.9024 20.5685C23.1406 21.0668 22.9299 21.6638 22.4317 21.9021C21.9334 22.1404 21.3364 21.9297 21.0981 21.4315L19.457 18H13.5435L11.9024 21.4315C11.6641 21.9297 11.067 22.1404 10.5688 21.9021C10.0705 21.6638 9.8598 21.0668 10.0981 20.5685L14.8764 10.5776C14.8815 10.5669 14.8866 10.5562 14.8917 10.5455C14.9936 10.3323 15.0974 10.1152 15.1986 9.94515C15.2951 9.78284 15.4895 9.48122 15.8479 9.30812ZM14.5 16H18.5004L16.5002 11.8177L14.5 16Z" fill="white"/>
</svg>
