<svg width="24" height="24" viewBox="0 0 24 24" fill="none" xmlns="http://www.w3.org/2000/svg">
<path d="M11.293 2.29289C11.6835 1.90237 12.3166 1.90237 12.7072 2.29289L17.7072 7.29289C18.0977 7.68342 18.0977 8.31658 17.7072 8.70711C17.3166 9.09763 16.6835 9.09763 16.293 8.70711L13.0001 5.41421L13.0001 15C13.0001 15.5523 12.5523 16 12.0001 16C11.4478 16 11.0001 15.5523 11.0001 15L11.0001 5.41421L7.70717 8.70711C7.31664 9.09763 6.68348 9.09763 6.29295 8.70711C5.90243 8.31658 5.90243 7.68342 6.29295 7.29289L11.293 2.29289Z" fill="white"/>
<path d="M8.00009 14C8.55236 14 9.00006 14.4477 9.00006 15C9.00006 16.6569 10.3432 18 12.0001 18C13.6569 18 15.0001 16.6569 15.0001 15C15.0001 14.4477 15.4478 14 16 14H18.6672C18.9717 13.9998 19.2337 13.9997 19.4694 14.037C20.753 14.2403 21.7598 15.2471 21.9631 16.5308C22.0004 16.7664 22.0003 17.0284 22.0001 17.333L22.0001 17.4827C22.0002 17.9596 22.0003 18.3131 21.9508 18.6258C21.6797 20.3374 20.3374 21.6797 18.6258 21.9508C18.313 22.0003 17.9595 22.0002 17.4826 22.0001H6.51754C6.04056 22.0002 5.68707 22.0003 5.37432 21.9508C3.66275 21.6797 2.32039 20.3374 2.0493 18.6258C1.99977 18.313 1.99988 17.9595 2.00004 17.4826L2.00003 17.3329C1.99983 17.0284 1.99967 16.7664 2.03699 16.5308C2.24031 15.2471 3.24707 14.2403 4.53075 14.037C4.76641 13.9997 5.02842 13.9998 5.33295 14H8.00009Z" fill="white"/>
</svg>
