<svg width="24" height="24" viewBox="0 0 24 24" fill="none" xmlns="http://www.w3.org/2000/svg">
<path fill-rule="evenodd" clip-rule="evenodd" d="M10.0001 4C8.06709 4 6.50008 5.567 6.50008 7.5C6.50008 9.433 8.06709 11 10.0001 11C11.9331 11 13.5001 9.433 13.5001 7.5C13.5001 5.567 11.9331 4 10.0001 4ZM4.50008 7.5C4.50008 4.46243 6.96252 2 10.0001 2C13.0376 2 15.5001 4.46243 15.5001 7.5C15.5001 10.5376 13.0376 13 10.0001 13C6.96252 13 4.50008 10.5376 4.50008 7.5ZM18.043 10.0429C19.1239 8.96201 20.8763 8.962 21.9572 10.0429C23.0381 11.1237 23.0381 12.8763 21.9572 13.9572L15.5004 20.4139C15.493 20.4213 15.4854 20.4289 15.4777 20.4366C15.3926 20.5221 15.2853 20.6297 15.1598 20.7219C15.0507 20.802 14.9337 20.8708 14.8107 20.9272C14.6692 20.9922 14.523 21.0337 14.4069 21.0667C14.3964 21.0696 14.3862 21.0726 14.3762 21.0754L11.2748 21.9615C10.9256 22.0613 10.5498 21.9639 10.293 21.7071C10.0362 21.4503 9.93879 21.0745 10.0386 20.7253L10.9247 17.6239C10.9275 17.6139 10.9304 17.6036 10.9334 17.5931C10.9664 17.4771 11.0079 17.3309 11.0728 17.1894C11.1293 17.0664 11.1981 16.9494 11.2782 16.8403C11.3704 16.7148 11.478 16.6075 11.5635 16.5224C11.5712 16.5146 11.5788 16.5071 11.5861 16.4997L18.043 10.0429ZM20.543 11.4571C20.2432 11.1573 19.757 11.1573 19.4572 11.4571L13.0004 17.9139C12.9417 17.9725 12.9131 18.0014 12.8928 18.0229C12.8923 18.0234 12.8918 18.0239 12.8914 18.0244C12.8912 18.0251 12.8909 18.0257 12.8907 18.0264C12.8817 18.0546 12.8705 18.0937 12.8477 18.1734L12.4561 19.544L13.8267 19.1524C13.9064 19.1296 13.9455 19.1183 13.9737 19.1094C13.9744 19.1091 13.975 19.1089 13.9757 19.1087C13.9761 19.1083 13.9766 19.1078 13.9772 19.1073C13.9987 19.087 14.0275 19.0583 14.0861 18.9997L20.543 12.5429C20.8429 12.2431 20.8429 11.7569 20.543 11.4571ZM7.32635 14.5C7.38341 14.5 7.44132 14.5 7.50009 14.5H9.00008C9.55237 14.5 10.0001 14.9477 10.0001 15.5C10.0001 16.0523 9.55237 16.5 9.00008 16.5H7.50009C6.03177 16.5 5.51929 16.5109 5.12923 16.6292C4.17042 16.92 3.42011 17.6703 3.12926 18.6291C3.01094 19.0192 3.00008 19.5317 3.00008 21C3.00008 21.5523 2.55237 22 2.00008 22C1.4478 22 1.00008 21.5523 1.00008 21C1.00008 20.9412 1.00006 20.8833 1.00004 20.8263C0.999587 19.599 0.999277 18.761 1.21538 18.0486C1.70013 16.4506 2.95065 15.2 4.54866 14.7153C5.26106 14.4992 6.09908 14.4995 7.32635 14.5Z" fill="white"/>
</svg>
