<svg width="24" height="24" viewBox="0 0 24 24" fill="none" xmlns="http://www.w3.org/2000/svg">
<path fill-rule="evenodd" clip-rule="evenodd" d="M9.49985 4C7.56685 4 5.99985 5.567 5.99985 7.5C5.99985 9.433 7.56685 11 9.49985 11C11.4328 11 12.9998 9.433 12.9998 7.5C12.9998 5.567 11.4328 4 9.49985 4ZM3.99985 7.5C3.99985 4.46243 6.46228 2 9.49985 2C12.5374 2 14.9998 4.46243 14.9998 7.5C14.9998 10.5376 12.5374 13 9.49985 13C6.46228 13 3.99985 10.5376 3.99985 7.5ZM15.1043 3.02273C15.3501 2.52815 15.9503 2.32646 16.4449 2.57225C18.2534 3.47103 19.4998 5.33904 19.4998 7.5C19.4998 9.66096 18.2534 11.529 16.4449 12.4278C15.9503 12.6735 15.3501 12.4719 15.1043 11.9773C14.8585 11.4827 15.0602 10.8825 15.5548 10.6367C16.7097 10.0628 17.4998 8.87276 17.4998 7.5C17.4998 6.12724 16.7097 4.9372 15.5548 4.36327C15.0602 4.11749 14.8585 3.51731 15.1043 3.02273ZM9.49985 16C7.05324 16 4.82949 17.3334 3.39138 19.4927C3.302 19.6269 3.23342 19.73 3.17653 19.8203C3.13177 19.8915 3.10171 19.9431 3.08109 19.982C3.22723 19.9985 3.43489 20 3.8222 20H15.1775C15.5648 20 15.7725 19.9985 15.9186 19.982C15.898 19.9431 15.8679 19.8915 15.8232 19.8203C15.7663 19.73 15.6977 19.6269 15.6083 19.4927C14.1702 17.3334 11.9464 16 9.49985 16ZM1.72678 18.384C3.47728 15.7557 6.28519 14 9.49985 14C12.7145 14 15.5224 15.7557 17.2729 18.384C17.2809 18.396 17.2889 18.408 17.297 18.4201C17.4506 18.6506 17.6144 18.8964 17.7289 19.13C17.8668 19.4111 17.9658 19.7341 17.9426 20.1198C17.9242 20.4275 17.8221 20.7129 17.7008 20.9395C17.5794 21.1661 17.3984 21.4093 17.1526 21.5952C16.8233 21.8442 16.4684 21.9315 16.1547 21.968C15.8785 22.0001 15.5513 22.0001 15.2218 22C15.207 22 15.1923 22 15.1775 22H3.8222C3.80744 22 3.79267 22 3.77791 22C3.44837 22.0001 3.12123 22.0001 2.84499 21.968C2.53129 21.9315 2.1764 21.8442 1.84709 21.5952L2.45029 20.7976M17.1063 15.388C17.3542 14.8945 17.9552 14.6954 18.4487 14.9433C20.0832 15.7644 21.4648 17.0715 22.4647 18.6822C22.4758 18.7001 22.4873 18.7185 22.4991 18.7373C22.6477 18.9747 22.8417 19.2845 22.9051 19.6937C22.9784 20.1665 22.8501 20.6186 22.6589 20.9624C22.4676 21.3061 22.1512 21.6536 21.7108 21.8407C21.3275 22.0036 20.9133 22.0017 20.5875 22.0003C20.5575 22.0001 20.5283 22 20.4998 22C19.9476 22 19.4998 21.5523 19.4998 21C19.4998 20.4477 19.9476 20 20.4998 20C20.715 20 20.8282 19.9994 20.9089 19.9939C20.9096 19.9927 20.9103 19.9914 20.911 19.9902C20.9122 19.9881 20.9133 19.986 20.9144 19.984C20.905 19.9669 20.8923 19.9446 20.8747 19.9151C20.8461 19.867 20.812 19.8119 20.7655 19.737C19.9432 18.4124 18.8283 17.3722 17.551 16.7305C17.0574 16.4826 16.8583 15.8815 17.1063 15.388ZM1.72678 18.384C1.7188 18.396 1.71078 18.408 1.70273 18.4201L1.72678 18.384ZM1.70273 18.4201C1.54911 18.6506 1.3853 18.8964 1.27077 19.13L1.70273 18.4201ZM1.27077 19.13C1.13292 19.4111 1.03392 19.7341 1.05708 20.1198L1.27077 19.13ZM1.05708 20.1198C1.07554 20.4275 1.1776 20.7129 1.29894 20.9395L1.05708 20.1198ZM1.29894 20.9395C1.42028 21.1661 1.60126 21.4093 1.84709 21.5952L1.29894 20.9395Z" fill="white"/>
</svg>
