<svg width="24" height="24" viewBox="0 0 24 24" fill="none" xmlns="http://www.w3.org/2000/svg">
<path fill-rule="evenodd" clip-rule="evenodd" d="M8.78603 14.5C10.9287 14.5005 13.0713 14.5005 15.214 14.5C15.9407 14.4998 16.4358 14.4997 16.8683 14.576C18.9383 14.941 20.559 16.5617 20.9241 18.6318C21.0003 19.0642 21.0002 19.5593 21 20.286C21 20.4444 21.0049 20.6038 20.9772 20.7605C20.8677 21.3815 20.3815 21.8677 19.7605 21.9772C19.6243 22.0012 19.4809 22.0005 19.4095 22.0001C14.4704 21.9736 9.52968 21.9736 4.59053 22.0001C4.51917 22.0005 4.37572 22.0012 4.23954 21.9772C3.61853 21.8677 3.13231 21.3815 3.02281 20.7605C2.99518 20.6038 3.00004 20.4444 3 20.286C2.99984 19.5593 2.99973 19.0642 3.07598 18.6318C3.44099 16.5617 5.06172 14.941 7.13177 14.576C7.56418 14.4997 8.05935 14.4998 8.78603 14.5Z" fill="white"/>
<path fill-rule="evenodd" clip-rule="evenodd" d="M6.50002 7.5C6.50002 4.46243 8.96245 2 12 2C15.0376 2 17.5 4.46243 17.5 7.5C17.5 10.5376 15.0376 13 12 13C8.96245 13 6.50002 10.5376 6.50002 7.5Z" fill="white"/>
</svg>
