<svg width="24" height="24" viewBox="0 0 24 24" fill="none" xmlns="http://www.w3.org/2000/svg">
<path d="M12 23.0001C11.2 23.0001 10.5 22.9001 9.7 22.8001C9.2 22.7001 8.8 22.2001 8.9 21.6001C9 21.1001 9.5 20.7001 10.1 20.8001C10.4 20.9001 10.7 20.9001 11 20.9001V17.9001C10.1 17.7001 9.2 17.4001 8.5 16.9001L6.4 19.0001C6.6 19.2001 6.9 19.4001 7.1 19.5001C7.6 19.8001 7.7 20.4001 7.4 20.9001C7.1 21.4001 6.5 21.5001 6 21.2001C4.7 20.4001 3.6 19.3001 2.8 18.0001C2.5 17.5001 2.6 16.9001 3.1 16.6001C3.6 16.3001 4.2 16.4001 4.5 16.9001C4.7 17.1001 4.8 17.4001 5 17.6001L7.1 15.5001C6.6 14.8001 6.2 13.9001 6.1 13.0001H3.1C3.1 13.3001 3.2 13.6001 3.2 13.9001C3.3 14.4001 3 15.0001 2.4 15.1001C1.9 15.2001 1.3 14.9001 1.2 14.3001C1.1 13.5001 1 12.8001 1 12.0001C1 11.2001 1.1 10.5001 1.2 9.7001C1.3 9.2001 1.8 8.8001 2.4 8.9001C3 9.1001 3.3 9.6001 3.2 10.1001C3.1 10.4001 3.1 10.7001 3.1 11.0001H6.1C6.3 10.1001 6.6 9.2001 7.1 8.5001L5 6.4001C4.8 6.6001 4.6 6.9001 4.5 7.1001C4.1 7.6001 3.5 7.7001 3.1 7.4001C2.6 7.1001 2.5 6.5001 2.8 6.0001C3.6 4.7001 4.7 3.6001 6 2.8001C6.5 2.5001 7.1 2.6001 7.4 3.1001C7.7 3.6001 7.6 4.2001 7.1 4.5001C6.9 4.6001 6.6 4.8001 6.4 5.0001L8.5 7.1001C9.2 6.6001 10.1 6.2001 11 6.1001V3.1001C10.7 3.1001 10.4 3.2001 10.1 3.2001C9.6 3.3001 9.1 3.0001 8.9 2.4001C8.8 1.9001 9.2 1.4001 9.7 1.2001C11.2 0.900098 12.8 0.900098 14.3 1.2001C14.8 1.3001 15.2 1.8001 15.1 2.4001C15 2.9001 14.5 3.3001 13.9 3.2001C13.6 3.1001 13.3 3.1001 13 3.1001V6.1001C13.9 6.3001 14.8 6.6001 15.5 7.1001L17.6 5.0001C17.4 4.8001 17.1 4.6001 16.9 4.5001C16.4 4.2001 16.3 3.6001 16.6 3.1001C16.9 2.6001 17.5 2.5001 18 2.8001C18.6 3.2001 19.2 3.7001 19.7 4.2001C20.2 4.7001 20.7 5.3001 21.1 5.9001C21.4 6.4001 21.3 7.0001 20.8 7.3001C20.3 7.6001 19.7 7.5001 19.4 7.0001C19.2 6.8001 19.1 6.5001 18.9 6.3001L16.8 8.4001C17.3 9.1001 17.7 10.0001 17.8 10.9001H20.8C20.8 10.6001 20.7 10.3001 20.7 10.0001C20.6 9.5001 20.9 8.9001 21.5 8.8001C22 8.7001 22.6 9.0001 22.7 9.6001C22.9 10.3001 22.9 11.1001 22.9 11.9001C22.9 12.7001 22.8 13.4001 22.7 14.2001C22.6 14.7001 22.1 15.1001 21.5 15.0001C21 14.9001 20.6 14.4001 20.7 13.8001C20.8 13.5001 20.8 13.2001 20.8 12.9001H17.8C17.6 13.8001 17.3 14.7001 16.8 15.4001L18.9 17.5001C19.1 17.3001 19.3 17.0001 19.4 16.8001C19.7 16.3001 20.3 16.2001 20.8 16.5001C21.3 16.8001 21.4 17.4001 21.1 17.9001C20.7 18.5001 20.2 19.1001 19.7 19.6001C19.2 20.1001 18.6 20.6001 18 21.0001C17.5 21.3001 16.9 21.2001 16.6 20.7001C16.3 20.2001 16.4 19.6001 16.9 19.3001C17.1 19.1001 17.4 19.0001 17.6 18.8001L15.5 16.7001C14.8 17.2001 13.9 17.6001 13 17.7001V20.7001C13.3 20.7001 13.6 20.6001 13.9 20.6001C14.4 20.5001 15 20.8001 15.1 21.4001C15.2 21.9001 14.9 22.5001 14.3 22.6001C13.5 22.9001 12.8 23.0001 12 23.0001ZM8 12.0001C8 14.2001 9.8 16.0001 12 16.0001C14.2 16.0001 16 14.2001 16 12.0001C16 9.8001 14.2 8.0001 12 8.0001C9.8 8.0001 8 9.8001 8 12.0001Z" fill="white"/>
</svg>
