<svg width="24" height="24" viewBox="0 0 24 24" fill="none" xmlns="http://www.w3.org/2000/svg">
<path fill-rule="evenodd" clip-rule="evenodd" d="M12.5 5.41415L9.67574 8.23841C9.66402 8.25013 9.65202 8.2622 9.63972 8.27456C9.50579 8.40921 9.33714 8.57876 9.13079 8.70521C8.95185 8.81487 8.75676 8.89568 8.55268 8.94467C8.31735 9.00117 8.07821 9.00053 7.8883 9.00002C7.87086 8.99998 7.85383 8.99993 7.83726 8.99993H6.10001C5.80348 8.99993 5.64122 9.00071 5.52464 9.01024C5.52 9.01061 5.5156 9.011 5.51145 9.01138C5.51107 9.01553 5.51069 9.01992 5.51031 9.02457C5.50078 9.14115 5.50001 9.30341 5.50001 9.59993V14.3999C5.50001 14.6965 5.50078 14.8587 5.51031 14.9753C5.51069 14.9799 5.51107 14.9843 5.51145 14.9885C5.5156 14.9889 5.52 14.9893 5.52464 14.9896C5.64122 14.9992 5.80348 14.9999 6.10001 14.9999H7.83726C7.85383 14.9999 7.87086 14.9999 7.8883 14.9998C8.07821 14.9993 8.31735 14.9987 8.55268 15.0552C8.75676 15.1042 8.95185 15.185 9.13079 15.2947C9.33715 15.4211 9.50579 15.5907 9.63972 15.7253C9.65202 15.7377 9.66403 15.7497 9.67574 15.7615L12.5 18.5857V5.41415ZM12.8823 2.71166C13.361 2.67399 13.8288 2.86775 14.1406 3.23287C14.4199 3.55981 14.4642 3.95307 14.4811 4.14396C14.5001 4.35793 14.5 4.62369 14.5 4.89407C14.5 4.90647 14.5 4.91888 14.5 4.9313L14.5 19.1058C14.5 19.3762 14.5001 19.6419 14.4811 19.8559C14.4642 20.0468 14.4199 20.4401 14.1406 20.767C13.8288 21.1321 13.361 21.3259 12.8823 21.2882C12.4537 21.2545 12.1442 21.0078 11.9973 20.8847C11.8326 20.7469 11.6447 20.5589 11.4535 20.3677L8.26153 17.1757C8.1689 17.083 8.1225 17.037 8.08738 17.0049C8.08646 17.0041 8.08557 17.0033 8.08472 17.0025C8.08358 17.0025 8.08238 17.0024 8.08114 17.0023C8.03365 17.0002 7.96826 16.9999 7.83726 16.9999L6.06812 16.9999C5.81574 17 5.56994 17 5.36178 16.983C5.13318 16.9643 4.86345 16.9202 4.59202 16.7819C4.2157 16.5902 3.90974 16.2842 3.71799 15.9079C3.57969 15.6365 3.53563 15.3668 3.51695 15.1382C3.49994 14.93 3.49997 14.6842 3.5 14.4318L3.50001 9.59993C3.50001 9.58929 3.5 9.57866 3.5 9.56803C3.49997 9.31565 3.49994 9.06986 3.51695 8.8617C3.53563 8.63311 3.57969 8.36338 3.71799 8.09195C3.90974 7.71563 4.2157 7.40967 4.59202 7.21792C4.86345 7.07962 5.13318 7.03555 5.36178 7.01688C5.56993 6.99987 5.81572 6.9999 6.06811 6.99993C6.07873 6.99993 6.08936 6.99993 6.10001 6.99993H7.83726C7.96826 6.99993 8.03365 6.99969 8.08114 6.99752C8.08238 6.99747 8.08358 6.99741 8.08472 6.99735C8.08557 6.99658 8.08646 6.99578 8.08738 6.99494C8.1225 6.96289 8.1689 6.91683 8.26153 6.8242L11.4272 3.65851C11.436 3.64973 11.4448 3.64095 11.4535 3.63218C11.6447 3.44097 11.8326 3.25302 11.9973 3.11512C12.1442 2.9921 12.4537 2.7454 12.8823 2.71166ZM17.673 7.17975C18.126 6.86379 18.7493 6.97486 19.0653 7.42783C19.9694 8.72404 20.4998 10.3015 20.4998 11.9999C20.4998 13.6983 19.9694 15.2758 19.0653 16.572C18.7493 17.025 18.126 17.1361 17.673 16.8201C17.22 16.5042 17.109 15.8808 17.4249 15.4278C18.1026 14.4564 18.4998 13.276 18.4998 11.9999C18.4998 10.7238 18.1026 9.54349 17.4249 8.57203C17.109 8.11905 17.22 7.49571 17.673 7.17975Z" fill="#1B2631"/>
</svg>
