<svg width="24" height="24" viewBox="0 0 24 24" fill="none" xmlns="http://www.w3.org/2000/svg">
<path fill-rule="evenodd" clip-rule="evenodd" d="M10 5.41415L7.17574 8.23841C7.16402 8.25013 7.15202 8.2622 7.13972 8.27456C7.00579 8.40921 6.83714 8.57876 6.63079 8.70521C6.45185 8.81487 6.25676 8.89568 6.05268 8.94467C5.81735 9.00117 5.57821 9.00053 5.3883 9.00002C5.37086 8.99998 5.35383 8.99993 5.33726 8.99993H3.60001C3.30348 8.99993 3.14122 9.00071 3.02464 9.01024C3.02 9.01061 3.0156 9.011 3.01145 9.01138C3.01107 9.01553 3.01069 9.01992 3.01031 9.02457C3.00078 9.14115 3.00001 9.30341 3.00001 9.59993V14.3999C3.00001 14.6965 3.00078 14.8587 3.01031 14.9753C3.01069 14.9799 3.01107 14.9843 3.01145 14.9885C3.0156 14.9889 3.02 14.9893 3.02464 14.9896C3.14122 14.9992 3.30348 14.9999 3.60001 14.9999H5.33726C5.35383 14.9999 5.37086 14.9999 5.3883 14.9998C5.57821 14.9993 5.81735 14.9987 6.05268 15.0552C6.25676 15.1042 6.45185 15.185 6.63079 15.2947C6.83715 15.4211 7.00579 15.5907 7.13972 15.7253C7.15202 15.7377 7.16403 15.7497 7.17574 15.7615L10 18.5857V5.41415ZM10.3823 2.71166C10.861 2.67399 11.3288 2.86775 11.6406 3.23287C11.9199 3.55981 11.9642 3.95307 11.9811 4.14396C12.0001 4.35793 12 4.62369 12 4.89407C12 4.90647 12 4.91888 12 4.9313L12 19.1058C12 19.3762 12.0001 19.6419 11.9811 19.8559C11.9642 20.0468 11.9199 20.4401 11.6406 20.767C11.3288 21.1321 10.861 21.3259 10.3823 21.2882C9.95368 21.2545 9.64424 21.0078 9.4973 20.8847C9.33259 20.7469 9.1447 20.5589 8.95355 20.3677L5.76153 17.1757C5.6689 17.083 5.6225 17.037 5.58738 17.0049C5.58646 17.0041 5.58557 17.0033 5.58472 17.0025C5.58358 17.0025 5.58238 17.0024 5.58114 17.0023C5.53365 17.0002 5.46826 16.9999 5.33726 16.9999L3.56812 16.9999C3.31574 17 3.06994 17 2.86178 16.983C2.63318 16.9643 2.36345 16.9202 2.09202 16.7819C1.7157 16.5902 1.40974 16.2842 1.21799 15.9079C1.07969 15.6365 1.03563 15.3668 1.01695 15.1382C0.999943 14.93 0.999973 14.6842 1 14.4318L1.00001 9.59993C1.00001 9.58929 1 9.57866 1 9.56803C0.999973 9.31565 0.999943 9.06986 1.01695 8.8617C1.03563 8.63311 1.07969 8.36338 1.21799 8.09195C1.40974 7.71563 1.7157 7.40967 2.09202 7.21792C2.36345 7.07962 2.63318 7.03555 2.86178 7.01688C3.06993 6.99987 3.31572 6.9999 3.56811 6.99993C3.57873 6.99993 3.58936 6.99993 3.60001 6.99993H5.33726C5.46826 6.99993 5.53365 6.99969 5.58114 6.99752C5.58238 6.99747 5.58358 6.99741 5.58472 6.99735C5.58557 6.99658 5.58646 6.99578 5.58738 6.99494C5.6225 6.96289 5.6689 6.91683 5.76153 6.8242L8.92721 3.65851C8.93599 3.64973 8.94477 3.64095 8.95354 3.63218C9.1447 3.44097 9.33259 3.25302 9.4973 3.11512C9.64424 2.9921 9.95368 2.7454 10.3823 2.71166ZM14 11.9999C14 11.4476 14.4477 10.9999 15 10.9999H22C22.5523 10.9999 23 11.4476 23 11.9999C23 12.5522 22.5523 12.9999 22 12.9999H15C14.4477 12.9999 14 12.5522 14 11.9999Z" fill="#1B2631"/>
</svg>
