<svg width="24" height="24" viewBox="0 0 24 24" fill="none" xmlns="http://www.w3.org/2000/svg">
<path fill-rule="evenodd" clip-rule="evenodd" d="M8.46413 3.5C8.21426 3.5 7.9709 3.6009 7.78862 3.78649C7.60573 3.9727 7.49984 4.22903 7.49984 4.5C7.49984 4.77097 7.60573 5.0273 7.78862 5.21351C7.9707 5.39889 8.21371 5.49977 8.46329 5.5C8.46301 5.5 8.46357 5.5 8.46329 5.5L10.6341 5.5C10.5617 5.32865 10.4784 5.15116 10.3834 4.97527C9.89753 4.07581 9.27381 3.5 8.46413 3.5ZM13.3656 5.5L15.5356 5.5C15.5354 5.5 15.5357 5.5 15.5356 5.5C15.7853 5.49989 16.0289 5.399 16.2111 5.21351C16.394 5.0273 16.4998 4.77097 16.4998 4.5C16.4998 4.22903 16.394 3.9727 16.2111 3.78649C16.0288 3.6009 15.7854 3.5 15.5356 3.5C14.7259 3.5 14.1022 4.07581 13.6163 4.97527C13.5213 5.15116 13.438 5.32865 13.3656 5.5ZM15.5356 7.5C15.5353 7.5 15.5358 7.5 15.5356 7.5H8.46413C8.46363 7.5 8.46313 7.5 8.46263 7.5H6.12101C5.7424 7.5 5.52491 7.50094 5.36945 7.51479C5.36181 7.51548 5.35464 7.51617 5.34793 7.51686C5.34911 7.5235 5.35041 7.53059 5.35185 7.53812C5.38124 7.6914 5.44009 7.90079 5.5441 8.26483L5.75415 9L18.2455 9L18.4556 8.26483C18.5596 7.90079 18.6185 7.6914 18.6478 7.53812C18.6493 7.53059 18.6506 7.5235 18.6518 7.51686C18.645 7.51617 18.6379 7.51548 18.6302 7.51479C18.4748 7.50094 18.2573 7.5 17.8787 7.5H15.5356ZM18.4337 11L5.56603 11L3.99318 13.6214C3.54808 14.3633 3.42496 14.5836 3.3611 14.8042C3.29701 15.0256 3.27167 15.2564 3.28621 15.4864C3.30069 15.7157 3.37308 15.9574 3.64666 16.7782L3.85449 17.4017C4.27488 18.6628 4.41411 19.0274 4.62789 19.283C4.84268 19.5399 5.11852 19.7387 5.43011 19.8612C5.74023 19.9832 6.13009 20 7.45949 20L16.5402 20C17.8696 20 18.2595 19.9832 18.5696 19.8612C18.8812 19.7387 19.157 19.5399 19.3718 19.283C19.5856 19.0274 19.7248 18.6628 20.1452 17.4017L20.353 16.7782C20.6266 15.9574 20.699 15.7157 20.7135 15.4864C20.728 15.2564 20.7027 15.0256 20.6386 14.8042C20.5747 14.5836 20.4516 14.3633 20.0065 13.6214L18.4337 11ZM3.91913 9.85754L3.62105 8.81428C3.6176 8.80219 3.61415 8.79013 3.61071 8.7781C3.5207 8.46318 3.43587 8.1664 3.38761 7.91464C3.33628 7.64687 3.30019 7.31128 3.4015 6.95416C3.53763 6.4743 3.84816 6.06263 4.27215 5.79991C4.5877 5.60439 4.92029 5.5469 5.19186 5.52269C5.33627 5.50982 5.49772 5.50424 5.67001 5.50182C5.55828 5.18262 5.49984 4.84404 5.49984 4.5C5.49984 3.71011 5.80786 2.94902 6.36172 2.38508C6.91619 1.82053 7.67208 1.5 8.46413 1.5C10.2588 1.5 11.3724 2.71845 11.9998 3.77223C12.6273 2.71845 13.7409 1.5 15.5356 1.5C16.3276 1.5 17.0835 1.82053 17.638 2.38508C18.1918 2.94902 18.4998 3.71011 18.4998 4.5C18.4998 4.84404 18.4414 5.18262 18.3297 5.50183C18.502 5.50424 18.6634 5.50982 18.8078 5.52269C19.0794 5.5469 19.412 5.60439 19.7275 5.79991C20.1515 6.06263 20.4621 6.4743 20.5982 6.95416C20.6995 7.31128 20.6634 7.64687 20.6121 7.91464C20.5638 8.1664 20.479 8.46316 20.389 8.77806L20.0806 9.85755L21.7215 12.5924C21.7412 12.6252 21.7606 12.6576 21.7798 12.6895C22.1413 13.2913 22.4143 13.7458 22.5597 14.2481C22.6879 14.6909 22.7386 15.1525 22.7095 15.6125C22.6765 16.1344 22.5086 16.6373 22.2862 17.3033C22.2744 17.3386 22.2625 17.3744 22.2504 17.4106L22.0426 18.0341C22.0235 18.0912 22.0048 18.1475 21.9863 18.2031C21.649 19.2176 21.3952 19.9811 20.906 20.566C20.4764 21.0797 19.9248 21.4774 19.3016 21.7225C18.592 22.0015 17.7874 22.0009 16.7183 22.0001C16.6597 22 16.6004 22 16.5402 22L7.45949 22C7.39931 22 7.33996 22 7.2814 22.0001C6.2123 22.0009 5.40766 22.0015 4.6981 21.7224C4.07492 21.4774 3.52324 21.0797 3.09366 20.566C2.60453 19.9811 2.35066 19.2176 2.01335 18.2031C1.99488 18.1475 1.97615 18.0912 1.95713 18.0341L1.74929 17.4106C1.7372 17.3744 1.72525 17.3386 1.71346 17.3032C1.4911 16.6373 1.32316 16.1344 1.29019 15.6125C1.26112 15.1525 1.31179 14.6909 1.43997 14.2481C1.58535 13.7458 1.8584 13.2913 2.21992 12.6895C2.2391 12.6576 2.25853 12.6252 2.2782 12.5924L3.91913 9.85754Z" fill="#1B2631"/>
</svg>
