<svg width="24" height="24" viewBox="0 0 24 24" fill="none" xmlns="http://www.w3.org/2000/svg">
<path fill-rule="evenodd" clip-rule="evenodd" d="M14.9523 3.60462C14.7785 3.66636 14.544 3.7735 14.1488 3.9559L7.5532 7.00002L15.0002 7.00002V4.50067C15.0002 4.06542 14.9992 3.80761 14.9825 3.62394C14.9815 3.61366 14.9806 3.60408 14.9796 3.59516C14.9711 3.59802 14.962 3.60117 14.9523 3.60462ZM17.0002 7.00002L17.0002 4.46009C17.0003 4.07922 17.0003 3.72806 16.9742 3.4421C16.9471 3.14575 16.8828 2.7719 16.6498 2.43206C16.3437 1.98548 15.8695 1.6821 15.3357 1.59127C14.9295 1.52215 14.5631 1.6204 14.2827 1.72002C14.0121 1.81615 13.6933 1.96334 13.3475 2.12297L4.44019 6.23405C4.40089 6.25219 4.3619 6.27012 4.32323 6.2879C3.76642 6.54398 3.27694 6.76908 2.90339 7.13416C2.57632 7.45381 2.32665 7.84401 2.17349 8.27493C1.99855 8.7671 1.99928 9.30586 2.00011 9.91873C2.00017 9.96128 2.00023 10.0042 2.00023 10.0475V11.0843C2.00023 11.1098 2.00023 11.1356 2.00023 11.1615L2.00023 17.8386C2.00021 18.3657 2.00019 18.8205 2.0308 19.195C2.0631 19.5904 2.13442 19.9836 2.32721 20.362C2.61483 20.9265 3.07377 21.3854 3.63826 21.673C4.01664 21.8658 4.40986 21.9371 4.8052 21.9694C5.17977 22.0001 5.63452 22 6.16166 22H17.8388C18.3659 22 18.8207 22.0001 19.1953 21.9694C19.5906 21.9371 19.9838 21.8658 20.3622 21.673C20.9267 21.3854 21.3856 20.9265 21.6732 20.362C21.866 19.9836 21.9374 19.5904 21.9697 19.195C22.0003 18.8205 22.0002 18.3657 22.0002 17.8386V11.1615C22.0002 10.6343 22.0003 10.1796 21.9697 9.80499C21.9374 9.40965 21.866 9.01643 21.6732 8.63805C21.3856 8.07356 20.9267 7.61462 20.3622 7.327C19.9838 7.13421 19.5906 7.06289 19.1953 7.03059C18.8207 6.99999 18.3659 7 17.8388 7.00002L17.0002 7.00002ZM6.20023 9.00002C5.62368 9.00002 5.2514 9.0008 4.96807 9.02395C4.6964 9.04614 4.59568 9.08382 4.54624 9.10901C4.35808 9.20489 4.2051 9.35787 4.10922 9.54603C4.08403 9.59547 4.04635 9.69619 4.02416 9.96786C4.00101 10.2512 4.00023 10.6235 4.00023 11.2V15C4.00023 14.9999 4.00023 15.0001 4.00023 15L4.00023 17.8C4.00023 18.3766 4.00101 18.7488 4.02416 19.0322C4.04635 19.3038 4.08403 19.4046 4.10922 19.454C4.2051 19.6422 4.35808 19.7952 4.54624 19.891C4.59568 19.9162 4.6964 19.9539 4.96806 19.9761C5.2514 19.9992 5.62368 20 6.20023 20H17.8002C18.3768 20 18.7491 19.9992 19.0324 19.9761C19.3041 19.9539 19.4048 19.9162 19.4542 19.891C19.6424 19.7952 19.7954 19.6422 19.8912 19.454C19.9164 19.4046 19.9541 19.3038 19.9763 19.0322C19.9995 18.7488 20.0002 18.3766 20.0002 17.8V11.2C20.0002 10.6235 19.9995 10.2512 19.9763 9.96786C19.9541 9.69619 19.9164 9.59547 19.8912 9.54603C19.7954 9.35787 19.6424 9.20489 19.4542 9.10901C19.4048 9.08382 19.3041 9.04614 19.0324 9.02395C18.7491 9.0008 18.3768 9.00002 17.8002 9.00002L6.20023 9.00002ZM15.0002 14.5C15.0002 13.6716 15.6718 13 16.5002 13C17.3287 13 18.0002 13.6716 18.0002 14.5C18.0002 15.3284 17.3287 16 16.5002 16C15.6718 16 15.0002 15.3284 15.0002 14.5Z" fill="#1B2631"/>
</svg>
