<svg width="24" height="24" viewBox="0 0 24 24" fill="none" xmlns="http://www.w3.org/2000/svg">
<path fill-rule="evenodd" clip-rule="evenodd" d="M5.67022 5.50183C5.49793 5.50424 5.33647 5.50983 5.19206 5.5227C4.92049 5.54691 4.5879 5.60439 4.27235 5.79992C3.84835 6.06264 3.53783 6.47431 3.4017 6.95416C3.30039 7.31128 3.33648 7.64687 3.38781 7.91465C3.44417 8.20863 3.47234 8.35563 3.55805 8.50292C3.66984 8.69505 3.88143 8.86994 4.09118 8.94356C4.25197 9 4.43374 9 4.79727 9H19.2028C19.5664 9 19.7481 9 19.9089 8.94356C20.1187 8.86994 20.3302 8.69505 20.442 8.50292C20.5277 8.35562 20.5559 8.20863 20.6123 7.91465C20.6636 7.64687 20.6997 7.31128 20.5984 6.95416C20.4623 6.47431 20.1517 6.06264 19.7277 5.79992C19.4122 5.60439 19.0796 5.54691 18.808 5.5227C18.6636 5.50983 18.5022 5.50425 18.3299 5.50183C18.4416 5.18262 18.5001 4.84404 18.5001 4.5C18.5001 3.71011 18.1921 2.94902 17.6382 2.38508C17.0837 1.82053 16.3278 1.5 15.5358 1.5C13.7411 1.5 12.6275 2.71846 12.0001 3.77224C11.3726 2.71846 10.2591 1.5 8.46435 1.5C7.6723 1.5 6.91641 1.82053 6.36194 2.38508C5.80807 2.94902 5.50006 3.71011 5.50006 4.5C5.50006 4.84404 5.55849 5.18262 5.67022 5.50183ZM7.78884 3.78649C7.97112 3.6009 8.21448 3.5 8.46435 3.5C9.27403 3.5 9.89775 4.07581 10.3836 4.97527C10.4786 5.15116 10.5619 5.32865 10.6343 5.5H8.46435C8.21448 5.5 7.97112 5.3991 7.78884 5.21351C7.60595 5.0273 7.50006 4.77097 7.50006 4.5C7.50006 4.22903 7.60595 3.9727 7.78884 3.78649ZM13.3658 5.5C13.4382 5.32865 13.5215 5.15116 13.6165 4.97527C14.1024 4.07581 14.7261 3.5 15.5358 3.5C15.7857 3.5 16.029 3.6009 16.2113 3.78649C16.3942 3.9727 16.5001 4.22903 16.5001 4.5C16.5001 4.77097 16.3942 5.0273 16.2113 5.21351C16.029 5.3991 15.7857 5.5 15.5358 5.5H13.3658Z" fill="#1B2631"/>
<path d="M21.2324 11.7768C21.0624 11.4935 20.9774 11.3519 20.8604 11.249C20.7569 11.158 20.6357 11.0893 20.5043 11.0474C20.3559 11 20.1907 11 19.8604 11H4.13977C3.80943 11 3.64426 11 3.49585 11.0474C3.36452 11.0893 3.24327 11.158 3.13973 11.249C3.02273 11.3519 2.93775 11.4935 2.76779 11.7768L2.22017 12.6895C1.85865 13.2913 1.5856 13.7458 1.44021 14.2481C1.31204 14.6909 1.26136 15.1525 1.29043 15.6125C1.3234 16.1344 1.49135 16.6373 1.7137 17.3032L2.0136 18.2031C2.3509 19.2176 2.60477 19.9811 3.09391 20.566C3.52349 21.0797 4.07516 21.4774 4.69834 21.7224C5.40791 22.0015 6.21255 22.0009 7.28165 22.0001L16.7185 22.0001C17.7876 22.0009 18.5923 22.0015 19.3018 21.7225C19.925 21.4774 20.4767 21.0797 20.9063 20.566C21.3954 19.9811 21.6493 19.2176 21.9866 18.2031L22.2865 17.3032C22.5088 16.6373 22.6768 16.1344 22.7097 15.6125C22.7388 15.1525 22.6881 14.6909 22.56 14.2481C22.4146 13.7459 22.1415 13.2913 21.7801 12.6896L21.2324 11.7768Z" fill="#1B2631"/>
</svg>
