<svg width="24" height="24" viewBox="0 0 24 24" fill="none" xmlns="http://www.w3.org/2000/svg">
<path fill-rule="evenodd" clip-rule="evenodd" d="M10.2619 0.999847C10.3121 0.999924 10.3627 1 10.4138 1H13.5862C13.6373 1 13.6879 0.999924 13.7381 0.999847C14.4503 0.998745 15.075 0.99778 15.6257 1.22271C16.107 1.41929 16.529 1.73757 16.8502 2.14635C17.2178 2.61411 17.3885 3.21502 17.5831 3.90017C17.5968 3.94843 17.6106 3.9971 17.6246 4.04618L17.8453 4.81858C17.8509 4.82136 17.8564 4.82416 17.862 4.82698C18.4265 5.1146 18.8854 5.57354 19.173 6.13803C19.3658 6.51641 19.4371 6.90963 19.4694 7.30497C19.5 7.67955 19.5 8.13432 19.5 8.66148V15.3385C19.5 15.8657 19.5 16.3205 19.4694 16.695C19.4371 17.0904 19.3658 17.4836 19.173 17.862C18.8854 18.4265 18.4265 18.8854 17.862 19.173C17.8564 19.1758 17.8509 19.1786 17.8453 19.1814L17.6246 19.9538C17.6106 20.0029 17.5968 20.0516 17.5831 20.0998C17.3885 20.785 17.2178 21.3859 16.8502 21.8537C16.529 22.2624 16.107 22.5807 15.6257 22.7773C15.075 23.0022 14.4503 23.0013 13.7381 23.0002C13.6879 23.0001 13.6373 23 13.5862 23H10.4138C10.3627 23 10.3121 23.0001 10.262 23.0002C9.5497 23.0013 8.92503 23.0022 8.37429 22.7773C7.89299 22.5807 7.47103 22.2624 7.1498 21.8537C6.78222 21.3859 6.61154 20.785 6.41692 20.0999C6.40322 20.0516 6.38939 20.0029 6.37537 19.9538L6.15468 19.1814C6.14912 19.1786 6.14358 19.1758 6.13803 19.173C5.57354 18.8854 5.1146 18.4265 4.82698 17.862C4.63419 17.4836 4.56287 17.0904 4.53057 16.695C4.49997 16.3205 4.49998 15.8657 4.5 15.3385V8.66146C4.49998 8.13431 4.49997 7.67955 4.53057 7.30497C4.56287 6.90963 4.63419 6.51641 4.82698 6.13803C5.1146 5.57354 5.57354 5.1146 6.13803 4.82698C6.14358 4.82416 6.14913 4.82136 6.15468 4.81858L6.37537 4.04617C6.38939 3.99709 6.40322 3.94841 6.41693 3.90015C6.61154 3.215 6.78222 2.6141 7.1498 2.14635C7.47103 1.73757 7.89299 1.41929 8.37429 1.22271C8.92502 0.99778 9.5497 0.998745 10.2619 0.999847ZM8.32572 4.50031C8.43411 4.49999 8.54605 4.5 8.66146 4.5H15.3385C15.454 4.5 15.5659 4.49999 15.6743 4.50031C15.4343 3.66495 15.3662 3.49476 15.2777 3.38212C15.1706 3.24586 15.0299 3.13977 14.8695 3.07424C14.732 3.01807 14.541 3 13.5862 3H10.4138C9.45901 3 9.26803 3.01807 9.1305 3.07424C8.97007 3.13977 8.82941 3.24586 8.72234 3.38212C8.63381 3.49476 8.56571 3.66494 8.32572 4.50031ZM8.32572 19.4997C8.56571 20.3351 8.63381 20.5052 8.72234 20.6179C8.82941 20.7541 8.97007 20.8602 9.1305 20.9258C9.26803 20.9819 9.45901 21 10.4138 21H13.5862C14.541 21 14.732 20.9819 14.8695 20.9258C15.0299 20.8602 15.1706 20.7541 15.2777 20.6179C15.3662 20.5052 15.4343 20.3351 15.6743 19.4997C15.5659 19.5 15.454 19.5 15.3386 19.5H8.66144C8.54603 19.5 8.4341 19.5 8.32572 19.4997ZM7.46784 6.52393C7.19617 6.54613 7.09546 6.5838 7.04601 6.609C6.85785 6.70487 6.70487 6.85785 6.609 7.04601C6.5838 7.09546 6.54612 7.19618 6.52393 7.46784C6.50078 7.75118 6.5 8.12345 6.5 8.7V15.3C6.5 15.8766 6.50078 16.2488 6.52393 16.5322C6.54612 16.8038 6.5838 16.9045 6.609 16.954C6.70487 17.1422 6.85785 17.2951 7.04601 17.391C7.09546 17.4162 7.19617 17.4539 7.46784 17.4761C7.75117 17.4992 8.12345 17.5 8.7 17.5H15.3C15.8766 17.5 16.2488 17.4992 16.5322 17.4761C16.8038 17.4539 16.9045 17.4162 16.954 17.391C17.1422 17.2951 17.2951 17.1422 17.391 16.954C17.4162 16.9045 17.4539 16.8038 17.4761 16.5322C17.4992 16.2488 17.5 15.8766 17.5 15.3V8.7C17.5 8.12345 17.4992 7.75118 17.4761 7.46784C17.4539 7.19618 17.4162 7.09546 17.391 7.04601C17.2951 6.85785 17.1422 6.70487 16.954 6.609C16.9045 6.5838 16.8038 6.54613 16.5322 6.52393C16.2488 6.50078 15.8766 6.5 15.3 6.5H8.7C8.12345 6.5 7.75118 6.50078 7.46784 6.52393ZM12 8C12.5523 8 13 8.44772 13 9V11.5858L14.2071 12.7929C14.5976 13.1834 14.5976 13.8166 14.2071 14.2071C13.8166 14.5976 13.1834 14.5976 12.7929 14.2071L11.2929 12.7071C11.1054 12.5196 11 12.2652 11 12V9C11 8.44772 11.4477 8 12 8Z" fill="#1B2631"/>
</svg>
