<svg width="24" height="24" viewBox="0 0 24 24" fill="none" xmlns="http://www.w3.org/2000/svg">
<path fill-rule="evenodd" clip-rule="evenodd" d="M12.2192 6.97978C10.05 7.67399 7.57928 8.4647 4.72845 7.66035C4.28568 7.53543 3.75655 7.35016 3.35276 7.2024C3.14768 7.12736 2.9688 7.05972 2.841 7.01077C2.77703 6.98627 2.72567 6.96639 2.69002 6.95251L2.64866 6.93636L2.63327 6.93031C2.1195 6.72767 1.8671 6.14685 2.06974 5.63308C2.27237 5.11933 2.85311 4.86711 3.36686 5.06971L3.37847 5.07427L3.41544 5.08871C3.44805 5.1014 3.49602 5.11998 3.5563 5.14306C3.677 5.18929 3.84632 5.25331 4.04005 5.3242C4.43386 5.46831 4.90473 5.63201 5.27154 5.7355C7.5035 6.36524 9.44517 5.76734 11.6953 5.04753C11.7237 5.03844 11.7522 5.02932 11.7808 5.02019C13.95 4.32599 16.4207 3.53527 19.2715 4.33962C19.7143 4.46455 20.2435 4.64982 20.6472 4.79758C20.8523 4.87262 21.0312 4.94026 21.159 4.9892C21.223 5.0137 21.2743 5.03359 21.31 5.04746L21.3513 5.06361L21.3667 5.06966C21.8805 5.2723 22.1329 5.85313 21.9303 6.3669C21.7276 6.88066 21.1469 7.13288 20.6331 6.93024L20.6215 6.9257L20.5846 6.91127C20.5519 6.89857 20.504 6.88 20.4437 6.85691C20.323 6.81068 20.1537 6.74667 19.96 6.67578C19.5661 6.53167 19.0953 6.36797 18.7285 6.26447C16.4965 5.63474 14.5548 6.23264 12.3047 6.95244C12.2763 6.96154 12.2478 6.97065 12.2192 6.97978ZM12.2192 12.9798C10.05 13.674 7.57928 14.4647 4.72845 13.6604C4.28568 13.5354 3.75655 13.3502 3.35276 13.2024C3.14768 13.1274 2.9688 13.0597 2.841 13.0108C2.77703 12.9863 2.72567 12.9664 2.69002 12.9525L2.64866 12.9364L2.63327 12.9303C2.1195 12.7277 1.8671 12.1468 2.06974 11.6331C2.27237 11.1193 2.85311 10.8671 3.36686 11.0697C3.36685 11.0697 3.36688 11.0697 3.36686 11.0697L3.37847 11.0743L3.41544 11.0887C3.44805 11.1014 3.49602 11.12 3.5563 11.1431C3.677 11.1893 3.84632 11.2533 4.04005 11.3242C4.43386 11.4683 4.90473 11.632 5.27154 11.7355C7.5035 12.3652 9.44517 11.7673 11.6953 11.0475C11.7237 11.0384 11.7522 11.0293 11.7808 11.0202C13.95 10.326 16.4207 9.53527 19.2715 10.3396C19.7143 10.4645 20.2435 10.6498 20.6472 10.7976C20.8523 10.8726 21.0312 10.9403 21.159 10.9892C21.223 11.0137 21.2743 11.0336 21.31 11.0475L21.3513 11.0636L21.3667 11.0697C21.8805 11.2723 22.1329 11.8531 21.9303 12.3669C21.7276 12.8807 21.1469 13.1329 20.6331 12.9302L20.6215 12.9257L20.5846 12.9113C20.5519 12.8986 20.504 12.88 20.4437 12.8569C20.323 12.8107 20.1537 12.7467 19.96 12.6758C19.5661 12.5317 19.0953 12.368 18.7285 12.2645C16.4965 11.6347 14.5548 12.2326 12.3047 12.9524C12.2763 12.9615 12.2478 12.9707 12.2192 12.9798ZM12.2192 18.9798C10.05 19.674 7.57928 20.4647 4.72845 19.6604C4.28568 19.5354 3.75655 19.3502 3.35276 19.2024C3.14768 19.1274 2.9688 19.0597 2.841 19.0108C2.77703 18.9863 2.72567 18.9664 2.69002 18.9525L2.64866 18.9364L2.63444 18.9308L2.63327 18.9303C2.1195 18.7277 1.8671 18.1468 2.06974 17.6331C2.27238 17.1193 2.85312 16.8671 3.36688 17.0697M3.36688 17.0697L3.37847 17.0743L3.41544 17.0887C3.44805 17.1014 3.49602 17.12 3.5563 17.1431C3.677 17.1893 3.84632 17.2533 4.04005 17.3242C4.43386 17.4683 4.90473 17.632 5.27154 17.7355C7.5035 18.3652 9.44517 17.7673 11.6953 17.0475C11.7237 17.0384 11.7522 17.0293 11.7808 17.0202C13.95 16.326 16.4207 15.5353 19.2715 16.3396C19.7143 16.4645 20.2435 16.6498 20.6472 16.7976C20.8523 16.8726 21.0312 16.9403 21.159 16.9892C21.223 17.0137 21.2743 17.0336 21.31 17.0475L21.3513 17.0636L21.3625 17.068L21.3656 17.0692L21.3667 17.0697C21.8805 17.2723 22.1329 17.8531 21.9303 18.3669C21.7276 18.8806 21.1469 19.1329 20.6331 18.9303C20.6331 18.9303 20.6332 18.9303 20.6331 18.9303L20.6215 18.9257L20.5846 18.9113C20.5519 18.8986 20.504 18.88 20.4437 18.8569C20.323 18.8107 20.1537 18.7467 19.96 18.6758C19.5661 18.5317 19.0953 18.368 18.7285 18.2645C16.4965 17.6347 14.5548 18.2326 12.3047 18.9524C12.2763 18.9615 12.2478 18.9707 12.2192 18.9798" fill="#1B2631"/>
</svg>
