<svg width="24" height="24" viewBox="0 0 24 24" fill="none" xmlns="http://www.w3.org/2000/svg">
<path fill-rule="evenodd" clip-rule="evenodd" d="M19 7C18.4078 7 17.8767 7.25615 17.509 7.66691C17.1407 8.07844 16.5085 8.11346 16.097 7.74513C15.6855 7.37681 15.6504 6.74461 16.0188 6.33309C16.7498 5.51635 17.8152 5 19 5C21.2091 5 23 6.79086 23 9C23 11.2091 21.2091 13 19 13H1.99998C1.44769 13 0.999977 12.5523 0.999977 12C0.999977 11.4477 1.44769 11 1.99998 11H19C20.1046 11 21 10.1046 21 9C21 7.89543 20.1046 7 19 7Z" fill="#1B2631"/>
<path fill-rule="evenodd" clip-rule="evenodd" d="M11 5C10.7039 5 10.4389 5.1274 10.2544 5.33358C9.88607 5.74511 9.25388 5.78013 8.84235 5.4118C8.43082 5.04348 8.3958 4.41128 8.76413 3.99975C9.31202 3.3876 10.1114 3 11 3C12.6569 3 14 4.34315 14 6C14 7.65685 12.6569 9 11 9H2C1.44772 9 1 8.55228 1 8C1 7.44772 1.44772 7 2 7H11C11.5523 7 12 6.55229 12 6C12 5.44771 11.5523 5 11 5Z" fill="#1B2631"/>
<path fill-rule="evenodd" clip-rule="evenodd" d="M14 19C13.7039 19 13.4389 18.8726 13.2544 18.6664C12.8861 18.2549 12.2539 18.2199 11.8423 18.5882C11.4308 18.9565 11.3958 19.5887 11.7641 20.0002C12.312 20.6124 13.1114 21 14 21C15.6569 21 17 19.6569 17 18C17 16.3431 15.6569 15 14 15H2C1.44772 15 1 15.4477 1 16C1 16.5523 1.44772 17 2 17H14C14.5523 17 15 17.4477 15 18C15 18.5523 14.5523 19 14 19Z" fill="#1B2631"/>
</svg>
